<svg viewBox="0 0 256 256" xmlns="http://www.w3.org/2000/svg">
<rect fill="black" height="256" width="256" x="0" y="0"/>
<polygon fill="rgb(97,155,168)" fill-opacity="1" points="255,0 255,255 0,197"/>
<polygon fill="rgb(88,125,134)" fill-opacity="1" points="0,255 253,0 0,0"/>
<polygon fill="rgb(31,82,86)" fill-opacity="1" points="251,255 0,196 0,255"/>
<polygon fill="rgb(49,83,93)" fill-opacity="1" points="90,154 127,44 221,195"/>
<polygon fill="rgb(138,180,191)" fill-opacity="1" points="255,0 33,0 59,116"/>
<polygon fill="rgb(196,207,249)" fill-opacity="0.87239206" points="251,53 190,86 163,30"/>
<polygon fill="rgb(113,122,105)" fill-opacity="1" points="71,88 111,21 163,87"/>
<polygon fill="rgb(176,183,240)" fill-opacity="0.80344605" points="168,75 254,94 199,115"/>
<polygon fill="rgb(34,52,56)" fill-opacity="1" points="0,0 67,143 0,255"/>
<polygon fill="rgb(43,70,76)" fill-opacity="1" points="109,173 92,93 173,85"/>
<polygon fill="rgb(143,199,229)" fill-opacity="0.98893964" points="42,178 196,202 214,239"/>
<polygon fill="rgb(63,136,168)" fill-opacity="1" points="55,90 107,153 51,214"/>
<polygon fill="rgb(41,171,177)" fill-opacity="1" points="150,167 255,240 179,255"/>
<polygon fill="rgb(65,92,86)" fill-opacity="1" points="172,87 119,56 128,90"/>
<polygon fill="rgb(33,63,71)" fill-opacity="1" points="19,255 48,85 58,180"/>
<polygon fill="rgb(144,188,188)" fill-opacity="0.9416328" points="255,178 223,0 156,84"/>
<polygon fill="rgb(66,114,141)" fill-opacity="1" points="154,193 214,198 144,155"/>
<polygon fill="rgb(41,70,80)" fill-opacity="1" points="181,164 95,107 166,78"/>
<polygon fill="rgb(180,249,187)" fill-opacity="0.8778554" points="255,53 215,159 248,35"/>
<polygon fill="rgb(161,200,208)" fill-opacity="0.9767823" points="169,42 206,84 200,47"/>
<polygon fill="rgb(195,242,213)" fill-opacity="0.87781847" points="245,96 164,9 213,91"/>
<polygon fill="rgb(135,142,117)" fill-opacity="1" points="37,65 121,29 107,98"/>
<polygon fill="rgb(53,103,111)" fill-opacity="1" points="190,122 181,110 169,123"/>
<polygon fill="rgb(153,204,224)" fill-opacity="1" points="255,28 98,0 254,157"/>
<polygon fill="rgb(74,120,137)" fill-opacity="1" points="105,172 102,159 172,170"/>
<polygon fill="rgb(132,220,250)" fill-opacity="0.98377335" points="114,196 89,211 101,175"/>
<polygon fill="rgb(47,97,112)" fill-opacity="1" points="168,197 226,184 185,142"/>
<polygon fill="rgb(134,181,202)" fill-opacity="1" points="56,92 84,101 87,133"/>
<polygon fill="rgb(197,185,215)" fill-opacity="0.983762" points="98,217 100,167 143,200"/>
<polygon fill="rgb(99,112,84)" fill-opacity="1" points="109,98 92,65 73,83"/>
<polygon fill="rgb(64,123,150)" fill-opacity="1" points="83,104 101,179 116,172"/>
<polygon fill="rgb(79,107,104)" fill-opacity="1" points="154,75 172,93 173,83"/>
<polygon fill="rgb(81,157,187)" fill-opacity="1" points="79,190 108,178 70,108"/>
<polygon fill="rgb(35,62,77)" fill-opacity="1" points="98,91 145,152 102,146"/>
<polygon fill="rgb(132,194,184)" fill-opacity="1" points="253,116 166,137 255,197"/>
<polygon fill="rgb(41,78,92)" fill-opacity="1" points="155,141 183,131 188,181"/>
<polygon fill="rgb(67,137,200)" fill-opacity="0.9605131" points="132,5 238,15 136,10"/>
<polygon fill="rgb(82,102,110)" fill-opacity="1" points="117,58 141,48 145,74"/>
<polygon fill="rgb(60,103,119)" fill-opacity="1" points="164,157 181,196 150,156"/>
<polygon fill="rgb(54,96,110)" fill-opacity="1" points="203,155 210,163 102,163"/>
<polygon fill="rgb(38,70,80)" fill-opacity="1" points="181,130 143,73 138,158"/>
<polygon fill="rgb(45,66,76)" fill-opacity="1" points="132,91 147,150 97,102"/>
<polygon fill="rgb(169,207,255)" fill-opacity="0.99990785" points="75,44 49,47 97,7"/>
<polygon fill="rgb(102,147,170)" fill-opacity="0.819523" points="79,214 96,213 114,228"/>
<polygon fill="rgb(98,147,162)" fill-opacity="1" points="155,167 160,203 125,171"/>
<polygon fill="rgb(67,128,156)" fill-opacity="1" points="94,102 84,102 103,166"/>
<polygon fill="rgb(70,124,136)" fill-opacity="1" points="156,194 154,154 174,198"/>
<polygon fill="rgb(119,179,211)" fill-opacity="1" points="98,217 86,176 71,210"/>
<polygon fill="rgb(13,141,102)" fill-opacity="0.9963851" points="150,245 113,249 41,213"/>
<polygon fill="rgb(65,149,166)" fill-opacity="0.9802505" points="245,187 168,201 155,202"/>
<polygon fill="rgb(61,102,120)" fill-opacity="1" points="155,154 164,163 108,165"/>
<polygon fill="rgb(66,156,157)" fill-opacity="0.97915554" points="118,222 70,218 209,253"/>
<polygon fill="rgb(39,165,188)" fill-opacity="0.8894134" points="196,192 228,216 227,228"/>
<polygon fill="rgb(22,56,48)" fill-opacity="0.99892616" points="59,234 57,205 13,236"/>
<polygon fill="rgb(176,254,240)" fill-opacity="0.95747834" points="58,45 64,28 67,2"/>
<polygon fill="rgb(44,76,78)" fill-opacity="1" points="174,91 137,96 136,88"/>
<polygon fill="rgb(48,180,205)" fill-opacity="1" points="186,186 232,222 245,225"/>
<polygon fill="rgb(45,100,132)" fill-opacity="1" points="93,124 88,101 93,152"/>
<polygon fill="rgb(73,170,219)" fill-opacity="0.9758872" points="239,16 251,0 130,25"/>
<polygon fill="rgb(34,90,118)" fill-opacity="1" points="47,212 53,98 60,171"/>
<polygon fill="rgb(50,72,83)" fill-opacity="1" points="148,139 132,128 137,102"/>
<polygon fill="rgb(33,133,144)" fill-opacity="1" points="254,255 49,206 64,232"/>
<polygon fill="rgb(73,153,191)" fill-opacity="1" points="48,210 84,166 72,211"/>
<polygon fill="rgb(41,82,105)" fill-opacity="1" points="108,164 123,162 100,140"/>
<polygon fill="rgb(48,81,82)" fill-opacity="1" points="117,69 166,88 156,76"/>
<polygon fill="rgb(36,71,75)" fill-opacity="1" points="162,88 138,82 156,102"/>
<polygon fill="rgb(133,141,83)" fill-opacity="1" points="123,86 68,71 127,74"/>
<polygon fill="rgb(72,89,88)" fill-opacity="1" points="92,92 83,82 100,78"/>
<polygon fill="rgb(38,112,136)" fill-opacity="1" points="161,191 203,196 232,181"/>
<polygon fill="rgb(115,131,119)" fill-opacity="0.9858862" points="163,71 164,66 160,59"/>
<polygon fill="rgb(196,199,179)" fill-opacity="0.97889805" points="85,69 67,21 85,59"/>
<polygon fill="rgb(167,155,140)" fill-opacity="1" points="113,66 108,26 81,66"/>
<polygon fill="rgb(40,82,96)" fill-opacity="1" points="173,178 177,140 212,180"/>
<polygon fill="rgb(73,145,175)" fill-opacity="1" points="73,148 105,174 101,154"/>
<polygon fill="rgb(52,126,158)" fill-opacity="1" points="69,133 51,199 77,163"/>
<polygon fill="rgb(43,77,94)" fill-opacity="1" points="172,119 160,118 171,101"/>
<polygon fill="rgb(106,84,92)" fill-opacity="0.87663436" points="26,27 6,43 22,11"/>
<polygon fill="rgb(89,55,65)" fill-opacity="0.96621096" points="12,27 35,81 23,7"/>
<polygon fill="rgb(37,62,73)" fill-opacity="1" points="131,122 129,103 135,94"/>
<polygon fill="rgb(34,167,199)" fill-opacity="0.95715845" points="172,241 165,235 164,212"/>
<polygon fill="rgb(83,124,86)" fill-opacity="0.981882" points="27,27 6,2 42,33"/>
<polygon fill="rgb(34,58,73)" fill-opacity="1" points="115,104 121,153 97,113"/>
<polygon fill="rgb(9,137,127)" fill-opacity="0.87706196" points="184,238 164,226 137,227"/>
<polygon fill="rgb(182,206,218)" fill-opacity="0.9971901" points="208,147 234,42 198,80"/>
<polygon fill="rgb(126,106,103)" fill-opacity="1" points="86,39 97,40 93,67"/>
<polygon fill="rgb(61,77,83)" fill-opacity="1" points="92,96 99,96 121,104"/>
<polygon fill="rgb(110,185,214)" fill-opacity="0.9487463" points="190,106 215,147 191,136"/>
<polygon fill="rgb(58,106,128)" fill-opacity="1" points="108,153 109,176 101,146"/>
<polygon fill="rgb(44,173,166)" fill-opacity="0.92189467" points="209,228 134,225 221,255"/>
<polygon fill="rgb(51,80,104)" fill-opacity="1" points="143,159 114,159 186,149"/>
<polygon fill="rgb(51,62,21)" fill-opacity="0.9309609" points="31,190 53,240 11,239"/>
<polygon fill="rgb(45,63,70)" fill-opacity="1" points="93,92 121,126 100,99"/>
<polygon fill="rgb(126,175,189)" fill-opacity="1" points="130,173 112,184 169,206"/>
<polygon fill="rgb(90,161,190)" fill-opacity="1" points="82,98 95,184 88,129"/>
<polygon fill="rgb(41,77,93)" fill-opacity="1" points="178,137 188,189 155,138"/>
<polygon fill="rgb(54,92,110)" fill-opacity="1" points="127,156 166,155 122,162"/>
<polygon fill="rgb(134,197,222)" fill-opacity="0.9082215" points="242,40 46,17 215,24"/>
<polygon fill="rgb(108,168,175)" fill-opacity="0.82984966" points="77,47 50,53 41,33"/>
<polygon fill="rgb(71,114,130)" fill-opacity="1" points="159,160 128,164 163,166"/>
<polygon fill="rgb(211,227,231)" fill-opacity="1" points="83,111 42,72 71,79"/>
<polygon fill="rgb(92,180,211)" fill-opacity="0.9094777" points="224,24 211,44 181,58"/>
<polygon fill="rgb(60,134,170)" fill-opacity="1" points="53,205 79,165 48,193"/>
<polygon fill="rgb(62,105,123)" fill-opacity="1" points="108,167 152,161 133,160"/>
<polygon fill="rgb(77,141,158)" fill-opacity="1" points="191,122 191,118 186,125"/>
<polygon fill="rgb(100,111,77)" fill-opacity="0.98452425" points="112,83 108,96 116,88"/>
<polygon fill="rgb(108,196,180)" fill-opacity="0.94024634" points="217,5 181,0 146,8"/>
<polygon fill="rgb(36,74,83)" fill-opacity="1" points="181,128 167,113 178,157"/>
<polygon fill="rgb(54,72,80)" fill-opacity="1" points="133,129 139,123 135,104"/>
<polygon fill="rgb(45,64,74)" fill-opacity="1" points="123,112 111,91 118,124"/>
<polygon fill="rgb(71,150,181)" fill-opacity="1" points="78,178 72,132 92,148"/>
<polygon fill="rgb(47,89,103)" fill-opacity="1" points="176,181 195,186 158,150"/>
<polygon fill="rgb(73,160,192)" fill-opacity="0.9997901" points="216,230 210,190 237,207"/>
<polygon fill="rgb(212,182,224)" fill-opacity="0.9858984" points="134,210 106,200 79,211"/>
<polygon fill="rgb(34,65,73)" fill-opacity="0.9618546" points="49,129 61,170 29,32"/>
<polygon fill="rgb(179,160,169)" fill-opacity="0.90360487" points="159,75 160,71 143,70"/>
<polygon fill="rgb(51,72,82)" fill-opacity="1" points="127,111 110,95 111,89"/>
<polygon fill="rgb(43,85,106)" fill-opacity="1" points="112,164 131,150 119,164"/>
<polygon fill="rgb(36,64,74)" fill-opacity="1" points="159,96 157,133 141,106"/>
<polygon fill="rgb(18,165,185)" fill-opacity="0.9518477" points="203,249 150,214 215,229"/>
<polygon fill="rgb(50,96,114)" fill-opacity="1" points="163,162 177,189 192,190"/>
<polygon fill="rgb(43,72,86)" fill-opacity="1" points="150,131 141,133 142,106"/>
<polygon fill="rgb(104,89,98)" fill-opacity="1" points="115,39 108,48 110,8"/>
<polygon fill="rgb(74,157,171)" fill-opacity="0.90907645" points="215,193 202,196 228,194"/>
<polygon fill="rgb(111,174,220)" fill-opacity="0.9597634" points="239,35 166,5 174,54"/>
<polygon fill="rgb(57,121,150)" fill-opacity="1" points="95,127 93,153 100,141"/>
<polygon fill="rgb(139,166,160)" fill-opacity="1" points="143,62 170,80 144,71"/>
<polygon fill="rgb(36,70,88)" fill-opacity="1" points="99,118 97,112 92,93"/>
<polygon fill="rgb(85,160,188)" fill-opacity="1" points="46,77 85,145 86,130"/>
<polygon fill="rgb(60,125,155)" fill-opacity="1" points="98,125 96,117 94,161"/>
<polygon fill="rgb(115,194,221)" fill-opacity="0.863598" points="142,221 99,211 178,216"/>
<polygon fill="rgb(39,71,89)" fill-opacity="1" points="110,149 115,156 163,149"/>
<polygon fill="rgb(155,179,212)" fill-opacity="1" points="196,128 233,150 197,79"/>
<polygon fill="rgb(75,95,68)" fill-opacity="1" points="130,91 124,94 134,75"/>
<polygon fill="rgb(163,196,200)" fill-opacity="0.9361696" points="181,107 213,100 166,68"/>
<polygon fill="rgb(108,152,167)" fill-opacity="1" points="147,178 123,168 106,176"/>
<polygon fill="rgb(35,63,82)" fill-opacity="1" points="161,128 144,152 151,124"/>
<polygon fill="rgb(107,177,206)" fill-opacity="1" points="74,195 91,170 104,181"/>
<polygon fill="rgb(102,141,194)" fill-opacity="1" points="94,105 91,101 79,112"/>
<polygon fill="rgb(41,75,96)" fill-opacity="1" points="145,132 137,128 208,165"/>
<polygon fill="rgb(109,128,88)" fill-opacity="1" points="115,71 63,65 104,73"/>
<polygon fill="rgb(40,77,96)" fill-opacity="1" points="114,156 134,151 113,161"/>
<polygon fill="rgb(45,80,99)" fill-opacity="1" points="152,153 118,155 151,156"/>
<polygon fill="rgb(162,186,200)" fill-opacity="0.9959531" points="103,21 71,30 60,55"/>
<polygon fill="rgb(110,161,172)" fill-opacity="0.9493954" points="249,194 251,212 211,192"/>
<polygon fill="rgb(67,113,116)" fill-opacity="1" points="229,183 186,154 192,154"/>
<polygon fill="rgb(40,61,72)" fill-opacity="1" points="116,121 126,113 98,103"/>
<polygon fill="rgb(81,158,189)" fill-opacity="1" points="90,174 87,133 93,160"/>
<polygon fill="rgb(78,155,186)" fill-opacity="1" points="59,90 81,151 86,143"/>
<polygon fill="rgb(35,67,73)" fill-opacity="1" points="161,114 121,94 159,95"/>
<polygon fill="rgb(89,134,150)" fill-opacity="1" points="112,170 157,166 149,170"/>
<polygon fill="rgb(199,235,212)" fill-opacity="0.82969546" points="66,15 45,43 94,2"/>
<polygon fill="rgb(120,139,109)" fill-opacity="1" points="60,47 81,56 71,83"/>
<polygon fill="rgb(99,115,77)" fill-opacity="1" points="110,77 129,91 138,77"/>
<polygon fill="rgb(68,167,165)" fill-opacity="0.95448744" points="191,209 147,224 169,224"/>
<polygon fill="rgb(37,65,81)" fill-opacity="1" points="146,149 160,121 156,145"/>
<polygon fill="rgb(48,71,83)" fill-opacity="1" points="147,139 138,108 143,152"/>
<polygon fill="rgb(108,159,173)" fill-opacity="1" points="136,177 141,171 163,205"/>
<polygon fill="rgb(43,64,75)" fill-opacity="1" points="136,139 140,106 135,139"/>
<polygon fill="rgb(31,64,75)" fill-opacity="1" points="169,126 153,120 147,145"/>
<polygon fill="rgb(21,140,144)" fill-opacity="0.91357577" points="130,220 108,237 180,241"/>
<polygon fill="rgb(83,100,74)" fill-opacity="1" points="129,73 127,83 140,94"/>
<polygon fill="rgb(37,80,46)" fill-opacity="1" points="122,132 124,104 122,132"/>
<polygon fill="rgb(47,69,75)" fill-opacity="1" points="128,130 129,96 122,87"/>
<polygon fill="rgb(52,127,155)" fill-opacity="1" points="58,125 58,167 64,180"/>
<polygon fill="rgb(29,62,81)" fill-opacity="1" points="123,152 102,142 98,116"/>
<polygon fill="rgb(73,116,133)" fill-opacity="1" points="134,162 129,163 142,167"/>
<polygon fill="rgb(44,85,98)" fill-opacity="1" points="159,147 190,180 177,176"/>
<polygon fill="rgb(68,112,125)" fill-opacity="1" points="161,166 173,187 156,184"/>
<polygon fill="rgb(46,91,113)" fill-opacity="1" points="106,162 109,153 111,166"/>
<polygon fill="rgb(84,153,182)" fill-opacity="1" points="105,175 96,166 98,180"/>
<polygon fill="rgb(42,74,92)" fill-opacity="1" points="135,154 148,153 166,147"/>
<polygon fill="rgb(67,146,176)" fill-opacity="1" points="47,79 61,120 65,114"/>
<polygon fill="rgb(39,74,79)" fill-opacity="1" points="174,134 171,142 162,127"/>
<polygon fill="rgb(70,137,166)" fill-opacity="1" points="103,165 94,155 96,168"/>
<polygon fill="rgb(48,78,95)" fill-opacity="1" points="165,155 159,137 159,152"/>
<polygon fill="rgb(62,139,171)" fill-opacity="1" points="75,182 72,126 78,167"/>
<polygon fill="rgb(50,197,210)" fill-opacity="0.9636085" points="180,227 243,204 163,230"/>
<polygon fill="rgb(58,97,115)" fill-opacity="1" points="142,160 134,160 158,156"/>
<polygon fill="rgb(85,106,112)" fill-opacity="1" points="113,66 128,51 123,27"/>
<polygon fill="rgb(59,124,149)" fill-opacity="1" points="89,105 99,147 98,138"/>
<polygon fill="rgb(48,84,99)" fill-opacity="1" points="160,78 150,75 156,75"/>
<polygon fill="rgb(34,72,92)" fill-opacity="1" points="101,139 107,148 120,155"/>
<polygon fill="rgb(113,184,220)" fill-opacity="0.8378806" points="241,7 189,0 131,11"/>
<polygon fill="rgb(98,168,195)" fill-opacity="1" points="65,101 73,118 88,133"/>
<polygon fill="rgb(50,97,104)" fill-opacity="1" points="208,165 182,151 204,169"/>
<polygon fill="rgb(28,57,73)" fill-opacity="1" points="112,142 118,123 123,141"/>
<polygon fill="rgb(43,102,134)" fill-opacity="0.95246357" points="190,182 209,190 216,191"/>
<polygon fill="rgb(35,68,81)" fill-opacity="1" points="156,125 161,124 156,108"/>
<polygon fill="rgb(37,96,119)" fill-opacity="1" points="229,179 186,184 174,196"/>
<polygon fill="rgb(43,69,82)" fill-opacity="1" points="127,110 130,98 114,92"/>
<polygon fill="rgb(62,105,122)" fill-opacity="1" points="130,164 131,159 126,165"/>
<polygon fill="rgb(91,136,154)" fill-opacity="1" points="127,168 106,175 115,169"/>
<polygon fill="rgb(77,95,100)" fill-opacity="1" points="118,88 113,93 112,92"/>
<polygon fill="rgb(52,84,81)" fill-opacity="0.9764313" points="119,68 146,72 139,77"/>
<polygon fill="rgb(65,101,120)" fill-opacity="1" points="162,163 160,156 163,168"/>
<polygon fill="rgb(44,83,98)" fill-opacity="1" points="183,142 187,151 188,175"/>
<polygon fill="rgb(59,109,122)" fill-opacity="1" points="173,115 178,125 184,122"/>
<polygon fill="rgb(87,137,140)" fill-opacity="1" points="151,181 155,166 154,188"/>
<polygon fill="rgb(80,115,112)" fill-opacity="1" points="168,78 169,97 167,79"/>
<polygon fill="rgb(43,72,87)" fill-opacity="1" points="150,120 137,103 147,135"/>
<polygon fill="rgb(40,83,101)" fill-opacity="1" points="113,163 127,154 114,161"/>
<polygon fill="rgb(52,87,105)" fill-opacity="1" points="145,157 136,157 162,153"/>
<polygon fill="rgb(99,152,158)" fill-opacity="1" points="39,69 74,53 38,22"/>
<polygon fill="rgb(43,95,120)" fill-opacity="1" points="93,139 88,101 88,105"/>
<polygon fill="rgb(140,182,191)" fill-opacity="1" points="92,97 86,89 93,114"/>
<polygon fill="rgb(40,69,85)" fill-opacity="1" points="149,135 151,127 145,112"/>
<polygon fill="rgb(80,116,79)" fill-opacity="1" points="95,91 92,87 91,91"/>
<polygon fill="rgb(31,58,79)" fill-opacity="0.996033" points="116,149 108,129 115,149"/>
<polygon fill="rgb(69,127,121)" fill-opacity="1" points="206,158 193,154 210,163"/>
<polygon fill="rgb(48,84,103)" fill-opacity="1" points="139,156 141,156 123,155"/>
<polygon fill="rgb(78,123,140)" fill-opacity="1" points="159,166 151,165 110,168"/>
<polygon fill="rgb(51,77,90)" fill-opacity="1" points="115,101 115,89 118,92"/>
<polygon fill="rgb(62,140,179)" fill-opacity="1" points="65,136 62,101 64,190"/>
<polygon fill="rgb(30,59,75)" fill-opacity="1" points="97,111 124,149 109,142"/>
<polygon fill="rgb(182,223,239)" fill-opacity="0.8440155" points="105,0 71,16 83,32"/>
<polygon fill="rgb(41,10,8)" fill-opacity="0.9776578" points="60,238 1,255 73,242"/>
<polygon fill="rgb(95,175,201)" fill-opacity="1" points="82,214 73,211 85,184"/>
<polygon fill="rgb(50,79,74)" fill-opacity="1" points="148,93 135,87 147,97"/>
<polygon fill="rgb(78,141,167)" fill-opacity="1" points="95,120 94,104 93,106"/>
<polygon fill="rgb(42,80,99)" fill-opacity="1" points="128,151 116,162 127,153"/>
<polygon fill="rgb(39,62,74)" fill-opacity="1" points="138,142 114,116 125,136"/>
<polygon fill="rgb(34,71,82)" fill-opacity="1" points="180,163 169,120 183,164"/>
<polygon fill="rgb(212,206,218)" fill-opacity="0.9322897" points="91,52 68,48 40,19"/>
<polygon fill="rgb(72,151,182)" fill-opacity="1" points="87,167 68,113 83,170"/>
<polygon fill="rgb(45,63,73)" fill-opacity="1" points="104,106 100,93 97,106"/>
<polygon fill="rgb(31,62,67)" fill-opacity="1" points="143,105 154,113 149,115"/>
<polygon fill="rgb(31,68,78)" fill-opacity="1" points="177,131 155,123 177,123"/>
<polygon fill="rgb(52,70,106)" fill-opacity="0.9022504" points="24,34 47,98 40,98"/>
<polygon fill="rgb(57,100,118)" fill-opacity="1" points="128,159 130,162 117,166"/>
<polygon fill="rgb(70,188,160)" fill-opacity="0.8921397" points="212,214 147,228 135,217"/>
<polygon fill="rgb(95,119,20)" fill-opacity="0.8778664" points="7,25 3,5 26,15"/>
<polygon fill="rgb(141,143,91)" fill-opacity="1" points="93,91 88,90 114,81"/>
<polygon fill="rgb(40,79,78)" fill-opacity="1" points="162,87 133,81 174,92"/>
<polygon fill="rgb(37,66,84)" fill-opacity="1" points="122,149 126,146 150,149"/>
<polygon fill="rgb(139,144,79)" fill-opacity="1" points="116,85 98,68 104,87"/>
<polygon fill="rgb(41,63,75)" fill-opacity="1" points="130,138 129,98 130,143"/>
<polygon fill="rgb(66,107,124)" fill-opacity="1" points="149,161 158,159 137,164"/>
<polygon fill="rgb(48,95,122)" fill-opacity="1" points="101,148 103,148 101,139"/>
<polygon fill="rgb(49,89,107)" fill-opacity="1" points="126,156 123,160 125,155"/>
<polygon fill="rgb(14,65,88)" fill-opacity="0.9536089" points="57,126 10,52 43,78"/>
<polygon fill="rgb(60,109,123)" fill-opacity="1" points="172,195 168,179 162,162"/>
<polygon fill="rgb(39,69,87)" fill-opacity="1" points="157,147 151,151 133,151"/>
<polygon fill="rgb(57,77,85)" fill-opacity="1" points="138,129 140,125 139,138"/>
<polygon fill="rgb(43,69,80)" fill-opacity="1" points="136,93 144,101 140,94"/>
<polygon fill="rgb(43,104,133)" fill-opacity="1" points="47,82 59,129 53,121"/>
<polygon fill="rgb(118,147,121)" fill-opacity="1" points="153,57 169,63 151,74"/>
<polygon fill="rgb(51,127,158)" fill-opacity="1" points="69,125 64,109 65,170"/>
<polygon fill="rgb(60,98,89)" fill-opacity="1" points="166,85 163,88 176,84"/>
<polygon fill="rgb(134,183,189)" fill-opacity="1" points="255,197 183,128 255,85"/>
<polygon fill="rgb(41,61,73)" fill-opacity="0.9893997" points="123,117 121,107 123,111"/>
<polygon fill="rgb(33,61,69)" fill-opacity="1" points="152,104 141,93 143,99"/>
<polygon fill="rgb(34,66,88)" fill-opacity="1" points="125,150 120,155 108,146"/>
<polygon fill="rgb(41,73,91)" fill-opacity="1" points="160,135 175,146 165,146"/>
<polygon fill="rgb(45,70,96)" fill-opacity="1" points="140,103 137,108 135,103"/>
<polygon fill="rgb(39,74,77)" fill-opacity="1" points="150,76 125,72 133,71"/>
<polygon fill="rgb(60,185,224)" fill-opacity="0.99016535" points="198,203 255,226 167,211"/>
<polygon fill="rgb(128,170,183)" fill-opacity="1" points="120,182 146,176 110,180"/>
<polygon fill="rgb(44,88,109)" fill-opacity="1" points="110,165 109,161 110,152"/>
<polygon fill="rgb(101,176,201)" fill-opacity="0.9626621" points="239,16 243,23 167,23"/>
<polygon fill="rgb(53,69,75)" fill-opacity="1" points="125,113 128,118 129,117"/>
<polygon fill="rgb(193,216,234)" fill-opacity="0.99873245" points="113,188 125,194 137,207"/>
<polygon fill="rgb(192,196,218)" fill-opacity="0.9637952" points="109,24 94,13 90,40"/>
<polygon fill="rgb(48,70,77)" fill-opacity="1" points="135,129 129,126 127,121"/>
<polygon fill="rgb(41,75,76)" fill-opacity="1" points="134,82 152,83 166,89"/>
<polygon fill="rgb(32,58,72)" fill-opacity="1" points="106,125 122,132 104,107"/>
<polygon fill="rgb(36,59,72)" fill-opacity="1" points="106,109 104,121 103,103"/>
<polygon fill="rgb(26,59,78)" fill-opacity="1" points="110,143 103,128 105,137"/>
<polygon fill="rgb(30,62,80)" fill-opacity="1" points="123,149 109,140 121,152"/>
<polygon fill="rgb(66,144,176)" fill-opacity="1" points="69,118 62,101 61,104"/>
<polygon fill="rgb(31,56,71)" fill-opacity="1" points="130,94 131,114 136,96"/>
<polygon fill="rgb(166,173,225)" fill-opacity="0.92004216" points="165,217 133,199 104,215"/>
<polygon fill="rgb(84,130,150)" fill-opacity="1" points="111,174 115,166 107,175"/>
<polygon fill="rgb(41,79,95)" fill-opacity="0.98002857" points="183,144 187,165 182,147"/>
<polygon fill="rgb(44,64,75)" fill-opacity="1" points="130,128 129,116 134,140"/>
<polygon fill="rgb(59,78,86)" fill-opacity="1" points="134,123 134,120 135,132"/>
<polygon fill="rgb(57,93,109)" fill-opacity="1" points="156,153 166,160 167,164"/>
<polygon fill="rgb(40,71,71)" fill-opacity="1" points="144,96 143,83 141,87"/>
<polygon fill="rgb(157,158,101)" fill-opacity="1" points="40,71 81,70 75,78"/>
<polygon fill="rgb(56,78,89)" fill-opacity="1" points="140,119 140,122 140,131"/>
<polygon fill="rgb(108,139,101)" fill-opacity="1" points="88,48 63,65 68,66"/>
<polygon fill="rgb(42,65,79)" fill-opacity="1" points="142,127 139,145 140,147"/>
<polygon fill="rgb(65,87,67)" fill-opacity="1" points="139,91 125,82 128,83"/>
<polygon fill="rgb(26,60,86)" fill-opacity="1" points="101,131 101,138 103,131"/>
<polygon fill="rgb(49,74,86)" fill-opacity="1" points="141,117 134,106 135,105"/>
<polygon fill="rgb(31,59,73)" fill-opacity="1" points="111,119 124,146 121,133"/>
<polygon fill="rgb(205,235,215)" fill-opacity="0.8979748" points="226,71 188,75 189,90"/>
<polygon fill="rgb(36,78,85)" fill-opacity="1" points="175,127 182,130 172,120"/>
<polygon fill="rgb(85,130,147)" fill-opacity="1" points="142,168 139,169 115,168"/>
<polygon fill="rgb(57,133,167)" fill-opacity="1" points="72,183 50,191 44,189"/>
<polygon fill="rgb(44,80,97)" fill-opacity="1" points="183,170 184,138 179,176"/>
<polygon fill="rgb(44,85,99)" fill-opacity="1" points="184,176 175,175 170,160"/>
<polygon fill="rgb(68,137,166)" fill-opacity="1" points="59,231 67,151 66,158"/>
<polygon fill="rgb(57,132,164)" fill-opacity="1" points="65,148 66,166 50,85"/>
<polygon fill="rgb(38,75,79)" fill-opacity="1" points="174,129 160,132 176,137"/>
<polygon fill="rgb(51,73,71)" fill-opacity="1" points="138,93 129,91 134,91"/>
<polygon fill="rgb(51,190,196)" fill-opacity="0.93982387" points="206,201 254,207 173,215"/>
<polygon fill="rgb(118,83,35)" fill-opacity="0.96512616" points="4,201 11,186 30,197"/>
<polygon fill="rgb(29,60,82)" fill-opacity="1" points="149,151 151,134 153,135"/>
<polygon fill="rgb(204,219,173)" fill-opacity="0.90623367" points="57,14 67,43 68,11"/>
<polygon fill="rgb(137,142,103)" fill-opacity="1" points="91,34 87,48 92,80"/>
<polygon fill="rgb(52,94,114)" fill-opacity="1" points="120,164 115,164 117,165"/>
<polygon fill="rgb(38,61,75)" fill-opacity="1" points="124,142 126,138 125,123"/>
<polygon fill="rgb(38,77,92)" fill-opacity="1" points="178,138 193,171 182,170"/>
<polygon fill="rgb(73,117,132)" fill-opacity="1" points="157,184 159,164 157,174"/>
<polygon fill="rgb(42,65,78)" fill-opacity="1" points="129,140 131,146 128,131"/>
<polygon fill="rgb(43,77,91)" fill-opacity="1" points="140,155 141,155 145,152"/>
<polygon fill="rgb(155,205,216)" fill-opacity="1" points="60,13 53,21 90,62"/>
<polygon fill="rgb(58,92,106)" fill-opacity="1" points="155,154 162,154 163,157"/>
<polygon fill="rgb(60,95,111)" fill-opacity="1" points="155,155 164,157 152,156"/>
<polygon fill="rgb(80,127,142)" fill-opacity="0.9910178" points="156,165 158,197 155,187"/>
<polygon fill="rgb(91,168,201)" fill-opacity="1" points="91,171 69,190 74,207"/>
<polygon fill="rgb(47,88,108)" fill-opacity="1" points="175,174 178,180 189,185"/>
<polygon fill="rgb(38,75,94)" fill-opacity="1" points="124,154 114,160 112,156"/>
<polygon fill="rgb(40,80,94)" fill-opacity="1" points="180,140 184,151 181,148"/>
<polygon fill="rgb(47,80,97)" fill-opacity="1" points="146,152 145,152 144,156"/>
<polygon fill="rgb(57,99,113)" fill-opacity="1" points="163,160 180,186 169,178"/>
<polygon fill="rgb(33,28,56)" fill-opacity="0.9777547" points="18,200 31,190 45,198"/>
<polygon fill="rgb(217,157,139)" fill-opacity="1" points="117,42 120,26 113,44"/>
<polygon fill="rgb(77,121,138)" fill-opacity="1" points="135,164 135,167 132,164"/>
<polygon fill="rgb(56,104,109)" fill-opacity="1" points="198,154 206,159 205,175"/>
<polygon fill="rgb(42,61,72)" fill-opacity="1" points="110,115 118,120 112,92"/>
<polygon fill="rgb(42,74,86)" fill-opacity="1" points="170,100 165,88 162,121"/>
<polygon fill="rgb(34,72,80)" fill-opacity="1" points="167,121 179,134 172,119"/>
<polygon fill="rgb(73,135,159)" fill-opacity="1" points="87,122 89,126 90,138"/>
<polygon fill="rgb(49,67,75)" fill-opacity="1" points="122,103 120,105 129,110"/>
<polygon fill="rgb(82,132,141)" fill-opacity="1" points="207,159 212,173 203,155"/>
<polygon fill="rgb(108,142,127)" fill-opacity="1" points="151,74 165,61 167,72"/>
<polygon fill="rgb(46,69,81)" fill-opacity="1" points="143,151 146,140 145,131"/>
<polygon fill="rgb(34,84,112)" fill-opacity="1" points="99,128 94,98 98,122"/>
<polygon fill="rgb(114,184,200)" fill-opacity="1" points="195,112 226,103 184,137"/>
<polygon fill="rgb(32,61,78)" fill-opacity="1" points="114,141 111,145 115,148"/>
<polygon fill="rgb(31,64,83)" fill-opacity="1" points="122,151 120,152 122,150"/>
<polygon fill="rgb(38,75,85)" fill-opacity="1" points="181,152 176,132 181,158"/>
<polygon fill="rgb(43,73,88)" fill-opacity="1" points="148,117 148,134 147,135"/>
<polygon fill="rgb(52,70,78)" fill-opacity="1" points="128,128 130,125 127,116"/>
<polygon fill="rgb(64,106,124)" fill-opacity="1" points="118,167 133,161 128,163"/>
<polygon fill="rgb(68,102,119)" fill-opacity="1" points="235,182 226,178 215,180"/>
<polygon fill="rgb(85,148,165)" fill-opacity="1" points="150,195 150,185 168,200"/>
<polygon fill="rgb(34,71,74)" fill-opacity="1" points="149,107 156,118 152,101"/>
<polygon fill="rgb(43,62,71)" fill-opacity="1" points="118,117 96,107 114,114"/>
<polygon fill="rgb(91,104,129)" fill-opacity="0.96407545" points="115,58 120,63 118,47"/>
<polygon fill="rgb(50,109,137)" fill-opacity="1" points="95,148 93,151 91,137"/>
<polygon fill="rgb(59,93,109)" fill-opacity="1" points="156,156 154,155 153,154"/>
<polygon fill="rgb(194,20,220)" fill-opacity="0.6738388" points="158,101 189,102 158,101"/>
<polygon fill="rgb(210,192,168)" fill-opacity="0.9233037" points="45,20 33,10 115,15"/>
<polygon fill="rgb(35,62,72)" fill-opacity="1" points="135,93 141,102 121,97"/>
<polygon fill="rgb(37,120,141)" fill-opacity="1" points="204,195 166,193 171,196"/>
<polygon fill="rgb(83,94,101)" fill-opacity="1" points="125,69 141,49 139,45"/>
<polygon fill="rgb(64,146,177)" fill-opacity="1" points="59,100 62,141 65,177"/>
<polygon fill="rgb(40,93,120)" fill-opacity="1" points="94,138 91,123 91,134"/>
<polygon fill="rgb(201,219,245)" fill-opacity="0.9088577" points="161,222 133,192 82,195"/>
<polygon fill="rgb(79,125,142)" fill-opacity="1" points="139,167 138,167 156,166"/>
<polygon fill="rgb(42,64,40)" fill-opacity="0.93675" points="115,126 108,103 115,126"/>
<polygon fill="rgb(69,117,135)" fill-opacity="1" points="163,193 173,188 154,182"/>
<polygon fill="rgb(31,70,92)" fill-opacity="1" points="111,148 101,137 104,145"/>
<polygon fill="rgb(39,87,110)" fill-opacity="1" points="99,131 103,149 103,146"/>
<polygon fill="rgb(32,57,70)" fill-opacity="1" points="110,109 106,116 111,123"/>
<polygon fill="rgb(126,176,184)" fill-opacity="1" points="184,140 255,120 189,150"/>
<polygon fill="rgb(46,73,85)" fill-opacity="1" points="141,119 138,107 146,133"/>
<polygon fill="rgb(32,67,85)" fill-opacity="1" points="109,145 117,150 115,146"/>
<polygon fill="rgb(38,67,83)" fill-opacity="1" points="150,128 146,146 151,129"/>
<polygon fill="rgb(63,102,102)" fill-opacity="0.86297256" points="39,25 24,23 5,0"/>
<polygon fill="rgb(78,124,140)" fill-opacity="1" points="134,165 129,166 135,166"/>
<polygon fill="rgb(41,78,90)" fill-opacity="0.9967787" points="173,117 160,120 171,114"/>
<polygon fill="rgb(94,141,151)" fill-opacity="1" points="154,170 149,184 156,176"/>
<polygon fill="rgb(67,109,122)" fill-opacity="1" points="159,159 163,168 169,186"/>
<polygon fill="rgb(43,70,82)" fill-opacity="1" points="156,143 158,148 153,147"/>
<polygon fill="rgb(51,92,106)" fill-opacity="1" points="166,164 177,177 166,167"/>
<polygon fill="rgb(41,76,79)" fill-opacity="0.9687567" points="141,124 143,146 141,124"/>
<polygon fill="rgb(42,74,89)" fill-opacity="1" points="142,105 147,130 146,128"/>
<polygon fill="rgb(73,118,128)" fill-opacity="1" points="158,188 160,177 154,182"/>
</svg>