<svg viewBox="0 0 128 128" xmlns="http://www.w3.org/2000/svg">
<rect fill="black" height="128" width="128" x="0" y="0"/>
<polygon fill="rgb(205,204,191)" fill-opacity="1" points="127,127 0,107 127,0"/>
<polygon fill="rgb(197,199,186)" fill-opacity="1" points="126,0 0,0 0,127"/>
<polygon fill="rgb(168,176,171)" fill-opacity="1" points="127,127 0,127 74,63"/>
<polygon fill="rgb(108,132,147)" fill-opacity="1" points="37,88 76,17 0,78"/>
<polygon fill="rgb(216,221,209)" fill-opacity="1" points="82,95 47,71 3,119"/>
<polygon fill="rgb(73,100,124)" fill-opacity="1" points="53,56 69,86 41,65"/>
<polygon fill="rgb(236,228,208)" fill-opacity="1" points="69,0 62,76 127,66"/>
<polygon fill="rgb(56,89,119)" fill-opacity="1" points="50,23 64,44 19,42"/>
<polygon fill="rgb(219,215,204)" fill-opacity="1" points="71,52 42,0 107,30"/>
<polygon fill="rgb(196,202,194)" fill-opacity="1" points="43,51 6,51 47,61"/>
<polygon fill="rgb(122,139,145)" fill-opacity="1" points="52,103 110,107 72,127"/>
<polygon fill="rgb(240,232,210)" fill-opacity="1" points="69,34 58,57 61,71"/>
<polygon fill="rgb(72,105,128)" fill-opacity="1" points="19,85 37,78 0,57"/>
<polygon fill="rgb(248,237,209)" fill-opacity="1" points="46,0 127,66 127,0"/>
<polygon fill="rgb(51,87,119)" fill-opacity="1" points="57,63 56,29 26,35"/>
<polygon fill="rgb(166,179,179)" fill-opacity="1" points="54,101 91,112 60,96"/>
<polygon fill="rgb(229,227,204)" fill-opacity="1" points="101,34 6,18 32,0"/>
<polygon fill="rgb(174,203,158)" fill-opacity="0.87244314" points="31,60 11,54 30,75"/>
<polygon fill="rgb(244,235,212)" fill-opacity="0.9965821" points="127,73 122,12 74,76"/>
<polygon fill="rgb(216,164,185)" fill-opacity="0.9821726" points="25,40 22,37 34,51"/>
<polygon fill="rgb(237,230,204)" fill-opacity="1" points="29,45 0,49 0,0"/>
<polygon fill="rgb(200,204,197)" fill-opacity="1" points="81,40 93,49 89,55"/>
<polygon fill="rgb(208,213,204)" fill-opacity="1" points="66,43 91,34 48,9"/>
<polygon fill="rgb(195,205,194)" fill-opacity="1" points="35,121 6,109 61,102"/>
<polygon fill="rgb(243,243,225)" fill-opacity="1" points="75,105 56,75 38,79"/>
<polygon fill="rgb(127,171,147)" fill-opacity="0.97885704" points="109,91 118,100 76,84"/>
<polygon fill="rgb(226,229,210)" fill-opacity="1" points="46,119 39,114 28,121"/>
<polygon fill="rgb(241,228,199)" fill-opacity="1" points="0,0 21,34 62,0"/>
<polygon fill="rgb(149,149,141)" fill-opacity="1" points="65,85 127,76 117,100"/>
<polygon fill="rgb(167,180,180)" fill-opacity="1" points="51,57 20,61 49,53"/>
<polygon fill="rgb(101,112,122)" fill-opacity="1" points="68,83 104,98 84,96"/>
<polygon fill="rgb(203,206,198)" fill-opacity="1" points="85,57 92,39 87,40"/>
<polygon fill="rgb(60,90,116)" fill-opacity="1" points="63,40 54,25 37,28"/>
<polygon fill="rgb(249,233,197)" fill-opacity="1" points="105,0 79,33 72,0"/>
<polygon fill="rgb(250,243,224)" fill-opacity="1" points="126,27 78,32 121,7"/>
<polygon fill="rgb(201,203,195)" fill-opacity="1" points="68,45 87,50 62,42"/>
<polygon fill="rgb(198,193,174)" fill-opacity="1" points="106,79 63,76 62,73"/>
<polygon fill="rgb(198,206,198)" fill-opacity="1" points="64,43 63,30 74,20"/>
<polygon fill="rgb(240,239,220)" fill-opacity="1" points="4,107 58,80 25,88"/>
<polygon fill="rgb(160,158,145)" fill-opacity="1" points="72,84 65,79 109,79"/>
<polygon fill="rgb(188,198,190)" fill-opacity="1" points="35,67 11,71 17,49"/>
<polygon fill="rgb(145,150,146)" fill-opacity="1" points="67,78 80,85 61,75"/>
<polygon fill="rgb(131,132,127)" fill-opacity="1" points="127,79 127,89 103,97"/>
<polygon fill="rgb(212,219,207)" fill-opacity="1" points="40,87 72,127 28,98"/>
<polygon fill="rgb(185,197,191)" fill-opacity="1" points="70,95 105,99 127,119"/>
<polygon fill="rgb(196,204,198)" fill-opacity="1" points="34,25 46,28 55,18"/>
<polygon fill="rgb(197,203,194)" fill-opacity="1" points="60,69 60,69 59,72"/>
<polygon fill="rgb(207,207,197)" fill-opacity="1" points="96,44 87,31 81,30"/>
<polygon fill="rgb(201,207,200)" fill-opacity="1" points="64,23 86,56 76,38"/>
<polygon fill="rgb(228,218,196)" fill-opacity="1" points="81,76 66,72 127,73"/>
<polygon fill="rgb(239,242,230)" fill-opacity="1" points="83,44 86,53 80,41"/>
<polygon fill="rgb(70,98,118)" fill-opacity="1" points="74,102 110,116 92,103"/>
<polygon fill="rgb(216,207,185)" fill-opacity="1" points="88,76 63,73 88,77"/>
<polygon fill="rgb(212,220,210)" fill-opacity="1" points="69,30 92,38 57,30"/>
<polygon fill="rgb(203,209,200)" fill-opacity="1" points="42,49 44,63 36,54"/>
<polygon fill="rgb(91,116,135)" fill-opacity="1" points="94,112 86,99 91,102"/>
<polygon fill="rgb(235,234,222)" fill-opacity="1" points="103,83 114,92 95,90"/>
<polygon fill="rgb(246,235,213)" fill-opacity="1" points="63,45 59,50 97,70"/>
<polygon fill="rgb(175,171,156)" fill-opacity="1" points="71,80 64,77 93,79"/>
<polygon fill="rgb(106,109,112)" fill-opacity="1" points="123,94 98,91 100,98"/>
<polygon fill="rgb(185,196,189)" fill-opacity="1" points="29,74 7,50 33,62"/>
<polygon fill="rgb(226,232,216)" fill-opacity="1" points="104,106 65,90 120,106"/>
<polygon fill="rgb(59,92,121)" fill-opacity="1" points="46,70 35,57 36,76"/>
<polygon fill="rgb(102,124,137)" fill-opacity="1" points="0,95 11,59 0,55"/>
<polygon fill="rgb(70,96,120)" fill-opacity="1" points="26,57 26,61 43,64"/>
<polygon fill="rgb(213,179,202)" fill-opacity="0.91583526" points="70,88 62,82 64,84"/>
<polygon fill="rgb(231,211,176)" fill-opacity="1" points="76,30 76,27 83,28"/>
<polygon fill="rgb(190,186,165)" fill-opacity="1" points="80,78 127,76 113,79"/>
<polygon fill="rgb(245,230,209)" fill-opacity="1" points="63,73 59,52 82,63"/>
<polygon fill="rgb(237,225,203)" fill-opacity="1" points="71,71 105,75 127,70"/>
<polygon fill="rgb(48,85,117)" fill-opacity="1" points="57,55 46,60 56,73"/>
<polygon fill="rgb(139,167,174)" fill-opacity="1" points="82,98 79,97 95,110"/>
<polygon fill="rgb(192,205,198)" fill-opacity="1" points="68,107 43,94 44,96"/>
<polygon fill="rgb(187,200,196)" fill-opacity="1" points="82,35 82,33 89,33"/>
<polygon fill="rgb(163,176,183)" fill-opacity="0.7660867" points="92,42 71,87 92,42"/>
<polygon fill="rgb(202,172,166)" fill-opacity="0.86323994" points="86,75 70,77 86,75"/>
<polygon fill="rgb(177,164,150)" fill-opacity="0.90719175" points="69,71 94,81 69,71"/>
<polygon fill="rgb(246,235,213)" fill-opacity="1" points="93,63 72,51 80,53"/>
<polygon fill="rgb(186,192,189)" fill-opacity="1" points="85,47 92,39 86,48"/>
<polygon fill="rgb(247,243,224)" fill-opacity="1" points="31,16 7,37 61,10"/>
<polygon fill="rgb(197,175,154)" fill-opacity="1" points="69,110 84,122 127,119"/>
<polygon fill="rgb(190,199,191)" fill-opacity="1" points="36,117 56,99 32,116"/>
<polygon fill="rgb(193,202,194)" fill-opacity="1" points="78,37 59,34 77,37"/>
<polygon fill="rgb(215,210,191)" fill-opacity="1" points="75,20 76,22 63,13"/>
<polygon fill="rgb(78,113,139)" fill-opacity="1" points="57,66 64,79 70,86"/>
<polygon fill="rgb(221,221,134)" fill-opacity="0.6541975" points="83,46 66,51 83,46"/>
<polygon fill="rgb(228,216,162)" fill-opacity="1" points="96,72 75,76 96,72"/>
<polygon fill="rgb(121,137,142)" fill-opacity="1" points="1,93 21,91 27,87"/>
<polygon fill="rgb(253,248,228)" fill-opacity="1" points="127,20 103,24 114,10"/>
<polygon fill="rgb(246,233,209)" fill-opacity="1" points="76,55 72,61 62,54"/>
<polygon fill="rgb(222,211,157)" fill-opacity="0.7582347" points="80,62 60,95 80,62"/>
<polygon fill="rgb(247,229,193)" fill-opacity="1" points="86,16 73,0 0,0"/>
<polygon fill="rgb(119,146,161)" fill-opacity="1" points="63,35 64,44 65,35"/>
<polygon fill="rgb(52,85,113)" fill-opacity="0.9789129" points="56,101 89,127 64,117"/>
<polygon fill="rgb(232,234,222)" fill-opacity="1" points="94,44 77,32 71,30"/>
<polygon fill="rgb(246,235,212)" fill-opacity="1" points="63,47 58,61 87,72"/>
<polygon fill="rgb(223,210,194)" fill-opacity="0.9225625" points="78,62 70,68 78,62"/>
<polygon fill="rgb(55,108,145)" fill-opacity="1" points="60,40 54,52 57,57"/>
<polygon fill="rgb(249,233,196)" fill-opacity="1" points="87,3 89,25 47,3"/>
<polygon fill="rgb(246,236,214)" fill-opacity="1" points="74,55 80,48 84,66"/>
<polygon fill="rgb(250,247,228)" fill-opacity="1" points="58,77 45,72 28,98"/>
<polygon fill="rgb(185,216,196)" fill-opacity="0.85677457" points="72,63 66,68 72,63"/>
<polygon fill="rgb(197,196,186)" fill-opacity="1" points="87,54 82,54 82,53"/>
<polygon fill="rgb(225,223,211)" fill-opacity="1" points="89,35 85,36 90,41"/>
<polygon fill="rgb(217,229,213)" fill-opacity="1" points="74,88 81,104 72,88"/>
<polygon fill="rgb(132,132,126)" fill-opacity="1" points="89,94 69,83 102,82"/>
<polygon fill="rgb(244,233,212)" fill-opacity="1" points="84,54 86,73 74,67"/>
<polygon fill="rgb(238,209,185)" fill-opacity="0.87932116" points="67,52 78,56 67,52"/>
<polygon fill="rgb(102,119,135)" fill-opacity="1" points="45,54 46,45 43,54"/>
<polygon fill="rgb(244,232,212)" fill-opacity="1" points="90,43 106,46 90,45"/>
<polygon fill="rgb(177,174,157)" fill-opacity="1" points="105,79 116,79 87,79"/>
<polygon fill="rgb(189,194,187)" fill-opacity="1" points="58,104 43,115 54,107"/>
<polygon fill="rgb(213,204,183)" fill-opacity="1" points="77,76 127,75 101,77"/>
<polygon fill="rgb(228,232,221)" fill-opacity="1" points="74,47 64,38 66,39"/>
<polygon fill="rgb(94,111,127)" fill-opacity="1" points="108,108 125,120 127,110"/>
<polygon fill="rgb(156,187,178)" fill-opacity="1" points="84,62 30,74 84,62"/>
<polygon fill="rgb(56,90,119)" fill-opacity="1" points="76,102 83,107 74,96"/>
<polygon fill="rgb(239,218,196)" fill-opacity="0.9725893" points="92,72 85,61 92,72"/>
<polygon fill="rgb(182,190,185)" fill-opacity="0.9668859" points="15,46 13,56 0,55"/>
<polygon fill="rgb(217,206,188)" fill-opacity="1" points="96,74 97,74 94,75"/>
<polygon fill="rgb(239,227,204)" fill-opacity="1" points="63,72 82,68 59,67"/>
<polygon fill="rgb(204,210,202)" fill-opacity="1" points="69,36 82,35 75,51"/>
<polygon fill="rgb(240,231,211)" fill-opacity="1" points="71,50 65,41 73,56"/>
<polygon fill="rgb(244,231,214)" fill-opacity="1" points="96,72 91,52 90,71"/>
<polygon fill="rgb(37,75,110)" fill-opacity="1" points="56,32 63,41 26,37"/>
<polygon fill="rgb(235,238,221)" fill-opacity="1" points="54,99 56,103 55,118"/>
<polygon fill="rgb(69,15,123)" fill-opacity="0.9403702" points="29,119 3,126 4,121"/>
<polygon fill="rgb(134,148,155)" fill-opacity="1" points="37,31 32,33 26,34"/>
<polygon fill="rgb(52,82,109)" fill-opacity="1" points="88,126 112,123 73,123"/>
<polygon fill="rgb(184,193,193)" fill-opacity="1" points="81,37 82,34 84,32"/>
<polygon fill="rgb(113,131,145)" fill-opacity="1" points="38,44 40,45 28,42"/>
<polygon fill="rgb(184,189,184)" fill-opacity="1" points="54,66 63,67 63,67"/>
<polygon fill="rgb(248,239,218)" fill-opacity="1" points="104,71 127,40 89,16"/>
<polygon fill="rgb(228,185,178)" fill-opacity="0.855723" points="120,72 123,72 120,72"/>
<polygon fill="rgb(219,215,188)" fill-opacity="0.93371314" points="110,69 127,74 110,69"/>
<polygon fill="rgb(190,198,195)" fill-opacity="1" points="50,23 57,25 69,22"/>
<polygon fill="rgb(242,231,209)" fill-opacity="1" points="79,65 78,71 127,70"/>
<polygon fill="rgb(146,143,134)" fill-opacity="1" points="97,81 105,82 70,83"/>
<polygon fill="rgb(64,97,123)" fill-opacity="1" points="16,82 0,75 7,62"/>
<polygon fill="rgb(169,171,161)" fill-opacity="1" points="0,75 18,92 2,92"/>
<polygon fill="rgb(186,197,194)" fill-opacity="1" points="63,31 55,26 65,33"/>
<polygon fill="rgb(60,91,114)" fill-opacity="1" points="0,127 32,127 0,108"/>
<polygon fill="rgb(233,220,199)" fill-opacity="1" points="112,73 87,74 107,75"/>
<polygon fill="rgb(229,208,193)" fill-opacity="0.943807" points="60,67 68,67 71,69"/>
<polygon fill="rgb(241,230,209)" fill-opacity="1" points="88,51 95,52 95,59"/>
<polygon fill="rgb(214,209,178)" fill-opacity="0.8513898" points="114,64 127,65 114,64"/>
<polygon fill="rgb(238,226,208)" fill-opacity="1" points="84,70 95,72 93,72"/>
<polygon fill="rgb(108,129,146)" fill-opacity="1" points="39,75 48,64 48,61"/>
<polygon fill="rgb(151,161,165)" fill-opacity="1" points="33,64 38,68 38,68"/>
<polygon fill="rgb(59,88,112)" fill-opacity="1" points="58,127 43,114 68,127"/>
<polygon fill="rgb(228,230,213)" fill-opacity="1" points="57,91 84,109 77,107"/>
<polygon fill="rgb(187,199,192)" fill-opacity="1" points="31,100 50,91 45,97"/>
<polygon fill="rgb(210,220,205)" fill-opacity="1" points="33,69 24,60 18,63"/>
<polygon fill="rgb(214,216,207)" fill-opacity="0.9966613" points="65,32 68,32 60,34"/>
<polygon fill="rgb(246,236,214)" fill-opacity="1" points="110,65 96,33 99,71"/>
<polygon fill="rgb(241,229,206)" fill-opacity="1" points="59,65 74,68 63,71"/>
<polygon fill="rgb(196,204,196)" fill-opacity="1" points="48,84 52,85 43,90"/>
<polygon fill="rgb(245,235,215)" fill-opacity="1" points="93,42 93,47 90,46"/>
<polygon fill="rgb(213,214,205)" fill-opacity="1" points="89,51 87,51 85,48"/>
<polygon fill="rgb(165,166,148)" fill-opacity="1" points="14,83 27,86 4,81"/>
<polygon fill="rgb(239,223,189)" fill-opacity="1" points="80,0 74,0 79,0"/>
<polygon fill="rgb(183,188,186)" fill-opacity="1" points="91,39 87,48 87,48"/>
<polygon fill="rgb(230,233,222)" fill-opacity="1" points="85,43 90,36 84,39"/>
<polygon fill="rgb(62,86,112)" fill-opacity="1" points="63,82 69,86 59,73"/>
<polygon fill="rgb(175,169,158)" fill-opacity="1" points="67,81 72,81 69,80"/>
<polygon fill="rgb(234,223,202)" fill-opacity="1" points="76,68 77,72 81,76"/>
<polygon fill="rgb(166,178,180)" fill-opacity="1" points="52,70 51,70 53,72"/>
<polygon fill="rgb(61,99,127)" fill-opacity="1" points="30,86 39,68 15,81"/>
<polygon fill="rgb(245,233,210)" fill-opacity="1" points="110,67 119,56 118,68"/>
<polygon fill="rgb(255,223,208)" fill-opacity="0.909992" points="91,71 89,55 91,71"/>
<polygon fill="rgb(218,221,207)" fill-opacity="1" points="13,51 36,56 33,43"/>
<polygon fill="rgb(252,246,226)" fill-opacity="1" points="91,15 107,16 92,26"/>
<polygon fill="rgb(161,125,154)" fill-opacity="0.81684786" points="90,86 72,60 90,86"/>
<polygon fill="rgb(247,229,192)" fill-opacity="1" points="83,29 77,21 88,25"/>
<polygon fill="rgb(141,144,138)" fill-opacity="1" points="75,89 66,80 73,87"/>
<polygon fill="rgb(191,190,177)" fill-opacity="0.95885366" points="73,82 71,81 72,81"/>
<polygon fill="rgb(246,234,210)" fill-opacity="1" points="70,51 74,67 74,49"/>
<polygon fill="rgb(203,213,203)" fill-opacity="1" points="47,93 48,83 46,87"/>
<polygon fill="rgb(88,119,143)" fill-opacity="1" points="57,55 52,55 47,53"/>
<polygon fill="rgb(242,219,186)" fill-opacity="1" points="79,31 83,27 79,26"/>
<polygon fill="rgb(174,160,148)" fill-opacity="1" points="65,106 75,116 92,116"/>
<polygon fill="rgb(193,202,196)" fill-opacity="1" points="54,17 70,33 75,37"/>
<polygon fill="rgb(207,206,195)" fill-opacity="1" points="81,50 81,49 84,51"/>
<polygon fill="rgb(167,181,178)" fill-opacity="1" points="23,69 12,50 17,54"/>
<polygon fill="rgb(39,76,108)" fill-opacity="1" points="60,111 72,122 88,124"/>
<polygon fill="rgb(193,178,112)" fill-opacity="0.6582676" points="94,27 116,73 94,27"/>
<polygon fill="rgb(115,134,146)" fill-opacity="1" points="58,102 64,99 57,100"/>
<polygon fill="rgb(123,130,167)" fill-opacity="0.9753117" points="39,67 43,94 39,67"/>
<polygon fill="rgb(220,220,205)" fill-opacity="1" points="64,44 65,44 63,48"/>
<polygon fill="rgb(239,228,208)" fill-opacity="1" points="98,57 93,51 88,58"/>
<polygon fill="rgb(137,154,161)" fill-opacity="1" points="61,96 59,102 74,107"/>
<polygon fill="rgb(244,237,215)" fill-opacity="1" points="116,54 125,71 127,46"/>
<polygon fill="rgb(225,228,215)" fill-opacity="1" points="61,83 72,88 66,103"/>
<polygon fill="rgb(179,184,180)" fill-opacity="1" points="75,47 71,49 73,48"/>
<polygon fill="rgb(246,229,193)" fill-opacity="1" points="76,24 88,26 77,22"/>
<polygon fill="rgb(124,191,185)" fill-opacity="0.92778015" points="15,99 16,117 7,116"/>
<polygon fill="rgb(232,220,198)" fill-opacity="1" points="78,72 61,71 77,72"/>
<polygon fill="rgb(213,219,205)" fill-opacity="1" points="26,108 41,100 29,127"/>
<polygon fill="rgb(196,251,209)" fill-opacity="0.9897548" points="95,58 110,49 95,58"/>
<polygon fill="rgb(144,160,164)" fill-opacity="1" points="27,68 11,68 14,71"/>
<polygon fill="rgb(232,229,211)" fill-opacity="1" points="76,50 80,43 77,46"/>
<polygon fill="rgb(242,230,210)" fill-opacity="1" points="82,57 78,61 85,54"/>
<polygon fill="rgb(176,167,155)" fill-opacity="0.99537945" points="104,82 104,78 104,82"/>
<polygon fill="rgb(110,122,134)" fill-opacity="1" points="6,80 23,84 21,85"/>
<polygon fill="rgb(183,193,189)" fill-opacity="1" points="34,95 35,100 36,92"/>
<polygon fill="rgb(199,203,198)" fill-opacity="1" points="69,44 64,42 80,40"/>
<polygon fill="rgb(205,212,204)" fill-opacity="1" points="40,55 51,54 41,62"/>
<polygon fill="rgb(249,233,197)" fill-opacity="1" points="127,13 102,0 127,0"/>
<polygon fill="rgb(78,105,126)" fill-opacity="1" points="43,69 45,69 53,74"/>
<polygon fill="rgb(176,175,160)" fill-opacity="1" points="70,78 67,78 72,77"/>
<polygon fill="rgb(187,198,191)" fill-opacity="1" points="26,49 33,50 24,56"/>
<polygon fill="rgb(241,233,211)" fill-opacity="1" points="85,72 88,68 88,73"/>
<polygon fill="rgb(239,227,203)" fill-opacity="1" points="65,69 62,72 61,68"/>
<polygon fill="rgb(197,202,196)" fill-opacity="1" points="93,50 89,50 87,46"/>
<polygon fill="rgb(230,227,204)" fill-opacity="0.83054394" points="96,66 97,67 96,66"/>
<polygon fill="rgb(233,213,163)" fill-opacity="0.83482385" points="90,23 58,44 90,23"/>
<polygon fill="rgb(167,177,175)" fill-opacity="1" points="13,75 14,74 12,66"/>
<polygon fill="rgb(225,231,220)" fill-opacity="1" points="68,30 80,38 83,39"/>
<polygon fill="rgb(243,233,211)" fill-opacity="1" points="97,44 95,62 87,71"/>
<polygon fill="rgb(233,233,221)" fill-opacity="0.97325516" points="65,72 72,60 65,72"/>
<polygon fill="rgb(150,156,138)" fill-opacity="1" points="68,82 69,81 71,79"/>
<polygon fill="rgb(188,198,192)" fill-opacity="1" points="61,82 72,98 63,86"/>
<polygon fill="rgb(242,231,210)" fill-opacity="1" points="102,50 100,44 91,34"/>
<polygon fill="rgb(241,234,219)" fill-opacity="1" points="39,79 26,100 24,94"/>
<polygon fill="rgb(245,236,215)" fill-opacity="1" points="60,49 59,51 70,43"/>
<polygon fill="rgb(245,241,221)" fill-opacity="1" points="18,41 35,45 15,51"/>
<polygon fill="rgb(125,125,120)" fill-opacity="1" points="81,94 75,87 94,86"/>
<polygon fill="rgb(242,234,214)" fill-opacity="1" points="81,54 81,54 92,64"/>
<polygon fill="rgb(199,208,203)" fill-opacity="1" points="75,34 73,33 88,40"/>
<polygon fill="rgb(243,230,206)" fill-opacity="1" points="72,61 74,57 69,70"/>
<polygon fill="rgb(191,193,187)" fill-opacity="1" points="83,50 82,48 77,45"/>
<polygon fill="rgb(91,113,132)" fill-opacity="1" points="42,73 31,80 42,76"/>
<polygon fill="rgb(220,210,188)" fill-opacity="1" points="65,73 86,76 87,76"/>
<polygon fill="rgb(250,235,198)" fill-opacity="1" points="72,17 117,0 112,11"/>
<polygon fill="rgb(249,242,222)" fill-opacity="1" points="94,25 99,22 117,31"/>
<polygon fill="rgb(233,196,207)" fill-opacity="0.9415636" points="82,60 68,65 82,60"/>
<polygon fill="rgb(172,131,164)" fill-opacity="0.96753967" points="2,68 0,56 0,65"/>
<polygon fill="rgb(37,64,108)" fill-opacity="1" points="44,40 38,26 54,54"/>
<polygon fill="rgb(159,155,143)" fill-opacity="1" points="73,80 73,82 79,81"/>
<polygon fill="rgb(198,206,198)" fill-opacity="1" points="47,59 38,55 38,59"/>
<polygon fill="rgb(248,233,205)" fill-opacity="1" points="123,35 127,26 127,24"/>
<polygon fill="rgb(206,207,194)" fill-opacity="1" points="10,95 16,115 22,98"/>
<polygon fill="rgb(236,220,197)" fill-opacity="0.9525816" points="78,48 68,55 78,48"/>
<polygon fill="rgb(230,186,155)" fill-opacity="1" points="59,98 70,110 71,112"/>
<polygon fill="rgb(210,213,203)" fill-opacity="0.897186" points="57,57 67,43 57,57"/>
<polygon fill="rgb(231,236,220)" fill-opacity="0.995547" points="53,74 48,85 48,84"/>
<polygon fill="rgb(246,236,216)" fill-opacity="1" points="87,29 106,50 93,29"/>
<polygon fill="rgb(190,197,187)" fill-opacity="1" points="10,119 8,116 23,107"/>
<polygon fill="rgb(235,210,186)" fill-opacity="0.77755487" points="69,59 77,47 69,59"/>
<polygon fill="rgb(186,253,199)" fill-opacity="0.9148153" points="68,58 94,54 68,58"/>
<polygon fill="rgb(220,217,200)" fill-opacity="1" points="28,72 31,73 29,72"/>
<polygon fill="rgb(191,224,178)" fill-opacity="1" points="90,78 89,67 90,78"/>
<polygon fill="rgb(242,233,211)" fill-opacity="1" points="69,55 64,46 68,54"/>
<polygon fill="rgb(216,221,202)" fill-opacity="1" points="127,118 100,127 126,127"/>
<polygon fill="rgb(201,205,198)" fill-opacity="1" points="76,42 79,37 75,51"/>
<polygon fill="rgb(220,223,203)" fill-opacity="1" points="52,112 66,126 79,127"/>
<polygon fill="rgb(177,186,184)" fill-opacity="1" points="84,43 82,40 83,43"/>
<polygon fill="rgb(100,130,147)" fill-opacity="1" points="59,121 47,111 43,114"/>
<polygon fill="rgb(62,112,145)" fill-opacity="1" points="49,31 43,44 43,48"/>
<polygon fill="rgb(150,149,138)" fill-opacity="1" points="77,82 75,80 71,82"/>
<polygon fill="rgb(238,226,205)" fill-opacity="1" points="69,70 87,73 74,71"/>
<polygon fill="rgb(244,231,210)" fill-opacity="1" points="77,60 87,57 94,58"/>
<polygon fill="rgb(193,193,178)" fill-opacity="0.5518862" points="81,40 69,47 81,40"/>
<polygon fill="rgb(203,207,196)" fill-opacity="1" points="26,69 3,48 31,74"/>
<polygon fill="rgb(165,187,190)" fill-opacity="1" points="42,28 50,30 45,24"/>
<polygon fill="rgb(197,192,174)" fill-opacity="1" points="75,25 79,29 74,22"/>
<polygon fill="rgb(247,235,210)" fill-opacity="1" points="60,48 60,51 60,51"/>
<polygon fill="rgb(180,190,186)" fill-opacity="1" points="49,91 52,93 46,87"/>
<polygon fill="rgb(83,110,132)" fill-opacity="1" points="52,55 41,68 41,68"/>
<polygon fill="rgb(187,189,191)" fill-opacity="1" points="74,96 71,92 73,95"/>
<polygon fill="rgb(216,214,196)" fill-opacity="1" points="9,53 13,55 6,59"/>
<polygon fill="rgb(189,180,164)" fill-opacity="1" points="80,77 79,78 81,79"/>
<polygon fill="rgb(247,239,218)" fill-opacity="1" points="127,41 127,58 95,40"/>
<polygon fill="rgb(135,133,127)" fill-opacity="1" points="108,86 127,80 112,90"/>
<polygon fill="rgb(53,89,120)" fill-opacity="1" points="35,82 21,69 32,85"/>
<polygon fill="rgb(224,227,213)" fill-opacity="1" points="33,62 25,67 28,64"/>
<polygon fill="rgb(202,195,178)" fill-opacity="1" points="110,77 95,77 89,77"/>
<polygon fill="rgb(116,147,166)" fill-opacity="1" points="25,83 23,81 23,81"/>
<polygon fill="rgb(200,206,198)" fill-opacity="1" points="28,48 26,48 30,59"/>
<polygon fill="rgb(76,121,141)" fill-opacity="1" points="58,64 55,67 55,67"/>
<polygon fill="rgb(248,237,216)" fill-opacity="1" points="92,32 86,27 84,30"/>
<polygon fill="rgb(184,192,188)" fill-opacity="1" points="33,85 39,79 34,84"/>
<polygon fill="rgb(199,197,188)" fill-opacity="1" points="90,54 89,56 89,53"/>
<polygon fill="rgb(239,228,215)" fill-opacity="1" points="93,62 115,87 93,62"/>
<polygon fill="rgb(248,236,215)" fill-opacity="1" points="77,46 77,49 77,52"/>
<polygon fill="rgb(89,168,152)" fill-opacity="0.97214615" points="60,41 52,47 60,41"/>
<polygon fill="rgb(219,223,210)" fill-opacity="1" points="88,37 86,39 87,38"/>
<polygon fill="rgb(82,87,116)" fill-opacity="0.9125904" points="69,86 75,86 74,86"/>
<polygon fill="rgb(222,193,155)" fill-opacity="1" points="98,94 99,95 90,90"/>
<polygon fill="rgb(248,237,215)" fill-opacity="1" points="64,46 60,67 70,47"/>
<polygon fill="rgb(218,241,201)" fill-opacity="0.77832234" points="78,59 57,93 78,59"/>
<polygon fill="rgb(157,168,156)" fill-opacity="1" points="73,112 88,116 93,113"/>
<polygon fill="rgb(171,184,184)" fill-opacity="1" points="49,21 51,26 52,23"/>
<polygon fill="rgb(191,207,200)" fill-opacity="1" points="59,98 59,97 60,103"/>
<polygon fill="rgb(124,125,124)" fill-opacity="1" points="89,94 69,83 75,87"/>
<polygon fill="rgb(248,238,216)" fill-opacity="1" points="68,60 65,66 67,44"/>
<polygon fill="rgb(74,120,151)" fill-opacity="1" points="61,41 60,44 63,44"/>
<polygon fill="rgb(251,246,226)" fill-opacity="1" points="27,99 42,84 26,88"/>
<polygon fill="rgb(244,231,206)" fill-opacity="1" points="72,61 76,58 70,60"/>
<polygon fill="rgb(223,227,216)" fill-opacity="1" points="57,17 63,29 61,14"/>
<polygon fill="rgb(236,197,220)" fill-opacity="0.80895257" points="68,63 71,72 68,63"/>
<polygon fill="rgb(227,217,195)" fill-opacity="1" points="63,72 85,75 61,71"/>
<polygon fill="rgb(244,231,208)" fill-opacity="1" points="73,67 70,57 72,68"/>
<polygon fill="rgb(244,242,225)" fill-opacity="1" points="38,20 45,23 39,25"/>
<polygon fill="rgb(195,205,196)" fill-opacity="1" points="53,99 47,109 46,114"/>
<polygon fill="rgb(85,107,124)" fill-opacity="1" points="32,70 39,78 31,71"/>
<polygon fill="rgb(204,221,188)" fill-opacity="0.8673837" points="107,45 100,53 107,45"/>
<polygon fill="rgb(222,234,226)" fill-opacity="0.84586483" points="107,30 115,70 107,30"/>
<polygon fill="rgb(191,195,159)" fill-opacity="1" points="72,80 72,79 73,79"/>
<polygon fill="rgb(144,146,147)" fill-opacity="0.980601" points="61,78 59,73 61,78"/>
<polygon fill="rgb(57,85,110)" fill-opacity="0.9974742" points="39,60 42,75 44,69"/>
<polygon fill="rgb(203,188,200)" fill-opacity="0.58077055" points="84,40 102,63 84,40"/>
<polygon fill="rgb(198,192,179)" fill-opacity="1" points="82,30 80,30 80,30"/>
<polygon fill="rgb(249,249,233)" fill-opacity="1" points="82,32 78,32 77,35"/>
<polygon fill="rgb(241,233,211)" fill-opacity="1" points="88,70 85,71 86,66"/>
<polygon fill="rgb(44,80,114)" fill-opacity="1" points="81,98 84,107 95,112"/>
<polygon fill="rgb(189,198,192)" fill-opacity="1" points="69,39 71,35 70,42"/>
<polygon fill="rgb(202,209,198)" fill-opacity="0.99716586" points="60,95 63,93 52,94"/>
<polygon fill="rgb(176,171,154)" fill-opacity="1" points="83,79 73,78 72,79"/>
<polygon fill="rgb(237,242,230)" fill-opacity="1" points="70,35 69,36 68,32"/>
<polygon fill="rgb(241,229,208)" fill-opacity="1" points="88,61 93,57 86,56"/>
<polygon fill="rgb(235,237,219)" fill-opacity="1" points="51,95 26,107 45,103"/>
<polygon fill="rgb(165,177,179)" fill-opacity="1" points="59,102 60,100 60,101"/>
<polygon fill="rgb(239,227,203)" fill-opacity="1" points="72,67 76,70 70,70"/>
<polygon fill="rgb(93,116,135)" fill-opacity="1" points="49,54 42,49 47,49"/>
<polygon fill="rgb(145,155,167)" fill-opacity="1" points="38,34 37,27 36,28"/>
<polygon fill="rgb(198,203,186)" fill-opacity="1" points="85,55 86,55 86,54"/>
<polygon fill="rgb(97,98,174)" fill-opacity="1" points="65,105 63,84 65,105"/>
<polygon fill="rgb(248,237,215)" fill-opacity="1" points="69,55 59,63 68,67"/>
<polygon fill="rgb(193,204,197)" fill-opacity="1" points="20,61 23,61 19,53"/>
<polygon fill="rgb(118,135,149)" fill-opacity="1" points="38,61 38,62 37,58"/>
<polygon fill="rgb(103,133,158)" fill-opacity="1" points="33,70 35,71 37,73"/>
<polygon fill="rgb(190,185,168)" fill-opacity="1" points="69,79 69,77 71,80"/>
<polygon fill="rgb(235,214,178)" fill-opacity="1" points="79,29 77,30 75,29"/>
<polygon fill="rgb(70,99,132)" fill-opacity="1" points="33,80 30,80 31,85"/>
<polygon fill="rgb(229,236,217)" fill-opacity="0.9778411" points="86,39 86,42 86,42"/>
<polygon fill="rgb(140,136,133)" fill-opacity="1" points="71,85 96,83 71,84"/>
<polygon fill="rgb(207,228,179)" fill-opacity="0.8114632" points="119,54 89,70 119,54"/>
<polygon fill="rgb(138,136,130)" fill-opacity="1" points="99,85 89,84 101,83"/>
<polygon fill="rgb(248,237,213)" fill-opacity="1" points="71,51 78,52 68,56"/>
<polygon fill="rgb(62,97,123)" fill-opacity="1" points="12,104 13,111 4,117"/>
<polygon fill="rgb(246,237,215)" fill-opacity="1" points="110,64 83,64 112,58"/>
<polygon fill="rgb(225,227,190)" fill-opacity="0.74093246" points="76,73 75,64 76,73"/>
<polygon fill="rgb(248,245,226)" fill-opacity="1" points="40,95 38,96 42,82"/>
<polygon fill="rgb(123,123,118)" fill-opacity="1" points="94,88 92,89 72,86"/>
<polygon fill="rgb(187,197,191)" fill-opacity="1" points="49,106 37,102 50,107"/>
<polygon fill="rgb(249,242,222)" fill-opacity="1" points="106,46 115,51 106,27"/>
<polygon fill="rgb(245,232,208)" fill-opacity="1" points="72,56 72,57 76,59"/>
<polygon fill="rgb(223,230,220)" fill-opacity="0.8395152" points="95,51 94,42 95,51"/>
<polygon fill="rgb(252,248,230)" fill-opacity="1" points="56,78 68,95 50,89"/>
<polygon fill="rgb(187,196,190)" fill-opacity="1" points="36,54 26,47 28,52"/>
<polygon fill="rgb(49,89,127)" fill-opacity="1" points="38,31 43,28 40,37"/>
<polygon fill="rgb(206,199,178)" fill-opacity="1" points="64,74 75,76 70,75"/>
<polygon fill="rgb(244,232,210)" fill-opacity="1" points="92,45 99,49 103,43"/>
<polygon fill="rgb(251,241,231)" fill-opacity="0.98819166" points="61,91 52,91 60,88"/>
<polygon fill="rgb(155,154,140)" fill-opacity="1" points="83,81 81,81 98,81"/>
<polygon fill="rgb(131,131,125)" fill-opacity="1" points="79,85 80,87 71,85"/>
<polygon fill="rgb(126,126,122)" fill-opacity="1" points="81,92 80,87 82,88"/>
<polygon fill="rgb(204,198,183)" fill-opacity="1" points="23,21 1,37 38,12"/>
<polygon fill="rgb(224,230,213)" fill-opacity="0.98227787" points="76,33 69,31 76,32"/>
<polygon fill="rgb(235,243,240)" fill-opacity="0.9354707" points="83,44 73,46 83,44"/>
<polygon fill="rgb(245,233,213)" fill-opacity="1" points="96,64 105,71 92,69"/>
<polygon fill="rgb(248,230,191)" fill-opacity="1" points="78,8 62,13 76,12"/>
<polygon fill="rgb(215,223,211)" fill-opacity="1" points="80,47 70,37 74,40"/>
<polygon fill="rgb(239,242,224)" fill-opacity="1" points="56,92 58,95 59,92"/>
<polygon fill="rgb(216,228,205)" fill-opacity="1" points="62,96 68,102 62,91"/>
<polygon fill="rgb(245,235,213)" fill-opacity="1" points="105,62 91,51 105,60"/>
<polygon fill="rgb(183,149,151)" fill-opacity="0.98408645" points="86,80 80,84 86,80"/>
<polygon fill="rgb(200,197,187)" fill-opacity="0.9766813" points="37,99 41,127 38,97"/>
<polygon fill="rgb(246,232,210)" fill-opacity="1" points="59,54 58,61 60,62"/>
<polygon fill="rgb(163,50,64)" fill-opacity="0.87971294" points="67,80 82,59 67,80"/>
<polygon fill="rgb(187,191,195)" fill-opacity="0.9954893" points="87,36 99,41 87,36"/>
<polygon fill="rgb(149,146,136)" fill-opacity="1" points="72,85 70,80 71,84"/>
<polygon fill="rgb(227,222,205)" fill-opacity="1" points="32,102 34,109 19,94"/>
<polygon fill="rgb(190,195,191)" fill-opacity="0.99088347" points="56,14 59,15 62,14"/>
<polygon fill="rgb(83,109,132)" fill-opacity="1" points="47,71 39,75 47,71"/>
<polygon fill="rgb(174,172,171)" fill-opacity="1" points="70,45 73,48 73,48"/>
<polygon fill="rgb(234,223,201)" fill-opacity="1" points="81,73 89,74 90,74"/>
<polygon fill="rgb(209,214,206)" fill-opacity="1" points="60,80 58,77 64,85"/>
<polygon fill="rgb(100,125,143)" fill-opacity="1" points="50,47 51,48 44,50"/>
<polygon fill="rgb(251,237,212)" fill-opacity="1" points="59,51 59,62 59,64"/>
<polygon fill="rgb(216,225,212)" fill-opacity="0.9996802" points="76,44 77,43 79,38"/>
<polygon fill="rgb(182,195,188)" fill-opacity="1" points="16,64 20,65 13,71"/>
<polygon fill="rgb(189,187,157)" fill-opacity="0.819389" points="89,78 85,71 89,78"/>
<polygon fill="rgb(165,162,147)" fill-opacity="1" points="103,81 127,78 105,80"/>
<polygon fill="rgb(234,233,220)" fill-opacity="1" points="74,40 69,44 68,45"/>
<polygon fill="rgb(97,118,139)" fill-opacity="0.999673" points="39,67 37,67 38,67"/>
<polygon fill="rgb(246,251,204)" fill-opacity="1" points="111,36 116,47 111,36"/>
<polygon fill="rgb(241,230,206)" fill-opacity="1" points="93,68 103,74 96,70"/>
<polygon fill="rgb(178,186,185)" fill-opacity="1" points="42,51 40,59 43,48"/>
<polygon fill="rgb(62,137,136)" fill-opacity="1" points="36,71 36,49 36,71"/>
<polygon fill="rgb(182,177,160)" fill-opacity="1" points="66,76 66,78 71,77"/>
<polygon fill="rgb(214,221,200)" fill-opacity="0.9137682" points="43,73 46,76 43,73"/>
<polygon fill="rgb(194,186,211)" fill-opacity="0.7054643" points="99,25 115,49 99,25"/>
<polygon fill="rgb(233,222,202)" fill-opacity="1" points="91,36 90,36 92,37"/>
<polygon fill="rgb(70,107,138)" fill-opacity="1" points="42,67 42,68 42,73"/>
<polygon fill="rgb(214,219,207)" fill-opacity="1" points="38,57 35,50 47,62"/>
<polygon fill="rgb(246,236,214)" fill-opacity="1" points="127,52 117,57 127,69"/>
<polygon fill="rgb(247,246,204)" fill-opacity="0.8309776" points="103,35 109,25 103,35"/>
<polygon fill="rgb(183,190,187)" fill-opacity="1" points="64,33 74,45 70,39"/>
<polygon fill="rgb(151,162,169)" fill-opacity="1" points="33,126 44,125 36,121"/>
<polygon fill="rgb(211,249,203)" fill-opacity="0.8724635" points="108,49 101,50 108,49"/>
<polygon fill="rgb(251,249,229)" fill-opacity="1" points="48,72 45,72 72,102"/>
<polygon fill="rgb(247,247,227)" fill-opacity="0.9880093" points="63,94 51,85 74,102"/>
<polygon fill="rgb(167,179,176)" fill-opacity="1" points="27,52 27,53 27,57"/>
<polygon fill="rgb(240,237,214)" fill-opacity="0.9913829" points="0,96 18,93 15,105"/>
<polygon fill="rgb(159,158,144)" fill-opacity="1" points="101,81 99,80 103,81"/>
<polygon fill="rgb(245,235,213)" fill-opacity="1" points="78,60 77,62 82,51"/>
<polygon fill="rgb(73,97,120)" fill-opacity="1" points="36,49 37,51 41,49"/>
<polygon fill="rgb(187,199,194)" fill-opacity="1" points="48,56 39,59 42,59"/>
<polygon fill="rgb(217,232,199)" fill-opacity="0.9011197" points="84,29 74,30 84,29"/>
<polygon fill="rgb(137,135,129)" fill-opacity="1" points="92,84 90,92 92,85"/>
<polygon fill="rgb(246,235,213)" fill-opacity="1" points="92,32 94,28 93,38"/>
<polygon fill="rgb(232,219,203)" fill-opacity="0.8046806" points="88,30 86,37 88,30"/>
<polygon fill="rgb(200,208,197)" fill-opacity="1" points="53,95 52,106 54,119"/>
<polygon fill="rgb(247,237,217)" fill-opacity="1" points="96,43 93,27 94,32"/>
<polygon fill="rgb(243,231,207)" fill-opacity="0.9856586" points="73,61 62,71 73,62"/>
<polygon fill="rgb(48,79,109)" fill-opacity="1" points="25,35 30,43 27,34"/>
<polygon fill="rgb(205,207,201)" fill-opacity="1" points="66,43 64,44 78,40"/>
<polygon fill="rgb(246,240,218)" fill-opacity="1" points="0,52 24,37 24,21"/>
<polygon fill="rgb(223,211,173)" fill-opacity="0.8343031" points="87,25 92,14 87,25"/>
<polygon fill="rgb(240,241,198)" fill-opacity="0.95193774" points="75,58 82,65 75,58"/>
<polygon fill="rgb(205,213,199)" fill-opacity="1" points="35,122 27,127 32,106"/>
<polygon fill="rgb(239,227,206)" fill-opacity="1" points="76,68 83,73 75,68"/>
<polygon fill="rgb(174,164,114)" fill-opacity="0.90804887" points="109,35 76,48 109,35"/>
<polygon fill="rgb(219,210,169)" fill-opacity="1" points="82,73 77,54 82,73"/>
<polygon fill="rgb(248,239,219)" fill-opacity="1" points="111,31 113,46 119,27"/>
<polygon fill="rgb(128,141,152)" fill-opacity="1" points="44,64 47,67 42,64"/>
<polygon fill="rgb(244,243,228)" fill-opacity="1" points="67,87 68,89 58,78"/>
<polygon fill="rgb(204,210,205)" fill-opacity="1" points="60,82 62,83 61,81"/>
<polygon fill="rgb(176,195,181)" fill-opacity="0.932724" points="94,78 98,78 94,78"/>
<polygon fill="rgb(162,180,181)" fill-opacity="1" points="90,105 82,100 89,104"/>
<polygon fill="rgb(246,236,215)" fill-opacity="1" points="101,63 78,65 94,65"/>
<polygon fill="rgb(236,223,201)" fill-opacity="1" points="106,74 105,73 94,73"/>
<polygon fill="rgb(189,198,183)" fill-opacity="0.94016093" points="77,46 76,44 77,46"/>
<polygon fill="rgb(251,251,235)" fill-opacity="1" points="67,39 65,41 68,41"/>
<polygon fill="rgb(204,219,194)" fill-opacity="0.79048854" points="48,73 56,66 48,73"/>
<polygon fill="rgb(255,250,214)" fill-opacity="0.8664503" points="78,63 80,90 78,63"/>
<polygon fill="rgb(245,232,211)" fill-opacity="1" points="82,71 76,66 76,66"/>
<polygon fill="rgb(249,245,223)" fill-opacity="1" points="32,97 27,87 34,95"/>
<polygon fill="rgb(56,105,141)" fill-opacity="0.9978896" points="55,36 50,42 48,47"/>
<polygon fill="rgb(91,131,154)" fill-opacity="1" points="63,105 61,102 62,109"/>
<polygon fill="rgb(141,157,162)" fill-opacity="1" points="42,61 45,68 42,61"/>
<polygon fill="rgb(194,202,191)" fill-opacity="1" points="71,42 77,41 70,42"/>
<polygon fill="rgb(195,219,207)" fill-opacity="1" points="66,41 72,27 66,41"/>
<polygon fill="rgb(188,213,188)" fill-opacity="0.9731973" points="69,55 79,45 69,55"/>
<polygon fill="rgb(47,77,109)" fill-opacity="1" points="49,65 41,76 40,77"/>
<polygon fill="rgb(163,163,151)" fill-opacity="1" points="64,76 68,80 69,81"/>
<polygon fill="rgb(186,197,184)" fill-opacity="1" points="15,115 22,97 14,106"/>
<polygon fill="rgb(163,172,176)" fill-opacity="1" points="49,55 45,60 50,54"/>
<polygon fill="rgb(204,172,172)" fill-opacity="0.84169394" points="100,79 120,75 100,79"/>
<polygon fill="rgb(143,186,201)" fill-opacity="0.8964026" points="69,39 90,42 69,39"/>
<polygon fill="rgb(68,128,114)" fill-opacity="0.86963964" points="55,59 49,71 55,59"/>
<polygon fill="rgb(245,235,215)" fill-opacity="1" points="92,42 102,53 104,52"/>
<polygon fill="rgb(188,196,193)" fill-opacity="1" points="69,93 85,98 69,93"/>
<polygon fill="rgb(251,251,232)" fill-opacity="1" points="86,100 81,96 73,88"/>
<polygon fill="rgb(181,192,189)" fill-opacity="1" points="50,85 46,86 45,88"/>
<polygon fill="rgb(253,248,229)" fill-opacity="1" points="95,19 122,10 113,22"/>
<polygon fill="rgb(247,235,211)" fill-opacity="1" points="70,65 72,51 72,54"/>
<polygon fill="rgb(231,216,196)" fill-opacity="0.79951656" points="90,68 97,56 90,68"/>
<polygon fill="rgb(203,180,147)" fill-opacity="0.8990299" points="78,52 89,27 78,52"/>
<polygon fill="rgb(239,238,224)" fill-opacity="1" points="48,74 48,74 45,72"/>
<polygon fill="rgb(125,132,135)" fill-opacity="1" points="90,93 86,92 89,93"/>
<polygon fill="rgb(246,218,184)" fill-opacity="0.9157057" points="65,59 70,55 65,59"/>
<polygon fill="rgb(244,226,208)" fill-opacity="0.81038314" points="101,53 102,53 101,53"/>
<polygon fill="rgb(152,151,131)" fill-opacity="0.9708147" points="107,86 108,87 109,83"/>
<polygon fill="rgb(213,217,205)" fill-opacity="1" points="32,25 22,35 28,31"/>
<polygon fill="rgb(252,250,229)" fill-opacity="1" points="56,75 44,75 63,93"/>
<polygon fill="rgb(177,169,154)" fill-opacity="1" points="80,79 82,80 81,79"/>
<polygon fill="rgb(241,229,208)" fill-opacity="1" points="93,60 96,48 93,60"/>
<polygon fill="rgb(135,151,161)" fill-opacity="1" points="35,67 34,70 33,70"/>
<polygon fill="rgb(217,223,206)" fill-opacity="1" points="0,64 0,65 0,49"/>
<polygon fill="rgb(237,225,202)" fill-opacity="0.997307" points="64,71 61,67 65,70"/>
<polygon fill="rgb(106,125,144)" fill-opacity="1" points="42,67 44,65 43,65"/>
<polygon fill="rgb(220,218,154)" fill-opacity="1" points="100,73 78,77 100,73"/>
<polygon fill="rgb(223,227,210)" fill-opacity="1" points="92,113 76,106 84,109"/>
<polygon fill="rgb(234,213,197)" fill-opacity="1" points="65,70 59,65 65,70"/>
<polygon fill="rgb(192,213,197)" fill-opacity="0.93571645" points="62,51 65,52 62,51"/>
<polygon fill="rgb(249,244,225)" fill-opacity="1" points="113,41 113,46 114,38"/>
<polygon fill="rgb(242,221,182)" fill-opacity="1" points="80,28 84,28 79,29"/>
<polygon fill="rgb(250,240,217)" fill-opacity="1" points="88,56 88,57 88,55"/>
<polygon fill="rgb(174,181,179)" fill-opacity="1" points="92,50 91,48 91,49"/>
<polygon fill="rgb(219,224,203)" fill-opacity="0.84151334" points="83,28 86,24 83,28"/>
<polygon fill="rgb(50,90,124)" fill-opacity="1" points="48,70 51,72 47,63"/>
<polygon fill="rgb(98,122,167)" fill-opacity="0.97573775" points="41,72 29,72 41,72"/>
<polygon fill="rgb(190,201,195)" fill-opacity="1" points="73,91 69,90 72,90"/>
<polygon fill="rgb(172,168,152)" fill-opacity="1" points="86,79 78,80 79,79"/>
<polygon fill="rgb(140,132,129)" fill-opacity="0.9833467" points="69,83 69,83 69,83"/>
<polygon fill="rgb(190,194,190)" fill-opacity="0.9792536" points="77,37 78,36 78,35"/>
<polygon fill="rgb(252,241,224)" fill-opacity="1" points="112,25 127,24 104,25"/>
<polygon fill="rgb(242,232,210)" fill-opacity="1" points="92,64 94,55 94,52"/>
<polygon fill="rgb(233,203,176)" fill-opacity="1" points="56,86 34,116 56,86"/>
<polygon fill="rgb(232,223,202)" fill-opacity="1" points="79,71 75,73 78,70"/>
<polygon fill="rgb(172,165,149)" fill-opacity="1" points="79,79 80,79 80,80"/>
<polygon fill="rgb(146,136,128)" fill-opacity="1" points="89,92 90,85 89,91"/>
<polygon fill="rgb(179,188,184)" fill-opacity="1" points="59,25 58,25 65,24"/>
<polygon fill="rgb(197,200,188)" fill-opacity="1" points="76,43 75,44 70,49"/>
<polygon fill="rgb(219,226,212)" fill-opacity="1" points="127,95 117,111 105,99"/>
<polygon fill="rgb(223,219,217)" fill-opacity="1" points="78,47 86,61 78,47"/>
<polygon fill="rgb(49,79,106)" fill-opacity="1" points="94,107 113,115 96,113"/>
<polygon fill="rgb(124,136,148)" fill-opacity="1" points="43,66 42,63 43,62"/>
<polygon fill="rgb(204,168,204)" fill-opacity="0.8629285" points="48,76 42,69 48,76"/>
<polygon fill="rgb(216,226,212)" fill-opacity="1" points="86,97 101,109 115,114"/>
<polygon fill="rgb(249,234,197)" fill-opacity="0.99698675" points="78,15 78,25 92,14"/>
<polygon fill="rgb(250,247,228)" fill-opacity="0.9999844" points="57,94 47,76 58,91"/>
<polygon fill="rgb(245,226,192)" fill-opacity="1" points="75,23 83,22 79,27"/>
<polygon fill="rgb(211,218,182)" fill-opacity="0.9831015" points="78,74 81,66 78,74"/>
<polygon fill="rgb(252,249,231)" fill-opacity="1" points="50,88 64,84 51,90"/>
<polygon fill="rgb(245,225,189)" fill-opacity="0.97162" points="90,30 104,37 90,30"/>
<polygon fill="rgb(243,226,198)" fill-opacity="1" points="79,72 81,55 79,72"/>
<polygon fill="rgb(177,138,173)" fill-opacity="0.8865049" points="25,100 39,119 25,100"/>
<polygon fill="rgb(148,30,241)" fill-opacity="0.79836804" points="53,46 52,54 53,46"/>
</svg>