<svg height="256" overflow="hidden" viewBox="0 0 256 256" width="256" xmlns="http://www.w3.org/2000/svg">
<rect fill="black" height="256" width="256" x="0" y="0"/>
<polygon fill="rgb(194,197,185)" points="328,-128 -265,102 260,353"/>
<polygon fill="rgb(120,141,152)" points="-111,242 116,28 118,139"/>
<polygon fill="rgb(242,233,209)" points="138,-145 394,147 124,150"/>
<polygon fill="rgb(146,156,156)" points="54,260 218,250 193,153"/>
<polygon fill="rgb(201,207,197)" points="102,112 24,145 22,63"/>
<polygon fill="rgb(120,130,133)" points="179,195 33,106 233,194"/>
<polygon fill="rgb(237,227,199)" points="170,23 102,-153 -107,131"/>
<polygon fill="rgb(55,89,115)" points="112,201 129,237 175,253"/>
<polygon fill="rgb(225,228,212)" points="116,230 -1,203 116,147"/>
<polygon fill="rgb(218,221,208)" points="199,83 74,-4 148,107"/>
<polygon fill="rgb(78,108,131)" points="118,114 19,160 63,173"/>
<polygon fill="rgb(224,230,214)" points="99,170 210,215 235,210"/>
<polygon fill="rgb(29,135,72)" points="99,54 57,67 49,88"/>
<polygon fill="rgb(142,140,132)" points="207,162 278,153 234,195"/>
<polygon fill="rgb(227,226,206)" points="-114,15 48,117 73,91"/>
<polygon fill="rgb(156,171,173)" points="55,151 80,110 53,121"/>
<polygon fill="rgb(190,188,152)" points="160,230 195,239 194,252"/>
<polygon fill="rgb(234,227,207)" points="115,118 132,74 122,143"/>
<polygon fill="rgb(245,198,198)" points="85,144 134,181 140,174"/>
<polygon fill="rgb(105,124,136)" points="249,238 162,220 266,217"/>
<polygon fill="rgb(216,224,210)" points="209,222 233,230 91,145"/>
<polygon fill="rgb(242,241,223)" points="161,218 98,142 76,160"/>
<polygon fill="rgb(213,213,202)" points="169,114 174,89 190,100"/>
<polygon fill="rgb(61,96,124)" points="132,69 47,67 110,118"/>
<polygon fill="rgb(87,110,130)" points="-23,108 26,134 20,117"/>
<polygon fill="rgb(163,161,147)" points="143,170 124,150 232,163"/>
<polygon fill="rgb(71,143,168)" points="31,226 43,249 7,241"/>
<polygon fill="rgb(250,247,226)" points="83,183 43,190 95,146"/>
<polygon fill="rgb(216,208,185)" points="158,157 305,147 126,148"/>
<polygon fill="rgb(193,203,192)" points="89,247 86,215 14,228"/>
<polygon fill="rgb(231,232,214)" points="83,123 10,37 93,123"/>
<polygon fill="rgb(171,175,165)" points="-34,130 54,181 13,187"/>
<polygon fill="rgb(240,237,215)" points="35,187 -5,192 -49,239"/>
<polygon fill="rgb(208,217,203)" points="100,191 98,167 47,209"/>
<polygon fill="rgb(230,234,217)" points="182,200 241,194 288,217"/>
<polygon fill="rgb(211,218,208)" points="146,65 117,70 151,39"/>
<polygon fill="rgb(146,166,173)" points="126,57 127,88 130,87"/>
<polygon fill="rgb(248,241,218)" points="180,26 201,130 448,17"/>
<polygon fill="rgb(216,193,167)" points="242,243 197,246 176,222"/>
<polygon fill="rgb(228,231,216)" points="133,204 113,150 147,195"/>
<polygon fill="rgb(243,234,212)" points="137,87 119,97 116,118"/>
<polygon fill="rgb(233,234,217)" points="228,184 208,168 186,181"/>
<polygon fill="rgb(218,224,207)" points="63,242 92,240 72,213"/>
<polygon fill="rgb(230,233,217)" points="159,202 107,149 158,196"/>
<polygon fill="rgb(225,228,210)" points="153,214 183,225 128,195"/>
<polygon fill="rgb(183,180,160)" points="229,160 284,152 140,157"/>
<polygon fill="rgb(234,236,206)" points="83,35 7,104 101,28"/>
<polygon fill="rgb(138,158,172)" points="-13,211 65,249 61,234"/>
<polygon fill="rgb(241,228,200)" points="58,22 37,31 42,96"/>
<polygon fill="rgb(204,209,201)" points="173,105 140,83 127,65"/>
<polygon fill="rgb(246,236,213)" points="118,131 118,98 163,105"/>
<polygon fill="rgb(234,225,201)" points="228,149 121,134 126,148"/>
<polygon fill="rgb(73,103,125)" points="157,211 177,198 211,231"/>
<polygon fill="rgb(251,247,227)" points="255,43 174,56 239,17"/>
<polygon fill="rgb(162,176,176)" points="102,42 43,71 93,58"/>
<polygon fill="rgb(66,96,118)" points="-36,204 56,243 13,380"/>
<polygon fill="rgb(202,212,201)" points="33,114 72,133 55,145"/>
<polygon fill="rgb(239,223,189)" points="143,64 175,37 167,59"/>
<polygon fill="rgb(81,116,125)" points="110,120 78,128 107,136"/>
<polygon fill="rgb(200,194,173)" points="280,149 209,157 167,156"/>
<polygon fill="rgb(238,241,228)" points="171,106 151,62 173,103"/>
<polygon fill="rgb(81,109,131)" points="131,160 49,118 114,128"/>
<polygon fill="rgb(107,116,144)" points="74,102 100,99 71,96"/>
<polygon fill="rgb(204,212,204)" points="61,55 107,36 102,51"/>
<polygon fill="rgb(150,162,165)" points="118,189 111,208 140,212"/>
<polygon fill="rgb(93,107,117)" points="208,196 125,163 170,191"/>
<polygon fill="rgb(243,233,207)" points="127,166 112,150 97,147"/>
<polygon fill="rgb(132,150,156)" points="28,143 37,135 48,136"/>
<polygon fill="rgb(205,213,199)" points="30,97 -29,84 72,144"/>
<polygon fill="rgb(244,239,217)" points="-31,117 55,37 48,83"/>
<polygon fill="rgb(227,233,216)" points="249,226 138,184 210,201"/>
<polygon fill="rgb(197,206,195)" points="78,87 27,113 26,140"/>
<polygon fill="rgb(239,232,213)" points="128,109 128,110 122,90"/>
<polygon fill="rgb(210,216,207)" points="150,102 127,75 165,70"/>
<polygon fill="rgb(244,235,213)" points="219,145 181,89 202,80"/>
<polygon fill="rgb(235,229,204)" points="127,73 81,17 64,-51"/>
<polygon fill="rgb(244,235,212)" points="154,94 187,137 151,131"/>
<polygon fill="rgb(209,211,210)" points="110,216 94,214 74,203"/>
<polygon fill="rgb(210,211,201)" points="189,85 161,61 178,64"/>
<polygon fill="rgb(192,203,192)" points="157,191 190,221 172,201"/>
<polygon fill="rgb(132,134,128)" points="129,168 211,160 176,191"/>
<polygon fill="rgb(209,216,207)" points="114,61 111,34 137,58"/>
<polygon fill="rgb(201,195,173)" points="130,154 172,156 126,146"/>
<polygon fill="rgb(179,200,189)" points="88,188 3,240 31,228"/>
<polygon fill="rgb(247,238,215)" points="124,92 134,140 141,95"/>
<polygon fill="rgb(237,229,208)" points="183,102 179,102 182,122"/>
<polygon fill="rgb(245,245,230)" points="165,64 136,61 159,70"/>
<polygon fill="rgb(208,216,201)" points="60,250 27,177 86,234"/>
<polygon fill="rgb(204,210,201)" points="104,31 111,49 116,26"/>
<polygon fill="rgb(243,247,233)" points="131,83 134,76 139,85"/>
<polygon fill="rgb(239,232,211)" points="170,116 172,151 158,89"/>
<polygon fill="rgb(250,237,229)" points="105,9 98,28 31,74"/>
<polygon fill="rgb(206,210,201)" points="164,77 179,113 181,109"/>
<polygon fill="rgb(247,233,201)" points="257,49 236,65 272,84"/>
<polygon fill="rgb(235,227,205)" points="135,139 116,144 188,132"/>
<polygon fill="rgb(209,200,174)" points="-24,85 43,45 -45,128"/>
<polygon fill="rgb(214,209,208)" points="159,76 129,83 125,85"/>
<polygon fill="rgb(153,156,149)" points="146,176 168,191 145,174"/>
<polygon fill="rgb(246,237,214)" points="237,84 284,157 227,123"/>
<polygon fill="rgb(56,91,121)" points="105,46 99,140 116,128"/>
<polygon fill="rgb(99,125,133)" points="88,109 95,107 93,87"/>
<polygon fill="rgb(228,233,221)" points="124,33 125,73 118,34"/>
<polygon fill="rgb(52,88,118)" points="79,55 57,86 119,65"/>
<polygon fill="rgb(243,242,218)" points="44,184 56,174 61,216"/>
<polygon fill="rgb(215,221,204)" points="108,218 245,326 55,195"/>
<polygon fill="rgb(241,232,209)" points="178,131 176,150 155,138"/>
<polygon fill="rgb(250,248,228)" points="59,183 122,161 93,142"/>
<polygon fill="rgb(228,233,222)" points="171,86 176,86 145,63"/>
<polygon fill="rgb(123,125,119)" points="178,174 165,190 144,172"/>
<polygon fill="rgb(188,201,191)" points="65,150 12,98 29,102"/>
<polygon fill="rgb(198,206,193)" points="40,212 17,236 48,226"/>
<polygon fill="rgb(248,234,197)" points="171,35 521,-60 26,15"/>
<polygon fill="rgb(231,236,217)" points="57,205 133,187 54,216"/>
<polygon fill="rgb(206,212,204)" points="103,48 133,40 159,54"/>
<polygon fill="rgb(246,237,214)" points="209,135 249,111 145,126"/>
<polygon fill="rgb(248,233,195)" points="177,55 185,-57 81,-2"/>
<polygon fill="rgb(242,242,224)" points="150,180 70,157 148,176"/>
<polygon fill="rgb(246,236,212)" points="119,134 116,122 149,98"/>
<polygon fill="rgb(214,208,188)" points="155,44 147,38 151,61"/>
<polygon fill="rgb(240,244,229)" points="179,78 158,90 179,74"/>
<polygon fill="rgb(247,239,218)" points="281,108 296,68 222,102"/>
<polygon fill="rgb(67,102,127)" points="69,153 55,172 -104,110"/>
<polygon fill="rgb(204,212,198)" points="32,185 41,228 70,244"/>
<polygon fill="rgb(229,225,205)" points="114,20 130,29 82,23"/>
<polygon fill="rgb(82,129,136)" points="100,89 96,89 105,79"/>
<polygon fill="rgb(171,181,174)" points="145,75 157,85 142,72"/>
<polygon fill="rgb(247,244,221)" points="30,103 44,71 61,91"/>
<polygon fill="rgb(239,234,215)" points="186,83 188,87 174,99"/>
<polygon fill="rgb(239,222,186)" points="109,-160 -66,94 131,-32"/>
<polygon fill="rgb(181,177,160)" points="156,156 131,153 142,163"/>
<polygon fill="rgb(199,203,196)" points="123,131 110,133 109,134"/>
<polygon fill="rgb(81,113,133)" points="3,248 23,207 29,219"/>
<polygon fill="rgb(163,162,147)" points="191,164 167,159 261,158"/>
<polygon fill="rgb(157,155,141)" points="206,165 254,159 268,152"/>
<polygon fill="rgb(244,235,213)" points="121,90 174,136 177,136"/>
<polygon fill="rgb(198,206,197)" points="122,166 149,206 129,171"/>
<polygon fill="rgb(248,239,216)" points="180,28 197,94 181,64"/>
<polygon fill="rgb(74,112,140)" points="122,82 79,144 127,87"/>
<polygon fill="rgb(202,214,205)" points="141,76 147,65 153,68"/>
<polygon fill="rgb(230,229,214)" points="150,82 174,71 184,71"/>
<polygon fill="rgb(198,206,200)" points="149,89 125,64 100,35"/>
<polygon fill="rgb(247,234,208)" points="244,72 246,71 231,64"/>
<polygon fill="rgb(232,238,225)" points="143,75 146,84 146,74"/>
<polygon fill="rgb(188,194,189)" points="175,88 186,99 180,98"/>
<polygon fill="rgb(230,235,219)" points="95,182 73,194 79,181"/>
<polygon fill="rgb(123,209,221)" points="142,123 149,111 142,123"/>
<polygon fill="rgb(234,237,218)" points="106,211 126,246 109,196"/>
<polygon fill="rgb(235,238,219)" points="256,188 196,204 221,211"/>
<polygon fill="rgb(241,244,232)" points="143,87 133,79 132,82"/>
<polygon fill="rgb(182,192,188)" points="175,84 179,88 178,83"/>
<polygon fill="rgb(248,242,221)" points="210,70 216,113 232,79"/>
<polygon fill="rgb(195,172,153)" points="114,195 182,246 151,233"/>
<polygon fill="rgb(244,236,212)" points="172,107 176,144 173,120"/>
<polygon fill="rgb(104,107,110)" points="212,183 242,191 202,194"/>
<polygon fill="rgb(191,197,186)" points="124,60 155,54 156,52"/>
<polygon fill="rgb(190,205,199)" points="103,107 81,125 102,112"/>
<polygon fill="rgb(243,242,223)" points="53,92 68,86 66,100"/>
<polygon fill="rgb(243,243,232)" points="97,34 66,24 82,41"/>
<polygon fill="rgb(252,247,227)" points="234,56 193,28 178,32"/>
<polygon fill="rgb(199,210,200)" points="68,127 64,123 53,151"/>
<polygon fill="rgb(235,238,226)" points="124,66 145,60 140,63"/>
<polygon fill="rgb(188,201,190)" points="23,143 30,148 26,138"/>
<polygon fill="rgb(222,218,193)" points="238,249 255,250 173,235"/>
<polygon fill="rgb(232,223,200)" points="176,155 174,144 174,151"/>
<polygon fill="rgb(230,233,223)" points="163,77 159,76 188,87"/>
<polygon fill="rgb(247,238,217)" points="190,43 197,87 174,58"/>
<polygon fill="rgb(247,237,215)" points="172,57 172,60 210,88"/>
<polygon fill="rgb(209,184,155)" points="240,212 188,186 172,175"/>
<polygon fill="rgb(242,233,212)" points="179,93 217,90 181,84"/>
<polygon fill="rgb(246,236,212)" points="120,133 138,138 124,91"/>
<polygon fill="rgb(230,227,211)" points="149,56 152,43 147,51"/>
<polygon fill="rgb(247,234,210)" points="165,139 140,105 123,92"/>
<polygon fill="rgb(165,156,149)" points="226,235 232,230 269,256"/>
<polygon fill="rgb(38,74,106)" points="112,58 93,93 105,49"/>
<polygon fill="rgb(210,218,203)" points="22,217 -4,216 10,201"/>
<polygon fill="rgb(247,239,216)" points="208,111 209,68 216,125"/>
<polygon fill="rgb(250,245,224)" points="234,54 184,50 181,35"/>
<polygon fill="rgb(176,188,181)" points="37,107 26,150 38,108"/>
<polygon fill="rgb(224,223,201)" points="167,272 191,258 122,243"/>
<polygon fill="rgb(73,106,131)" points="54,147 24,160 46,136"/>
<polygon fill="rgb(182,193,192)" points="91,55 89,65 107,36"/>
<polygon fill="rgb(246,242,225)" points="119,21 34,64 118,14"/>
<polygon fill="rgb(213,242,202)" points="121,136 136,129 121,136"/>
<polygon fill="rgb(126,127,121)" points="189,174 162,188 142,170"/>
<polygon fill="rgb(180,189,185)" points="149,72 149,71 136,62"/>
<polygon fill="rgb(149,148,136)" points="203,167 145,163 209,161"/>
<polygon fill="rgb(235,235,217)" points="103,17 143,43 149,40"/>
<polygon fill="rgb(243,243,225)" points="219,177 202,170 206,186"/>
<polygon fill="rgb(189,186,181)" points="164,108 169,107 168,104"/>
<polygon fill="rgb(234,224,195)" points="53,106 93,117 71,113"/>
<polygon fill="rgb(212,162,162)" points="62,188 12,18 62,188"/>
<polygon fill="rgb(251,248,228)" points="115,151 109,149 57,176"/>
<polygon fill="rgb(225,217,196)" points="117,143 141,145 178,149"/>
<polygon fill="rgb(194,204,195)" points="149,191 142,184 141,196"/>
<polygon fill="rgb(242,233,212)" points="209,89 181,106 180,117"/>
<polygon fill="rgb(237,243,218)" points="81,44 120,21 90,34"/>
<polygon fill="rgb(246,228,190)" points="155,48 158,56 181,44"/>
<polygon fill="rgb(214,221,209)" points="91,111 66,107 89,127"/>
<polygon fill="rgb(244,231,195)" points="89,-1 117,22 232,-11"/>
<polygon fill="rgb(239,229,205)" points="176,148 138,132 119,134"/>
<polygon fill="rgb(210,221,209)" points="119,190 83,184 119,199"/>
<polygon fill="rgb(213,214,202)" points="160,93 130,89 163,94"/>
<polygon fill="rgb(212,219,205)" points="68,125 38,128 64,138"/>
<polygon fill="rgb(65,105,134)" points="102,57 85,98 100,52"/>
<polygon fill="rgb(247,239,216)" points="185,128 208,125 222,112"/>
<polygon fill="rgb(233,222,199)" points="176,150 296,144 232,142"/>
<polygon fill="rgb(220,212,187)" points="190,150 209,154 239,149"/>
<polygon fill="rgb(221,225,207)" points="103,245 101,241 46,223"/>
<polygon fill="rgb(250,237,200)" points="201,34 246,11 197,5"/>
<polygon fill="rgb(165,163,155)" points="185,235 135,212 153,230"/>
<polygon fill="rgb(246,235,214)" points="195,87 182,72 185,54"/>
<polygon fill="rgb(209,207,192)" points="115,121 118,105 116,116"/>
<polygon fill="rgb(223,217,202)" points="145,162 142,162 145,159"/>
<polygon fill="rgb(244,237,217)" points="210,68 161,76 213,66"/>
<polygon fill="rgb(239,228,204)" points="172,146 121,140 119,131"/>
<polygon fill="rgb(213,219,204)" points="85,290 72,183 83,242"/>
<polygon fill="rgb(240,236,212)" points="15,215 32,201 35,186"/>
<polygon fill="rgb(198,208,197)" points="115,192 54,245 93,218"/>
<polygon fill="rgb(200,205,201)" points="167,85 167,74 164,81"/>
<polygon fill="rgb(239,229,205)" points="208,146 216,136 240,141"/>
<polygon fill="rgb(238,231,210)" points="124,91 121,90 181,118"/>
<polygon fill="rgb(226,217,194)" points="131,147 215,150 161,150"/>
<polygon fill="rgb(156,153,139)" points="155,161 135,160 145,160"/>
<polygon fill="rgb(110,141,157)" points="139,200 137,213 150,220"/>
<polygon fill="rgb(192,203,194)" points="137,209 142,189 138,210"/>
<polygon fill="rgb(213,206,184)" points="125,147 129,146 156,152"/>
<polygon fill="rgb(246,232,194)" points="167,49 169,54 170,53"/>
<polygon fill="rgb(204,205,189)" points="182,229 145,218 149,220"/>
<polygon fill="rgb(161,163,158)" points="123,144 122,143 121,143"/>
<polygon fill="rgb(193,210,198)" points="55,204 29,210 47,193"/>
<polygon fill="rgb(195,203,199)" points="182,83 170,81 183,82"/>
<polygon fill="rgb(244,235,211)" points="224,123 242,141 238,107"/>
<polygon fill="rgb(143,142,133)" points="243,163 143,169 141,166"/>
<polygon fill="rgb(221,213,190)" points="190,151 162,152 176,152"/>
<polygon fill="rgb(248,244,222)" points="48,109 51,80 34,75"/>
<polygon fill="rgb(203,212,198)" points="104,204 108,235 111,238"/>
<polygon fill="rgb(243,233,210)" points="199,132 126,132 218,140"/>
<polygon fill="rgb(133,134,128)" points="144,172 198,167 141,174"/>
<polygon fill="rgb(246,243,224)" points="65,32 14,72 106,35"/>
<polygon fill="rgb(190,198,194)" points="157,78 151,74 159,82"/>
<polygon fill="rgb(230,220,195)" points="121,140 127,147 162,148"/>
<polygon fill="rgb(247,241,222)" points="202,92 232,89 174,95"/>
<polygon fill="rgb(89,112,135)" points="33,180 53,175 40,185"/>
<polygon fill="rgb(232,234,213)" points="124,246 136,249 110,209"/>
<polygon fill="rgb(183,197,189)" points="20,137 43,124 39,138"/>
<polygon fill="rgb(231,222,199)" points="169,150 200,146 173,149"/>
<polygon fill="rgb(245,231,196)" points="251,57 328,84 261,108"/>
<polygon fill="rgb(248,233,196)" points="153,50 183,44 156,35"/>
<polygon fill="rgb(213,190,166)" points="205,230 254,242 221,246"/>
<polygon fill="rgb(241,233,210)" points="161,136 160,131 168,104"/>
<polygon fill="rgb(250,247,225)" points="56,195 34,188 115,152"/>
<polygon fill="rgb(161,189,189)" points="34,105 35,111 31,143"/>
<polygon fill="rgb(209,203,180)" points="164,153 169,153 172,156"/>
<polygon fill="rgb(203,207,197)" points="95,163 97,169 104,174"/>
<polygon fill="rgb(249,243,222)" points="313,28 209,52 215,65"/>
<polygon fill="rgb(225,228,212)" points="40,139 38,138 39,141"/>
<polygon fill="rgb(169,171,151)" points="186,159 176,160 165,160"/>
<polygon fill="rgb(243,233,212)" points="182,88 208,90 190,105"/>
<polygon fill="rgb(241,231,206)" points="123,142 142,130 147,133"/>
<polygon fill="rgb(246,237,214)" points="136,86 117,103 139,135"/>
<polygon fill="rgb(167,224,163)" points="165,138 165,147 165,138"/>
<polygon fill="rgb(187,185,165)" points="142,37 138,33 134,30"/>
<polygon fill="rgb(250,236,197)" points="164,36 214,20 158,1"/>
<polygon fill="rgb(48,77,107)" points="100,108 110,104 117,62"/>
<polygon fill="rgb(194,192,173)" points="141,157 144,153 135,163"/>
<polygon fill="rgb(247,237,213)" points="148,113 126,109 149,98"/>
<polygon fill="rgb(236,218,180)" points="77,-8 31,12 -40,-9"/>
<polygon fill="rgb(191,205,197)" points="64,203 58,198 93,194"/>
<polygon fill="rgb(245,235,213)" points="196,121 181,101 193,115"/>
<polygon fill="rgb(236,225,201)" points="198,114 181,112 196,114"/>
<polygon fill="rgb(37,72,104)" points="86,56 80,101 92,73"/>
<polygon fill="rgb(178,189,184)" points="22,124 37,137 46,134"/>
<polygon fill="rgb(219,206,177)" points="149,60 158,53 154,63"/>
<polygon fill="rgb(203,211,204)" points="132,34 134,47 112,56"/>
<polygon fill="rgb(244,236,214)" points="206,114 210,122 172,73"/>
<polygon fill="rgb(216,219,208)" points="96,124 84,118 82,124"/>
<polygon fill="rgb(52,77,101)" points="210,194 167,187 182,194"/>
<polygon fill="rgb(220,212,190)" points="146,148 174,152 154,151"/>
<polygon fill="rgb(213,217,200)" points="-1,135 3,101 -32,143"/>
<polygon fill="rgb(211,220,207)" points="121,186 132,204 139,200"/>
<polygon fill="rgb(186,197,189)" points="100,226 108,223 28,224"/>
<polygon fill="rgb(237,228,205)" points="122,93 116,119 118,105"/>
<polygon fill="rgb(239,241,227)" points="127,29 118,37 125,48"/>
<polygon fill="rgb(205,212,200)" points="59,135 63,150 42,104"/>
<polygon fill="rgb(67,93,117)" points="128,166 144,174 94,121"/>
<polygon fill="rgb(245,235,213)" points="186,130 146,132 157,104"/>
<polygon fill="rgb(228,230,214)" points="73,107 87,97 79,109"/>
<polygon fill="rgb(252,250,230)" points="137,187 111,160 100,181"/>
<polygon fill="rgb(238,220,182)" points="171,54 159,61 150,59"/>
<polygon fill="rgb(246,231,195)" points="58,11 151,30 148,-35"/>
<polygon fill="rgb(237,231,208)" points="162,153 164,151 163,153"/>
<polygon fill="rgb(239,229,206)" points="182,145 209,144 181,141"/>
<polygon fill="rgb(246,239,222)" points="173,56 164,66 177,54"/>
<polygon fill="rgb(240,230,206)" points="171,138 162,135 158,146"/>
<polygon fill="rgb(194,195,186)" points="181,108 181,108 165,107"/>
<polygon fill="rgb(233,237,218)" points="71,232 73,192 69,220"/>
<polygon fill="rgb(243,246,231)" points="169,96 158,89 162,82"/>
<polygon fill="rgb(166,167,158)" points="63,32 84,24 72,28"/>
<polygon fill="rgb(180,177,159)" points="220,156 218,159 192,159"/>
<polygon fill="rgb(221,228,217)" points="137,77 133,49 133,44"/>
<polygon fill="rgb(224,196,159)" points="239,188 243,179 251,186"/>
<polygon fill="rgb(234,231,216)" points="179,99 175,102 164,115"/>
<polygon fill="rgb(238,203,160)" points="239,186 263,175 300,179"/>
<polygon fill="rgb(157,165,162)" points="126,152 132,155 131,154"/>
<polygon fill="rgb(231,226,208)" points="178,108 171,113 184,106"/>
<polygon fill="rgb(203,213,203)" points="75,65 69,41 60,58"/>
<polygon fill="rgb(209,202,179)" points="266,149 218,152 210,155"/>
<polygon fill="rgb(70,111,136)" points="272,224 239,212 305,216"/>
<polygon fill="rgb(244,234,211)" points="186,121 182,129 207,111"/>
<polygon fill="rgb(202,212,202)" points="59,111 14,116 13,117"/>
<polygon fill="rgb(148,148,140)" points="157,182 157,182 204,182"/>
<polygon fill="rgb(245,236,213)" points="197,138 220,133 218,127"/>
<polygon fill="rgb(190,200,189)" points="32,207 35,238 37,235"/>
<polygon fill="rgb(241,225,208)" points="116,125 119,97 116,124"/>
<polygon fill="rgb(183,191,188)" points="111,57 128,48 110,56"/>
<polygon fill="rgb(243,232,208)" points="192,117 138,118 152,122"/>
<polygon fill="rgb(223,229,216)" points="179,79 188,81 184,81"/>
<polygon fill="rgb(194,202,197)" points="131,37 141,48 117,29"/>
<polygon fill="rgb(169,167,151)" points="266,154 232,159 212,160"/>
<polygon fill="rgb(224,226,213)" points="131,86 155,93 146,89"/>
<polygon fill="rgb(178,190,188)" points="102,113 82,105 104,116"/>
<polygon fill="rgb(200,208,199)" points="151,202 121,162 122,164"/>
<polygon fill="rgb(228,222,204)" points="185,86 191,85 192,87"/>
<polygon fill="rgb(185,191,187)" points="174,87 172,89 166,86"/>
<polygon fill="rgb(244,247,232)" points="165,73 170,77 179,80"/>
<polygon fill="rgb(192,190,172)" points="-23,148 46,174 25,180"/>
<polygon fill="rgb(201,212,201)" points="25,143 21,144 37,133"/>
<polygon fill="rgb(125,146,165)" points="138,169 138,168 140,170"/>
<polygon fill="rgb(238,242,230)" points="165,96 182,96 164,96"/>
<polygon fill="rgb(241,232,208)" points="6,45 23,60 65,26"/>
<polygon fill="rgb(222,221,200)" points="116,124 120,136 119,133"/>
<polygon fill="rgb(229,237,217)" points="64,189 65,195 89,248"/>
<polygon fill="rgb(227,216,193)" points="204,151 256,146 224,147"/>
<polygon fill="rgb(246,236,215)" points="206,95 199,91 202,108"/>
<polygon fill="rgb(108,129,146)" points="83,109 116,80 114,81"/>
<polygon fill="rgb(118,141,152)" points="171,221 168,220 145,223"/>
<polygon fill="rgb(199,199,195)" points="76,166 70,160 70,156"/>
<polygon fill="rgb(225,199,160)" points="181,182 200,192 192,184"/>
<polygon fill="rgb(249,234,197)" points="162,15 146,-58 180,-2"/>
<polygon fill="rgb(248,239,218)" points="194,65 191,60 234,58"/>
<polygon fill="rgb(244,235,212)" points="231,121 204,140 229,120"/>
<polygon fill="rgb(209,200,180)" points="172,153 203,153 181,154"/>
<polygon fill="rgb(213,207,184)" points="212,155 219,152 207,152"/>
<polygon fill="rgb(216,210,189)" points="148,153 147,155 149,150"/>
<polygon fill="rgb(203,218,208)" points="168,200 172,205 192,221"/>
<polygon fill="rgb(249,247,227)" points="90,145 94,163 166,221"/>
<polygon fill="rgb(247,240,216)" points="153,102 166,103 152,111"/>
<polygon fill="rgb(175,173,167)" points="117,108 117,105 117,102"/>
<polygon fill="rgb(225,230,206)" points="238,252 251,240 102,277"/>
<polygon fill="rgb(125,129,154)" points="80,120 95,137 68,114"/>
<polygon fill="rgb(210,177,141)" points="156,232 188,239 241,241"/>
<polygon fill="rgb(255,50,101)" points="171,14 132,51 171,14"/>
<polygon fill="rgb(83,95,119)" points="113,210 125,229 159,252"/>
<polygon fill="rgb(88,110,129)" points="74,115 52,121 59,127"/>
<polygon fill="rgb(92,126,146)" points="15,229 28,221 -10,251"/>
<polygon fill="rgb(246,230,195)" points="201,-14 37,38 62,6"/>
<polygon fill="rgb(206,237,149)" points="90,33 83,170 90,33"/>
<polygon fill="rgb(161,178,177)" points="99,179 99,183 95,191"/>
<polygon fill="rgb(243,232,214)" points="161,120 158,98 159,97"/>
<polygon fill="rgb(185,186,179)" points="146,97 141,89 139,90"/>
<polygon fill="rgb(245,237,214)" points="155,99 158,98 176,145"/>
<polygon fill="rgb(247,238,215)" points="179,128 203,122 169,132"/>
<polygon fill="rgb(193,204,193)" points="61,234 100,217 63,238"/>
<polygon fill="rgb(191,194,170)" points="208,157 205,155 178,155"/>
<polygon fill="rgb(245,238,217)" points="182,75 218,91 192,80"/>
<polygon fill="rgb(248,239,218)" points="179,125 183,126 177,122"/>
<polygon fill="rgb(187,195,192)" points="82,108 107,109 87,108"/>
<polygon fill="rgb(243,233,210)" points="185,113 154,123 164,116"/>
<polygon fill="rgb(227,230,218)" points="151,85 141,102 150,88"/>
<polygon fill="rgb(237,236,214)" points="56,238 59,245 79,237"/>
<polygon fill="rgb(246,241,217)" points="38,106 33,54 34,106"/>
<polygon fill="rgb(243,233,210)" points="185,83 196,104 190,118"/>
<polygon fill="rgb(206,216,205)" points="129,189 142,211 119,185"/>
<polygon fill="rgb(212,207,184)" points="161,153 156,153 118,142"/>
<polygon fill="rgb(122,126,121)" points="173,188 154,180 177,182"/>
<polygon fill="rgb(242,232,209)" points="125,135 178,136 198,136"/>
<polygon fill="rgb(229,237,218)" points="185,204 217,196 247,218"/>
<polygon fill="rgb(242,233,210)" points="157,138 163,128 178,110"/>
<polygon fill="rgb(249,243,221)" points="226,104 210,80 231,96"/>
<polygon fill="rgb(64,97,124)" points="101,146 68,117 69,129"/>
<polygon fill="rgb(241,230,208)" points="118,130 121,98 118,99"/>
<polygon fill="rgb(182,192,186)" points="56,97 51,97 54,111"/>
<polygon fill="rgb(249,234,196)" points="137,29 87,11 146,3"/>
<polygon fill="rgb(241,231,207)" points="173,123 195,106 182,120"/>
<polygon fill="rgb(248,240,219)" points="248,56 191,87 227,50"/>
<polygon fill="rgb(175,173,155)" points="150,159 181,159 147,158"/>
<polygon fill="rgb(225,216,192)" points="171,152 195,148 195,147"/>
<polygon fill="rgb(239,242,229)" points="171,88 169,81 175,82"/>
<polygon fill="rgb(247,238,216)" points="206,89 223,104 205,97"/>
<polygon fill="rgb(185,190,182)" points="140,43 154,52 146,49"/>
<polygon fill="rgb(248,240,218)" points="212,123 211,122 230,103"/>
<polygon fill="rgb(243,234,209)" points="227,130 235,142 223,135"/>
<polygon fill="rgb(238,228,205)" points="202,141 211,148 188,140"/>
<polygon fill="rgb(188,202,194)" points="79,215 81,205 76,209"/>
<polygon fill="rgb(244,234,211)" points="186,138 172,131 173,142"/>
<polygon fill="rgb(126,128,122)" points="252,170 221,172 233,188"/>
<polygon fill="rgb(192,198,186)" points="26,240 13,231 19,230"/>
<polygon fill="rgb(242,225,211)" points="96,209 78,204 89,199"/>
<polygon fill="rgb(246,236,213)" points="189,138 184,139 184,135"/>
<polygon fill="rgb(215,206,184)" points="126,148 145,151 129,146"/>
<polygon fill="rgb(61,123,175)" points="130,249 104,252 104,249"/>
<polygon fill="rgb(54,109,144)" points="110,101 117,97 113,134"/>
<polygon fill="rgb(109,143,160)" points="320,184 241,199 282,197"/>
<polygon fill="rgb(245,234,213)" points="183,107 182,106 183,109"/>
<polygon fill="rgb(224,129,144)" points="182,152 156,130 182,152"/>
<polygon fill="rgb(207,214,199)" points="62,117 74,92 57,124"/>
<polygon fill="rgb(247,226,187)" points="118,3 139,0 161,-61"/>
<polygon fill="rgb(169,181,178)" points="135,59 130,81 133,72"/>
<polygon fill="rgb(192,192,182)" points="147,96 142,101 140,99"/>
<polygon fill="rgb(193,245,164)" points="229,104 234,99 229,104"/>
<polygon fill="rgb(226,216,193)" points="170,151 124,144 127,146"/>
<polygon fill="rgb(252,250,230)" points="95,143 119,160 126,189"/>
<polygon fill="rgb(236,224,205)" points="155,142 144,144 152,142"/>
<polygon fill="rgb(240,231,208)" points="162,130 152,137 165,133"/>
<polygon fill="rgb(68,96,118)" points="89,225 273,353 85,231"/>
<polygon fill="rgb(195,205,200)" points="136,211 132,207 129,200"/>
<polygon fill="rgb(233,229,206)" points="175,152 176,156 175,155"/>
<polygon fill="rgb(204,205,175)" points="165,152 194,138 165,152"/>
<polygon fill="rgb(218,228,217)" points="156,199 160,200 162,207"/>
<polygon fill="rgb(185,196,193)" points="99,60 91,52 100,64"/>
<polygon fill="rgb(247,237,213)" points="120,130 143,128 142,101"/>
<polygon fill="rgb(250,247,228)" points="93,25 84,51 58,38"/>
<polygon fill="rgb(252,249,229)" points="184,32 238,34 214,45"/>
<polygon fill="rgb(245,237,214)" points="206,110 185,104 207,102"/>
<polygon fill="rgb(117,136,149)" points="120,208 118,201 112,213"/>
<polygon fill="rgb(213,208,190)" points="118,23 133,30 109,21"/>
<polygon fill="rgb(170,184,180)" points="45,218 15,239 23,235"/>
<polygon fill="rgb(234,223,202)" points="152,138 158,142 152,148"/>
<polygon fill="rgb(112,153,211)" points="132,171 123,156 132,171"/>
<polygon fill="rgb(238,241,230)" points="156,76 154,67 159,90"/>
<polygon fill="rgb(242,244,230)" points="117,61 129,57 125,54"/>
<polygon fill="rgb(224,233,223)" points="128,60 142,70 141,67"/>
<polygon fill="rgb(202,212,205)" points="70,120 51,100 56,102"/>
<polygon fill="rgb(246,235,212)" points="184,108 207,114 208,111"/>
<polygon fill="rgb(26,78,245)" points="32,217 221,66 32,217"/>
<polygon fill="rgb(239,228,205)" points="187,113 171,119 190,112"/>
<polygon fill="rgb(86,125,148)" points="133,74 112,70 121,71"/>
<polygon fill="rgb(202,212,203)" points="149,59 139,44 138,55"/>
<polygon fill="rgb(254,248,225)" points="175,123 174,123 174,125"/>
<polygon fill="rgb(168,180,176)" points="26,151 29,147 24,151"/>
<polygon fill="rgb(127,135,124)" points="152,187 124,148 152,187"/>
<polygon fill="rgb(246,246,224)" points="120,230 111,224 110,201"/>
<polygon fill="rgb(232,236,220)" points="285,174 244,191 292,218"/>
<polygon fill="rgb(222,232,216)" points="144,90 146,95 150,94"/>
<polygon fill="rgb(142,164,158)" points="218,150 201,159 218,150"/>
<polygon fill="rgb(160,163,159)" points="33,180 12,180 25,186"/>
<polygon fill="rgb(245,235,211)" points="189,137 202,131 200,135"/>
<polygon fill="rgb(240,235,213)" points="44,47 21,64 -1,89"/>
<polygon fill="rgb(251,248,229)" points="93,177 68,170 77,160"/>
<polygon fill="rgb(236,225,202)" points="258,140 242,144 198,146"/>
<polygon fill="rgb(75,105,130)" points="124,162 133,161 119,139"/>
<polygon fill="rgb(119,136,144)" points="113,149 135,161 133,161"/>
<polygon fill="rgb(246,237,214)" points="156,118 158,126 147,98"/>
<polygon fill="rgb(247,238,216)" points="223,76 236,63 237,74"/>
<polygon fill="rgb(242,235,212)" points="148,126 157,89 155,100"/>
<polygon fill="rgb(211,218,202)" points="17,109 1,106 45,128"/>
<polygon fill="rgb(232,221,197)" points="128,148 123,143 118,132"/>
<polygon fill="rgb(223,209,174)" points="-48,127 22,60 -38,32"/>
<polygon fill="rgb(243,235,213)" points="181,103 181,121 181,128"/>
<polygon fill="rgb(250,248,229)" points="79,27 93,40 114,23"/>
<polygon fill="rgb(227,218,191)" points="175,245 237,244 165,237"/>
<polygon fill="rgb(250,243,223)" points="181,49 198,40 181,56"/>
<polygon fill="rgb(244,236,214)" points="244,87 238,94 239,81"/>
<polygon fill="rgb(189,192,184)" points="157,91 157,97 156,85"/>
<polygon fill="rgb(247,238,214)" points="218,125 220,124 186,132"/>
<polygon fill="rgb(152,151,139)" points="139,164 170,162 138,166"/>
<polygon fill="rgb(187,183,164)" points="165,155 184,160 184,160"/>
<polygon fill="rgb(201,215,208)" points="118,194 122,209 119,205"/>
<polygon fill="rgb(43,79,111)" points="71,165 52,153 56,149"/>
<polygon fill="rgb(242,235,214)" points="212,120 184,98 214,121"/>
<polygon fill="rgb(232,243,215)" points="225,198 237,202 223,212"/>
<polygon fill="rgb(248,241,218)" points="211,73 214,124 215,130"/>
<polygon fill="rgb(57,82,106)" points="109,142 131,168 116,152"/>
<polygon fill="rgb(156,165,169)" points="88,136 95,136 90,130"/>
<polygon fill="rgb(228,227,209)" points="53,215 56,216 33,232"/>
<polygon fill="rgb(246,236,215)" points="207,88 195,110 199,112"/>
<polygon fill="rgb(68,94,117)" points="95,130 77,159 82,155"/>
<polygon fill="rgb(165,163,150)" points="131,155 141,162 134,163"/>
<polygon fill="rgb(230,221,198)" points="193,147 198,149 200,149"/>
<polygon fill="rgb(241,231,208)" points="206,89 191,88 202,88"/>
<polygon fill="rgb(203,214,206)" points="82,53 84,48 84,58"/>
<polygon fill="rgb(156,154,144)" points="155,163 152,168 155,161"/>
<polygon fill="rgb(115,133,143)" points="13,221 -48,237 -48,208"/>
<polygon fill="rgb(80,128,154)" points="57,164 66,167 32,139"/>
<polygon fill="rgb(247,239,217)" points="134,110 130,95 143,94"/>
<polygon fill="rgb(190,202,195)" points="61,57 56,56 57,73"/>
<polygon fill="rgb(234,231,215)" points="137,107 137,107 147,94"/>
<polygon fill="rgb(205,218,207)" points="92,229 94,206 101,215"/>
<polygon fill="rgb(243,236,209)" points="153,93 153,94 155,94"/>
<polygon fill="rgb(249,240,218)" points="134,89 137,108 132,131"/>
<polygon fill="rgb(187,187,175)" points="175,187 202,180 185,183"/>
<polygon fill="rgb(225,243,192)" points="150,81 182,102 150,81"/>
<polygon fill="rgb(249,235,197)" points="134,34 197,10 197,3"/>
<polygon fill="rgb(241,226,192)" points="7,13 21,41 4,43"/>
<polygon fill="rgb(244,234,212)" points="167,131 186,140 182,140"/>
<polygon fill="rgb(70,106,135)" points="152,209 160,208 148,191"/>
<polygon fill="rgb(199,205,204)" points="128,65 125,71 124,74"/>
<polygon fill="rgb(246,247,226)" points="79,205 97,209 92,194"/>
<polygon fill="rgb(226,223,205)" points="123,35 123,27 127,25"/>
<polygon fill="rgb(243,232,213)" points="195,88 203,102 197,90"/>
<polygon fill="rgb(246,239,209)" points="129,97 142,93 142,93"/>
<polygon fill="rgb(188,208,194)" points="235,203 237,200 223,200"/>
<polygon fill="rgb(243,234,213)" points="170,123 163,124 165,127"/>
<polygon fill="rgb(172,181,179)" points="170,79 166,76 168,76"/>
<polygon fill="rgb(248,239,220)" points="176,131 175,131 174,130"/>
<polygon fill="rgb(207,216,204)" points="82,224 103,221 79,228"/>
<polygon fill="rgb(245,236,214)" points="241,123 235,136 248,139"/>
<polygon fill="rgb(219,223,207)" points="30,105 54,111 76,112"/>
<polygon fill="rgb(181,196,187)" points="27,216 30,224 45,223"/>
<polygon fill="rgb(247,239,217)" points="245,90 244,87 219,115"/>
<polygon fill="rgb(229,226,209)" points="167,114 168,113 174,102"/>
<polygon fill="rgb(209,217,210)" points="117,61 121,52 112,62"/>
</svg>