<svg viewBox="0 0 128 128" xmlns="http://www.w3.org/2000/svg">
<rect fill="rgb(253,249,230)" height="128" width="128" x="0" y="0"/>
<polygon fill="rgb(160,170,170)" fill-opacity="1" points="127,126 35,0 0,127"/>
<polygon fill="rgb(214,216,202)" fill-opacity="1" points="106,32 0,107 54,113"/>
<polygon fill="rgb(67,98,125)" fill-opacity="1" points="29,34 59,78 57,27"/>
<polygon fill="rgb(222,216,198)" fill-opacity="1" points="57,65 72,0 127,96"/>
<polygon fill="rgb(162,166,159)" fill-opacity="1" points="56,77 127,76 127,124"/>
<polygon fill="rgb(100,160,104)" fill-opacity="0.8543714" points="35,51 6,65 10,106"/>
<polygon fill="rgb(121,136,145)" fill-opacity="1" points="80,97 48,127 108,113"/>
<polygon fill="rgb(113,134,146)" fill-opacity="1" points="61,64 0,96 0,56"/>
<polygon fill="rgb(194,201,193)" fill-opacity="1" points="15,34 50,56 11,72"/>
<polygon fill="rgb(79,107,130)" fill-opacity="1" points="56,62 23,58 64,79"/>
<polygon fill="rgb(209,227,209)" fill-opacity="1" points="94,105 127,93 127,109"/>
<polygon fill="rgb(237,238,223)" fill-opacity="1" points="77,106 35,83 48,72"/>
<polygon fill="rgb(239,219,200)" fill-opacity="1" points="95,14 0,35 22,0"/>
<polygon fill="rgb(58,90,119)" fill-opacity="1" points="53,23 65,42 43,54"/>
<polygon fill="rgb(124,128,127)" fill-opacity="1" points="60,80 97,83 93,98"/>
<polygon fill="rgb(244,234,213)" fill-opacity="1" points="58,65 127,75 127,18"/>
<polygon fill="rgb(149,158,165)" fill-opacity="1" points="65,127 63,95 54,102"/>
<polygon fill="rgb(207,201,179)" fill-opacity="1" points="89,78 82,74 72,77"/>
<polygon fill="rgb(186,182,165)" fill-opacity="1" points="72,82 64,76 73,75"/>
<polygon fill="rgb(243,233,211)" fill-opacity="1" points="97,77 65,42 58,58"/>
<polygon fill="rgb(235,189,163)" fill-opacity="0.904821" points="0,80 16,118 23,95"/>
<polygon fill="rgb(220,211,188)" fill-opacity="1" points="122,77 104,70 86,77"/>
<polygon fill="rgb(168,164,149)" fill-opacity="1" points="85,79 73,78 74,82"/>
<polygon fill="rgb(208,213,204)" fill-opacity="1" points="48,16 89,34 74,52"/>
<polygon fill="rgb(61,94,116)" fill-opacity="1" points="72,124 91,125 57,107"/>
<polygon fill="rgb(189,198,192)" fill-opacity="1" points="24,68 34,61 30,73"/>
<polygon fill="rgb(187,182,164)" fill-opacity="1" points="77,77 80,78 77,79"/>
<polygon fill="rgb(217,218,205)" fill-opacity="1" points="96,38 89,59 71,44"/>
<polygon fill="rgb(72,104,128)" fill-opacity="1" points="48,67 0,75 31,87"/>
<polygon fill="rgb(232,233,216)" fill-opacity="1" points="55,74 73,95 1,102"/>
<polygon fill="rgb(234,234,218)" fill-opacity="1" points="80,35 82,31 70,31"/>
<polygon fill="rgb(241,230,208)" fill-opacity="1" points="59,71 89,56 126,75"/>
<polygon fill="rgb(190,180,165)" fill-opacity="1" points="82,120 115,125 75,103"/>
<polygon fill="rgb(195,203,197)" fill-opacity="1" points="44,63 51,54 32,54"/>
<polygon fill="rgb(230,235,218)" fill-opacity="1" points="104,110 90,100 119,97"/>
<polygon fill="rgb(244,239,224)" fill-opacity="1" points="112,92 96,88 105,84"/>
<polygon fill="rgb(223,225,204)" fill-opacity="1" points="0,56 33,48 0,15"/>
<polygon fill="rgb(220,224,213)" fill-opacity="1" points="91,39 78,50 81,35"/>
<polygon fill="rgb(246,235,213)" fill-opacity="1" points="127,50 60,61 101,70"/>
<polygon fill="rgb(244,233,211)" fill-opacity="1" points="59,49 59,55 63,45"/>
<polygon fill="rgb(246,236,214)" fill-opacity="1" points="75,59 82,52 77,48"/>
<polygon fill="rgb(242,231,209)" fill-opacity="1" points="90,60 91,51 99,57"/>
<polygon fill="rgb(243,232,211)" fill-opacity="1" points="100,60 86,61 87,55"/>
<polygon fill="rgb(225,227,214)" fill-opacity="1" points="86,97 63,95 66,85"/>
<polygon fill="rgb(207,208,198)" fill-opacity="1" points="89,54 94,49 83,41"/>
<polygon fill="rgb(136,131,121)" fill-opacity="1" points="73,85 114,95 91,98"/>
<polygon fill="rgb(227,229,214)" fill-opacity="1" points="33,43 38,47 29,45"/>
<polygon fill="rgb(231,220,198)" fill-opacity="1" points="71,72 78,71 82,76"/>
<polygon fill="rgb(167,180,179)" fill-opacity="1" points="25,71 29,69 32,74"/>
<polygon fill="rgb(53,86,118)" fill-opacity="1" points="25,38 54,54 44,28"/>
<polygon fill="rgb(234,225,200)" fill-opacity="1" points="83,73 60,71 75,66"/>
<polygon fill="rgb(80,116,132)" fill-opacity="1" points="49,72 56,74 58,65"/>
<polygon fill="rgb(246,236,212)" fill-opacity="1" points="60,49 95,69 59,67"/>
<polygon fill="rgb(171,188,188)" fill-opacity="1" points="68,103 66,98 74,105"/>
<polygon fill="rgb(210,217,205)" fill-opacity="1" points="29,127 63,94 24,99"/>
<polygon fill="rgb(206,198,178)" fill-opacity="1" points="73,77 79,76 69,74"/>
<polygon fill="rgb(249,237,208)" fill-opacity="1" points="31,0 127,0 127,48"/>
<polygon fill="rgb(87,121,153)" fill-opacity="1" points="57,48 64,43 65,34"/>
<polygon fill="rgb(202,204,201)" fill-opacity="1" points="71,38 63,39 70,35"/>
<polygon fill="rgb(245,237,216)" fill-opacity="1" points="90,62 89,61 87,62"/>
<polygon fill="rgb(251,248,229)" fill-opacity="1" points="34,94 44,73 57,76"/>
<polygon fill="rgb(207,210,203)" fill-opacity="1" points="67,32 64,42 74,50"/>
<polygon fill="rgb(245,234,212)" fill-opacity="1" points="58,56 71,49 88,66"/>
<polygon fill="rgb(203,206,199)" fill-opacity="1" points="75,33 70,50 76,48"/>
<polygon fill="rgb(245,233,211)" fill-opacity="1" points="68,68 74,51 86,69"/>
<polygon fill="rgb(206,212,204)" fill-opacity="1" points="62,13 76,27 41,23"/>
<polygon fill="rgb(191,199,190)" fill-opacity="1" points="2,48 26,56 20,70"/>
<polygon fill="rgb(244,227,211)" fill-opacity="1" points="93,60 94,56 90,51"/>
<polygon fill="rgb(245,235,213)" fill-opacity="1" points="73,65 85,65 84,54"/>
<polygon fill="rgb(247,234,212)" fill-opacity="1" points="73,49 62,68 77,57"/>
<polygon fill="rgb(74,99,124)" fill-opacity="1" points="36,48 37,51 40,50"/>
<polygon fill="rgb(219,220,211)" fill-opacity="1" points="85,49 82,54 85,52"/>
<polygon fill="rgb(107,115,119)" fill-opacity="1" points="81,94 78,81 101,98"/>
<polygon fill="rgb(72,103,128)" fill-opacity="1" points="71,113 57,107 61,103"/>
<polygon fill="rgb(236,225,202)" fill-opacity="1" points="69,73 81,71 70,67"/>
<polygon fill="rgb(144,140,130)" fill-opacity="1" points="99,95 84,81 73,84"/>
<polygon fill="rgb(199,208,198)" fill-opacity="1" points="29,48 19,52 30,59"/>
<polygon fill="rgb(195,200,196)" fill-opacity="1" points="86,49 81,39 93,50"/>
<polygon fill="rgb(102,120,136)" fill-opacity="1" points="39,48 46,53 47,49"/>
<polygon fill="rgb(220,220,204)" fill-opacity="1" points="43,89 29,100 71,127"/>
<polygon fill="rgb(147,153,141)" fill-opacity="1" points="96,88 82,80 94,80"/>
<polygon fill="rgb(206,207,198)" fill-opacity="1" points="77,41 72,45 84,51"/>
<polygon fill="rgb(239,227,204)" fill-opacity="1" points="75,68 60,68 65,72"/>
<polygon fill="rgb(129,132,125)" fill-opacity="1" points="102,82 90,93 67,85"/>
<polygon fill="rgb(196,205,198)" fill-opacity="1" points="47,86 51,92 35,101"/>
<polygon fill="rgb(204,210,203)" fill-opacity="1" points="63,42 76,44 84,33"/>
<polygon fill="rgb(248,237,216)" fill-opacity="1" points="68,44 63,46 67,56"/>
<polygon fill="rgb(165,157,148)" fill-opacity="1" points="81,120 88,112 64,106"/>
<polygon fill="rgb(139,149,156)" fill-opacity="1" points="64,99 55,100 64,106"/>
<polygon fill="rgb(70,99,127)" fill-opacity="1" points="37,64 37,56 31,60"/>
<polygon fill="rgb(185,181,163)" fill-opacity="1" points="95,78 88,80 89,77"/>
<polygon fill="rgb(185,192,190)" fill-opacity="1" points="77,37 75,39 73,37"/>
<polygon fill="rgb(247,236,214)" fill-opacity="1" points="70,47 62,67 58,59"/>
<polygon fill="rgb(69,97,121)" fill-opacity="1" points="87,99 106,114 84,108"/>
<polygon fill="rgb(172,186,186)" fill-opacity="1" points="34,71 34,66 30,66"/>
<polygon fill="rgb(149,141,139)" fill-opacity="1" points="81,94 70,83 77,79"/>
<polygon fill="rgb(238,228,205)" fill-opacity="1" points="83,68 72,71 92,74"/>
<polygon fill="rgb(243,235,215)" fill-opacity="0.97997934" points="52,108 57,108 55,99"/>
<polygon fill="rgb(232,230,215)" fill-opacity="1" points="96,39 94,33 89,31"/>
<polygon fill="rgb(217,224,211)" fill-opacity="1" points="47,90 33,93 36,98"/>
<polygon fill="rgb(242,225,191)" fill-opacity="1" points="71,0 0,0 0,26"/>
<polygon fill="rgb(148,166,167)" fill-opacity="1" points="21,67 14,72 10,69"/>
<polygon fill="rgb(246,228,195)" fill-opacity="1" points="66,14 90,10 84,30"/>
<polygon fill="rgb(197,205,197)" fill-opacity="1" points="22,33 41,22 35,31"/>
<polygon fill="rgb(255,248,229)" fill-opacity="1" points="68,94 46,71 53,89"/>
<polygon fill="rgb(125,125,120)" fill-opacity="1" points="71,84 78,91 91,88"/>
<polygon fill="rgb(166,159,150)" fill-opacity="0.93642396" points="71,80 67,81 62,73"/>
<polygon fill="rgb(199,207,196)" fill-opacity="1" points="35,107 43,121 40,95"/>
<polygon fill="rgb(249,241,220)" fill-opacity="1" points="125,63 123,8 84,27"/>
<polygon fill="rgb(242,231,210)" fill-opacity="1" points="80,69 88,74 90,66"/>
<polygon fill="rgb(217,223,213)" fill-opacity="1" points="63,46 73,39 70,33"/>
<polygon fill="rgb(209,214,203)" fill-opacity="1" points="46,87 54,86 47,83"/>
<polygon fill="rgb(180,191,187)" fill-opacity="1" points="59,30 59,34 63,32"/>
<polygon fill="rgb(207,209,201)" fill-opacity="1" points="70,35 81,24 57,30"/>
<polygon fill="rgb(235,225,206)" fill-opacity="1" points="58,56 61,61 59,67"/>
<polygon fill="rgb(68,113,145)" fill-opacity="0.98601246" points="56,45 56,53 64,39"/>
<polygon fill="rgb(244,233,210)" fill-opacity="1" points="95,64 90,68 103,70"/>
<polygon fill="rgb(79,107,129)" fill-opacity="1" points="0,75 12,66 9,59"/>
<polygon fill="rgb(207,213,204)" fill-opacity="1" points="66,22 76,21 70,43"/>
<polygon fill="rgb(242,236,226)" fill-opacity="1" points="68,30 72,33 73,31"/>
<polygon fill="rgb(244,234,213)" fill-opacity="1" points="88,67 87,70 86,65"/>
<polygon fill="rgb(196,203,198)" fill-opacity="1" points="74,42 75,38 65,43"/>
<polygon fill="rgb(89,104,135)" fill-opacity="1" points="31,71 35,82 42,75"/>
<polygon fill="rgb(212,216,204)" fill-opacity="1" points="30,53 39,58 43,51"/>
<polygon fill="rgb(246,236,213)" fill-opacity="1" points="80,48 82,57 61,62"/>
<polygon fill="rgb(224,215,193)" fill-opacity="1" points="81,73 83,75 77,75"/>
<polygon fill="rgb(194,205,197)" fill-opacity="1" points="40,107 60,120 52,103"/>
<polygon fill="rgb(221,227,211)" fill-opacity="1" points="74,88 64,88 79,99"/>
<polygon fill="rgb(176,185,192)" fill-opacity="1" points="51,57 44,54 46,57"/>
<polygon fill="rgb(242,230,207)" fill-opacity="1" points="66,68 72,63 73,70"/>
<polygon fill="rgb(159,172,176)" fill-opacity="1" points="47,56 49,57 46,60"/>
<polygon fill="rgb(139,154,161)" fill-opacity="1" points="34,80 38,79 37,77"/>
<polygon fill="rgb(242,231,209)" fill-opacity="1" points="80,72 85,69 81,64"/>
<polygon fill="rgb(143,151,161)" fill-opacity="1" points="47,61 45,62 48,62"/>
<polygon fill="rgb(243,234,214)" fill-opacity="1" points="80,50 85,46 79,41"/>
<polygon fill="rgb(201,209,202)" fill-opacity="1" points="66,20 73,27 59,35"/>
<polygon fill="rgb(224,214,192)" fill-opacity="1" points="108,75 127,75 121,70"/>
<polygon fill="rgb(243,239,220)" fill-opacity="1" points="31,14 9,35 61,13"/>
<polygon fill="rgb(159,156,143)" fill-opacity="1" points="85,80 81,82 79,80"/>
<polygon fill="rgb(90,111,130)" fill-opacity="1" points="32,58 26,61 29,62"/>
<polygon fill="rgb(244,233,212)" fill-opacity="1" points="95,51 90,43 93,41"/>
<polygon fill="rgb(238,227,204)" fill-opacity="1" points="106,74 89,73 96,69"/>
<polygon fill="rgb(138,127,131)" fill-opacity="1" points="72,87 64,83 78,84"/>
<polygon fill="rgb(183,198,192)" fill-opacity="1" points="32,101 38,94 35,93"/>
<polygon fill="rgb(241,230,211)" fill-opacity="1" points="90,53 93,51 95,59"/>
<polygon fill="rgb(154,164,179)" fill-opacity="1" points="46,66 45,65 44,67"/>
<polygon fill="rgb(247,237,213)" fill-opacity="1" points="82,51 66,66 67,53"/>
<polygon fill="rgb(245,233,212)" fill-opacity="1" points="58,60 61,66 60,56"/>
<polygon fill="rgb(65,94,117)" fill-opacity="1" points="32,127 0,127 0,108"/>
<polygon fill="rgb(248,237,217)" fill-opacity="1" points="92,33 127,56 105,62"/>
<polygon fill="rgb(232,234,224)" fill-opacity="1" points="86,50 84,47 85,53"/>
<polygon fill="rgb(195,190,170)" fill-opacity="1" points="63,74 68,75 71,81"/>
<polygon fill="rgb(246,233,210)" fill-opacity="1" points="74,49 69,61 75,63"/>
<polygon fill="rgb(242,230,208)" fill-opacity="1" points="81,69 81,65 74,69"/>
<polygon fill="rgb(81,104,126)" fill-opacity="1" points="33,68 39,66 35,70"/>
<polygon fill="rgb(207,212,204)" fill-opacity="1" points="74,40 81,48 78,40"/>
<polygon fill="rgb(201,207,199)" fill-opacity="1" points="52,23 77,22 70,29"/>
<polygon fill="rgb(237,225,202)" fill-opacity="1" points="78,71 76,73 73,69"/>
<polygon fill="rgb(226,215,193)" fill-opacity="1" points="66,73 72,74 71,72"/>
<polygon fill="rgb(246,235,214)" fill-opacity="1" points="81,61 74,63 75,68"/>
<polygon fill="rgb(62,93,122)" fill-opacity="1" points="39,60 33,77 46,71"/>
<polygon fill="rgb(194,203,192)" fill-opacity="1" points="13,57 0,56 16,45"/>
<polygon fill="rgb(247,237,215)" fill-opacity="1" points="59,52 63,46 70,62"/>
<polygon fill="rgb(207,199,178)" fill-opacity="1" points="74,76 68,75 73,74"/>
<polygon fill="rgb(142,140,133)" fill-opacity="1" points="84,82 74,86 69,82"/>
<polygon fill="rgb(252,249,230)" fill-opacity="1" points="58,78 63,93 50,88"/>
<polygon fill="rgb(243,231,209)" fill-opacity="1" points="83,58 85,62 96,57"/>
<polygon fill="rgb(247,237,214)" fill-opacity="1" points="59,64 59,61 65,64"/>
<polygon fill="rgb(199,206,197)" fill-opacity="1" points="67,90 71,98 75,95"/>
<polygon fill="rgb(193,197,191)" fill-opacity="1" points="42,49 41,54 43,52"/>
<polygon fill="rgb(252,246,226)" fill-opacity="1" points="127,19 94,14 89,27"/>
<polygon fill="rgb(246,236,207)" fill-opacity="1" points="85,31 83,28 91,23"/>
<polygon fill="rgb(244,233,211)" fill-opacity="1" points="91,51 96,61 97,55"/>
<polygon fill="rgb(208,214,207)" fill-opacity="1" points="69,34 75,33 73,38"/>
<polygon fill="rgb(253,252,238)" fill-opacity="1" points="80,44 82,47 82,45"/>
<polygon fill="rgb(54,93,124)" fill-opacity="1" points="31,85 14,81 29,73"/>
<polygon fill="rgb(248,240,216)" fill-opacity="1" points="71,57 67,49 66,54"/>
<polygon fill="rgb(168,183,179)" fill-opacity="1" points="18,54 7,49 18,60"/>
<polygon fill="rgb(105,123,141)" fill-opacity="1" points="44,65 43,63 42,67"/>
<polygon fill="rgb(245,235,211)" fill-opacity="1" points="78,56 74,55 76,54"/>
<polygon fill="rgb(180,176,160)" fill-opacity="1" points="66,78 72,76 71,80"/>
<polygon fill="rgb(221,209,184)" fill-opacity="1" points="80,29 76,32 74,18"/>
<polygon fill="rgb(237,226,207)" fill-opacity="1" points="89,58 90,56 89,56"/>
<polygon fill="rgb(237,224,202)" fill-opacity="1" points="109,69 107,74 122,71"/>
<polygon fill="rgb(78,107,135)" fill-opacity="1" points="35,65 37,66 38,62"/>
<polygon fill="rgb(209,203,195)" fill-opacity="1" points="85,56 89,42 90,50"/>
<polygon fill="rgb(231,234,217)" fill-opacity="1" points="49,96 28,104 35,110"/>
<polygon fill="rgb(81,114,139)" fill-opacity="1" points="37,74 34,74 35,69"/>
<polygon fill="rgb(252,249,230)" fill-opacity="1" points="52,92 57,82 49,88"/>
<polygon fill="rgb(249,237,212)" fill-opacity="1" points="69,49 69,56 72,57"/>
<polygon fill="rgb(128,152,161)" fill-opacity="1" points="73,106 87,112 77,112"/>
<polygon fill="rgb(248,238,216)" fill-opacity="1" points="103,67 97,59 101,59"/>
<polygon fill="rgb(207,216,206)" fill-opacity="1" points="63,97 66,101 64,93"/>
<polygon fill="rgb(164,175,178)" fill-opacity="1" points="67,36 66,35 66,38"/>
<polygon fill="rgb(176,188,184)" fill-opacity="1" points="26,48 28,48 26,53"/>
<polygon fill="rgb(237,226,205)" fill-opacity="1" points="80,70 71,67 76,71"/>
<polygon fill="rgb(195,192,177)" fill-opacity="1" points="73,28 78,27 76,25"/>
<polygon fill="rgb(65,95,122)" fill-opacity="1" points="52,57 46,67 66,82"/>
<polygon fill="rgb(242,230,209)" fill-opacity="1" points="87,71 82,66 80,69"/>
<polygon fill="rgb(244,232,208)" fill-opacity="1" points="71,63 70,58 75,57"/>
<polygon fill="rgb(91,121,143)" fill-opacity="1" points="48,63 48,64 46,63"/>
<polygon fill="rgb(175,170,154)" fill-opacity="1" points="75,77 73,79 80,80"/>
<polygon fill="rgb(234,236,223)" fill-opacity="1" points="90,38 85,38 89,41"/>
<polygon fill="rgb(236,224,202)" fill-opacity="1" points="102,73 96,72 98,74"/>
<polygon fill="rgb(227,217,191)" fill-opacity="1" points="73,74 72,72 77,74"/>
<polygon fill="rgb(223,230,219)" fill-opacity="1" points="64,32 71,34 69,36"/>
<polygon fill="rgb(190,195,187)" fill-opacity="1" points="67,43 64,45 65,42"/>
<polygon fill="rgb(247,235,212)" fill-opacity="1" points="75,65 74,64 75,62"/>
<polygon fill="rgb(246,234,211)" fill-opacity="1" points="62,59 59,51 59,57"/>
<polygon fill="rgb(244,236,214)" fill-opacity="1" points="86,64 87,59 84,63"/>
<polygon fill="rgb(239,240,229)" fill-opacity="1" points="77,36 78,33 73,30"/>
<polygon fill="rgb(162,176,174)" fill-opacity="1" points="14,70 23,67 20,65"/>
<polygon fill="rgb(245,234,211)" fill-opacity="1" points="68,69 60,65 64,64"/>
<polygon fill="rgb(241,230,208)" fill-opacity="1" points="79,72 81,67 82,69"/>
<polygon fill="rgb(243,231,209)" fill-opacity="1" points="82,66 82,70 75,68"/>
<polygon fill="rgb(248,237,215)" fill-opacity="1" points="67,57 63,45 59,54"/>
<polygon fill="rgb(246,233,208)" fill-opacity="1" points="59,71 82,58 72,55"/>
<polygon fill="rgb(216,219,208)" fill-opacity="1" points="65,88 80,102 75,89"/>
<polygon fill="rgb(214,214,202)" fill-opacity="1" points="90,34 87,35 93,41"/>
<polygon fill="rgb(231,224,209)" fill-opacity="1" points="76,46 78,47 76,47"/>
<polygon fill="rgb(247,235,214)" fill-opacity="1" points="109,67 97,53 100,42"/>
<polygon fill="rgb(85,113,132)" fill-opacity="1" points="42,70 40,71 40,75"/>
<polygon fill="rgb(214,218,208)" fill-opacity="1" points="72,47 76,46 71,42"/>
<polygon fill="rgb(238,240,226)" fill-opacity="1" points="63,25 63,29 60,29"/>
<polygon fill="rgb(248,236,214)" fill-opacity="1" points="74,61 65,60 65,65"/>
<polygon fill="rgb(246,234,211)" fill-opacity="1" points="80,54 75,64 69,63"/>
<polygon fill="rgb(208,216,209)" fill-opacity="1" points="72,40 80,35 80,41"/>
<polygon fill="rgb(229,218,197)" fill-opacity="1" points="84,73 82,74 85,75"/>
<polygon fill="rgb(218,221,210)" fill-opacity="1" points="67,26 52,14 64,13"/>
<polygon fill="rgb(248,239,218)" fill-opacity="1" points="100,66 120,23 127,42"/>
<polygon fill="rgb(195,204,195)" fill-opacity="1" points="42,111 29,109 42,122"/>
<polygon fill="rgb(60,79,119)" fill-opacity="1" points="36,61 40,62 40,60"/>
<polygon fill="rgb(166,181,177)" fill-opacity="1" points="17,60 21,59 23,61"/>
<polygon fill="rgb(251,247,226)" fill-opacity="1" points="48,82 26,88 26,99"/>
<polygon fill="rgb(252,248,228)" fill-opacity="1" points="41,102 46,98 48,104"/>
<polygon fill="rgb(235,225,202)" fill-opacity="1" points="74,72 78,73 77,71"/>
<polygon fill="rgb(247,236,212)" fill-opacity="1" points="72,50 68,55 78,57"/>
<polygon fill="rgb(246,234,210)" fill-opacity="1" points="71,62 69,64 74,63"/>
<polygon fill="rgb(193,200,190)" fill-opacity="1" points="43,110 9,116 15,105"/>
<polygon fill="rgb(226,212,189)" fill-opacity="1" points="68,74 73,74 73,72"/>
<polygon fill="rgb(209,212,202)" fill-opacity="1" points="88,53 85,53 89,47"/>
<polygon fill="rgb(225,213,196)" fill-opacity="1" points="69,73 60,70 65,74"/>
<polygon fill="rgb(231,231,212)" fill-opacity="1" points="40,122 46,119 34,115"/>
<polygon fill="rgb(202,195,175)" fill-opacity="1" points="69,76 71,75 73,76"/>
<polygon fill="rgb(195,209,201)" fill-opacity="1" points="49,98 61,96 50,104"/>
<polygon fill="rgb(222,226,208)" fill-opacity="1" points="76,127 60,122 55,110"/>
<polygon fill="rgb(54,90,119)" fill-opacity="1" points="48,48 56,38 56,51"/>
<polygon fill="rgb(200,209,202)" fill-opacity="1" points="74,37 70,35 76,33"/>
<polygon fill="rgb(248,239,218)" fill-opacity="1" points="71,47 62,46 67,51"/>
<polygon fill="rgb(245,231,209)" fill-opacity="1" points="59,58 60,57 59,57"/>
<polygon fill="rgb(134,160,164)" fill-opacity="1" points="34,59 34,57 33,59"/>
<polygon fill="rgb(253,249,231)" fill-opacity="1" points="45,79 66,95 56,76"/>
<polygon fill="rgb(51,83,112)" fill-opacity="1" points="56,63 54,57 46,60"/>
<polygon fill="rgb(94,118,135)" fill-opacity="1" points="38,67 37,67 38,69"/>
<polygon fill="rgb(245,234,212)" fill-opacity="1" points="82,59 74,62 81,54"/>
<polygon fill="rgb(178,174,156)" fill-opacity="1" points="85,80 82,78 87,79"/>
<polygon fill="rgb(241,230,208)" fill-opacity="1" points="86,70 84,68 82,71"/>
<polygon fill="rgb(200,207,198)" fill-opacity="1" points="42,117 7,80 22,116"/>
<polygon fill="rgb(65,98,124)" fill-opacity="1" points="76,98 81,105 72,99"/>
<polygon fill="rgb(229,217,194)" fill-opacity="1" points="94,74 98,73 96,75"/>
<polygon fill="rgb(252,248,230)" fill-opacity="1" points="45,72 35,88 53,75"/>
<polygon fill="rgb(60,84,116)" fill-opacity="1" points="55,36 51,46 28,41"/>
<polygon fill="rgb(241,228,207)" fill-opacity="1" points="96,69 96,72 99,70"/>
<polygon fill="rgb(199,205,198)" fill-opacity="1" points="74,46 75,39 76,43"/>
<polygon fill="rgb(146,168,174)" fill-opacity="1" points="94,109 84,98 86,105"/>
<polygon fill="rgb(98,121,141)" fill-opacity="1" points="54,71 55,65 51,72"/>
<polygon fill="rgb(208,217,210)" fill-opacity="1" points="41,62 40,54 45,56"/>
<polygon fill="rgb(235,223,202)" fill-opacity="1" points="78,71 75,73 77,69"/>
<polygon fill="rgb(200,210,201)" fill-opacity="1" points="56,99 61,100 53,91"/>
<polygon fill="rgb(151,148,139)" fill-opacity="1" points="73,84 73,80 79,81"/>
<polygon fill="rgb(245,233,208)" fill-opacity="1" points="72,64 72,56 75,60"/>
<polygon fill="rgb(188,164,149)" fill-opacity="0.911389" points="1,91 3,74 24,91"/>
<polygon fill="rgb(217,207,185)" fill-opacity="1" points="71,75 72,74 69,74"/>
<polygon fill="rgb(245,233,213)" fill-opacity="1" points="90,46 104,47 101,42"/>
<polygon fill="rgb(211,217,207)" fill-opacity="1" points="43,61 39,55 47,55"/>
<polygon fill="rgb(63,96,123)" fill-opacity="1" points="0,74 15,82 7,60"/>
<polygon fill="rgb(207,215,205)" fill-opacity="1" points="28,73 31,63 21,62"/>
<polygon fill="rgb(216,203,179)" fill-opacity="1" points="75,26 73,30 80,30"/>
<polygon fill="rgb(44,77,114)" fill-opacity="0.9389884" points="55,37 38,27 44,38"/>
<polygon fill="rgb(69,93,117)" fill-opacity="1" points="38,30 44,28 37,27"/>
<polygon fill="rgb(189,201,197)" fill-opacity="1" points="67,21 60,27 65,17"/>
<polygon fill="rgb(208,200,182)" fill-opacity="1" points="96,77 93,75 89,77"/>
<polygon fill="rgb(198,192,171)" fill-opacity="1" points="101,76 96,78 106,78"/>
<polygon fill="rgb(216,207,184)" fill-opacity="1" points="64,75 67,74 66,73"/>
<polygon fill="rgb(184,193,190)" fill-opacity="1" points="89,50 91,48 88,49"/>
<polygon fill="rgb(242,231,209)" fill-opacity="1" points="81,58 85,60 89,57"/>
<polygon fill="rgb(54,95,123)" fill-opacity="1" points="84,102 92,111 83,107"/>
<polygon fill="rgb(181,165,150)" fill-opacity="1" points="97,91 96,94 89,89"/>
<polygon fill="rgb(221,211,187)" fill-opacity="1" points="63,72 64,75 66,73"/>
<polygon fill="rgb(49,85,117)" fill-opacity="1" points="51,61 54,69 45,69"/>
<polygon fill="rgb(192,201,193)" fill-opacity="1" points="72,89 73,98 70,97"/>
<polygon fill="rgb(143,144,135)" fill-opacity="1" points="127,84 120,92 98,80"/>
<polygon fill="rgb(230,218,196)" fill-opacity="1" points="72,72 72,73 74,73"/>
<polygon fill="rgb(199,202,198)" fill-opacity="1" points="67,35 66,33 66,35"/>
<polygon fill="rgb(80,114,133)" fill-opacity="1" points="55,127 44,115 68,127"/>
<polygon fill="rgb(172,169,154)" fill-opacity="1" points="66,76 68,81 70,80"/>
<polygon fill="rgb(245,234,212)" fill-opacity="1" points="127,72 127,56 104,67"/>
<polygon fill="rgb(242,230,208)" fill-opacity="1" points="95,58 91,59 91,52"/>
<polygon fill="rgb(196,209,198)" fill-opacity="1" points="44,104 35,100 43,112"/>
<polygon fill="rgb(246,234,212)" fill-opacity="1" points="75,66 74,61 77,59"/>
<polygon fill="rgb(169,162,149)" fill-opacity="1" points="79,79 80,80 77,81"/>
<polygon fill="rgb(248,241,221)" fill-opacity="1" points="119,39 96,35 113,52"/>
<polygon fill="rgb(102,121,132)" fill-opacity="1" points="42,64 46,65 48,63"/>
<polygon fill="rgb(196,203,203)" fill-opacity="1" points="70,40 68,38 71,34"/>
<polygon fill="rgb(199,207,198)" fill-opacity="1" points="72,94 74,99 68,94"/>
<polygon fill="rgb(212,215,209)" fill-opacity="1" points="85,42 86,44 88,40"/>
<polygon fill="rgb(243,232,211)" fill-opacity="1" points="78,57 75,60 81,60"/>
<polygon fill="rgb(67,99,126)" fill-opacity="1" points="52,48 49,44 40,48"/>
<polygon fill="rgb(240,228,204)" fill-opacity="1" points="60,64 63,70 69,69"/>
<polygon fill="rgb(246,236,214)" fill-opacity="1" points="92,60 85,65 101,65"/>
<polygon fill="rgb(106,121,137)" fill-opacity="1" points="45,64 43,65 42,63"/>
<polygon fill="rgb(217,207,186)" fill-opacity="1" points="79,75 76,75 78,76"/>
<polygon fill="rgb(237,240,224)" fill-opacity="1" points="50,93 48,97 52,98"/>
<polygon fill="rgb(193,201,195)" fill-opacity="1" points="92,39 84,45 87,47"/>
<polygon fill="rgb(46,81,114)" fill-opacity="1" points="56,65 50,66 48,59"/>
<polygon fill="rgb(248,238,216)" fill-opacity="1" points="68,56 69,47 65,55"/>
<polygon fill="rgb(244,231,209)" fill-opacity="1" points="84,68 82,65 80,66"/>
<polygon fill="rgb(230,218,194)" fill-opacity="1" points="68,73 68,72 70,72"/>
<polygon fill="rgb(246,227,189)" fill-opacity="1" points="78,25 82,29 89,22"/>
<polygon fill="rgb(46,82,114)" fill-opacity="1" points="25,35 46,46 59,32"/>
<polygon fill="rgb(245,235,213)" fill-opacity="1" points="96,59 86,63 92,63"/>
<polygon fill="rgb(188,197,193)" fill-opacity="1" points="73,33 73,35 70,36"/>
<polygon fill="rgb(124,120,115)" fill-opacity="1" points="88,88 92,86 93,90"/>
<polygon fill="rgb(246,237,215)" fill-opacity="1" points="65,47 61,48 64,54"/>
<polygon fill="rgb(64,86,111)" fill-opacity="1" points="67,82 63,82 70,86"/>
<polygon fill="rgb(203,209,201)" fill-opacity="1" points="72,43 84,38 79,43"/>
<polygon fill="rgb(194,201,198)" fill-opacity="1" points="77,37 78,44 79,40"/>
<polygon fill="rgb(243,231,209)" fill-opacity="1" points="83,66 81,72 80,66"/>
<polygon fill="rgb(117,131,145)" fill-opacity="1" points="52,59 52,58 51,58"/>
<polygon fill="rgb(210,214,199)" fill-opacity="1" points="26,64 22,64 22,55"/>
<polygon fill="rgb(220,224,213)" fill-opacity="1" points="79,42 82,42 77,40"/>
<polygon fill="rgb(189,192,190)" fill-opacity="1" points="12,70 14,73 12,72"/>
<polygon fill="rgb(186,193,189)" fill-opacity="1" points="37,44 33,47 37,47"/>
<polygon fill="rgb(243,232,212)" fill-opacity="1" points="90,43 90,46 93,45"/>
<polygon fill="rgb(243,233,211)" fill-opacity="1" points="89,69 89,67 91,67"/>
<polygon fill="rgb(241,230,208)" fill-opacity="1" points="85,60 85,59 86,59"/>
<polygon fill="rgb(209,217,207)" fill-opacity="1" points="72,44 76,41 77,43"/>
<polygon fill="rgb(94,112,131)" fill-opacity="1" points="45,54 45,51 43,54"/>
<polygon fill="rgb(82,110,130)" fill-opacity="1" points="43,46 43,48 46,45"/>
<polygon fill="rgb(219,219,203)" fill-opacity="1" points="19,56 21,58 19,58"/>
<polygon fill="rgb(241,228,206)" fill-opacity="1" points="65,69 66,67 71,70"/>
<polygon fill="rgb(237,225,204)" fill-opacity="1" points="73,71 77,71 76,69"/>
<polygon fill="rgb(211,219,208)" fill-opacity="1" points="62,95 60,92 57,96"/>
<polygon fill="rgb(225,224,207)" fill-opacity="1" points="0,105 21,103 8,91"/>
<polygon fill="rgb(200,201,199)" fill-opacity="1" points="30,60 34,49 28,54"/>
<polygon fill="rgb(231,236,221)" fill-opacity="1" points="54,98 53,102 57,107"/>
<polygon fill="rgb(248,237,215)" fill-opacity="1" points="66,60 69,66 69,58"/>
<polygon fill="rgb(197,206,194)" fill-opacity="1" points="15,70 12,71 16,66"/>
<polygon fill="rgb(244,234,213)" fill-opacity="1" points="83,62 77,63 80,64"/>
<polygon fill="rgb(241,231,210)" fill-opacity="1" points="76,59 77,59 77,60"/>
<polygon fill="rgb(244,237,220)" fill-opacity="1" points="77,50 79,54 79,51"/>
<polygon fill="rgb(126,126,120)" fill-opacity="1" points="86,92 91,87 79,92"/>
<polygon fill="rgb(245,231,207)" fill-opacity="1" points="75,58 72,62 72,58"/>
<polygon fill="rgb(252,249,230)" fill-opacity="1" points="59,79 53,93 50,77"/>
<polygon fill="rgb(234,234,217)" fill-opacity="1" points="33,49 40,53 33,52"/>
<polygon fill="rgb(209,216,202)" fill-opacity="1" points="11,104 23,100 39,111"/>
<polygon fill="rgb(248,237,214)" fill-opacity="1" points="60,53 59,55 62,53"/>
<polygon fill="rgb(91,113,139)" fill-opacity="1" points="46,62 48,64 45,63"/>
<polygon fill="rgb(79,109,131)" fill-opacity="1" points="16,69 23,74 15,72"/>
<polygon fill="rgb(164,168,153)" fill-opacity="1" points="67,80 68,82 72,78"/>
<polygon fill="rgb(189,199,192)" fill-opacity="1" points="40,98 30,98 38,101"/>
<polygon fill="rgb(195,189,170)" fill-opacity="1" points="93,77 89,77 91,79"/>
<polygon fill="rgb(173,169,151)" fill-opacity="1" points="75,79 77,78 75,78"/>
<polygon fill="rgb(199,207,204)" fill-opacity="1" points="86,45 91,40 87,41"/>
<polygon fill="rgb(190,176,165)" fill-opacity="1" points="106,82 103,82 101,84"/>
<polygon fill="rgb(243,232,210)" fill-opacity="1" points="90,57 92,59 90,59"/>
<polygon fill="rgb(57,112,147)" fill-opacity="1" points="54,53 57,58 59,44"/>
<polygon fill="rgb(113,122,128)" fill-opacity="1" points="9,78 7,80 13,82"/>
<polygon fill="rgb(213,213,201)" fill-opacity="1" points="57,11 52,16 65,14"/>
<polygon fill="rgb(189,206,199)" fill-opacity="1" points="47,95 43,96 43,99"/>
<polygon fill="rgb(193,193,182)" fill-opacity="1" points="61,69 61,71 60,69"/>
<polygon fill="rgb(228,231,214)" fill-opacity="1" points="70,93 68,94 72,94"/>
<polygon fill="rgb(79,110,132)" fill-opacity="1" points="15,111 11,105 0,121"/>
<polygon fill="rgb(191,194,187)" fill-opacity="1" points="69,46 70,44 71,46"/>
<polygon fill="rgb(240,228,203)" fill-opacity="1" points="62,71 61,69 64,71"/>
<polygon fill="rgb(142,140,132)" fill-opacity="1" points="85,83 93,85 100,81"/>
<polygon fill="rgb(237,236,218)" fill-opacity="1" points="86,97 84,97 84,100"/>
<polygon fill="rgb(237,227,205)" fill-opacity="1" points="85,75 91,72 89,70"/>
<polygon fill="rgb(252,251,232)" fill-opacity="1" points="60,86 57,93 55,90"/>
<polygon fill="rgb(247,237,217)" fill-opacity="1" points="91,36 93,24 102,39"/>
<polygon fill="rgb(191,201,194)" fill-opacity="1" points="24,68 33,64 29,71"/>
<polygon fill="rgb(242,232,210)" fill-opacity="1" points="79,67 78,69 80,68"/>
<polygon fill="rgb(246,234,211)" fill-opacity="1" points="73,56 76,56 72,54"/>
<polygon fill="rgb(246,237,215)" fill-opacity="1" points="78,53 77,58 83,55"/>
<polygon fill="rgb(246,240,218)" fill-opacity="1" points="78,52 81,51 80,54"/>
<polygon fill="rgb(242,231,208)" fill-opacity="1" points="104,69 106,72 112,68"/>
<polygon fill="rgb(246,235,213)" fill-opacity="1" points="75,63 76,65 74,66"/>
<polygon fill="rgb(243,231,210)" fill-opacity="1" points="84,55 81,58 83,58"/>
<polygon fill="rgb(220,210,194)" fill-opacity="1" points="72,74 72,73 73,74"/>
<polygon fill="rgb(84,114,137)" fill-opacity="1" points="50,43 51,48 49,48"/>
<polygon fill="rgb(194,199,192)" fill-opacity="1" points="76,43 74,44 74,46"/>
<polygon fill="rgb(221,228,218)" fill-opacity="1" points="28,55 33,55 28,53"/>
<polygon fill="rgb(247,237,214)" fill-opacity="1" points="108,64 103,53 103,67"/>
<polygon fill="rgb(161,157,145)" fill-opacity="1" points="85,81 85,80 87,81"/>
<polygon fill="rgb(125,128,121)" fill-opacity="1" points="90,87 69,84 82,91"/>
<polygon fill="rgb(244,234,214)" fill-opacity="1" points="78,58 80,56 77,55"/>
<polygon fill="rgb(186,182,165)" fill-opacity="1" points="69,79 71,78 68,76"/>
<polygon fill="rgb(90,114,136)" fill-opacity="1" points="50,26 48,27 49,31"/>
<polygon fill="rgb(232,221,200)" fill-opacity="1" points="93,74 92,75 90,73"/>
<polygon fill="rgb(56,84,113)" fill-opacity="1" points="44,69 51,66 50,72"/>
<polygon fill="rgb(241,229,206)" fill-opacity="1" points="71,70 68,68 75,69"/>
<polygon fill="rgb(180,190,186)" fill-opacity="1" points="28,49 32,51 32,54"/>
<polygon fill="rgb(123,123,118)" fill-opacity="1" points="84,86 81,93 88,88"/>
<polygon fill="rgb(143,142,133)" fill-opacity="1" points="87,81 85,83 89,84"/>
<polygon fill="rgb(248,237,213)" fill-opacity="1" points="69,52 70,55 73,50"/>
<polygon fill="rgb(239,227,204)" fill-opacity="1" points="68,71 65,70 71,69"/>
<polygon fill="rgb(229,227,214)" fill-opacity="1" points="85,44 88,35 84,40"/>
<polygon fill="rgb(247,237,217)" fill-opacity="1" points="94,39 104,33 88,28"/>
<polygon fill="rgb(133,123,121)" fill-opacity="1" points="79,87 75,89 79,84"/>
<polygon fill="rgb(246,236,215)" fill-opacity="1" points="102,52 103,43 97,53"/>
<polygon fill="rgb(232,221,197)" fill-opacity="1" points="63,73 67,71 64,70"/>
<polygon fill="rgb(188,200,195)" fill-opacity="1" points="50,85 46,90 47,86"/>
<polygon fill="rgb(220,234,219)" fill-opacity="1" points="56,96 58,99 56,98"/>
<polygon fill="rgb(198,201,193)" fill-opacity="1" points="90,35 83,32 89,32"/>
<polygon fill="rgb(247,237,214)" fill-opacity="1" points="113,63 105,63 118,53"/>
<polygon fill="rgb(235,224,205)" fill-opacity="1" points="88,74 90,71 93,73"/>
<polygon fill="rgb(196,205,196)" fill-opacity="1" points="61,82 64,89 64,85"/>
<polygon fill="rgb(246,233,208)" fill-opacity="1" points="71,60 74,58 72,57"/>
<polygon fill="rgb(64,106,140)" fill-opacity="1" points="49,44 51,41 51,43"/>
<polygon fill="rgb(221,213,192)" fill-opacity="1" points="82,74 82,76 81,75"/>
<polygon fill="rgb(253,252,235)" fill-opacity="1" points="58,78 53,75 56,75"/>
<polygon fill="rgb(241,230,209)" fill-opacity="1" points="81,69 79,71 80,72"/>
<polygon fill="rgb(249,233,196)" fill-opacity="1" points="43,1 79,22 104,0"/>
<polygon fill="rgb(247,234,211)" fill-opacity="1" points="73,61 74,62 73,63"/>
<polygon fill="rgb(46,82,116)" fill-opacity="1" points="35,65 40,65 33,60"/>
<polygon fill="rgb(147,152,144)" fill-opacity="1" points="67,81 64,77 68,79"/>
<polygon fill="rgb(207,215,206)" fill-opacity="1" points="68,32 66,30 66,33"/>
<polygon fill="rgb(239,239,226)" fill-opacity="1" points="57,19 62,23 62,15"/>
<polygon fill="rgb(245,235,213)" fill-opacity="1" points="98,60 96,58 94,62"/>
<polygon fill="rgb(142,140,133)" fill-opacity="1" points="74,82 76,84 71,84"/>
<polygon fill="rgb(245,233,209)" fill-opacity="1" points="63,60 64,59 64,60"/>
<polygon fill="rgb(239,228,207)" fill-opacity="1" points="93,71 88,72 90,73"/>
<polygon fill="rgb(222,224,215)" fill-opacity="1" points="39,92 43,93 37,97"/>
<polygon fill="rgb(53,80,116)" fill-opacity="1" points="26,34 28,42 38,43"/>
<polygon fill="rgb(43,76,107)" fill-opacity="1" points="63,41 57,38 51,45"/>
<polygon fill="rgb(247,235,213)" fill-opacity="1" points="64,58 59,61 60,64"/>
<polygon fill="rgb(223,218,204)" fill-opacity="1" points="88,37 89,35 90,37"/>
<polygon fill="rgb(188,160,144)" fill-opacity="1" points="72,113 84,122 82,113"/>
<polygon fill="rgb(202,214,206)" fill-opacity="1" points="61,81 61,82 60,82"/>
<polygon fill="rgb(184,199,194)" fill-opacity="1" points="48,94 47,96 42,92"/>
<polygon fill="rgb(225,216,194)" fill-opacity="1" points="86,74 81,76 82,74"/>
<polygon fill="rgb(204,196,174)" fill-opacity="1" points="107,78 112,74 118,77"/>
<polygon fill="rgb(243,231,209)" fill-opacity="1" points="82,69 79,63 83,66"/>
<polygon fill="rgb(231,238,215)" fill-opacity="1" points="70,97 67,96 67,94"/>
<polygon fill="rgb(246,235,214)" fill-opacity="1" points="105,42 95,52 103,49"/>
<polygon fill="rgb(202,208,199)" fill-opacity="1" points="22,51 19,54 20,51"/>
<polygon fill="rgb(247,236,215)" fill-opacity="1" points="100,48 105,41 104,48"/>
<polygon fill="rgb(95,131,153)" fill-opacity="1" points="54,117 48,111 46,116"/>
<polygon fill="rgb(177,190,187)" fill-opacity="1" points="38,98 44,94 44,97"/>
<polygon fill="rgb(126,158,170)" fill-opacity="1" points="73,97 75,97 73,95"/>
<polygon fill="rgb(244,232,207)" fill-opacity="1" points="73,63 71,63 73,64"/>
<polygon fill="rgb(158,154,142)" fill-opacity="1" points="74,80 74,79 73,80"/>
<polygon fill="rgb(228,217,192)" fill-opacity="1" points="66,73 63,73 65,72"/>
<polygon fill="rgb(69,108,136)" fill-opacity="1" points="41,41 38,46 38,37"/>
<polygon fill="rgb(228,217,194)" fill-opacity="1" points="74,73 71,73 73,72"/>
<polygon fill="rgb(221,227,218)" fill-opacity="1" points="73,45 71,44 75,43"/>
<polygon fill="rgb(243,232,211)" fill-opacity="1" points="79,69 86,67 81,65"/>
<polygon fill="rgb(244,235,213)" fill-opacity="1" points="83,63 88,72 87,64"/>
<polygon fill="rgb(242,230,207)" fill-opacity="1" points="91,57 95,60 93,55"/>
<polygon fill="rgb(203,211,198)" fill-opacity="1" points="48,107 46,113 40,109"/>
<polygon fill="rgb(248,239,219)" fill-opacity="1" points="96,28 114,37 99,38"/>
<polygon fill="rgb(74,102,125)" fill-opacity="1" points="53,45 54,42 50,46"/>
<polygon fill="rgb(211,201,181)" fill-opacity="1" points="69,75 67,74 67,75"/>
<polygon fill="rgb(246,227,190)" fill-opacity="1" points="91,22 77,24 81,29"/>
<polygon fill="rgb(85,105,125)" fill-opacity="1" points="47,67 46,71 45,68"/>
<polygon fill="rgb(212,213,201)" fill-opacity="1" points="87,38 86,32 84,35"/>
<polygon fill="rgb(231,234,218)" fill-opacity="1" points="78,97 73,88 67,88"/>
<polygon fill="rgb(244,234,212)" fill-opacity="1" points="92,62 93,60 97,60"/>
<polygon fill="rgb(201,217,208)" fill-opacity="1" points="46,95 45,93 45,97"/>
<polygon fill="rgb(137,136,129)" fill-opacity="1" points="79,82 74,85 79,85"/>
<polygon fill="rgb(175,186,181)" fill-opacity="1" points="27,56 25,58 21,57"/>
<polygon fill="rgb(241,232,209)" fill-opacity="1" points="80,65 81,67 79,70"/>
<polygon fill="rgb(161,158,147)" fill-opacity="1" points="77,81 77,80 78,81"/>
<polygon fill="rgb(85,108,134)" fill-opacity="1" points="27,78 22,85 26,83"/>
<polygon fill="rgb(192,186,166)" fill-opacity="1" points="78,76 85,78 81,79"/>
<polygon fill="rgb(200,202,194)" fill-opacity="1" points="87,53 90,50 88,49"/>
<polygon fill="rgb(83,111,131)" fill-opacity="1" points="18,92 24,89 17,88"/>
<polygon fill="rgb(214,219,209)" fill-opacity="1" points="72,45 71,42 68,42"/>
<polygon fill="rgb(244,234,213)" fill-opacity="1" points="85,62 82,62 86,60"/>
<polygon fill="rgb(91,126,151)" fill-opacity="1" points="57,53 58,51 58,55"/>
<polygon fill="rgb(212,231,218)" fill-opacity="1" points="78,37 79,36 80,38"/>
<polygon fill="rgb(246,232,209)" fill-opacity="1" points="70,60 71,58 71,60"/>
<polygon fill="rgb(59,86,114)" fill-opacity="1" points="53,70 63,75 66,84"/>
<polygon fill="rgb(49,85,119)" fill-opacity="1" points="48,43 47,48 50,46"/>
<polygon fill="rgb(243,230,208)" fill-opacity="1" points="96,56 88,59 93,59"/>
<polygon fill="rgb(192,195,189)" fill-opacity="1" points="74,19 76,22 72,23"/>
<polygon fill="rgb(204,198,177)" fill-opacity="1" points="76,76 74,75 73,77"/>
<polygon fill="rgb(197,191,172)" fill-opacity="1" points="88,78 90,78 90,77"/>
<polygon fill="rgb(53,94,121)" fill-opacity="1" points="23,68 20,71 26,77"/>
<polygon fill="rgb(255,255,230)" fill-opacity="1" points="65,91 55,77 56,87"/>
<polygon fill="rgb(243,231,206)" fill-opacity="1" points="72,60 75,60 75,58"/>
<polygon fill="rgb(248,239,219)" fill-opacity="1" points="119,51 127,53 127,42"/>
<polygon fill="rgb(189,207,200)" fill-opacity="1" points="74,41 77,41 75,39"/>
<polygon fill="rgb(242,231,209)" fill-opacity="1" points="78,67 81,70 81,64"/>
<polygon fill="rgb(239,227,204)" fill-opacity="1" points="67,69 63,71 63,68"/>
<polygon fill="rgb(246,235,214)" fill-opacity="1" points="85,66 77,61 86,62"/>
<polygon fill="rgb(247,238,222)" fill-opacity="1" points="67,55 66,55 67,54"/>
<polygon fill="rgb(192,201,196)" fill-opacity="1" points="73,27 63,30 70,24"/>
<polygon fill="rgb(245,246,225)" fill-opacity="1" points="47,91 47,92 46,91"/>
<polygon fill="rgb(212,178,152)" fill-opacity="1" points="67,104 69,110 62,102"/>
<polygon fill="rgb(202,205,205)" fill-opacity="0.9909953" points="74,42 73,43 72,40"/>
<polygon fill="rgb(250,248,229)" fill-opacity="1" points="58,90 58,95 55,91"/>
<polygon fill="rgb(246,236,215)" fill-opacity="1" points="86,66 88,64 83,65"/>
<polygon fill="rgb(222,226,215)" fill-opacity="1" points="79,41 79,44 82,39"/>
<polygon fill="rgb(247,236,215)" fill-opacity="1" points="76,63 80,61 77,61"/>
<polygon fill="rgb(129,130,124)" fill-opacity="1" points="78,88 73,85 79,86"/>
<polygon fill="rgb(236,239,222)" fill-opacity="1" points="47,83 48,85 47,85"/>
<polygon fill="rgb(144,143,136)" fill-opacity="1" points="75,83 70,82 72,84"/>
<polygon fill="rgb(201,210,205)" fill-opacity="1" points="63,17 63,22 65,21"/>
<polygon fill="rgb(245,230,207)" fill-opacity="1" points="72,61 70,60 74,58"/>
<polygon fill="rgb(238,226,203)" fill-opacity="1" points="74,69 73,71 74,71"/>
<polygon fill="rgb(219,229,215)" fill-opacity="1" points="50,102 51,100 50,100"/>
</svg>