<svg height="256" overflow="hidden" viewBox="0 0 256 256" width="256" xmlns="http://www.w3.org/2000/svg">
<!-- .\examples\kanagawa.jpg -o .\examples\kanagawa.svg -t 512 -i 256 -g 256 -p 128 -s 64 -m 0.1 -f 1 -->
<rect fill="black" height="256" width="256" x="0" y="0"/>
<polygon fill="rgb(195,197,185)" points="-251,133 242,-163 312,356"/>
<polygon fill="rgb(114,138,153)" points="91,32 25,198 141,102"/>
<polygon fill="rgb(242,233,211)" points="290,162 112,121 288,-232"/>
<polygon fill="rgb(119,140,152)" points="102,91 -135,196 124,145"/>
<polygon fill="rgb(147,157,157)" points="217,298 196,152 46,264"/>
<polygon fill="rgb(221,219,199)" points="97,126 -2,92 -9,-27"/>
<polygon fill="rgb(238,226,204)" points="125,149 254,150 115,119"/>
<polygon fill="rgb(241,228,199)" points="202,29 201,-271 -53,78"/>
<polygon fill="rgb(149,150,143)" points="356,173 104,147 178,199"/>
<polygon fill="rgb(225,229,213)" points="115,230 1,202 116,147"/>
<polygon fill="rgb(134,150,160)" points="125,147 125,151 79,146"/>
<polygon fill="rgb(192,187,169)" points="236,160 126,148 131,156"/>
<polygon fill="rgb(66,98,126)" points="52,63 52,89 136,73"/>
<polygon fill="rgb(219,221,209)" points="180,63 183,120 73,15"/>
<polygon fill="rgb(125,140,148)" points="119,228 269,235 180,201"/>
<polygon fill="rgb(233,239,222)" points="44,189 172,195 96,145"/>
<polygon fill="rgb(223,220,207)" points="152,70 120,94 117,108"/>
<polygon fill="rgb(250,242,221)" points="265,20 222,119 175,32"/>
<polygon fill="rgb(194,204,198)" points="107,109 89,120 31,111"/>
<polygon fill="rgb(241,235,214)" points="8,89 30,39 65,104"/>
<polygon fill="rgb(249,248,226)" points="113,154 92,141 68,180"/>
<polygon fill="rgb(239,237,219)" points="33,79 122,24 47,28"/>
<polygon fill="rgb(231,233,216)" points="112,168 172,226 126,194"/>
<polygon fill="rgb(219,227,213)" points="162,189 223,229 209,201"/>
<polygon fill="rgb(119,125,130)" points="184,196 125,165 228,188"/>
<polygon fill="rgb(158,172,173)" points="81,134 -17,104 28,142"/>
<polygon fill="rgb(232,231,216)" points="208,166 188,179 227,186"/>
<polygon fill="rgb(169,168,152)" points="273,157 149,158 243,161"/>
<polygon fill="rgb(178,174,158)" points="170,157 142,163 130,155"/>
<polygon fill="rgb(205,188,167)" points="175,222 259,247 165,244"/>
<polygon fill="rgb(240,239,222)" points="101,180 158,196 113,152"/>
<polygon fill="rgb(213,219,209)" points="162,90 130,26 139,105"/>
<polygon fill="rgb(198,205,196)" points="26,127 53,97 94,101"/>
<polygon fill="rgb(63,95,122)" points="107,194 173,254 129,236"/>
<polygon fill="rgb(188,151,146)" points="103,195 189,235 144,225"/>
<polygon fill="rgb(84,110,129)" points="90,284 26,214 -56,251"/>
<polygon fill="rgb(82,108,131)" points="67,169 105,128 72,121"/>
<polygon fill="rgb(246,235,213)" points="239,134 204,82 159,144"/>
<polygon fill="rgb(181,190,190)" points="84,193 145,207 136,200"/>
<polygon fill="rgb(187,170,153)" points="152,233 143,225 222,233"/>
<polygon fill="rgb(191,178,155)" points="187,185 201,194 189,176"/>
<polygon fill="rgb(224,228,214)" points="152,188 79,199 148,173"/>
<polygon fill="rgb(222,224,208)" points="132,243 100,194 16,189"/>
<polygon fill="rgb(135,139,127)" points="136,172 186,184 209,161"/>
<polygon fill="rgb(235,220,191)" points="180,51 155,64 138,33"/>
<polygon fill="rgb(252,249,230)" points="109,149 90,151 153,213"/>
<polygon fill="rgb(204,209,196)" points="55,214 29,236 24,170"/>
<polygon fill="rgb(223,218,209)" points="197,181 178,186 199,175"/>
<polygon fill="rgb(208,216,206)" points="49,204 101,166 99,195"/>
<polygon fill="rgb(105,127,110)" points="106,145 92,139 115,106"/>
<polygon fill="rgb(228,224,202)" points="126,233 166,303 189,276"/>
<polygon fill="rgb(103,135,154)" points="131,211 143,212 183,228"/>
<polygon fill="rgb(239,240,225)" points="207,52 153,94 172,82"/>
<polygon fill="rgb(214,210,202)" points="182,93 190,108 169,110"/>
<polygon fill="rgb(245,232,209)" points="122,142 117,126 219,96"/>
<polygon fill="rgb(212,217,203)" points="104,242 83,244 31,215"/>
<polygon fill="rgb(158,170,160)" points="-11,147 -13,195 41,176"/>
<polygon fill="rgb(214,210,191)" points="143,57 161,60 148,37"/>
<polygon fill="rgb(199,209,197)" points="70,132 14,105 57,147"/>
<polygon fill="rgb(72,105,130)" points="2,156 46,136 65,173"/>
<polygon fill="rgb(132,146,149)" points="38,185 51,166 46,181"/>
<polygon fill="rgb(218,210,188)" points="253,152 173,156 126,145"/>
<polygon fill="rgb(140,137,131)" points="246,181 216,166 259,159"/>
<polygon fill="rgb(56,89,119)" points="71,101 129,87 107,47"/>
<polygon fill="rgb(214,216,209)" points="124,85 186,74 185,84"/>
<polygon fill="rgb(242,231,209)" points="230,138 171,151 142,126"/>
<polygon fill="rgb(246,235,212)" points="181,138 136,96 120,131"/>
<polygon fill="rgb(193,203,194)" points="24,145 51,119 26,111"/>
<polygon fill="rgb(132,142,153)" points="87,123 97,139 70,115"/>
<polygon fill="rgb(244,233,212)" points="220,47 219,46 141,104"/>
<polygon fill="rgb(235,228,209)" points="171,121 187,103 179,102"/>
<polygon fill="rgb(74,100,122)" points="142,196 173,220 249,238"/>
<polygon fill="rgb(205,208,200)" points="144,43 150,103 153,100"/>
<polygon fill="rgb(237,226,204)" points="154,148 217,149 181,142"/>
<polygon fill="rgb(185,197,191)" points="88,219 73,214 138,248"/>
<polygon fill="rgb(247,244,227)" points="70,157 108,171 112,167"/>
<polygon fill="rgb(192,202,194)" points="53,59 101,46 56,70"/>
<polygon fill="rgb(247,237,216)" points="118,104 144,96 123,95"/>
<polygon fill="rgb(240,241,221)" points="92,196 54,210 97,206"/>
<polygon fill="rgb(235,225,203)" points="117,124 121,139 119,135"/>
<polygon fill="rgb(222,225,210)" points="66,126 49,128 67,128"/>
<polygon fill="rgb(82,111,131)" points="23,122 14,159 2,112"/>
<polygon fill="rgb(204,213,201)" points="105,219 67,197 151,265"/>
<polygon fill="rgb(207,215,202)" points="114,199 56,258 57,226"/>
<polygon fill="rgb(59,95,127)" points="112,131 87,146 122,69"/>
<polygon fill="rgb(72,103,130)" points="66,171 72,146 38,153"/>
<polygon fill="rgb(185,194,190)" points="79,196 58,198 78,198"/>
<polygon fill="rgb(161,154,144)" points="159,162 133,159 223,163"/>
<polygon fill="rgb(203,194,205)" points="215,199 221,197 236,220"/>
<polygon fill="rgb(243,232,209)" points="172,146 220,136 158,131"/>
<polygon fill="rgb(230,219,195)" points="156,151 157,146 129,143"/>
<polygon fill="rgb(202,209,203)" points="170,62 158,72 183,67"/>
<polygon fill="rgb(240,224,189)" points="92,-41 69,31 -88,42"/>
<polygon fill="rgb(248,239,217)" points="207,112 243,54 272,120"/>
<polygon fill="rgb(240,242,230)" points="172,101 154,69 172,108"/>
<polygon fill="rgb(255,242,234)" points="118,156 91,144 92,143"/>
<polygon fill="rgb(178,179,166)" points="-25,140 -54,180 55,175"/>
<polygon fill="rgb(176,171,155)" points="143,155 138,164 135,163"/>
<polygon fill="rgb(160,162,155)" points="140,223 113,202 125,194"/>
<polygon fill="rgb(80,105,131)" points="132,166 89,123 118,135"/>
<polygon fill="rgb(239,227,206)" points="174,143 203,147 197,140"/>
<polygon fill="rgb(243,232,209)" points="186,112 152,120 213,118"/>
<polygon fill="rgb(239,233,213)" points="38,211 -32,197 32,186"/>
<polygon fill="rgb(248,237,215)" points="118,108 139,132 134,88"/>
<polygon fill="rgb(249,244,223)" points="65,194 89,168 28,189"/>
<polygon fill="rgb(229,221,202)" points="120,95 118,101 117,114"/>
<polygon fill="rgb(213,219,211)" points="101,45 160,89 119,20"/>
<polygon fill="rgb(249,232,196)" points="181,-22 97,-11 177,65"/>
<polygon fill="rgb(60,92,130)" points="115,113 90,103 118,86"/>
<polygon fill="rgb(77,102,125)" points="98,144 49,113 131,156"/>
<polygon fill="rgb(96,117,129)" points="78,102 94,95 75,101"/>
<polygon fill="rgb(200,194,172)" points="168,157 265,152 193,154"/>
<polygon fill="rgb(227,216,195)" points="189,150 152,150 160,147"/>
<polygon fill="rgb(101,107,114)" points="110,147 171,191 166,190"/>
<polygon fill="rgb(205,199,180)" points="117,143 161,154 155,154"/>
<polygon fill="rgb(205,214,203)" points="166,210 141,185 145,179"/>
<polygon fill="rgb(211,200,175)" points="49,41 -33,108 4,69"/>
<polygon fill="rgb(221,223,209)" points="157,211 191,229 147,210"/>
<polygon fill="rgb(102,119,136)" points="80,101 72,98 77,94"/>
<polygon fill="rgb(207,216,206)" points="53,60 67,68 55,63"/>
<polygon fill="rgb(225,214,191)" points="144,148 127,148 124,143"/>
<polygon fill="rgb(57,79,103)" points="199,197 167,188 212,193"/>
<polygon fill="rgb(216,221,214)" points="112,62 118,54 141,57"/>
<polygon fill="rgb(198,215,211)" points="150,74 178,93 146,67"/>
<polygon fill="rgb(247,237,217)" points="173,53 223,138 207,54"/>
<polygon fill="rgb(246,236,215)" points="242,134 232,93 289,154"/>
<polygon fill="rgb(83,133,161)" points="40,144 52,159 65,167"/>
<polygon fill="rgb(50,85,116)" points="71,53 91,90 115,66"/>
<polygon fill="rgb(200,230,145)" points="229,230 225,224 198,216"/>
<polygon fill="rgb(240,233,210)" points="137,107 177,110 178,113"/>
<polygon fill="rgb(210,214,207)" points="118,70 153,51 131,31"/>
<polygon fill="rgb(203,196,176)" points="163,154 127,148 131,152"/>
<polygon fill="rgb(104,105,107)" points="235,184 239,192 198,192"/>
<polygon fill="rgb(238,230,208)" points="221,141 187,144 252,147"/>
<polygon fill="rgb(224,218,203)" points="167,113 176,111 161,99"/>
<polygon fill="rgb(244,231,207)" points="144,136 139,134 149,108"/>
<polygon fill="rgb(214,219,207)" points="57,85 83,113 43,114"/>
<polygon fill="rgb(233,235,223)" points="195,89 145,64 143,57"/>
<polygon fill="rgb(197,208,198)" points="60,237 82,227 123,187"/>
<polygon fill="rgb(199,204,198)" points="157,71 129,86 127,92"/>
<polygon fill="rgb(170,126,136)" points="243,79 247,79 243,79"/>
<polygon fill="rgb(243,228,207)" points="157,138 159,137 169,109"/>
<polygon fill="rgb(144,153,159)" points="96,136 89,136 85,133"/>
<polygon fill="rgb(248,238,218)" points="183,48 169,58 223,96"/>
<polygon fill="rgb(229,232,218)" points="97,180 75,195 78,181"/>
<polygon fill="rgb(224,211,190)" points="241,152 204,145 299,147"/>
<polygon fill="rgb(241,230,209)" points="119,119 118,99 120,104"/>
<polygon fill="rgb(184,179,158)" points="197,158 165,158 190,157"/>
<polygon fill="rgb(214,204,200)" points="89,197 119,198 80,194"/>
<polygon fill="rgb(247,237,214)" points="136,107 159,117 166,101"/>
<polygon fill="rgb(207,216,210)" points="144,85 144,75 170,69"/>
<polygon fill="rgb(134,133,125)" points="159,163 190,183 146,175"/>
<polygon fill="rgb(246,235,214)" points="179,137 165,118 140,100"/>
<polygon fill="rgb(142,150,146)" points="130,155 122,144 144,172"/>
<polygon fill="rgb(106,131,150)" points="85,98 88,91 90,109"/>
<polygon fill="rgb(202,207,194)" points="131,261 43,273 97,248"/>
<polygon fill="rgb(226,240,216)" points="112,201 112,209 82,205"/>
<polygon fill="rgb(210,210,207)" points="100,205 111,184 104,213"/>
<polygon fill="rgb(215,221,214)" points="131,51 122,52 125,74"/>
<polygon fill="rgb(150,146,135)" points="183,181 183,187 172,177"/>
<polygon fill="rgb(247,236,214)" points="125,109 121,130 147,99"/>
<polygon fill="rgb(124,124,120)" points="151,178 191,178 182,170"/>
<polygon fill="rgb(207,213,202)" points="128,172 129,178 150,201"/>
<polygon fill="rgb(219,216,198)" points="134,129 109,133 108,134"/>
<polygon fill="rgb(227,222,206)" points="145,161 143,163 141,161"/>
<polygon fill="rgb(252,246,229)" points="85,159 89,176 50,181"/>
<polygon fill="rgb(210,217,202)" points="14,225 18,197 1,204"/>
<polygon fill="rgb(169,178,180)" points="108,145 102,142 104,139"/>
<polygon fill="rgb(247,236,212)" points="121,133 122,106 135,129"/>
<polygon fill="rgb(190,201,195)" points="151,193 145,187 140,199"/>
<polygon fill="rgb(137,142,144)" points="141,164 164,174 111,149"/>
<polygon fill="rgb(242,238,222)" points="150,72 153,68 175,60"/>
<polygon fill="rgb(193,203,199)" points="100,64 88,43 87,54"/>
<polygon fill="rgb(214,218,202)" points="42,103 23,86 64,150"/>
<polygon fill="rgb(249,235,199)" points="319,8 139,-41 177,31"/>
<polygon fill="rgb(194,204,198)" points="64,56 79,60 67,47"/>
<polygon fill="rgb(238,225,205)" points="261,142 192,143 231,147"/>
<polygon fill="rgb(221,229,214)" points="169,201 155,184 192,222"/>
<polygon fill="rgb(94,117,136)" points="12,158 29,165 41,171"/>
<polygon fill="rgb(199,208,208)" points="49,93 88,126 96,118"/>
<polygon fill="rgb(200,194,174)" points="174,155 144,152 133,152"/>
<polygon fill="rgb(240,228,204)" points="122,136 158,138 138,143"/>
<polygon fill="rgb(237,218,181)" points="31,14 -16,-3 93,-15"/>
<polygon fill="rgb(140,138,132)" points="143,167 148,176 150,178"/>
<polygon fill="rgb(123,136,154)" points="107,84 106,93 105,90"/>
<polygon fill="rgb(248,243,227)" points="95,168 87,178 112,150"/>
<polygon fill="rgb(200,208,201)" points="67,102 49,95 61,120"/>
<polygon fill="rgb(237,226,206)" points="118,107 117,103 123,94"/>
<polygon fill="rgb(189,195,179)" points="25,178 60,173 15,168"/>
<polygon fill="rgb(171,167,151)" points="196,160 171,161 147,157"/>
<polygon fill="rgb(243,233,212)" points="181,115 175,110 155,134"/>
<polygon fill="rgb(69,99,125)" points="37,153 -7,152 -10,129"/>
<polygon fill="rgb(213,204,184)" points="154,151 147,154 156,149"/>
<polygon fill="rgb(211,211,201)" points="179,111 181,79 171,95"/>
<polygon fill="rgb(244,234,216)" points="144,96 134,97 141,93"/>
<polygon fill="rgb(242,230,209)" points="193,143 182,146 180,144"/>
<polygon fill="rgb(239,226,200)" points="130,141 118,130 126,146"/>
<polygon fill="rgb(125,126,121)" points="178,184 159,186 143,170"/>
<polygon fill="rgb(219,226,208)" points="73,105 76,119 94,111"/>
<polygon fill="rgb(190,186,170)" points="140,158 139,151 141,162"/>
<polygon fill="rgb(212,220,210)" points="98,210 122,189 108,185"/>
<polygon fill="rgb(253,247,228)" points="234,14 251,37 200,58"/>
<polygon fill="rgb(197,196,190)" points="181,95 184,103 187,98"/>
<polygon fill="rgb(241,230,209)" points="173,142 171,138 154,135"/>
<polygon fill="rgb(187,183,163)" points="184,159 179,157 151,156"/>
<polygon fill="rgb(245,235,215)" points="170,110 166,110 166,115"/>
<polygon fill="rgb(119,134,141)" points="52,161 49,164 35,184"/>
<polygon fill="rgb(237,236,215)" points="82,245 67,236 87,234"/>
<polygon fill="rgb(181,191,184)" points="37,108 26,101 40,144"/>
<polygon fill="rgb(137,135,129)" points="152,172 163,163 186,171"/>
<polygon fill="rgb(96,110,128)" points="91,109 90,102 96,102"/>
<polygon fill="rgb(226,239,218)" points="98,51 120,44 137,28"/>
<polygon fill="rgb(191,201,196)" points="60,134 70,137 65,122"/>
<polygon fill="rgb(244,195,224)" points="78,202 31,223 12,238"/>
<polygon fill="rgb(189,203,193)" points="22,115 27,146 27,93"/>
<polygon fill="rgb(233,221,198)" points="256,145 186,147 185,150"/>
<polygon fill="rgb(145,157,166)" points="66,149 70,149 71,148"/>
<polygon fill="rgb(196,204,194)" points="23,113 25,94 28,150"/>
<polygon fill="rgb(239,233,210)" points="181,88 203,127 194,103"/>
<polygon fill="rgb(198,205,197)" points="141,194 127,169 120,162"/>
<polygon fill="rgb(232,229,214)" points="179,72 187,77 170,69"/>
<polygon fill="rgb(244,232,212)" points="166,116 145,122 169,108"/>
<polygon fill="rgb(93,117,141)" points="105,140 117,129 114,131"/>
<polygon fill="rgb(203,205,200)" points="184,79 173,103 170,94"/>
<polygon fill="rgb(201,208,198)" points="75,222 46,213 16,233"/>
<polygon fill="rgb(185,195,191)" points="146,85 149,83 163,79"/>
<polygon fill="rgb(248,248,223)" points="161,215 114,171 154,215"/>
<polygon fill="rgb(244,233,212)" points="181,61 150,66 169,61"/>
<polygon fill="rgb(244,233,211)" points="219,135 175,138 178,133"/>
<polygon fill="rgb(202,209,200)" points="134,196 112,190 85,178"/>
<polygon fill="rgb(238,228,213)" points="136,39 148,42 114,18"/>
<polygon fill="rgb(180,190,193)" points="116,71 116,70 119,70"/>
<polygon fill="rgb(228,233,218)" points="159,192 257,204 230,217"/>
<polygon fill="rgb(194,163,167)" points="162,140 155,143 162,140"/>
<polygon fill="rgb(68,97,119)" points="114,63 118,64 73,57"/>
<polygon fill="rgb(226,231,215)" points="136,173 163,208 153,187"/>
<polygon fill="rgb(243,231,210)" points="153,135 160,140 161,130"/>
<polygon fill="rgb(204,210,203)" points="114,40 86,43 123,54"/>
<polygon fill="rgb(212,227,213)" points="230,227 212,223 186,207"/>
<polygon fill="rgb(243,237,215)" points="-8,126 50,39 -4,91"/>
<polygon fill="rgb(245,236,215)" points="205,111 172,84 224,126"/>
<polygon fill="rgb(198,206,197)" points="70,188 80,219 73,184"/>
<polygon fill="rgb(242,229,206)" points="145,131 122,142 141,137"/>
<polygon fill="rgb(101,125,141)" points="64,153 66,147 71,114"/>
<polygon fill="rgb(121,136,150)" points="83,153 75,161 63,165"/>
<polygon fill="rgb(244,232,206)" points="152,119 146,121 147,112"/>
<polygon fill="rgb(252,246,227)" points="182,36 212,57 216,31"/>
<polygon fill="rgb(216,229,221)" points="138,81 136,94 137,38"/>
<polygon fill="rgb(245,234,213)" points="185,138 189,138 171,142"/>
<polygon fill="rgb(68,97,123)" points="51,117 81,127 86,126"/>
<polygon fill="rgb(131,131,127)" points="124,162 195,172 174,169"/>
<polygon fill="rgb(236,224,203)" points="150,145 147,144 177,148"/>
<polygon fill="rgb(229,232,221)" points="120,62 124,25 128,34"/>
<polygon fill="rgb(190,200,193)" points="119,232 74,214 85,217"/>
<polygon fill="rgb(193,188,135)" points="258,233 219,245 249,234"/>
<polygon fill="rgb(238,223,201)" points="125,139 121,136 121,140"/>
<polygon fill="rgb(213,211,204)" points="193,84 167,62 190,86"/>
<polygon fill="rgb(200,187,191)" points="73,26 99,22 63,31"/>
<polygon fill="rgb(207,217,198)" points="61,218 14,232 66,221"/>
<polygon fill="rgb(107,131,151)" points="76,69 86,55 75,66"/>
<polygon fill="rgb(105,132,149)" points="103,113 94,123 91,121"/>
<polygon fill="rgb(216,216,204)" points="141,209 117,186 130,190"/>
<polygon fill="rgb(244,233,212)" points="120,134 121,109 117,121"/>
<polygon fill="rgb(227,230,223)" points="181,94 173,95 171,97"/>
<polygon fill="rgb(243,232,213)" points="194,76 196,115 184,111"/>
<polygon fill="rgb(120,138,144)" points="55,245 54,235 39,227"/>
<polygon fill="rgb(172,180,182)" points="72,49 60,68 65,65"/>
<polygon fill="rgb(247,236,211)" points="140,121 149,98 144,100"/>
<polygon fill="rgb(241,229,207)" points="161,144 160,145 163,128"/>
<polygon fill="rgb(225,227,215)" points="168,94 181,111 177,107"/>
<polygon fill="rgb(186,184,169)" points="25,188 -4,150 36,185"/>
<polygon fill="rgb(187,179,157)" points="181,157 174,158 179,160"/>
<polygon fill="rgb(214,201,181)" points="158,59 139,42 165,62"/>
<polygon fill="rgb(151,148,138)" points="161,167 141,164 165,162"/>
<polygon fill="rgb(111,152,156)" points="175,253 200,249 212,246"/>
<polygon fill="rgb(234,234,227)" points="119,199 114,181 121,208"/>
<polygon fill="rgb(248,237,217)" points="143,112 135,86 119,114"/>
<polygon fill="rgb(177,237,179)" points="102,108 104,109 100,113"/>
<polygon fill="rgb(238,238,218)" points="50,218 78,215 68,203"/>
<polygon fill="rgb(211,204,180)" points="253,151 175,153 208,155"/>
<polygon fill="rgb(246,233,210)" points="235,108 204,144 242,129"/>
<polygon fill="rgb(187,165,151)" points="167,244 125,208 169,229"/>
<polygon fill="rgb(235,237,220)" points="269,185 191,204 237,199"/>
<polygon fill="rgb(238,227,214)" points="161,96 155,98 160,98"/>
<polygon fill="rgb(249,238,216)" points="193,118 205,121 207,137"/>
<polygon fill="rgb(237,217,183)" points="163,59 157,62 151,57"/>
<polygon fill="rgb(249,231,192)" points="56,6 167,3 71,23"/>
<polygon fill="rgb(203,210,200)" points="35,234 55,196 28,210"/>
<polygon fill="rgb(238,225,204)" points="214,144 191,144 208,150"/>
<polygon fill="rgb(193,204,197)" points="98,182 63,202 79,200"/>
<polygon fill="rgb(43,75,107)" points="129,81 123,71 91,86"/>
<polygon fill="rgb(220,222,203)" points="78,257 84,232 83,260"/>
<polygon fill="rgb(224,231,221)" points="143,91 146,92 156,81"/>
<polygon fill="rgb(206,211,206)" points="83,183 106,205 93,191"/>
<polygon fill="rgb(205,219,209)" points="91,176 119,195 119,201"/>
<polygon fill="rgb(242,230,208)" points="178,140 213,143 211,141"/>
<polygon fill="rgb(239,233,211)" points="176,155 170,137 167,132"/>
<polygon fill="rgb(244,235,213)" points="197,99 171,75 192,97"/>
<polygon fill="rgb(249,241,221)" points="200,39 238,84 214,121"/>
<polygon fill="rgb(246,235,213)" points="203,117 192,100 178,84"/>
<polygon fill="rgb(56,89,120)" points="95,117 116,115 101,140"/>
<polygon fill="rgb(207,197,181)" points="127,209 124,202 136,218"/>
<polygon fill="rgb(247,236,216)" points="207,104 220,115 180,92"/>
<polygon fill="rgb(230,219,197)" points="171,152 179,148 188,147"/>
<polygon fill="rgb(240,241,227)" points="148,42 136,42 133,32"/>
<polygon fill="rgb(253,250,231)" points="127,186 114,152 101,180"/>
<polygon fill="rgb(245,234,212)" points="252,118 207,130 202,141"/>
<polygon fill="rgb(176,175,160)" points="148,156 126,152 144,156"/>
<polygon fill="rgb(68,96,134)" points="69,113 72,150 90,140"/>
<polygon fill="rgb(192,203,197)" points="144,57 133,57 123,63"/>
<polygon fill="rgb(212,182,105)" points="179,18 102,68 179,18"/>
<polygon fill="rgb(227,226,209)" points="128,77 127,75 151,83"/>
<polygon fill="rgb(55,89,119)" points="79,121 87,137 74,153"/>
<polygon fill="rgb(245,236,215)" points="118,99 126,90 136,102"/>
<polygon fill="rgb(220,211,188)" points="140,148 135,149 125,145"/>
<polygon fill="rgb(45,72,107)" points="101,107 115,73 109,106"/>
<polygon fill="rgb(72,90,105)" points="178,192 189,195 166,189"/>
<polygon fill="rgb(227,233,221)" points="139,56 135,84 142,63"/>
<polygon fill="rgb(38,64,49)" points="123,162 126,165 134,163"/>
<polygon fill="rgb(197,195,175)" points="156,159 154,159 155,158"/>
<polygon fill="rgb(153,164,182)" points="133,205 121,190 121,201"/>
<polygon fill="rgb(255,246,225)" points="42,188 49,181 61,208"/>
<polygon fill="rgb(103,132,146)" points="113,199 113,207 119,212"/>
<polygon fill="rgb(225,217,191)" points="216,152 225,148 200,151"/>
<polygon fill="rgb(72,121,156)" points="129,86 111,102 115,90"/>
<polygon fill="rgb(247,237,215)" points="208,114 217,111 205,128"/>
<polygon fill="rgb(214,208,185)" points="165,153 173,154 172,155"/>
<polygon fill="rgb(207,210,201)" points="168,98 161,93 127,78"/>
<polygon fill="rgb(50,85,117)" points="97,73 59,68 71,89"/>
<polygon fill="rgb(194,203,196)" points="142,65 143,68 144,97"/>
<polygon fill="rgb(223,211,190)" points="171,152 192,151 190,151"/>
<polygon fill="rgb(245,234,214)" points="197,92 181,67 211,92"/>
<polygon fill="rgb(145,161,168)" points="55,147 61,143 84,123"/>
<polygon fill="rgb(245,243,230)" points="168,95 160,85 164,97"/>
<polygon fill="rgb(224,214,193)" points="138,147 140,148 167,150"/>
<polygon fill="rgb(231,235,211)" points="149,296 192,255 259,238"/>
<polygon fill="rgb(243,234,212)" points="188,120 167,112 168,113"/>
<polygon fill="rgb(201,188,186)" points="166,107 163,108 170,107"/>
<polygon fill="rgb(245,235,213)" points="167,110 165,131 155,105"/>
<polygon fill="rgb(239,228,204)" points="195,142 193,138 186,142"/>
<polygon fill="rgb(247,242,222)" points="60,90 32,64 33,106"/>
<polygon fill="rgb(75,104,126)" points="85,231 164,282 101,228"/>
<polygon fill="rgb(183,178,160)" points="206,158 246,153 293,154"/>
<polygon fill="rgb(234,227,204)" points="179,144 178,139 176,148"/>
<polygon fill="rgb(234,234,222)" points="135,75 147,81 142,76"/>
<polygon fill="rgb(243,231,210)" points="152,134 147,139 148,135"/>
<polygon fill="rgb(247,235,214)" points="145,108 174,138 130,92"/>
<polygon fill="rgb(168,165,150)" points="155,161 157,161 177,161"/>
<polygon fill="rgb(235,236,219)" points="76,104 56,112 90,101"/>
<polygon fill="rgb(94,133,159)" points="79,77 78,73 73,92"/>
<polygon fill="rgb(169,162,166)" points="118,133 117,129 115,131"/>
<polygon fill="rgb(173,167,153)" points="141,161 139,166 127,150"/>
<polygon fill="rgb(237,232,221)" points="180,107 179,99 177,95"/>
<polygon fill="rgb(236,216,199)" points="175,154 178,144 178,144"/>
<polygon fill="rgb(125,125,120)" points="162,170 180,183 159,182"/>
<polygon fill="rgb(241,230,208)" points="145,140 145,142 163,130"/>
<polygon fill="rgb(224,212,191)" points="181,152 187,151 191,148"/>
<polygon fill="rgb(65,97,124)" points="14,186 -21,197 -65,121"/>
<polygon fill="rgb(198,192,170)" points="152,151 151,152 148,155"/>
<polygon fill="rgb(162,160,147)" points="157,160 150,166 156,159"/>
<polygon fill="rgb(207,212,201)" points="158,84 142,101 157,88"/>
<polygon fill="rgb(152,161,165)" points="90,134 92,124 91,135"/>
<polygon fill="rgb(235,226,205)" points="179,143 175,147 183,149"/>
<polygon fill="rgb(182,177,161)" points="133,153 136,159 128,152"/>
<polygon fill="rgb(216,207,184)" points="214,151 267,147 253,150"/>
<polygon fill="rgb(235,234,217)" points="33,104 76,88 29,105"/>
<polygon fill="rgb(215,216,193)" points="116,112 115,122 116,117"/>
<polygon fill="rgb(209,221,210)" points="119,196 105,203 123,183"/>
<polygon fill="rgb(216,212,210)" points="138,178 143,183 164,196"/>
<polygon fill="rgb(211,218,205)" points="112,239 92,175 109,236"/>
<polygon fill="rgb(245,232,208)" points="141,115 144,137 141,118"/>
<polygon fill="rgb(244,232,211)" points="41,45 26,57 35,30"/>
<polygon fill="rgb(83,103,130)" points="32,233 3,237 15,261"/>
<polygon fill="rgb(196,205,198)" points="155,80 156,79 123,49"/>
<polygon fill="rgb(245,232,208)" points="145,132 140,119 140,113"/>
<polygon fill="rgb(147,186,198)" points="254,228 264,164 274,195"/>
<polygon fill="rgb(215,206,183)" points="143,151 128,148 139,149"/>
<polygon fill="rgb(201,210,207)" points="136,73 154,98 124,61"/>
<polygon fill="rgb(204,179,187)" points="236,203 237,204 245,220"/>
<polygon fill="rgb(142,158,167)" points="81,151 85,144 81,146"/>
<polygon fill="rgb(191,183,174)" points="118,209 110,218 98,232"/>
<polygon fill="rgb(208,211,202)" points="111,56 136,41 136,58"/>
<polygon fill="rgb(246,246,235)" points="134,84 135,75 131,82"/>
<polygon fill="rgb(246,236,216)" points="179,93 286,118 220,102"/>
<polygon fill="rgb(139,144,136)" points="146,160 152,168 148,171"/>
<polygon fill="rgb(56,81,113)" points="97,52 112,59 96,56"/>
<polygon fill="rgb(197,212,199)" points="170,197 177,198 156,193"/>
<polygon fill="rgb(237,241,229)" points="161,90 180,73 162,89"/>
<polygon fill="rgb(181,180,161)" points="169,158 168,159 169,157"/>
<polygon fill="rgb(203,203,197)" points="141,89 145,97 127,77"/>
<polygon fill="rgb(238,237,225)" points="115,214 125,246 107,210"/>
<polygon fill="rgb(182,192,187)" points="56,114 52,102 54,113"/>
<polygon fill="rgb(200,208,201)" points="63,52 57,70 72,46"/>
<polygon fill="rgb(249,242,223)" points="223,48 209,52 212,65"/>
<polygon fill="rgb(136,145,147)" points="-2,149 44,171 8,159"/>
<polygon fill="rgb(247,235,215)" points="149,135 154,130 163,129"/>
<polygon fill="rgb(203,214,202)" points="187,197 221,202 198,200"/>
<polygon fill="rgb(223,219,211)" points="149,94 154,86 153,89"/>
<polygon fill="rgb(241,230,211)" points="194,102 192,87 186,104"/>
<polygon fill="rgb(228,231,221)" points="134,44 137,58 131,47"/>
<polygon fill="rgb(201,213,206)" points="152,76 142,75 143,76"/>
<polygon fill="rgb(168,179,179)" points="74,115 72,119 77,111"/>
<polygon fill="rgb(247,235,213)" points="203,65 165,60 185,55"/>
<polygon fill="rgb(207,206,197)" points="117,141 117,144 121,144"/>
<polygon fill="rgb(150,154,179)" points="95,129 91,127 96,129"/>
<polygon fill="rgb(147,145,143)" points="152,222 159,226 139,202"/>
<polygon fill="rgb(224,229,214)" points="115,184 125,194 138,202"/>
<polygon fill="rgb(53,88,118)" points="53,144 60,164 43,141"/>
<polygon fill="rgb(195,201,198)" points="135,74 127,34 130,41"/>
<polygon fill="rgb(225,231,221)" points="149,75 160,87 154,78"/>
<polygon fill="rgb(61,111,149)" points="109,105 114,99 114,135"/>
<polygon fill="rgb(193,199,187)" points="163,98 159,91 166,99"/>
<polygon fill="rgb(228,236,223)" points="145,92 142,86 146,95"/>
<polygon fill="rgb(40,75,110)" points="112,65 105,50 94,97"/>
<polygon fill="rgb(244,235,216)" points="153,103 154,98 162,97"/>
<polygon fill="rgb(222,211,189)" points="142,149 155,149 152,150"/>
<polygon fill="rgb(245,232,211)" points="179,137 161,127 174,140"/>
<polygon fill="rgb(205,208,207)" points="86,180 94,192 70,158"/>
<polygon fill="rgb(216,236,215)" points="201,208 187,208 184,200"/>
<polygon fill="rgb(248,246,229)" points="75,158 82,180 94,166"/>
<polygon fill="rgb(230,234,223)" points="133,65 121,56 120,48"/>
<polygon fill="rgb(190,200,195)" points="105,148 92,142 98,145"/>
<polygon fill="rgb(242,243,226)" points="112,151 134,173 139,181"/>
<polygon fill="rgb(190,195,190)" points="16,130 -6,126 -9,119"/>
<polygon fill="rgb(187,181,162)" points="132,155 136,154 132,155"/>
<polygon fill="rgb(235,243,222)" points="135,195 140,196 146,209"/>
<polygon fill="rgb(244,247,237)" points="170,105 174,98 171,103"/>
<polygon fill="rgb(196,191,171)" points="156,155 158,155 161,154"/>
<polygon fill="rgb(249,245,226)" points="49,181 57,173 94,184"/>
<polygon fill="rgb(236,237,225)" points="173,80 169,83 173,92"/>
<polygon fill="rgb(203,212,205)" points="152,68 142,76 152,70"/>
<polygon fill="rgb(244,232,213)" points="192,96 206,98 180,83"/>
<polygon fill="rgb(252,248,229)" points="299,59 185,35 218,32"/>
<polygon fill="rgb(85,123,151)" points="104,74 104,74 100,91"/>
<polygon fill="rgb(245,237,216)" points="174,148 175,144 176,143"/>
<polygon fill="rgb(180,176,159)" points="290,153 205,159 204,158"/>
<polygon fill="rgb(246,238,217)" points="213,98 196,95 233,107"/>
<polygon fill="rgb(210,206,186)" points="141,156 138,159 140,159"/>
<polygon fill="rgb(198,187,178)" points="251,185 259,170 249,226"/>
<polygon fill="rgb(206,215,204)" points="142,193 149,199 122,166"/>
<polygon fill="rgb(246,227,190)" points="159,56 176,46 154,49"/>
<polygon fill="rgb(221,226,216)" points="132,43 102,31 112,28"/>
<polygon fill="rgb(246,236,215)" points="190,120 209,87 208,95"/>
<polygon fill="rgb(225,230,215)" points="72,200 71,198 78,185"/>
<polygon fill="rgb(229,222,201)" points="160,151 164,153 159,151"/>
<polygon fill="rgb(240,243,226)" points="145,66 144,70 142,60"/>
<polygon fill="rgb(171,150,141)" points="137,160 155,160 157,160"/>
<polygon fill="rgb(228,237,228)" points="162,83 159,74 160,72"/>
<polygon fill="rgb(209,217,204)" points="77,205 75,207 93,259"/>
<polygon fill="rgb(223,227,214)" points="109,191 79,198 112,195"/>
<polygon fill="rgb(229,228,219)" points="132,81 138,88 138,90"/>
<polygon fill="rgb(104,141,169)" points="128,74 128,68 129,70"/>
<polygon fill="rgb(243,232,211)" points="152,134 162,141 153,133"/>
<polygon fill="rgb(203,204,201)" points="84,196 94,193 99,180"/>
<polygon fill="rgb(195,208,201)" points="77,202 90,191 82,190"/>
<polygon fill="rgb(193,198,192)" points="141,203 153,221 155,222"/>
<polygon fill="rgb(41,73,106)" points="99,96 76,85 108,102"/>
<polygon fill="rgb(216,222,218)" points="145,39 144,44 150,41"/>
<polygon fill="rgb(172,174,173)" points="172,229 169,229 166,220"/>
<polygon fill="rgb(132,131,126)" points="154,167 190,173 167,172"/>
<polygon fill="rgb(237,225,215)" points="131,81 131,92 131,85"/>
<polygon fill="rgb(216,216,202)" points="156,96 161,95 158,98"/>
<polygon fill="rgb(238,227,206)" points="196,114 184,110 180,112"/>
<polygon fill="rgb(209,202,180)" points="167,152 168,153 184,154"/>
<polygon fill="rgb(247,238,224)" points="156,117 121,90 133,102"/>
<polygon fill="rgb(195,207,197)" points="31,89 -2,113 29,103"/>
<polygon fill="rgb(194,205,196)" points="157,97 156,85 156,83"/>
<polygon fill="rgb(253,248,230)" points="93,145 80,186 72,166"/>
<polygon fill="rgb(126,127,123)" points="169,184 162,188 151,170"/>
<polygon fill="rgb(243,232,211)" points="178,114 177,113 175,136"/>
<polygon fill="rgb(195,193,184)" points="103,208 103,208 188,230"/>
<polygon fill="rgb(242,230,208)" points="163,117 191,115 179,118"/>
<polygon fill="rgb(252,250,230)" points="135,186 124,188 117,180"/>
<polygon fill="rgb(247,235,213)" points="125,90 130,106 157,119"/>
<polygon fill="rgb(227,232,224)" points="154,75 163,77 182,85"/>
<polygon fill="rgb(243,232,208)" points="177,132 191,132 191,137"/>
<polygon fill="rgb(242,230,209)" points="163,115 172,119 171,120"/>
<polygon fill="rgb(208,234,138)" points="141,152 163,160 141,152"/>
<polygon fill="rgb(188,177,163)" points="132,156 132,151 137,159"/>
<polygon fill="rgb(178,188,182)" points="38,131 52,138 27,127"/>
<polygon fill="rgb(245,240,221)" points="47,43 23,90 56,65"/>
<polygon fill="rgb(207,216,207)" points="111,194 104,196 100,234"/>
<polygon fill="rgb(192,200,192)" points="178,65 180,68 167,68"/>
<polygon fill="rgb(137,141,135)" points="145,166 142,165 135,171"/>
<polygon fill="rgb(109,125,141)" points="113,206 132,215 115,212"/>
<polygon fill="rgb(202,208,203)" points="82,100 86,99 85,99"/>
<polygon fill="rgb(243,232,209)" points="122,122 119,100 117,117"/>
<polygon fill="rgb(227,223,206)" points="176,69 187,77 177,74"/>
<polygon fill="rgb(173,171,160)" points="160,231 175,229 214,230"/>
<polygon fill="rgb(186,183,163)" points="188,158 190,157 163,157"/>
<polygon fill="rgb(242,231,212)" points="181,108 187,111 183,100"/>
<polygon fill="rgb(151,151,154)" points="143,221 159,228 139,214"/>
<polygon fill="rgb(197,211,203)" points="60,142 66,124 53,151"/>
<polygon fill="rgb(246,235,213)" points="204,115 186,132 169,129"/>
<polygon fill="rgb(174,181,174)" points="152,87 148,92 150,90"/>
<polygon fill="rgb(222,224,229)" points="132,175 124,165 118,156"/>
<polygon fill="rgb(231,235,223)" points="151,180 163,190 130,169"/>
<polygon fill="rgb(228,216,193)" points="187,150 203,150 200,149"/>
<polygon fill="rgb(208,199,179)" points="132,150 149,151 159,153"/>
<polygon fill="rgb(109,114,112)" points="178,178 173,175 184,180"/>
<polygon fill="rgb(246,236,215)" points="238,107 214,128 212,135"/>
<polygon fill="rgb(201,208,198)" points="90,176 106,171 86,183"/>
<polygon fill="rgb(241,229,206)" points="177,118 188,112 176,122"/>
<polygon fill="rgb(236,231,213)" points="134,109 136,90 138,72"/>
<polygon fill="rgb(191,198,191)" points="120,162 128,176 136,186"/>
<polygon fill="rgb(86,114,142)" points="83,82 69,88 82,83"/>
<polygon fill="rgb(212,216,206)" points="107,240 111,229 106,191"/>
<polygon fill="rgb(227,232,221)" points="102,178 96,166 102,177"/>
<polygon fill="rgb(241,229,207)" points="174,141 156,138 167,137"/>
<polygon fill="rgb(196,202,193)" points="106,218 108,242 109,213"/>
<polygon fill="rgb(191,185,168)" points="186,158 180,155 184,157"/>
<polygon fill="rgb(249,233,196)" points="86,16 233,-39 174,32"/>
</svg>