<svg viewBox="0 0 256 256" xmlns="http://www.w3.org/2000/svg">
<rect fill="black" height="256" width="256" x="0" y="0"/>
<polygon fill="rgb(139,119,111)" fill-opacity="1" points="255,0 255,255 0,88"/>
<polygon fill="rgb(96,61,47)" fill-opacity="1" points="249,255 0,0 0,255"/>
<polygon fill="rgb(128,87,70)" fill-opacity="1" points="250,0 140,255 1,0"/>
<polygon fill="rgb(182,127,101)" fill-opacity="1" points="75,43 255,239 77,189"/>
<polygon fill="rgb(163,101,74)" fill-opacity="1" points="167,28 203,248 139,255"/>
<polygon fill="rgb(213,144,99)" fill-opacity="1" points="75,103 99,47 183,59"/>
<polygon fill="rgb(111,201,203)" fill-opacity="0.99139965" points="186,151 252,227 224,90"/>
<polygon fill="rgb(114,54,58)" fill-opacity="0.8715341" points="228,53 115,34 144,8"/>
<polygon fill="rgb(170,103,79)" fill-opacity="1" points="82,190 201,156 212,111"/>
<polygon fill="rgb(40,40,48)" fill-opacity="0.9840516" points="40,235 50,80 0,151"/>
<polygon fill="rgb(93,53,40)" fill-opacity="1" points="85,86 108,98 93,120"/>
<polygon fill="rgb(179,106,78)" fill-opacity="1" points="93,210 109,136 206,143"/>
<polygon fill="rgb(81,85,57)" fill-opacity="0.8604398" points="224,79 163,4 37,13"/>
<polygon fill="rgb(133,195,149)" fill-opacity="0.8516158" points="184,153 240,236 233,188"/>
<polygon fill="rgb(37,20,0)" fill-opacity="1" points="56,231 119,216 50,153"/>
<polygon fill="rgb(172,245,253)" fill-opacity="0.8702265" points="234,94 211,219 250,116"/>
<polygon fill="rgb(206,134,95)" fill-opacity="1" points="96,208 136,192 83,181"/>
<polygon fill="rgb(201,125,95)" fill-opacity="1" points="188,106 157,176 135,124"/>
<polygon fill="rgb(105,71,53)" fill-opacity="0.98263454" points="121,227 194,150 194,198"/>
<polygon fill="rgb(56,35,39)" fill-opacity="0.82527053" points="168,90 209,19 195,104"/>
<polygon fill="rgb(78,51,41)" fill-opacity="0.97421503" points="61,48 174,38 46,21"/>
<polygon fill="rgb(200,126,87)" fill-opacity="1" points="187,133 118,45 171,48"/>
<polygon fill="rgb(94,53,40)" fill-opacity="1" points="135,118 163,103 117,88"/>
<polygon fill="rgb(224,158,118)" fill-opacity="1" points="78,137 126,134 116,94"/>
<polygon fill="rgb(69,46,47)" fill-opacity="0.94548774" points="44,220 82,6 38,102"/>
<polygon fill="rgb(152,88,60)" fill-opacity="1" points="134,117 158,103 149,126"/>
<polygon fill="rgb(41,25,65)" fill-opacity="0.9773029" points="65,78 11,64 82,200"/>
<polygon fill="rgb(149,85,62)" fill-opacity="1" points="140,173 100,168 117,134"/>
<polygon fill="rgb(159,140,169)" fill-opacity="0.9566835" points="245,90 224,190 253,207"/>
<polygon fill="rgb(200,154,228)" fill-opacity="0.8162061" points="190,245 201,179 229,165"/>
<polygon fill="rgb(217,138,102)" fill-opacity="1" points="168,145 115,128 106,95"/>
<polygon fill="rgb(107,103,174)" fill-opacity="0.87107337" points="225,23 242,69 231,97"/>
<polygon fill="rgb(145,118,92)" fill-opacity="0.97049797" points="158,148 207,238 164,227"/>
<polygon fill="rgb(140,224,233)" fill-opacity="0.8454473" points="246,51 224,245 201,148"/>
<polygon fill="rgb(99,126,134)" fill-opacity="0.9677619" points="236,94 182,39 249,49"/>
<polygon fill="rgb(184,112,82)" fill-opacity="1" points="129,206 188,106 159,194"/>
<polygon fill="rgb(205,126,93)" fill-opacity="1" points="119,151 145,163 133,142"/>
<polygon fill="rgb(68,93,115)" fill-opacity="0.87433934" points="211,0 192,64 186,2"/>
<polygon fill="rgb(38,49,71)" fill-opacity="0.7480691" points="172,29 210,114 210,64"/>
<polygon fill="rgb(168,100,78)" fill-opacity="1" points="91,135 86,153 113,144"/>
<polygon fill="rgb(106,57,8)" fill-opacity="0.9202749" points="88,211 125,208 142,223"/>
<polygon fill="rgb(146,89,74)" fill-opacity="0.94188297" points="184,134 185,190 170,216"/>
<polygon fill="rgb(58,26,66)" fill-opacity="0.944638" points="26,252 53,205 69,255"/>
<polygon fill="rgb(172,92,67)" fill-opacity="1" points="119,149 131,127 141,140"/>
<polygon fill="rgb(119,74,55)" fill-opacity="1" points="165,214 156,196 192,140"/>
<polygon fill="rgb(151,107,89)" fill-opacity="0.9596727" points="211,124 201,152 160,158"/>
<polygon fill="rgb(60,18,18)" fill-opacity="0.837914" points="102,233 10,194 67,238"/>
<polygon fill="rgb(132,72,32)" fill-opacity="0.92059827" points="78,86 44,53 18,82"/>
<polygon fill="rgb(63,15,97)" fill-opacity="0.9206375" points="147,39 143,17 215,43"/>
<polygon fill="rgb(206,149,74)" fill-opacity="0.9805024" points="105,122 107,155 92,162"/>
<polygon fill="rgb(198,121,90)" fill-opacity="1" points="145,182 178,150 162,139"/>
<polygon fill="rgb(160,90,64)" fill-opacity="1" points="113,138 101,137 128,168"/>
<polygon fill="rgb(216,136,102)" fill-opacity="1" points="152,155 141,137 174,113"/>
<polygon fill="rgb(130,206,225)" fill-opacity="0.8849361" points="230,125 250,166 195,191"/>
<polygon fill="rgb(211,128,95)" fill-opacity="1" points="128,140 111,134 128,122"/>
<polygon fill="rgb(64,65,59)" fill-opacity="0.8995151" points="145,11 166,54 196,70"/>
<polygon fill="rgb(129,66,41)" fill-opacity="1" points="117,188 102,180 126,178"/>
<polygon fill="rgb(177,105,74)" fill-opacity="1" points="147,202 160,191 116,174"/>
<polygon fill="rgb(202,122,86)" fill-opacity="0.9444206" points="124,88 105,86 144,77"/>
<polygon fill="rgb(150,75,53)" fill-opacity="1" points="139,140 127,129 148,164"/>
<polygon fill="rgb(16,3,34)" fill-opacity="0.98182845" points="72,85 3,121 6,174"/>
<polygon fill="rgb(177,98,68)" fill-opacity="1" points="114,157 135,157 87,171"/>
<polygon fill="rgb(175,106,69)" fill-opacity="1" points="122,147 136,164 117,164"/>
<polygon fill="rgb(84,48,25)" fill-opacity="0.85622644" points="69,20 12,43 42,5"/>
<polygon fill="rgb(178,112,78)" fill-opacity="1" points="148,124 186,106 175,83"/>
<polygon fill="rgb(180,106,79)" fill-opacity="1" points="113,146 118,143 132,161"/>
<polygon fill="rgb(152,90,76)" fill-opacity="1" points="204,107 206,143 169,169"/>
<polygon fill="rgb(206,127,95)" fill-opacity="1" points="151,172 167,146 160,125"/>
<polygon fill="rgb(202,125,91)" fill-opacity="1" points="130,174 120,176 145,184"/>
<polygon fill="rgb(195,119,86)" fill-opacity="1" points="140,162 145,163 149,183"/>
<polygon fill="rgb(219,142,92)" fill-opacity="1" points="175,91 166,49 112,70"/>
<polygon fill="rgb(34,22,9)" fill-opacity="0.9785178" points="202,52 143,11 184,76"/>
<polygon fill="rgb(170,108,83)" fill-opacity="1" points="185,113 180,133 204,146"/>
<polygon fill="rgb(180,100,71)" fill-opacity="1" points="130,139 129,128 127,129"/>
<polygon fill="rgb(199,195,211)" fill-opacity="0.93477535" points="190,165 232,207 207,210"/>
<polygon fill="rgb(66,19,29)" fill-opacity="0.9507363" points="26,129 11,53 11,178"/>
<polygon fill="rgb(159,89,72)" fill-opacity="1" points="176,141 171,179 195,172"/>
<polygon fill="rgb(167,103,75)" fill-opacity="1" points="137,209 167,181 189,128"/>
<polygon fill="rgb(11,50,50)" fill-opacity="0.9563279" points="214,98 159,36 198,57"/>
<polygon fill="rgb(136,76,51)" fill-opacity="1" points="106,160 106,151 124,157"/>
<polygon fill="rgb(154,88,60)" fill-opacity="1" points="115,156 102,139 141,169"/>
<polygon fill="rgb(187,114,86)" fill-opacity="1" points="102,177 129,173 108,172"/>
<polygon fill="rgb(162,140,181)" fill-opacity="0.9675731" points="219,123 217,202 237,173"/>
<polygon fill="rgb(155,68,89)" fill-opacity="0.93542445" points="84,206 95,220 127,204"/>
<polygon fill="rgb(20,23,46)" fill-opacity="0.87348807" points="21,226 60,133 2,130"/>
<polygon fill="rgb(195,119,84)" fill-opacity="1" points="158,129 145,124 157,133"/>
<polygon fill="rgb(50,32,33)" fill-opacity="0.9064573" points="37,121 72,233 32,223"/>
<polygon fill="rgb(182,111,73)" fill-opacity="1" points="132,81 78,87 123,92"/>
<polygon fill="rgb(200,120,85)" fill-opacity="1" points="140,138 127,125 136,130"/>
<polygon fill="rgb(82,43,78)" fill-opacity="0.97423255" points="76,51 74,152 64,90"/>
<polygon fill="rgb(51,62,21)" fill-opacity="0.9309609" points="31,190 53,240 11,239"/>
<polygon fill="rgb(19,25,16)" fill-opacity="0.9644134" points="83,224 44,252 16,177"/>
<polygon fill="rgb(126,59,46)" fill-opacity="0.9082531" points="4,10 77,94 65,37"/>
<polygon fill="rgb(167,101,65)" fill-opacity="0.9990123" points="173,104 132,77 145,95"/>
<polygon fill="rgb(172,103,72)" fill-opacity="1" points="138,164 134,156 126,166"/>
<polygon fill="rgb(183,112,85)" fill-opacity="1" points="181,144 177,112 170,159"/>
<polygon fill="rgb(193,117,88)" fill-opacity="1" points="167,162 181,107 167,135"/>
<polygon fill="rgb(78,40,34)" fill-opacity="1" points="114,139 122,139 124,144"/>
<polygon fill="rgb(102,81,42)" fill-opacity="0.89663136" points="186,176 197,163 170,156"/>
<polygon fill="rgb(231,175,124)" fill-opacity="1" points="78,173 91,121 75,118"/>
<polygon fill="rgb(139,60,61)" fill-opacity="0.9299601" points="80,72 38,83 85,58"/>
<polygon fill="rgb(136,88,68)" fill-opacity="1" points="189,133 185,181 166,177"/>
<polygon fill="rgb(130,93,89)" fill-opacity="0.91674566" points="183,195 212,238 189,223"/>
<polygon fill="rgb(93,27,62)" fill-opacity="0.9404211" points="130,19 10,0 0,43"/>
<polygon fill="rgb(140,81,56)" fill-opacity="1" points="164,101 168,110 157,108"/>
<polygon fill="rgb(140,84,57)" fill-opacity="1" points="147,81 158,86 117,90"/>
<polygon fill="rgb(74,33,21)" fill-opacity="0.9936683" points="131,17 1,112 58,8"/>
<polygon fill="rgb(224,159,115)" fill-opacity="1" points="102,139 79,167 105,162"/>
<polygon fill="rgb(169,104,78)" fill-opacity="1" points="168,155 183,154 173,163"/>
<polygon fill="rgb(147,200,181)" fill-opacity="0.93906236" points="214,151 254,107 250,155"/>
<polygon fill="rgb(201,116,82)" fill-opacity="0.9755225" points="115,107 122,104 131,114"/>
<polygon fill="rgb(173,93,156)" fill-opacity="0.9754431" points="199,156 204,153 193,156"/>
<polygon fill="rgb(124,62,49)" fill-opacity="1" points="110,167 137,173 137,168"/>
<polygon fill="rgb(204,126,92)" fill-opacity="1" points="168,134 160,126 155,129"/>
<polygon fill="rgb(199,120,92)" fill-opacity="1" points="170,157 164,148 166,134"/>
<polygon fill="rgb(214,136,100)" fill-opacity="1" points="101,137 95,137 106,150"/>
<polygon fill="rgb(200,123,90)" fill-opacity="1" points="150,180 151,164 163,164"/>
<polygon fill="rgb(172,108,76)" fill-opacity="1" points="178,214 158,215 178,191"/>
<polygon fill="rgb(189,116,87)" fill-opacity="1" points="159,168 170,151 171,158"/>
<polygon fill="rgb(217,139,104)" fill-opacity="1" points="160,135 145,135 154,150"/>
<polygon fill="rgb(170,105,75)" fill-opacity="1" points="153,104 155,122 147,127"/>
<polygon fill="rgb(209,129,96)" fill-opacity="1" points="143,158 133,142 123,150"/>
<polygon fill="rgb(157,50,32)" fill-opacity="0.9006101" points="105,204 86,200 102,226"/>
<polygon fill="rgb(203,115,89)" fill-opacity="1" points="98,170 135,173 144,184"/>
<polygon fill="rgb(170,101,71)" fill-opacity="1" points="140,163 126,163 116,158"/>
<polygon fill="rgb(179,103,74)" fill-opacity="1" points="147,150 148,160 138,136"/>
<polygon fill="rgb(40,21,34)" fill-opacity="0.9827815" points="2,204 64,131 74,79"/>
<polygon fill="rgb(123,75,72)" fill-opacity="0.9702673" points="139,43 25,38 71,57"/>
<polygon fill="rgb(167,178,203)" fill-opacity="0.9121171" points="198,177 221,183 204,218"/>
<polygon fill="rgb(109,67,50)" fill-opacity="0.99468875" points="71,17 36,118 3,17"/>
<polygon fill="rgb(122,179,194)" fill-opacity="0.79905343" points="247,65 233,98 223,91"/>
<polygon fill="rgb(204,125,93)" fill-opacity="1" points="163,143 155,142 166,149"/>
<polygon fill="rgb(198,118,85)" fill-opacity="1" points="127,131 123,128 128,126"/>
<polygon fill="rgb(184,116,82)" fill-opacity="1" points="172,74 145,92 187,115"/>
<polygon fill="rgb(184,116,81)" fill-opacity="1" points="178,106 149,126 153,117"/>
<polygon fill="rgb(211,133,98)" fill-opacity="1" points="172,121 163,130 169,130"/>
<polygon fill="rgb(160,99,73)" fill-opacity="1" points="165,168 158,195 186,141"/>
<polygon fill="rgb(136,153,196)" fill-opacity="0.9789133" points="234,127 253,230 211,205"/>
<polygon fill="rgb(144,79,53)" fill-opacity="1" points="138,166 138,174 143,177"/>
<polygon fill="rgb(224,154,111)" fill-opacity="1" points="109,125 103,56 118,99"/>
<polygon fill="rgb(119,29,58)" fill-opacity="0.8734834" points="197,231 220,252 227,234"/>
<polygon fill="rgb(195,123,88)" fill-opacity="1" points="140,139 144,142 146,148"/>
<polygon fill="rgb(179,105,77)" fill-opacity="0.98741287" points="140,192 158,184 126,189"/>
<polygon fill="rgb(158,211,168)" fill-opacity="0.8769685" points="200,192 235,195 200,227"/>
<polygon fill="rgb(194,114,85)" fill-opacity="1" points="123,152 123,148 133,141"/>
<polygon fill="rgb(193,115,88)" fill-opacity="1" points="123,161 128,165 114,161"/>
<polygon fill="rgb(218,137,107)" fill-opacity="1" points="139,134 155,150 151,133"/>
<polygon fill="rgb(172,164,207)" fill-opacity="0.7997328" points="247,246 201,206 206,195"/>
<polygon fill="rgb(182,109,77)" fill-opacity="1" points="139,176 158,189 136,207"/>
<polygon fill="rgb(222,140,104)" fill-opacity="1" points="139,128 157,133 157,147"/>
<polygon fill="rgb(132,72,51)" fill-opacity="1" points="138,120 147,110 119,101"/>
<polygon fill="rgb(209,134,97)" fill-opacity="1" points="132,121 138,120 116,106"/>
<polygon fill="rgb(196,113,91)" fill-opacity="1" points="185,115 181,123 182,115"/>
<polygon fill="rgb(77,148,103)" fill-opacity="0.9489261" points="226,12 168,14 255,66"/>
<polygon fill="rgb(55,2,19)" fill-opacity="0.83464944" points="153,34 115,28 129,4"/>
<polygon fill="rgb(187,105,77)" fill-opacity="1" points="121,138 127,142 125,138"/>
<polygon fill="rgb(205,125,94)" fill-opacity="1" points="156,142 167,143 164,151"/>
<polygon fill="rgb(204,123,83)" fill-opacity="0.9270035" points="108,89 120,102 108,80"/>
<polygon fill="rgb(215,136,101)" fill-opacity="1" points="144,161 138,151 133,156"/>
<polygon fill="rgb(119,225,224)" fill-opacity="0.88811255" points="235,146 210,122 199,181"/>
<polygon fill="rgb(229,161,120)" fill-opacity="1" points="113,130 116,94 82,134"/>
<polygon fill="rgb(219,136,102)" fill-opacity="1" points="122,126 123,135 106,135"/>
<polygon fill="rgb(211,129,97)" fill-opacity="1" points="159,130 153,156 160,149"/>
<polygon fill="rgb(118,82,52)" fill-opacity="0.93854547" points="86,75 97,6 36,89"/>
<polygon fill="rgb(225,141,106)" fill-opacity="1" points="111,112 118,95 116,135"/>
<polygon fill="rgb(167,99,69)" fill-opacity="1" points="126,162 127,156 139,166"/>
<polygon fill="rgb(117,41,5)" fill-opacity="0.98302066" points="189,117 190,85 199,97"/>
<polygon fill="rgb(189,118,88)" fill-opacity="1" points="182,175 184,179 178,193"/>
<polygon fill="rgb(165,99,74)" fill-opacity="1" points="165,110 152,105 148,118"/>
<polygon fill="rgb(168,103,77)" fill-opacity="1" points="163,173 182,153 180,146"/>
<polygon fill="rgb(44,70,45)" fill-opacity="0.9280547" points="20,70 61,110 13,98"/>
<polygon fill="rgb(74,74,40)" fill-opacity="0.9122971" points="85,224 70,191 152,221"/>
<polygon fill="rgb(190,117,84)" fill-opacity="1" points="127,152 123,153 138,159"/>
<polygon fill="rgb(183,111,85)" fill-opacity="1" points="176,192 186,183 182,192"/>
<polygon fill="rgb(176,95,74)" fill-opacity="1" points="121,178 116,173 115,176"/>
<polygon fill="rgb(222,119,97)" fill-opacity="0.99736774" points="109,165 90,199 89,176"/>
<polygon fill="rgb(202,124,95)" fill-opacity="1" points="160,161 161,158 160,159"/>
<polygon fill="rgb(187,111,81)" fill-opacity="1" points="144,144 142,143 146,150"/>
<polygon fill="rgb(194,118,86)" fill-opacity="1" points="131,156 128,157 130,152"/>
<polygon fill="rgb(103,142,127)" fill-opacity="0.91536224" points="209,70 242,76 252,108"/>
<polygon fill="rgb(170,95,64)" fill-opacity="1" points="148,171 147,156 145,160"/>
<polygon fill="rgb(162,95,65)" fill-opacity="0.9980108" points="105,196 125,202 96,211"/>
<polygon fill="rgb(192,118,88)" fill-opacity="1" points="172,148 159,171 162,157"/>
<polygon fill="rgb(81,122,128)" fill-opacity="0.8788574" points="243,64 204,3 207,67"/>
<polygon fill="rgb(190,121,98)" fill-opacity="1" points="196,138 192,126 198,132"/>
<polygon fill="rgb(10,45,13)" fill-opacity="0.98102605" points="0,252 22,129 56,111"/>
<polygon fill="rgb(208,130,97)" fill-opacity="1" points="163,151 152,156 147,150"/>
<polygon fill="rgb(142,68,54)" fill-opacity="1" points="114,170 112,164 91,168"/>
<polygon fill="rgb(43,21,39)" fill-opacity="0.9412035" points="21,170 70,69 70,157"/>
<polygon fill="rgb(195,118,86)" fill-opacity="1" points="156,171 159,176 156,164"/>
<polygon fill="rgb(197,116,88)" fill-opacity="1" points="134,143 132,140 125,149"/>
<polygon fill="rgb(100,71,34)" fill-opacity="0.9931246" points="165,187 119,226 165,212"/>
<polygon fill="rgb(199,122,87)" fill-opacity="0.96706665" points="167,116 169,115 165,112"/>
<polygon fill="rgb(178,108,59)" fill-opacity="0.9994057" points="166,229 188,196 179,193"/>
<polygon fill="rgb(79,62,51)" fill-opacity="0.97798574" points="39,39 80,31 23,17"/>
<polygon fill="rgb(199,121,91)" fill-opacity="1" points="162,139 170,130 168,142"/>
<polygon fill="rgb(192,117,88)" fill-opacity="1" points="163,168 160,169 159,161"/>
<polygon fill="rgb(189,113,80)" fill-opacity="1" points="148,152 148,163 151,169"/>
<polygon fill="rgb(190,116,82)" fill-opacity="1" points="129,181 143,186 149,180"/>
<polygon fill="rgb(179,100,75)" fill-opacity="1" points="128,134 130,140 133,140"/>
<polygon fill="rgb(204,125,94)" fill-opacity="1" points="164,133 160,154 164,153"/>
<polygon fill="rgb(214,132,99)" fill-opacity="1" points="159,145 156,147 158,132"/>
<polygon fill="rgb(182,106,73)" fill-opacity="1" points="150,167 149,171 148,163"/>
<polygon fill="rgb(190,120,87)" fill-opacity="1" points="137,119 138,121 134,117"/>
<polygon fill="rgb(0,33,18)" fill-opacity="0.9903753" points="191,31 196,115 205,59"/>
<polygon fill="rgb(207,212,148)" fill-opacity="1" points="207,175 201,208 235,238"/>
<polygon fill="rgb(181,115,80)" fill-opacity="1" points="150,116 162,113 152,123"/>
<polygon fill="rgb(146,90,58)" fill-opacity="1" points="110,148 114,154 127,159"/>
<polygon fill="rgb(224,144,108)" fill-opacity="1" points="150,147 154,135 121,113"/>
<polygon fill="rgb(195,180,235)" fill-opacity="0.8931323" points="252,236 180,204 219,174"/>
<polygon fill="rgb(134,99,78)" fill-opacity="0.8723252" points="135,183 181,155 196,208"/>
<polygon fill="rgb(171,104,75)" fill-opacity="1" points="183,154 156,198 132,184"/>
<polygon fill="rgb(143,109,82)" fill-opacity="0.95999455" points="163,151 156,193 197,213"/>
<polygon fill="rgb(189,115,85)" fill-opacity="1" points="179,134 159,181 137,185"/>
<polygon fill="rgb(111,59,41)" fill-opacity="1" points="131,83 121,95 149,88"/>
<polygon fill="rgb(138,88,69)" fill-opacity="1" points="159,187 183,151 198,250"/>
<polygon fill="rgb(195,117,90)" fill-opacity="0.9776566" points="151,173 150,162 159,169"/>
<polygon fill="rgb(215,139,91)" fill-opacity="1" points="78,75 97,51 148,81"/>
<polygon fill="rgb(89,29,55)" fill-opacity="0.97314453" points="152,17 38,16 12,48"/>
<polygon fill="rgb(200,123,91)" fill-opacity="1" points="160,169 146,181 168,139"/>
<polygon fill="rgb(186,114,87)" fill-opacity="1" points="164,162 166,149 168,166"/>
<polygon fill="rgb(183,113,86)" fill-opacity="1" points="176,125 170,156 187,115"/>
<polygon fill="rgb(154,102,61)" fill-opacity="1" points="105,151 107,157 105,158"/>
<polygon fill="rgb(163,97,73)" fill-opacity="1" points="162,168 154,197 185,148"/>
<polygon fill="rgb(193,122,88)" fill-opacity="0.99697715" points="187,111 164,115 185,119"/>
<polygon fill="rgb(65,62,12)" fill-opacity="0.99175483" points="140,18 132,32 204,30"/>
<polygon fill="rgb(180,246,234)" fill-opacity="0.9019332" points="234,133 255,164 247,95"/>
<polygon fill="rgb(214,131,98)" fill-opacity="1" points="132,144 130,152 138,152"/>
<polygon fill="rgb(208,125,93)" fill-opacity="1" points="130,146 132,149 127,151"/>
<polygon fill="rgb(211,139,99)" fill-opacity="1" points="115,55 78,84 153,80"/>
<polygon fill="rgb(202,123,93)" fill-opacity="1" points="166,134 168,151 158,159"/>
<polygon fill="rgb(204,125,93)" fill-opacity="1" points="167,130 163,132 163,140"/>
<polygon fill="rgb(182,102,88)" fill-opacity="0.9854315" points="184,193 179,188 186,210"/>
<polygon fill="rgb(33,9,15)" fill-opacity="0.9792968" points="21,81 18,202 40,184"/>
<polygon fill="rgb(161,96,64)" fill-opacity="1" points="114,80 123,91 124,108"/>
<polygon fill="rgb(186,115,87)" fill-opacity="1" points="173,126 195,125 198,131"/>
<polygon fill="rgb(211,129,94)" fill-opacity="1" points="110,138 104,134 101,129"/>
<polygon fill="rgb(133,205,185)" fill-opacity="0.9819323" points="220,195 222,164 253,163"/>
<polygon fill="rgb(195,119,90)" fill-opacity="1" points="157,169 167,159 163,156"/>
<polygon fill="rgb(215,126,94)" fill-opacity="1" points="121,123 119,126 122,128"/>
<polygon fill="rgb(176,106,75)" fill-opacity="1" points="149,199 150,184 167,162"/>
<polygon fill="rgb(186,111,78)" fill-opacity="1" points="133,183 146,175 155,189"/>
<polygon fill="rgb(213,139,103)" fill-opacity="1" points="157,123 165,119 172,123"/>
<polygon fill="rgb(227,146,111)" fill-opacity="1" points="148,135 134,123 146,140"/>
<polygon fill="rgb(193,97,70)" fill-opacity="1" points="154,233 196,248 158,211"/>
<polygon fill="rgb(201,118,85)" fill-opacity="1" points="131,128 122,126 123,128"/>
<polygon fill="rgb(203,125,92)" fill-opacity="1" points="156,161 150,159 154,174"/>
<polygon fill="rgb(131,168,158)" fill-opacity="0.8984742" points="218,62 245,95 255,91"/>
<polygon fill="rgb(26,77,38)" fill-opacity="0.9236975" points="0,254 14,213 28,205"/>
<polygon fill="rgb(195,118,90)" fill-opacity="1" points="169,154 171,132 167,138"/>
<polygon fill="rgb(180,109,77)" fill-opacity="1" points="140,165 135,163 139,161"/>
<polygon fill="rgb(219,143,107)" fill-opacity="1" points="169,117 155,126 167,126"/>
<polygon fill="rgb(177,112,87)" fill-opacity="0.992883" points="176,124 183,133 196,125"/>
<polygon fill="rgb(181,101,72)" fill-opacity="1" points="142,143 139,140 141,141"/>
<polygon fill="rgb(199,125,86)" fill-opacity="1" points="114,77 139,82 116,82"/>
<polygon fill="rgb(151,72,53)" fill-opacity="1" points="122,144 130,141 124,146"/>
<polygon fill="rgb(164,97,66)" fill-opacity="1" points="136,183 141,188 116,187"/>
<polygon fill="rgb(238,128,133)" fill-opacity="0.9207282" points="82,76 96,81 101,51"/>
<polygon fill="rgb(135,74,52)" fill-opacity="1" points="140,106 141,121 149,111"/>
<polygon fill="rgb(168,102,68)" fill-opacity="1" points="144,124 151,123 151,120"/>
<polygon fill="rgb(195,115,87)" fill-opacity="1" points="121,147 124,148 122,151"/>
<polygon fill="rgb(183,114,91)" fill-opacity="0.97010386" points="154,252 156,236 193,210"/>
<polygon fill="rgb(185,117,82)" fill-opacity="1" points="169,110 152,117 156,122"/>
<polygon fill="rgb(210,127,101)" fill-opacity="1" points="120,126 119,103 116,110"/>
<polygon fill="rgb(182,111,77)" fill-opacity="1" points="142,171 141,168 144,173"/>
<polygon fill="rgb(173,102,77)" fill-opacity="1" points="165,93 171,101 158,92"/>
<polygon fill="rgb(196,119,89)" fill-opacity="0.9561517" points="103,132 103,137 118,137"/>
<polygon fill="rgb(186,109,85)" fill-opacity="1" points="113,147 116,149 118,146"/>
<polygon fill="rgb(156,86,61)" fill-opacity="1" points="98,141 84,153 94,139"/>
<polygon fill="rgb(98,66,42)" fill-opacity="0.9105756" points="48,30 14,112 25,30"/>
<polygon fill="rgb(154,84,68)" fill-opacity="0.9719742" points="162,226 180,179 163,207"/>
<polygon fill="rgb(182,102,76)" fill-opacity="1" points="131,140 131,142 129,143"/>
<polygon fill="rgb(33,3,43)" fill-opacity="0.9228442" points="122,0 112,37 61,3"/>
<polygon fill="rgb(50,53,19)" fill-opacity="0.9194279" points="193,106 191,61 169,32"/>
<polygon fill="rgb(187,113,82)" fill-opacity="1" points="121,150 130,157 126,152"/>
<polygon fill="rgb(80,73,42)" fill-opacity="0.93031526" points="198,33 71,2 31,27"/>
<polygon fill="rgb(58,91,31)" fill-opacity="0.99504817" points="198,93 198,111 188,128"/>
<polygon fill="rgb(53,30,27)" fill-opacity="1" points="149,97 163,105 125,99"/>
<polygon fill="rgb(194,110,81)" fill-opacity="1" points="100,140 96,145 98,138"/>
<polygon fill="rgb(170,101,71)" fill-opacity="1" points="110,165 115,163 115,165"/>
<polygon fill="rgb(192,116,82)" fill-opacity="1" points="105,159 108,162 110,160"/>
<polygon fill="rgb(158,100,78)" fill-opacity="1" points="191,125 187,122 183,145"/>
<polygon fill="rgb(174,105,75)" fill-opacity="1" points="117,151 117,149 125,154"/>
<polygon fill="rgb(197,120,86)" fill-opacity="1" points="145,126 159,131 157,128"/>
<polygon fill="rgb(126,100,61)" fill-opacity="1" points="100,255 98,204 117,197"/>
<polygon fill="rgb(188,117,87)" fill-opacity="1" points="187,106 169,132 183,122"/>
<polygon fill="rgb(199,123,91)" fill-opacity="1" points="149,152 149,153 147,150"/>
<polygon fill="rgb(185,109,77)" fill-opacity="1" points="133,202 116,196 104,199"/>
<polygon fill="rgb(122,240,252)" fill-opacity="0.98201704" points="236,138 223,121 217,126"/>
<polygon fill="rgb(69,27,70)" fill-opacity="0.9374169" points="100,4 71,35 74,0"/>
<polygon fill="rgb(154,90,62)" fill-opacity="1" points="156,107 148,114 161,108"/>
<polygon fill="rgb(116,164,205)" fill-opacity="1" points="247,203 212,166 228,154"/>
<polygon fill="rgb(162,93,90)" fill-opacity="0.9453635" points="186,209 161,221 134,223"/>
<polygon fill="rgb(218,135,100)" fill-opacity="1" points="95,121 86,126 81,109"/>
<polygon fill="rgb(219,138,104)" fill-opacity="1" points="148,130 157,134 148,133"/>
<polygon fill="rgb(189,108,77)" fill-opacity="1" points="136,135 138,135 132,129"/>
<polygon fill="rgb(172,97,62)" fill-opacity="1" points="121,185 132,182 140,190"/>
<polygon fill="rgb(142,76,57)" fill-opacity="0.9838078" points="193,197 179,161 173,174"/>
<polygon fill="rgb(220,138,100)" fill-opacity="1" points="123,126 114,115 113,84"/>
<polygon fill="rgb(225,152,106)" fill-opacity="1" points="158,48 161,85 79,63"/>
<polygon fill="rgb(175,107,84)" fill-opacity="1" points="194,152 201,153 187,120"/>
<polygon fill="rgb(119,42,63)" fill-opacity="0.95099807" points="69,79 84,19 64,56"/>
<polygon fill="rgb(225,143,108)" fill-opacity="1" points="120,114 109,134 126,119"/>
<polygon fill="rgb(161,104,75)" fill-opacity="0.9589288" points="180,189 185,179 179,180"/>
<polygon fill="rgb(214,135,101)" fill-opacity="1" points="151,150 157,146 156,148"/>
<polygon fill="rgb(112,72,41)" fill-opacity="0.87767184" points="153,197 154,213 183,170"/>
<polygon fill="rgb(105,78,67)" fill-opacity="0.9868413" points="194,166 171,150 194,176"/>
<polygon fill="rgb(133,68,40)" fill-opacity="0.98636127" points="118,44 89,56 81,40"/>
<polygon fill="rgb(80,38,22)" fill-opacity="1" points="110,219 112,205 154,212"/>
<polygon fill="rgb(171,105,80)" fill-opacity="1" points="181,155 170,150 180,160"/>
<polygon fill="rgb(182,101,78)" fill-opacity="1" points="139,138 136,133 132,130"/>
<polygon fill="rgb(24,26,27)" fill-opacity="0.99822295" points="51,60 8,159 45,204"/>
<polygon fill="rgb(201,125,92)" fill-opacity="1" points="154,161 148,152 150,157"/>
<polygon fill="rgb(215,135,101)" fill-opacity="1" points="138,159 143,161 133,152"/>
<polygon fill="rgb(201,122,89)" fill-opacity="1" points="126,151 135,156 129,154"/>
<polygon fill="rgb(206,127,96)" fill-opacity="1" points="153,162 160,158 162,153"/>
<polygon fill="rgb(1,25,13)" fill-opacity="0.86061525" points="190,47 173,33 190,94"/>
<polygon fill="rgb(200,119,92)" fill-opacity="1" points="137,134 143,143 141,137"/>
<polygon fill="rgb(216,129,98)" fill-opacity="0.99630845" points="127,126 121,126 118,124"/>
<polygon fill="rgb(123,166,211)" fill-opacity="0.99020326" points="215,116 218,79 229,156"/>
<polygon fill="rgb(206,127,94)" fill-opacity="1" points="152,163 152,175 155,158"/>
<polygon fill="rgb(195,111,79)" fill-opacity="1" points="127,126 127,130 126,129"/>
<polygon fill="rgb(136,79,53)" fill-opacity="1" points="178,65 171,47 155,42"/>
<polygon fill="rgb(206,127,96)" fill-opacity="1" points="158,157 157,163 153,161"/>
<polygon fill="rgb(192,117,83)" fill-opacity="1" points="153,129 152,124 150,124"/>
<polygon fill="rgb(205,126,95)" fill-opacity="1" points="165,149 160,146 160,157"/>
<polygon fill="rgb(31,54,19)" fill-opacity="0.9990196" points="208,63 41,2 157,17"/>
<polygon fill="rgb(96,200,173)" fill-opacity="0.93287003" points="235,180 255,167 255,90"/>
<polygon fill="rgb(197,122,90)" fill-opacity="1" points="130,155 133,156 129,156"/>
<polygon fill="rgb(89,35,45)" fill-opacity="0.994715" points="191,131 192,109 208,85"/>
<polygon fill="rgb(150,151,231)" fill-opacity="0.9123684" points="233,133 240,47 253,85"/>
<polygon fill="rgb(25,39,45)" fill-opacity="0.9834491" points="2,119 4,203 32,106"/>
<polygon fill="rgb(202,125,92)" fill-opacity="1" points="152,168 150,157 152,158"/>
<polygon fill="rgb(196,120,87)" fill-opacity="1" points="143,166 148,180 152,179"/>
<polygon fill="rgb(96,79,21)" fill-opacity="0.88371134" points="71,74 54,80 33,63"/>
<polygon fill="rgb(169,94,65)" fill-opacity="1" points="141,144 147,159 145,148"/>
<polygon fill="rgb(160,102,79)" fill-opacity="1" points="197,118 189,134 186,127"/>
<polygon fill="rgb(225,148,106)" fill-opacity="1" points="85,124 81,106 90,113"/>
<polygon fill="rgb(177,103,70)" fill-opacity="1" points="146,151 147,151 146,154"/>
<polygon fill="rgb(105,129,171)" fill-opacity="0.83039916" points="210,46 248,74 223,79"/>
<polygon fill="rgb(167,100,73)" fill-opacity="1" points="141,189 159,199 158,189"/>
<polygon fill="rgb(216,134,101)" fill-opacity="1" points="157,136 156,139 160,136"/>
<polygon fill="rgb(167,123,73)" fill-opacity="1" points="125,104 120,104 120,97"/>
<polygon fill="rgb(127,124,128)" fill-opacity="0.94269514" points="222,67 243,14 209,10"/>
<polygon fill="rgb(120,61,70)" fill-opacity="0.9459443" points="179,182 149,205 167,183"/>
<polygon fill="rgb(188,102,81)" fill-opacity="1" points="113,164 111,162 102,163"/>
<polygon fill="rgb(210,128,93)" fill-opacity="1" points="122,127 118,125 128,125"/>
<polygon fill="rgb(216,139,100)" fill-opacity="1" points="127,114 122,113 135,123"/>
<polygon fill="rgb(216,136,103)" fill-opacity="1" points="151,150 150,146 158,146"/>
<polygon fill="rgb(200,127,94)" fill-opacity="1" points="170,115 161,118 177,116"/>
<polygon fill="rgb(201,121,94)" fill-opacity="1" points="168,154 168,145 166,151"/>
<polygon fill="rgb(202,120,90)" fill-opacity="1" points="126,149 123,149 131,145"/>
<polygon fill="rgb(200,120,92)" fill-opacity="1" points="167,134 168,139 171,128"/>
<polygon fill="rgb(186,115,92)" fill-opacity="1" points="195,155 191,154 189,147"/>
<polygon fill="rgb(212,130,95)" fill-opacity="1" points="135,155 130,149 132,153"/>
<polygon fill="rgb(199,124,82)" fill-opacity="1" points="162,42 169,58 152,46"/>
<polygon fill="rgb(191,116,86)" fill-opacity="1" points="157,175 159,175 157,168"/>
<polygon fill="rgb(191,116,89)" fill-opacity="1" points="174,147 172,137 168,159"/>
<polygon fill="rgb(193,118,89)" fill-opacity="1" points="174,194 179,192 182,182"/>
<polygon fill="rgb(207,129,96)" fill-opacity="1" points="163,142 163,141 162,141"/>
<polygon fill="rgb(186,114,88)" fill-opacity="1" points="172,153 177,154 169,154"/>
<polygon fill="rgb(119,58,62)" fill-opacity="0.9948846" points="99,16 71,84 30,36"/>
<polygon fill="rgb(176,107,76)" fill-opacity="1" points="111,165 106,160 104,154"/>
<polygon fill="rgb(207,127,89)" fill-opacity="1" points="171,123 174,122 173,117"/>
<polygon fill="rgb(205,126,94)" fill-opacity="1" points="163,149 161,145 159,146"/>
<polygon fill="rgb(202,121,92)" fill-opacity="1" points="166,146 164,135 167,143"/>
<polygon fill="rgb(198,116,87)" fill-opacity="1" points="128,137 127,141 124,138"/>
<polygon fill="rgb(202,120,88)" fill-opacity="1" points="162,131 160,130 161,131"/>
<polygon fill="rgb(218,137,102)" fill-opacity="1" points="133,128 136,129 139,134"/>
<polygon fill="rgb(174,99,74)" fill-opacity="1" points="107,163 110,160 104,156"/>
<polygon fill="rgb(147,57,108)" fill-opacity="0.8197502" points="197,186 232,188 231,201"/>
<polygon fill="rgb(208,128,95)" fill-opacity="1" points="161,139 158,132 161,136"/>
<polygon fill="rgb(211,132,99)" fill-opacity="1" points="152,154 153,149 151,150"/>
<polygon fill="rgb(199,121,91)" fill-opacity="1" points="171,129 166,134 166,144"/>
<polygon fill="rgb(210,127,95)" fill-opacity="1" points="141,137 141,138 139,135"/>
<polygon fill="rgb(210,132,97)" fill-opacity="1" points="164,131 165,127 158,126"/>
<polygon fill="rgb(170,91,66)" fill-opacity="1" points="130,133 130,137 129,135"/>
<polygon fill="rgb(189,117,87)" fill-opacity="1" points="170,135 175,136 174,139"/>
<polygon fill="rgb(179,111,83)" fill-opacity="1" points="177,132 170,142 181,142"/>
<polygon fill="rgb(157,95,65)" fill-opacity="1" points="144,117 148,120 146,115"/>
<polygon fill="rgb(190,115,88)" fill-opacity="1" points="168,149 174,140 174,128"/>
<polygon fill="rgb(71,61,78)" fill-opacity="0.95632243" points="180,17 182,0 112,27"/>
<polygon fill="rgb(206,124,90)" fill-opacity="1" points="124,126 125,125 131,127"/>
<polygon fill="rgb(143,54,23)" fill-opacity="0.9767778" points="11,38 35,76 31,49"/>
<polygon fill="rgb(202,123,93)" fill-opacity="1" points="163,154 160,154 163,152"/>
<polygon fill="rgb(166,87,63)" fill-opacity="1" points="116,158 106,164 110,167"/>
<polygon fill="rgb(202,123,91)" fill-opacity="1" points="162,138 164,141 162,140"/>
<polygon fill="rgb(219,135,100)" fill-opacity="1" points="118,109 117,121 121,124"/>
<polygon fill="rgb(191,121,88)" fill-opacity="1" points="187,113 171,127 183,103"/>
<polygon fill="rgb(221,141,108)" fill-opacity="1" points="124,130 100,130 110,134"/>
<polygon fill="rgb(195,120,88)" fill-opacity="1" points="148,152 149,154 149,157"/>
<polygon fill="rgb(217,136,102)" fill-opacity="1" points="158,136 154,142 158,138"/>
<polygon fill="rgb(194,124,88)" fill-opacity="1" points="166,112 166,116 161,118"/>
<polygon fill="rgb(153,96,67)" fill-opacity="1" points="181,199 136,225 177,214"/>
<polygon fill="rgb(176,106,76)" fill-opacity="1" points="129,162 131,165 125,165"/>
<polygon fill="rgb(199,125,85)" fill-opacity="1" points="177,77 165,45 161,88"/>
<polygon fill="rgb(197,119,91)" fill-opacity="1" points="170,138 169,134 164,144"/>
<polygon fill="rgb(218,147,103)" fill-opacity="1" points="79,168 97,208 104,171"/>
<polygon fill="rgb(198,120,90)" fill-opacity="1" points="170,132 167,133 165,143"/>
<polygon fill="rgb(59,61,50)" fill-opacity="0.9571017" points="58,22 68,65 92,10"/>
<polygon fill="rgb(230,175,122)" fill-opacity="1" points="128,66 76,89 87,56"/>
<polygon fill="rgb(205,126,93)" fill-opacity="1" points="161,144 163,142 162,142"/>
<polygon fill="rgb(172,104,77)" fill-opacity="1" points="179,211 168,204 179,194"/>
<polygon fill="rgb(208,129,97)" fill-opacity="1" points="158,148 163,151 149,151"/>
<polygon fill="rgb(175,108,75)" fill-opacity="1" points="180,100 174,113 177,75"/>
<polygon fill="rgb(122,67,46)" fill-opacity="0.9885494" points="149,114 125,101 138,112"/>
<polygon fill="rgb(187,110,78)" fill-opacity="1" points="140,187 147,185 124,178"/>
<polygon fill="rgb(164,97,67)" fill-opacity="1" points="129,167 131,165 136,165"/>
<polygon fill="rgb(180,105,73)" fill-opacity="1" points="148,161 147,156 148,158"/>
<polygon fill="rgb(139,167,215)" fill-opacity="0.9536443" points="242,70 207,155 239,122"/>
<polygon fill="rgb(166,101,68)" fill-opacity="1" points="166,94 150,81 152,89"/>
<polygon fill="rgb(176,107,75)" fill-opacity="1" points="130,160 134,160 134,158"/>
<polygon fill="rgb(225,144,109)" fill-opacity="1" points="150,133 146,139 153,147"/>
<polygon fill="rgb(218,133,102)" fill-opacity="1" points="123,129 125,136 123,136"/>
<polygon fill="rgb(198,120,90)" fill-opacity="1" points="163,155 171,145 168,145"/>
<polygon fill="rgb(124,59,42)" fill-opacity="0.979547" points="139,255 130,237 123,246"/>
<polygon fill="rgb(104,48,47)" fill-opacity="1" points="48,36 64,116 69,46"/>
<polygon fill="rgb(159,81,56)" fill-opacity="1" points="135,136 130,132 133,133"/>
<polygon fill="rgb(187,114,85)" fill-opacity="1" points="124,154 122,152 121,147"/>
<polygon fill="rgb(109,92,204)" fill-opacity="0.87934923" points="216,57 202,35 196,38"/>
<polygon fill="rgb(193,116,89)" fill-opacity="1" points="169,151 163,156 166,155"/>
<polygon fill="rgb(209,129,96)" fill-opacity="1" points="160,151 158,143 158,150"/>
<polygon fill="rgb(194,112,78)" fill-opacity="1" points="126,126 133,130 126,128"/>
<polygon fill="rgb(217,137,104)" fill-opacity="1" points="146,129 153,133 155,132"/>
<polygon fill="rgb(201,122,94)" fill-opacity="1" points="166,147 168,144 166,151"/>
<polygon fill="rgb(200,123,94)" fill-opacity="1" points="133,143 135,145 130,142"/>
<polygon fill="rgb(204,126,94)" fill-opacity="1" points="155,161 155,156 156,156"/>
<polygon fill="rgb(88,125,112)" fill-opacity="0.8346466" points="204,22 232,69 185,30"/>
<polygon fill="rgb(152,88,59)" fill-opacity="1" points="111,141 111,145 113,139"/>
<polygon fill="rgb(173,96,72)" fill-opacity="1" points="127,142 129,138 132,138"/>
<polygon fill="rgb(198,116,87)" fill-opacity="1" points="103,131 103,134 107,134"/>
<polygon fill="rgb(207,128,95)" fill-opacity="1" points="168,131 165,131 167,130"/>
<polygon fill="rgb(199,123,90)" fill-opacity="1" points="138,181 134,172 130,175"/>
<polygon fill="rgb(217,135,99)" fill-opacity="1" points="126,123 126,125 118,123"/>
<polygon fill="rgb(186,109,79)" fill-opacity="1" points="145,149 147,151 145,148"/>
<polygon fill="rgb(155,90,58)" fill-opacity="1" points="127,158 127,160 122,159"/>
<polygon fill="rgb(178,113,84)" fill-opacity="1" points="171,166 169,167 167,161"/>
<polygon fill="rgb(142,76,54)" fill-opacity="0.94724774" points="112,210 130,206 122,205"/>
<polygon fill="rgb(184,116,79)" fill-opacity="1" points="163,100 175,65 178,102"/>
<polygon fill="rgb(203,123,95)" fill-opacity="1" points="167,142 165,146 167,145"/>
<polygon fill="rgb(191,110,83)" fill-opacity="1" points="128,134 128,136 129,133"/>
<polygon fill="rgb(214,133,98)" fill-opacity="1" points="118,111 116,120 116,107"/>
<polygon fill="rgb(207,128,97)" fill-opacity="1" points="154,159 155,158 153,154"/>
<polygon fill="rgb(176,106,88)" fill-opacity="0.96808064" points="171,194 179,188 176,226"/>
<polygon fill="rgb(85,29,11)" fill-opacity="0.9797523" points="137,23 138,43 83,18"/>
<polygon fill="rgb(121,76,56)" fill-opacity="1" points="137,108 139,101 142,108"/>
<polygon fill="rgb(26,41,21)" fill-opacity="0.93027234" points="47,80 22,152 71,97"/>
<polygon fill="rgb(170,102,79)" fill-opacity="1" points="160,194 143,191 158,179"/>
<polygon fill="rgb(197,124,90)" fill-opacity="1" points="143,164 146,168 142,168"/>
<polygon fill="rgb(123,176,191)" fill-opacity="0.9775622" points="242,154 205,182 207,151"/>
<polygon fill="rgb(194,123,87)" fill-opacity="1" points="173,112 180,112 165,116"/>
<polygon fill="rgb(184,118,88)" fill-opacity="1" points="183,104 188,117 185,121"/>
<polygon fill="rgb(168,103,70)" fill-opacity="1" points="169,111 159,111 169,109"/>
<polygon fill="rgb(213,130,96)" fill-opacity="1" points="119,124 119,126 121,128"/>
<polygon fill="rgb(191,116,84)" fill-opacity="1" points="125,152 129,155 128,153"/>
<polygon fill="rgb(202,123,92)" fill-opacity="1" points="164,149 162,147 161,147"/>
<polygon fill="rgb(192,118,85)" fill-opacity="1" points="123,152 125,153 128,153"/>
<polygon fill="rgb(222,138,104)" fill-opacity="1" points="125,135 116,123 113,134"/>
<polygon fill="rgb(208,129,96)" fill-opacity="1" points="164,131 157,133 161,134"/>
<polygon fill="rgb(14,2,40)" fill-opacity="0.9626204" points="2,145 71,110 72,163"/>
<polygon fill="rgb(110,201,190)" fill-opacity="0.97606087" points="255,75 246,156 231,111"/>
<polygon fill="rgb(204,125,94)" fill-opacity="1" points="163,149 162,148 159,154"/>
<polygon fill="rgb(207,128,97)" fill-opacity="1" points="154,154 161,157 160,159"/>
<polygon fill="rgb(180,108,78)" fill-opacity="1" points="130,164 124,164 129,163"/>
<polygon fill="rgb(220,141,106)" fill-opacity="1" points="144,127 135,124 140,124"/>
<polygon fill="rgb(183,111,79)" fill-opacity="1" points="128,156 129,154 126,154"/>
<polygon fill="rgb(211,129,97)" fill-opacity="1" points="159,148 162,150 160,148"/>
<polygon fill="rgb(160,88,63)" fill-opacity="0.97805285" points="122,183 119,177 128,183"/>
<polygon fill="rgb(207,133,98)" fill-opacity="1" points="135,121 138,121 131,117"/>
<polygon fill="rgb(215,139,99)" fill-opacity="1" points="130,119 125,116 128,114"/>
<polygon fill="rgb(62,56,73)" fill-opacity="0.799412" points="184,183 191,182 190,153"/>
<polygon fill="rgb(215,134,100)" fill-opacity="1" points="139,152 135,153 135,150"/>
<polygon fill="rgb(176,97,74)" fill-opacity="1" points="131,137 129,136 130,137"/>
<polygon fill="rgb(215,139,100)" fill-opacity="1" points="134,122 132,120 132,119"/>
<polygon fill="rgb(211,138,99)" fill-opacity="1" points="131,119 128,115 131,115"/>
<polygon fill="rgb(166,101,70)" fill-opacity="1" points="126,157 126,156 123,154"/>
<polygon fill="rgb(199,122,91)" fill-opacity="1" points="173,118 177,117 174,121"/>
<polygon fill="rgb(217,135,101)" fill-opacity="1" points="140,125 139,123 146,127"/>
<polygon fill="rgb(139,78,55)" fill-opacity="1" points="138,107 150,114 147,115"/>
<polygon fill="rgb(169,101,75)" fill-opacity="1" points="155,185 161,187 149,201"/>
<polygon fill="rgb(186,107,78)" fill-opacity="1" points="128,145 131,141 131,139"/>
<polygon fill="rgb(165,110,76)" fill-opacity="1" points="175,196 186,186 184,162"/>
<polygon fill="rgb(222,139,104)" fill-opacity="1" points="116,119 125,120 129,123"/>
<polygon fill="rgb(162,95,64)" fill-opacity="1" points="134,165 128,160 134,162"/>
<polygon fill="rgb(196,120,91)" fill-opacity="1" points="157,171 162,168 160,160"/>
<polygon fill="rgb(195,118,88)" fill-opacity="1" points="164,158 153,168 161,165"/>
<polygon fill="rgb(216,136,103)" fill-opacity="1" points="155,132 156,134 152,130"/>
<polygon fill="rgb(167,98,66)" fill-opacity="1" points="111,175 109,177 122,178"/>
<polygon fill="rgb(208,129,97)" fill-opacity="1" points="161,149 158,153 155,151"/>
<polygon fill="rgb(181,106,74)" fill-opacity="1" points="156,184 153,180 151,183"/>
<polygon fill="rgb(56,30,32)" fill-opacity="0.9458884" points="63,67 41,30 93,0"/>
<polygon fill="rgb(199,121,92)" fill-opacity="1" points="165,140 168,138 169,139"/>
<polygon fill="rgb(182,123,83)" fill-opacity="1" points="168,100 164,103 176,105"/>
<polygon fill="rgb(89,58,52)" fill-opacity="0.94165754" points="110,3 28,39 231,7"/>
<polygon fill="rgb(190,119,82)" fill-opacity="1" points="157,121 161,117 158,119"/>
<polygon fill="rgb(177,105,73)" fill-opacity="1" points="157,174 158,183 148,193"/>
<polygon fill="rgb(187,114,88)" fill-opacity="1" points="173,141 171,152 174,148"/>
<polygon fill="rgb(222,140,106)" fill-opacity="1" points="145,141 142,138 140,133"/>
<polygon fill="rgb(33,35,19)" fill-opacity="1" points="188,33 182,108 199,120"/>
<polygon fill="rgb(205,127,101)" fill-opacity="0.9826026" points="165,149 145,128 185,99"/>
<polygon fill="rgb(181,113,82)" fill-opacity="1" points="170,74 187,108 182,152"/>
<polygon fill="rgb(204,120,82)" fill-opacity="1" points="128,126 128,127 130,128"/>
<polygon fill="rgb(168,98,64)" fill-opacity="1" points="134,162 137,160 135,160"/>
<polygon fill="rgb(65,87,162)" fill-opacity="0.99353385" points="255,62 195,1 243,28"/>
<polygon fill="rgb(190,114,81)" fill-opacity="1" points="148,156 150,160 150,167"/>
<polygon fill="rgb(163,91,61)" fill-opacity="1" points="145,151 144,151 146,156"/>
<polygon fill="rgb(196,125,93)" fill-opacity="1" points="164,147 174,128 174,106"/>
<polygon fill="rgb(208,135,98)" fill-opacity="1" points="163,114 152,147 169,123"/>
<polygon fill="rgb(202,125,93)" fill-opacity="1" points="155,120 168,136 147,128"/>
<polygon fill="rgb(24,32,32)" fill-opacity="0.9188459" points="42,132 59,74 61,105"/>
<polygon fill="rgb(187,118,82)" fill-opacity="1" points="179,107 155,116 149,127"/>
<polygon fill="rgb(222,144,105)" fill-opacity="1" points="131,201 89,189 138,192"/>
</svg>