<svg viewBox="0 0 256 256" xmlns="http://www.w3.org/2000/svg">
<rect fill="black" height="256" width="256" x="0" y="0"/>
<polygon fill="rgb(95,70,76)" fill-opacity="1" points="255,138 0,0 0,255"/>
<polygon fill="rgb(113,74,85)" fill-opacity="1" points="110,0 255,0 255,255"/>
<polygon fill="rgb(79,73,62)" fill-opacity="1" points="246,156 243,254 85,172"/>
<polygon fill="rgb(23,48,56)" fill-opacity="1" points="177,10 184,123 0,51"/>
<polygon fill="rgb(22,55,60)" fill-opacity="1" points="242,255 17,255 25,117"/>
<polygon fill="rgb(143,81,68)" fill-opacity="1" points="237,159 86,93 90,191"/>
<polygon fill="rgb(21,48,53)" fill-opacity="1" points="117,122 75,115 183,102"/>
<polygon fill="rgb(220,95,109)" fill-opacity="1" points="117,174 39,72 10,102"/>
<polygon fill="rgb(13,54,90)" fill-opacity="1" points="141,197 212,236 251,190"/>
<polygon fill="rgb(133,71,59)" fill-opacity="1" points="77,147 120,179 233,106"/>
<polygon fill="rgb(207,179,193)" fill-opacity="1" points="100,111 116,82 120,109"/>
<polygon fill="rgb(146,85,87)" fill-opacity="1" points="15,113 123,166 150,152"/>
<polygon fill="rgb(162,82,59)" fill-opacity="1" points="128,191 176,176 115,121"/>
<polygon fill="rgb(94,40,86)" fill-opacity="1" points="114,32 251,6 51,17"/>
<polygon fill="rgb(34,48,47)" fill-opacity="1" points="159,115 185,105 158,161"/>
<polygon fill="rgb(23,45,52)" fill-opacity="1" points="141,9 81,38 193,27"/>
<polygon fill="rgb(124,68,85)" fill-opacity="1" points="0,0 11,48 135,1"/>
<polygon fill="rgb(167,107,134)" fill-opacity="1" points="226,28 224,139 212,177"/>
<polygon fill="rgb(33,53,50)" fill-opacity="1" points="154,177 222,178 129,212"/>
<polygon fill="rgb(16,54,58)" fill-opacity="1" points="102,214 251,194 211,160"/>
<polygon fill="rgb(105,55,78)" fill-opacity="1" points="55,77 30,82 52,32"/>
<polygon fill="rgb(157,81,59)" fill-opacity="1" points="83,163 92,189 175,179"/>
<polygon fill="rgb(187,125,170)" fill-opacity="1" points="53,70 26,105 89,149"/>
<polygon fill="rgb(158,141,105)" fill-opacity="1" points="197,137 252,152 249,51"/>
<polygon fill="rgb(161,82,59)" fill-opacity="1" points="159,110 153,153 107,134"/>
<polygon fill="rgb(162,80,104)" fill-opacity="1" points="239,0 255,144 190,86"/>
<polygon fill="rgb(166,85,61)" fill-opacity="1" points="86,174 175,176 139,191"/>
<polygon fill="rgb(172,90,74)" fill-opacity="1" points="180,173 113,173 221,135"/>
<polygon fill="rgb(32,58,38)" fill-opacity="1" points="164,116 195,82 193,70"/>
<polygon fill="rgb(123,35,21)" fill-opacity="1" points="208,119 174,124 192,83"/>
<polygon fill="rgb(115,30,18)" fill-opacity="1" points="206,121 181,121 187,143"/>
<polygon fill="rgb(48,30,30)" fill-opacity="1" points="22,240 0,218 21,228"/>
<polygon fill="rgb(54,76,89)" fill-opacity="1" points="94,182 104,190 85,189"/>
<polygon fill="rgb(148,75,57)" fill-opacity="1" points="92,152 114,177 124,148"/>
<polygon fill="rgb(95,39,22)" fill-opacity="1" points="162,154 123,169 117,169"/>
<polygon fill="rgb(29,70,50)" fill-opacity="1" points="100,52 52,7 59,58"/>
<polygon fill="rgb(111,39,21)" fill-opacity="1" points="136,134 140,144 127,126"/>
<polygon fill="rgb(128,64,49)" fill-opacity="1" points="121,119 119,130 85,151"/>
<polygon fill="rgb(13,53,58)" fill-opacity="1" points="193,84 123,119 117,74"/>
<polygon fill="rgb(137,71,60)" fill-opacity="1" points="124,146 73,112 133,144"/>
<polygon fill="rgb(27,60,77)" fill-opacity="1" points="210,228 176,231 254,154"/>
<polygon fill="rgb(155,82,56)" fill-opacity="1" points="255,163 255,255 219,255"/>
<polygon fill="rgb(16,46,51)" fill-opacity="1" points="140,207 112,187 55,185"/>
<polygon fill="rgb(127,88,111)" fill-opacity="1" points="55,102 46,36 49,80"/>
<polygon fill="rgb(93,35,28)" fill-opacity="1" points="91,93 114,93 107,105"/>
<polygon fill="rgb(29,65,72)" fill-opacity="1" points="79,109 62,41 106,28"/>
<polygon fill="rgb(9,70,61)" fill-opacity="1" points="221,194 223,238 93,236"/>
<polygon fill="rgb(25,35,54)" fill-opacity="1" points="53,0 54,79 121,42"/>
<polygon fill="rgb(82,33,43)" fill-opacity="1" points="194,93 185,89 217,91"/>
<polygon fill="rgb(51,25,18)" fill-opacity="1" points="177,178 195,166 154,186"/>
<polygon fill="rgb(69,24,89)" fill-opacity="1" points="39,75 46,51 15,70"/>
<polygon fill="rgb(209,197,216)" fill-opacity="1" points="100,110 86,108 85,85"/>
<polygon fill="rgb(16,42,43)" fill-opacity="1" points="167,110 152,158 170,146"/>
<polygon fill="rgb(198,98,103)" fill-opacity="1" points="227,143 215,146 232,120"/>
<polygon fill="rgb(64,82,41)" fill-opacity="1" points="74,146 8,103 59,128"/>
<polygon fill="rgb(18,50,58)" fill-opacity="1" points="80,121 65,84 88,57"/>
<polygon fill="rgb(11,57,62)" fill-opacity="1" points="241,197 144,196 193,255"/>
<polygon fill="rgb(170,88,63)" fill-opacity="1" points="123,175 173,177 197,136"/>
<polygon fill="rgb(11,53,62)" fill-opacity="1" points="20,247 118,223 48,120"/>
<polygon fill="rgb(18,35,40)" fill-opacity="1" points="41,143 89,149 95,159"/>
<polygon fill="rgb(144,85,79)" fill-opacity="1" points="201,71 181,52 183,61"/>
<polygon fill="rgb(185,108,143)" fill-opacity="1" points="255,150 194,156 216,91"/>
<polygon fill="rgb(12,51,56)" fill-opacity="1" points="182,35 83,48 179,108"/>
<polygon fill="rgb(16,46,51)" fill-opacity="1" points="124,74 76,44 99,101"/>
<polygon fill="rgb(93,35,20)" fill-opacity="1" points="105,168 94,160 112,170"/>
<polygon fill="rgb(145,73,57)" fill-opacity="1" points="95,159 85,132 106,145"/>
<polygon fill="rgb(33,26,53)" fill-opacity="1" points="50,0 53,21 110,0"/>
<polygon fill="rgb(122,51,31)" fill-opacity="1" points="139,145 138,143 136,138"/>
<polygon fill="rgb(160,87,72)" fill-opacity="1" points="95,121 98,138 73,113"/>
<polygon fill="rgb(13,45,50)" fill-opacity="1" points="61,77 94,17 153,38"/>
<polygon fill="rgb(170,61,54)" fill-opacity="1" points="95,104 90,94 107,105"/>
<polygon fill="rgb(159,85,64)" fill-opacity="1" points="118,122 106,121 107,131"/>
<polygon fill="rgb(183,97,128)" fill-opacity="1" points="87,139 77,127 76,114"/>
<polygon fill="rgb(50,35,32)" fill-opacity="1" points="169,146 186,87 171,133"/>
<polygon fill="rgb(130,75,95)" fill-opacity="1" points="73,131 0,93 4,106"/>
<polygon fill="rgb(12,53,58)" fill-opacity="1" points="164,106 185,42 118,72"/>
<polygon fill="rgb(146,72,84)" fill-opacity="1" points="229,164 198,161 191,152"/>
<polygon fill="rgb(171,87,63)" fill-opacity="1" points="122,120 136,160 145,156"/>
<polygon fill="rgb(156,79,65)" fill-opacity="1" points="89,149 108,156 85,132"/>
<polygon fill="rgb(171,87,63)" fill-opacity="1" points="130,165 106,166 156,136"/>
<polygon fill="rgb(119,103,70)" fill-opacity="1" points="7,138 29,212 7,186"/>
<polygon fill="rgb(169,87,62)" fill-opacity="1" points="94,185 91,168 158,177"/>
<polygon fill="rgb(86,30,45)" fill-opacity="1" points="207,58 199,58 232,66"/>
<polygon fill="rgb(136,58,73)" fill-opacity="1" points="83,164 113,156 122,155"/>
<polygon fill="rgb(11,54,60)" fill-opacity="1" points="114,68 149,113 173,63"/>
<polygon fill="rgb(186,79,88)" fill-opacity="1" points="197,4 190,100 236,1"/>
<polygon fill="rgb(90,35,15)" fill-opacity="1" points="135,165 153,156 152,156"/>
<polygon fill="rgb(117,67,51)" fill-opacity="1" points="153,158 157,157 146,161"/>
<polygon fill="rgb(14,54,54)" fill-opacity="1" points="61,151 77,153 52,152"/>
<polygon fill="rgb(164,87,62)" fill-opacity="1" points="178,117 184,135 166,160"/>
<polygon fill="rgb(63,41,35)" fill-opacity="1" points="119,121 103,120 92,119"/>
<polygon fill="rgb(49,77,65)" fill-opacity="1" points="127,8 128,33 114,10"/>
<polygon fill="rgb(119,80,70)" fill-opacity="1" points="184,0 248,102 201,42"/>
<polygon fill="rgb(10,55,65)" fill-opacity="1" points="65,255 18,199 93,184"/>
<polygon fill="rgb(171,88,62)" fill-opacity="1" points="124,149 136,141 118,167"/>
<polygon fill="rgb(171,87,62)" fill-opacity="1" points="134,133 157,134 134,118"/>
<polygon fill="rgb(46,37,72)" fill-opacity="1" points="164,72 194,92 205,100"/>
<polygon fill="rgb(168,87,66)" fill-opacity="1" points="135,138 109,138 115,130"/>
<polygon fill="rgb(168,85,63)" fill-opacity="1" points="131,167 145,132 148,140"/>
<polygon fill="rgb(147,71,103)" fill-opacity="1" points="207,108 219,82 221,105"/>
<polygon fill="rgb(140,98,140)" fill-opacity="1" points="12,225 3,253 10,218"/>
<polygon fill="rgb(163,86,66)" fill-opacity="1" points="113,164 94,154 103,165"/>
<polygon fill="rgb(161,88,68)" fill-opacity="1" points="102,128 107,131 104,121"/>
<polygon fill="rgb(160,83,62)" fill-opacity="1" points="103,138 120,130 87,139"/>
<polygon fill="rgb(94,41,28)" fill-opacity="1" points="98,156 119,157 112,159"/>
<polygon fill="rgb(169,88,63)" fill-opacity="1" points="140,136 122,120 154,116"/>
<polygon fill="rgb(217,209,231)" fill-opacity="1" points="182,56 192,71 182,82"/>
<polygon fill="rgb(170,86,67)" fill-opacity="1" points="112,168 105,159 127,164"/>
<polygon fill="rgb(158,84,67)" fill-opacity="1" points="94,177 86,175 87,177"/>
<polygon fill="rgb(25,16,12)" fill-opacity="1" points="94,89 104,101 109,86"/>
<polygon fill="rgb(165,42,83)" fill-opacity="1" points="13,55 14,240 6,186"/>
<polygon fill="rgb(79,34,32)" fill-opacity="1" points="106,146 96,138 102,150"/>
<polygon fill="rgb(10,54,61)" fill-opacity="1" points="108,255 74,193 230,224"/>
<polygon fill="rgb(163,90,80)" fill-opacity="1" points="124,122 122,124 117,148"/>
<polygon fill="rgb(104,56,66)" fill-opacity="1" points="244,73 241,69 242,86"/>
<polygon fill="rgb(165,86,67)" fill-opacity="1" points="107,156 88,148 122,154"/>
<polygon fill="rgb(11,57,64)" fill-opacity="1" points="209,255 196,166 115,255"/>
<polygon fill="rgb(128,32,16)" fill-opacity="1" points="181,98 194,89 191,145"/>
<polygon fill="rgb(166,88,69)" fill-opacity="1" points="93,151 122,152 93,153"/>
<polygon fill="rgb(73,37,82)" fill-opacity="1" points="6,28 3,105 19,54"/>
<polygon fill="rgb(169,86,63)" fill-opacity="1" points="104,162 109,167 151,152"/>
<polygon fill="rgb(87,28,17)" fill-opacity="1" points="120,127 108,132 105,132"/>
<polygon fill="rgb(12,53,58)" fill-opacity="1" points="153,112 121,108 164,88"/>
<polygon fill="rgb(197,116,149)" fill-opacity="1" points="245,109 199,145 213,106"/>
<polygon fill="rgb(17,32,38)" fill-opacity="1" points="65,153 55,126 75,151"/>
<polygon fill="rgb(146,73,47)" fill-opacity="1" points="133,134 133,135 134,132"/>
<polygon fill="rgb(14,53,61)" fill-opacity="1" points="35,120 20,164 67,143"/>
<polygon fill="rgb(13,49,55)" fill-opacity="1" points="159,146 183,92 164,153"/>
<polygon fill="rgb(12,56,66)" fill-opacity="1" points="106,198 102,234 121,198"/>
<polygon fill="rgb(149,82,124)" fill-opacity="1" points="191,83 190,85 220,36"/>
<polygon fill="rgb(115,58,38)" fill-opacity="1" points="103,140 103,139 111,140"/>
<polygon fill="rgb(170,87,62)" fill-opacity="1" points="150,157 114,152 156,144"/>
<polygon fill="rgb(13,39,45)" fill-opacity="1" points="118,85 116,84 117,63"/>
<polygon fill="rgb(11,49,56)" fill-opacity="1" points="135,205 86,194 117,255"/>
<polygon fill="rgb(170,87,113)" fill-opacity="1" points="189,48 174,19 245,139"/>
<polygon fill="rgb(148,33,72)" fill-opacity="1" points="235,84 209,75 250,65"/>
<polygon fill="rgb(163,83,62)" fill-opacity="1" points="119,137 119,140 124,122"/>
<polygon fill="rgb(139,73,56)" fill-opacity="1" points="177,174 152,186 167,179"/>
<polygon fill="rgb(87,36,23)" fill-opacity="1" points="98,127 101,120 101,129"/>
<polygon fill="rgb(95,62,88)" fill-opacity="1" points="188,54 193,65 191,55"/>
<polygon fill="rgb(58,46,22)" fill-opacity="1" points="127,186 102,186 142,192"/>
<polygon fill="rgb(14,50,54)" fill-opacity="1" points="162,141 165,70 186,88"/>
<polygon fill="rgb(169,87,63)" fill-opacity="1" points="155,147 138,136 158,119"/>
<polygon fill="rgb(161,79,105)" fill-opacity="1" points="227,11 218,106 202,21"/>
<polygon fill="rgb(188,129,173)" fill-opacity="1" points="75,146 83,128 38,107"/>
<polygon fill="rgb(11,39,42)" fill-opacity="1" points="77,189 75,168 87,150"/>
<polygon fill="rgb(148,49,70)" fill-opacity="1" points="4,159 11,124 19,214"/>
<polygon fill="rgb(172,87,62)" fill-opacity="1" points="132,138 143,160 124,165"/>
<polygon fill="rgb(76,104,67)" fill-opacity="1" points="123,208 134,170 123,208"/>
<polygon fill="rgb(128,105,136)" fill-opacity="1" points="111,6 217,0 116,9"/>
<polygon fill="rgb(61,23,72)" fill-opacity="1" points="33,63 47,76 37,76"/>
<polygon fill="rgb(25,45,62)" fill-opacity="1" points="119,112 98,117 71,109"/>
<polygon fill="rgb(173,87,63)" fill-opacity="1" points="147,146 136,151 156,126"/>
<polygon fill="rgb(167,87,62)" fill-opacity="1" points="141,163 132,187 102,185"/>
<polygon fill="rgb(13,53,57)" fill-opacity="1" points="154,187 255,157 221,245"/>
<polygon fill="rgb(21,9,18)" fill-opacity="1" points="64,147 88,150 81,147"/>
<polygon fill="rgb(144,68,79)" fill-opacity="1" points="45,34 50,40 45,19"/>
<polygon fill="rgb(107,57,43)" fill-opacity="1" points="94,185 102,188 91,182"/>
<polygon fill="rgb(35,41,44)" fill-opacity="1" points="195,81 193,66 185,95"/>
<polygon fill="rgb(151,80,58)" fill-opacity="1" points="149,187 114,186 99,186"/>
<polygon fill="rgb(67,45,40)" fill-opacity="1" points="93,119 93,119 80,115"/>
<polygon fill="rgb(10,56,51)" fill-opacity="1" points="253,175 223,177 51,213"/>
<polygon fill="rgb(25,37,70)" fill-opacity="1" points="10,255 95,219 32,219"/>
<polygon fill="rgb(162,148,106)" fill-opacity="1" points="223,10 102,4 217,18"/>
<polygon fill="rgb(14,47,52)" fill-opacity="1" points="183,22 121,21 122,67"/>
<polygon fill="rgb(169,86,62)" fill-opacity="1" points="202,161 169,147 173,174"/>
<polygon fill="rgb(158,77,53)" fill-opacity="1" points="127,129 128,124 126,126"/>
<polygon fill="rgb(60,24,110)" fill-opacity="1" points="4,41 12,92 0,68"/>
<polygon fill="rgb(37,25,93)" fill-opacity="1" points="197,31 184,35 204,38"/>
<polygon fill="rgb(171,87,62)" fill-opacity="1" points="178,171 170,142 186,141"/>
<polygon fill="rgb(167,89,65)" fill-opacity="1" points="164,153 159,157 163,165"/>
<polygon fill="rgb(11,54,64)" fill-opacity="1" points="96,219 21,217 28,255"/>
<polygon fill="rgb(170,87,62)" fill-opacity="1" points="134,189 100,170 173,176"/>
<polygon fill="rgb(83,20,15)" fill-opacity="1" points="183,141 201,130 204,123"/>
<polygon fill="rgb(11,57,63)" fill-opacity="1" points="225,229 131,215 193,168"/>
<polygon fill="rgb(169,87,66)" fill-opacity="1" points="92,151 99,161 89,122"/>
<polygon fill="rgb(155,78,102)" fill-opacity="1" points="199,156 225,166 246,152"/>
<polygon fill="rgb(12,49,55)" fill-opacity="1" points="114,25 66,79 103,87"/>
<polygon fill="rgb(171,88,63)" fill-opacity="1" points="132,138 121,137 122,122"/>
<polygon fill="rgb(172,87,62)" fill-opacity="1" points="132,121 146,118 151,150"/>
<polygon fill="rgb(18,29,26)" fill-opacity="1" points="164,108 136,117 169,104"/>
<polygon fill="rgb(12,55,63)" fill-opacity="1" points="72,199 77,151 84,184"/>
<polygon fill="rgb(172,88,62)" fill-opacity="1" points="174,175 183,130 148,176"/>
<polygon fill="rgb(171,87,67)" fill-opacity="1" points="146,142 143,144 138,135"/>
<polygon fill="rgb(13,54,59)" fill-opacity="1" points="170,46 179,95 150,111"/>
<polygon fill="rgb(111,59,54)" fill-opacity="1" points="193,71 197,73 222,78"/>
<polygon fill="rgb(176,99,80)" fill-opacity="1" points="0,165 13,127 13,156"/>
<polygon fill="rgb(155,88,68)" fill-opacity="1" points="181,122 171,140 168,150"/>
<polygon fill="rgb(170,87,61)" fill-opacity="1" points="175,133 180,120 179,144"/>
<polygon fill="rgb(30,30,25)" fill-opacity="1" points="146,192 95,188 122,188"/>
<polygon fill="rgb(116,27,52)" fill-opacity="1" points="255,32 251,100 248,4"/>
<polygon fill="rgb(138,65,54)" fill-opacity="1" points="179,147 195,152 203,159"/>
<polygon fill="rgb(165,86,60)" fill-opacity="1" points="144,126 94,138 113,132"/>
<polygon fill="rgb(172,88,64)" fill-opacity="1" points="118,164 136,139 122,166"/>
<polygon fill="rgb(168,88,64)" fill-opacity="1" points="137,141 126,130 114,130"/>
<polygon fill="rgb(48,26,58)" fill-opacity="1" points="146,81 147,83 146,81"/>
<polygon fill="rgb(149,83,66)" fill-opacity="1" points="85,171 96,185 89,179"/>
<polygon fill="rgb(177,93,124)" fill-opacity="1" points="189,48 250,53 255,74"/>
<polygon fill="rgb(158,130,76)" fill-opacity="1" points="13,127 20,104 5,237"/>
<polygon fill="rgb(16,48,49)" fill-opacity="1" points="179,102 168,92 193,76"/>
<polygon fill="rgb(104,28,21)" fill-opacity="1" points="204,100 206,112 193,90"/>
<polygon fill="rgb(163,76,59)" fill-opacity="1" points="112,156 118,151 116,156"/>
<polygon fill="rgb(171,87,63)" fill-opacity="1" points="135,163 146,157 109,165"/>
<polygon fill="rgb(210,135,147)" fill-opacity="1" points="34,126 26,117 39,83"/>
<polygon fill="rgb(169,88,63)" fill-opacity="1" points="137,172 125,169 145,163"/>
<polygon fill="rgb(150,76,56)" fill-opacity="1" points="140,161 141,161 152,155"/>
<polygon fill="rgb(128,67,86)" fill-opacity="1" points="50,59 44,57 50,38"/>
<polygon fill="rgb(146,66,85)" fill-opacity="1" points="233,99 181,28 255,88"/>
<polygon fill="rgb(146,86,64)" fill-opacity="1" points="156,158 152,160 124,169"/>
<polygon fill="rgb(132,85,74)" fill-opacity="1" points="168,149 169,146 168,148"/>
<polygon fill="rgb(23,39,47)" fill-opacity="1" points="73,161 93,187 77,171"/>
<polygon fill="rgb(119,55,33)" fill-opacity="1" points="130,165 129,167 133,164"/>
<polygon fill="rgb(174,89,115)" fill-opacity="1" points="206,57 208,23 219,60"/>
<polygon fill="rgb(174,89,63)" fill-opacity="1" points="144,170 169,152 159,168"/>
<polygon fill="rgb(13,53,61)" fill-opacity="1" points="33,120 20,176 55,201"/>
<polygon fill="rgb(142,62,53)" fill-opacity="1" points="149,125 155,121 159,115"/>
<polygon fill="rgb(189,168,198)" fill-opacity="1" points="102,142 111,143 121,141"/>
<polygon fill="rgb(41,21,14)" fill-opacity="1" points="158,134 158,141 161,109"/>
<polygon fill="rgb(163,84,64)" fill-opacity="1" points="163,176 180,173 183,170"/>
<polygon fill="rgb(41,27,43)" fill-opacity="1" points="109,1 115,6 88,7"/>
<polygon fill="rgb(166,83,59)" fill-opacity="1" points="142,149 140,144 141,146"/>
<polygon fill="rgb(14,53,57)" fill-opacity="1" points="159,87 172,98 193,85"/>
<polygon fill="rgb(94,59,36)" fill-opacity="1" points="126,197 131,196 126,197"/>
<polygon fill="rgb(193,108,120)" fill-opacity="1" points="117,149 125,144 104,148"/>
<polygon fill="rgb(77,26,15)" fill-opacity="1" points="101,165 97,164 92,156"/>
<polygon fill="rgb(26,29,49)" fill-opacity="1" points="24,74 41,59 28,81"/>
<polygon fill="rgb(10,55,63)" fill-opacity="1" points="121,197 100,255 74,226"/>
<polygon fill="rgb(16,54,58)" fill-opacity="1" points="212,184 197,166 168,183"/>
<polygon fill="rgb(12,57,65)" fill-opacity="1" points="138,198 171,197 172,182"/>
<polygon fill="rgb(112,50,37)" fill-opacity="1" points="158,125 158,129 158,126"/>
<polygon fill="rgb(17,19,40)" fill-opacity="1" points="108,14 68,48 75,26"/>
<polygon fill="rgb(173,88,59)" fill-opacity="1" points="168,152 173,158 170,149"/>
<polygon fill="rgb(169,72,147)" fill-opacity="1" points="195,140 211,114 194,148"/>
<polygon fill="rgb(138,83,66)" fill-opacity="1" points="99,142 99,149 98,142"/>
<polygon fill="rgb(163,90,71)" fill-opacity="1" points="110,171 124,170 111,172"/>
<polygon fill="rgb(97,46,54)" fill-opacity="1" points="128,142 132,144 117,139"/>
<polygon fill="rgb(168,86,62)" fill-opacity="1" points="134,167 194,152 193,144"/>
<polygon fill="rgb(11,54,60)" fill-opacity="1" points="130,70 165,54 120,101"/>
<polygon fill="rgb(167,87,67)" fill-opacity="1" points="114,152 127,149 112,156"/>
<polygon fill="rgb(172,88,62)" fill-opacity="1" points="138,145 118,167 151,154"/>
<polygon fill="rgb(152,81,108)" fill-opacity="1" points="217,106 208,105 198,92"/>
<polygon fill="rgb(23,14,11)" fill-opacity="1" points="145,192 137,193 169,181"/>
<polygon fill="rgb(164,83,81)" fill-opacity="1" points="110,101 107,89 113,85"/>
<polygon fill="rgb(173,87,65)" fill-opacity="1" points="123,126 133,149 133,137"/>
<polygon fill="rgb(79,63,63)" fill-opacity="1" points="156,145 157,144 154,149"/>
<polygon fill="rgb(14,50,59)" fill-opacity="1" points="120,217 117,234 137,192"/>
<polygon fill="rgb(30,16,15)" fill-opacity="1" points="21,224 23,137 21,156"/>
<polygon fill="rgb(11,57,65)" fill-opacity="1" points="118,251 136,204 176,188"/>
<polygon fill="rgb(172,88,62)" fill-opacity="1" points="183,141 195,155 155,162"/>
<polygon fill="rgb(25,54,59)" fill-opacity="1" points="182,56 180,78 177,80"/>
<polygon fill="rgb(9,47,54)" fill-opacity="1" points="161,146 172,130 166,142"/>
<polygon fill="rgb(117,141,141)" fill-opacity="1" points="5,242 12,196 0,245"/>
<polygon fill="rgb(11,55,64)" fill-opacity="1" points="79,149 87,222 21,196"/>
<polygon fill="rgb(13,54,62)" fill-opacity="1" points="75,150 52,164 89,153"/>
<polygon fill="rgb(171,88,65)" fill-opacity="1" points="128,130 110,136 120,137"/>
<polygon fill="rgb(12,44,51)" fill-opacity="1" points="105,13 97,76 101,76"/>
</svg>