<svg height="256" overflow="hidden" viewBox="0 0 256 256" width="256" xmlns="http://www.w3.org/2000/svg">
<rect fill="black" height="256" width="256" x="0" y="0"/>
<polygon fill="rgb(57,65,55)" points="307,265 -13,286 149,-58"/>
<polygon fill="rgb(138,96,80)" points="117,63 104,206 226,183"/>
<polygon fill="rgb(40,47,49)" points="175,112 -27,150 -95,103"/>
<polygon fill="rgb(23,36,37)" points="-164,14 84,281 124,-67"/>
<polygon fill="rgb(22,33,28)" points="359,125 194,-132 117,38"/>
<polygon fill="rgb(35,63,52)" points="209,93 194,155 175,170"/>
<polygon fill="rgb(25,64,55)" points="270,207 177,513 18,200"/>
<polygon fill="rgb(149,92,72)" points="207,187 153,207 97,112"/>
<polygon fill="rgb(167,167,176)" points="-135,182 97,101 143,81"/>
<polygon fill="rgb(180,167,178)" points="127,71 154,110 109,108"/>
<polygon fill="rgb(38,77,44)" points="244,32 183,71 107,61"/>
<polygon fill="rgb(28,70,63)" points="167,38 149,121 228,111"/>
<polygon fill="rgb(27,64,57)" points="103,43 87,101 175,41"/>
<polygon fill="rgb(150,91,69)" points="180,156 193,116 110,132"/>
<polygon fill="rgb(159,95,74)" points="139,202 209,185 207,149"/>
<polygon fill="rgb(145,89,69)" points="116,200 154,125 105,118"/>
<polygon fill="rgb(27,70,63)" points="121,45 216,58 153,108"/>
<polygon fill="rgb(20,26,26)" points="113,170 -420,318 98,105"/>
<polygon fill="rgb(32,57,49)" points="304,102 88,115 151,121"/>
<polygon fill="rgb(126,50,39)" points="193,141 223,153 239,129"/>
<polygon fill="rgb(26,31,23)" points="236,185 200,-44 483,302"/>
<polygon fill="rgb(124,43,27)" points="215,106 197,155 236,146"/>
<polygon fill="rgb(183,164,165)" points="116,143 121,146 155,146"/>
<polygon fill="rgb(17,22,24)" points="87,92 -24,143 147,-148"/>
<polygon fill="rgb(22,26,29)" points="31,118 85,102 93,87"/>
<polygon fill="rgb(25,63,53)" points="84,186 18,198 163,234"/>
<polygon fill="rgb(101,51,29)" points="129,174 144,174 179,166"/>
<polygon fill="rgb(24,52,42)" points="40,420 126,202 114,203"/>
<polygon fill="rgb(145,86,64)" points="110,432 6,247 23,213"/>
<polygon fill="rgb(26,37,48)" points="78,177 106,134 94,102"/>
<polygon fill="rgb(148,89,67)" points="151,204 94,186 121,160"/>
<polygon fill="rgb(147,94,58)" points="199,61 219,97 217,98"/>
<polygon fill="rgb(26,72,65)" points="213,66 175,42 153,121"/>
<polygon fill="rgb(69,78,71)" points="275,-52 216,29 204,57"/>
<polygon fill="rgb(28,33,24)" points="213,109 228,122 224,81"/>
<polygon fill="rgb(18,24,23)" points="547,-541 120,31 202,48"/>
<polygon fill="rgb(31,33,24)" points="209,161 301,126 231,185"/>
<polygon fill="rgb(16,21,21)" points="41,117 109,43 28,38"/>
<polygon fill="rgb(18,22,18)" points="117,50 138,-13 276,-44"/>
<polygon fill="rgb(18,56,48)" points="205,56 166,63 132,65"/>
<polygon fill="rgb(28,73,67)" points="205,50 205,111 148,119"/>
<polygon fill="rgb(26,65,56)" points="235,177 -33,284 454,431"/>
<polygon fill="rgb(24,64,51)" points="206,59 140,40 215,50"/>
<polygon fill="rgb(42,74,73)" points="115,70 160,88 141,77"/>
<polygon fill="rgb(20,22,16)" points="-5,295 -5,145 19,200"/>
<polygon fill="rgb(40,43,29)" points="161,208 151,204 125,202"/>
<polygon fill="rgb(155,95,74)" points="205,144 178,190 202,139"/>
<polygon fill="rgb(18,22,21)" points="-177,207 64,113 59,190"/>
<polygon fill="rgb(158,96,75)" points="202,159 201,144 164,200"/>
<polygon fill="rgb(158,95,73)" points="190,134 160,169 138,172"/>
<polygon fill="rgb(119,71,52)" points="122,121 113,156 110,182"/>
<polygon fill="rgb(149,136,152)" points="140,97 131,73 143,91"/>
<polygon fill="rgb(20,25,25)" points="91,78 64,87 90,100"/>
<polygon fill="rgb(26,69,60)" points="25,380 334,225 221,182"/>
<polygon fill="rgb(97,59,47)" points="138,141 156,146 151,143"/>
<polygon fill="rgb(160,96,74)" points="145,171 179,120 175,163"/>
<polygon fill="rgb(29,73,69)" points="165,116 182,69 125,66"/>
<polygon fill="rgb(92,57,47)" points="153,152 116,148 133,147"/>
<polygon fill="rgb(27,74,68)" points="201,62 175,119 145,94"/>
<polygon fill="rgb(26,68,59)" points="216,184 155,237 199,406"/>
<polygon fill="rgb(27,25,16)" points="15,208 24,213 6,238"/>
<polygon fill="rgb(152,92,70)" points="102,196 97,178 157,204"/>
<polygon fill="rgb(34,67,61)" points="110,117 201,116 85,107"/>
<polygon fill="rgb(35,46,42)" points="122,-11 101,52 114,49"/>
<polygon fill="rgb(35,41,28)" points="182,118 135,120 161,120"/>
<polygon fill="rgb(157,94,72)" points="199,162 104,186 148,200"/>
<polygon fill="rgb(24,55,45)" points="144,209 163,205 114,306"/>
<polygon fill="rgb(27,70,62)" points="216,347 229,190 318,217"/>
<polygon fill="rgb(158,97,76)" points="208,157 198,148 212,183"/>
<polygon fill="rgb(26,69,59)" points="182,206 171,228 230,202"/>
<polygon fill="rgb(157,96,74)" points="191,194 222,178 146,201"/>
<polygon fill="rgb(158,97,76)" points="171,168 221,176 225,180"/>
<polygon fill="rgb(38,73,72)" points="91,98 115,91 125,68"/>
<polygon fill="rgb(22,34,52)" points="309,-71 188,18 166,46"/>
<polygon fill="rgb(23,57,46)" points="112,211 83,284 149,203"/>
<polygon fill="rgb(31,65,55)" points="194,118 196,150 218,94"/>
<polygon fill="rgb(29,72,64)" points="218,97 157,118 217,103"/>
<polygon fill="rgb(27,71,65)" points="94,73 211,61 216,70"/>
<polygon fill="rgb(137,86,65)" points="186,142 193,119 186,131"/>
<polygon fill="rgb(186,180,183)" points="206,87 206,71 218,95"/>
<polygon fill="rgb(37,47,33)" points="155,211 208,188 145,212"/>
<polygon fill="rgb(32,67,61)" points="198,69 217,104 215,105"/>
<polygon fill="rgb(156,96,75)" points="168,142 145,121 191,120"/>
<polygon fill="rgb(35,68,62)" points="128,118 96,106 165,117"/>
<polygon fill="rgb(27,63,53)" points="69,188 95,175 97,210"/>
<polygon fill="rgb(18,23,19)" points="68,185 90,143 -13,201"/>
<polygon fill="rgb(28,58,51)" points="212,59 209,71 203,72"/>
<polygon fill="rgb(19,31,53)" points="61,-22 -23,168 -6,67"/>
<polygon fill="rgb(28,62,51)" points="112,332 148,203 152,210"/>
<polygon fill="rgb(44,54,39)" points="188,162 190,136 175,167"/>
<polygon fill="rgb(32,54,54)" points="112,96 107,107 70,111"/>
<polygon fill="rgb(17,25,41)" points="-29,207 46,12 15,58"/>
<polygon fill="rgb(18,26,20)" points="178,37 190,40 214,53"/>
<polygon fill="rgb(131,79,60)" points="126,149 146,151 122,157"/>
<polygon fill="rgb(27,71,65)" points="95,98 128,65 94,63"/>
<polygon fill="rgb(27,73,68)" points="134,79 202,83 206,55"/>
<polygon fill="rgb(26,52,42)" points="215,106 184,117 210,111"/>
<polygon fill="rgb(29,72,64)" points="217,95 195,113 163,118"/>
<polygon fill="rgb(111,38,23)" points="233,141 225,157 208,157"/>
<polygon fill="rgb(89,35,18)" points="202,149 212,159 216,151"/>
<polygon fill="rgb(40,39,26)" points="261,169 152,210 239,175"/>
<polygon fill="rgb(46,45,29)" points="38,241 52,299 30,220"/>
<polygon fill="rgb(32,72,64)" points="160,118 107,116 207,109"/>
<polygon fill="rgb(21,29,32)" points="92,104 61,115 47,158"/>
<polygon fill="rgb(31,40,37)" points="75,-8 268,-63 116,2"/>
<polygon fill="rgb(86,38,18)" points="124,172 110,161 131,174"/>
<polygon fill="rgb(23,64,53)" points="52,316 30,194 99,241"/>
<polygon fill="rgb(30,33,24)" points="297,215 211,169 248,131"/>
<polygon fill="rgb(130,40,25)" points="226,154 230,130 219,114"/>
<polygon fill="rgb(19,26,42)" points="15,124 4,82 -21,144"/>
<polygon fill="rgb(30,70,60)" points="201,112 185,163 204,130"/>
<polygon fill="rgb(25,65,55)" points="100,238 23,195 95,188"/>
<polygon fill="rgb(74,84,93)" points="146,90 146,93 131,73"/>
<polygon fill="rgb(109,55,34)" points="140,133 143,131 123,134"/>
<polygon fill="rgb(156,95,73)" points="124,141 185,141 189,135"/>
<polygon fill="rgb(26,64,53)" points="168,205 155,211 137,269"/>
<polygon fill="rgb(11,38,30)" points="145,210 128,266 144,211"/>
<polygon fill="rgb(35,28,17)" points="232,151 231,118 235,145"/>
<polygon fill="rgb(24,63,54)" points="197,53 135,57 115,49"/>
<polygon fill="rgb(29,71,63)" points="198,112 211,107 182,109"/>
<polygon fill="rgb(32,68,68)" points="146,84 134,79 138,72"/>
<polygon fill="rgb(98,46,25)" points="137,154 144,156 120,154"/>
<polygon fill="rgb(20,27,21)" points="112,160 54,191 67,187"/>
<polygon fill="rgb(17,27,27)" points="46,-30 -12,82 17,29"/>
<polygon fill="rgb(15,50,43)" points="113,62 137,64 97,58"/>
<polygon fill="rgb(36,61,50)" points="156,209 158,208 181,201"/>
<polygon fill="rgb(74,38,21)" points="117,142 138,142 142,142"/>
<polygon fill="rgb(117,57,33)" points="148,130 165,140 158,137"/>
<polygon fill="rgb(22,27,20)" points="253,172 261,-38 214,72"/>
<polygon fill="rgb(72,39,18)" points="194,128 182,132 184,132"/>
<polygon fill="rgb(19,22,23)" points="58,121 48,128 68,125"/>
<polygon fill="rgb(31,73,70)" points="142,87 148,90 147,72"/>
<polygon fill="rgb(148,93,72)" points="97,177 98,191 109,171"/>
<polygon fill="rgb(62,72,70)" points="-28,84 17,-36 7,48"/>
<polygon fill="rgb(16,22,22)" points="60,121 56,160 66,113"/>
<polygon fill="rgb(161,96,75)" points="155,187 214,184 205,153"/>
<polygon fill="rgb(23,63,52)" points="135,239 125,206 93,291"/>
<polygon fill="rgb(28,39,30)" points="94,183 94,174 96,188"/>
<polygon fill="rgb(156,97,74)" points="187,133 175,162 182,152"/>
<polygon fill="rgb(26,73,68)" points="205,66 145,92 210,55"/>
<polygon fill="rgb(129,40,24)" points="227,153 212,109 205,144"/>
<polygon fill="rgb(17,21,18)" points="122,43 219,-23 172,35"/>
<polygon fill="rgb(30,65,53)" points="203,191 222,185 183,201"/>
<polygon fill="rgb(145,124,123)" points="136,146 157,151 143,149"/>
<polygon fill="rgb(15,46,38)" points="165,55 172,54 136,55"/>
<polygon fill="rgb(99,46,26)" points="143,131 140,124 139,123"/>
<polygon fill="rgb(17,55,45)" points="121,47 174,44 163,47"/>
<polygon fill="rgb(28,66,55)" points="188,204 175,207 220,184"/>
<polygon fill="rgb(205,200,205)" points="137,110 142,91 152,109"/>
<polygon fill="rgb(41,45,30)" points="97,193 122,210 101,198"/>
<polygon fill="rgb(154,93,71)" points="100,192 178,198 161,204"/>
<polygon fill="rgb(25,67,57)" points="162,364 177,206 148,247"/>
<polygon fill="rgb(88,62,60)" points="144,145 147,152 144,147"/>
<polygon fill="rgb(39,31,30)" points="98,191 95,186 99,194"/>
<polygon fill="rgb(75,91,97)" points="114,85 125,77 126,71"/>
<polygon fill="rgb(43,67,72)" points="121,77 116,76 123,82"/>
<polygon fill="rgb(30,24,16)" points="111,170 112,161 104,142"/>
<polygon fill="rgb(91,56,43)" points="155,153 157,147 155,146"/>
<polygon fill="rgb(159,97,76)" points="146,130 190,117 190,128"/>
<polygon fill="rgb(137,95,72)" points="105,198 98,189 100,193"/>
<polygon fill="rgb(46,42,32)" points="207,126 190,159 199,144"/>
<polygon fill="rgb(153,93,71)" points="113,160 143,172 110,145"/>
<polygon fill="rgb(27,70,60)" points="196,222 180,212 198,208"/>
<polygon fill="rgb(27,72,61)" points="155,62 193,48 197,56"/>
<polygon fill="rgb(159,96,74)" points="174,132 186,136 139,170"/>
<polygon fill="rgb(20,26,18)" points="372,157 235,10 210,50"/>
<polygon fill="rgb(40,35,18)" points="35,233 23,211 23,214"/>
<polygon fill="rgb(18,21,17)" points="51,153 32,190 -164,268"/>
<polygon fill="rgb(25,63,52)" points="142,214 124,211 134,233"/>
<polygon fill="rgb(158,96,74)" points="180,147 137,133 180,156"/>
<polygon fill="rgb(155,93,71)" points="127,198 157,174 112,176"/>
<polygon fill="rgb(39,64,58)" points="220,95 217,95 206,94"/>
<polygon fill="rgb(152,97,75)" points="136,150 156,155 117,150"/>
<polygon fill="rgb(14,55,45)" points="110,212 96,253 93,276"/>
<polygon fill="rgb(41,54,52)" points="101,119 95,128 94,116"/>
<polygon fill="rgb(64,71,70)" points="152,105 153,111 152,106"/>
<polygon fill="rgb(64,31,14)" points="208,150 213,171 211,169"/>
<polygon fill="rgb(24,34,32)" points="95,52 106,28 113,49"/>
<polygon fill="rgb(29,58,45)" points="126,203 115,209 155,207"/>
<polygon fill="rgb(155,94,72)" points="131,172 121,168 162,151"/>
<polygon fill="rgb(27,72,65)" points="214,106 213,97 180,109"/>
<polygon fill="rgb(17,23,30)" points="9,113 28,47 45,20"/>
<polygon fill="rgb(27,64,56)" points="125,76 116,60 111,39"/>
<polygon fill="rgb(196,175,139)" points="27,217 211,242 27,217"/>
<polygon fill="rgb(160,96,74)" points="177,153 160,151 179,139"/>
<polygon fill="rgb(31,54,48)" points="203,77 210,65 214,57"/>
<polygon fill="rgb(23,30,21)" points="221,46 243,150 210,52"/>
<polygon fill="rgb(122,88,70)" points="131,122 176,120 175,120"/>
<polygon fill="rgb(27,72,62)" points="140,61 203,49 203,53"/>
<polygon fill="rgb(150,93,72)" points="113,164 112,202 117,203"/>
<polygon fill="rgb(20,26,19)" points="244,77 232,13 229,77"/>
<polygon fill="rgb(151,94,73)" points="143,177 125,177 164,172"/>
<polygon fill="rgb(162,96,73)" points="164,158 167,153 153,140"/>
<polygon fill="rgb(27,59,45)" points="19,198 37,234 18,201"/>
<polygon fill="rgb(154,92,71)" points="99,179 162,193 115,202"/>
<polygon fill="rgb(26,68,61)" points="215,219 200,337 254,284"/>
<polygon fill="rgb(28,70,60)" points="173,52 132,53 123,46"/>
<polygon fill="rgb(28,60,46)" points="156,212 146,206 148,207"/>
<polygon fill="rgb(31,63,51)" points="239,184 234,182 221,184"/>
<polygon fill="rgb(15,20,19)" points="32,92 48,100 66,41"/>
<polygon fill="rgb(29,73,68)" points="113,67 188,93 216,97"/>
<polygon fill="rgb(156,94,71)" points="150,171 126,160 152,155"/>
<polygon fill="rgb(21,28,27)" points="112,16 112,-9 89,76"/>
<polygon fill="rgb(23,30,30)" points="44,179 45,160 49,167"/>
<polygon fill="rgb(29,70,64)" points="118,84 112,83 117,88"/>
<polygon fill="rgb(28,74,69)" points="133,65 212,101 154,104"/>
<polygon fill="rgb(142,92,72)" points="189,133 188,134 182,153"/>
<polygon fill="rgb(29,65,61)" points="126,72 126,65 145,65"/>
<polygon fill="rgb(45,49,35)" points="179,161 189,160 171,167"/>
<polygon fill="rgb(112,60,39)" points="117,132 124,133 117,125"/>
<polygon fill="rgb(24,37,68)" points="99,128 103,131 78,174"/>
<polygon fill="rgb(25,74,67)" points="201,66 208,70 211,72"/>
<polygon fill="rgb(21,29,43)" points="107,132 86,161 92,167"/>
<polygon fill="rgb(26,69,59)" points="174,226 190,291 246,296"/>
<polygon fill="rgb(145,92,71)" points="144,172 126,171 132,172"/>
<polygon fill="rgb(149,96,76)" points="148,123 129,122 106,120"/>
<polygon fill="rgb(160,96,74)" points="167,121 186,141 173,164"/>
<polygon fill="rgb(27,74,68)" points="159,115 196,70 209,101"/>
<polygon fill="rgb(155,93,71)" points="97,180 109,173 112,197"/>
<polygon fill="rgb(155,96,74)" points="159,139 148,133 108,140"/>
<polygon fill="rgb(26,35,35)" points="78,158 89,110 96,133"/>
<polygon fill="rgb(26,73,67)" points="209,59 209,53 146,96"/>
<polygon fill="rgb(21,64,52)" points="78,219 45,243 110,351"/>
<polygon fill="rgb(44,71,52)" points="173,38 140,178 173,38"/>
<polygon fill="rgb(31,72,63)" points="216,104 203,87 216,98"/>
<polygon fill="rgb(26,67,59)" points="211,238 203,204 199,220"/>
<polygon fill="rgb(26,30,23)" points="299,219 214,72 245,154"/>
<polygon fill="rgb(33,72,66)" points="187,115 172,114 150,110"/>
<polygon fill="rgb(35,73,63)" points="161,52 176,46 179,50"/>
<polygon fill="rgb(156,95,75)" points="148,131 166,123 140,122"/>
<polygon fill="rgb(160,96,76)" points="114,133 148,139 113,138"/>
<polygon fill="rgb(45,55,64)" points="122,23 106,84 121,16"/>
<polygon fill="rgb(159,95,73)" points="161,200 153,174 191,194"/>
<polygon fill="rgb(57,63,56)" points="217,28 206,48 220,23"/>
<polygon fill="rgb(55,69,75)" points="129,77 131,73 129,71"/>
<polygon fill="rgb(17,21,17)" points="16,-13 10,41 90,-60"/>
<polygon fill="rgb(146,83,34)" points="206,163 12,166 206,163"/>
<polygon fill="rgb(20,24,27)" points="24,122 91,98 91,90"/>
<polygon fill="rgb(27,61,50)" points="111,221 91,274 101,270"/>
<polygon fill="rgb(156,93,71)" points="163,204 153,183 113,173"/>
<polygon fill="rgb(31,72,64)" points="150,119 196,113 153,111"/>
<polygon fill="rgb(27,74,69)" points="180,69 176,108 145,92"/>
<polygon fill="rgb(110,78,57)" points="115,203 114,203 120,202"/>
<polygon fill="rgb(27,70,65)" points="114,49 108,91 96,97"/>
<polygon fill="rgb(41,28,21)" points="219,90 218,77 221,99"/>
<polygon fill="rgb(30,35,38)" points="150,102 147,97 154,109"/>
<polygon fill="rgb(57,25,12)" points="218,112 232,131 224,119"/>
<polygon fill="rgb(54,64,61)" points="119,38 142,-71 113,29"/>
<polygon fill="rgb(158,97,73)" points="164,143 144,129 143,140"/>
<polygon fill="rgb(24,24,18)" points="103,154 113,162 95,178"/>
<polygon fill="rgb(23,38,35)" points="124,20 117,47 122,29"/>
<polygon fill="rgb(23,23,15)" points="9,220 7,254 -17,265"/>
<polygon fill="rgb(27,73,61)" points="203,50 173,59 189,47"/>
<polygon fill="rgb(19,22,16)" points="9,183 22,212 -30,280"/>
<polygon fill="rgb(27,35,26)" points="128,119 97,116 107,117"/>
<polygon fill="rgb(25,67,60)" points="186,241 191,219 195,241"/>
<polygon fill="rgb(27,72,61)" points="182,48 175,45 138,53"/>
<polygon fill="rgb(26,63,53)" points="112,208 95,253 99,196"/>
<polygon fill="rgb(28,74,68)" points="187,97 211,56 179,100"/>
<polygon fill="rgb(159,96,74)" points="153,140 162,155 169,145"/>
<polygon fill="rgb(28,73,69)" points="203,77 133,75 190,76"/>
<polygon fill="rgb(29,36,35)" points="91,106 107,139 104,128"/>
<polygon fill="rgb(151,98,77)" points="186,166 162,172 168,169"/>
<polygon fill="rgb(72,53,56)" points="136,146 137,147 137,144"/>
<polygon fill="rgb(136,85,64)" points="121,174 121,174 138,175"/>
<polygon fill="rgb(22,63,52)" points="63,304 44,234 51,232"/>
<polygon fill="rgb(29,73,69)" points="144,91 161,80 152,103"/>
<polygon fill="rgb(24,66,56)" points="80,195 70,224 26,200"/>
<polygon fill="rgb(31,66,55)" points="160,41 172,43 143,42"/>
<polygon fill="rgb(23,55,39)" points="152,206 111,211 146,209"/>
<polygon fill="rgb(153,97,72)" points="191,194 178,193 169,192"/>
<polygon fill="rgb(16,21,21)" points="104,22 50,39 82,83"/>
<polygon fill="rgb(38,60,64)" points="138,71 137,78 134,80"/>
<polygon fill="rgb(94,245,84)" points="34,94 157,16 34,94"/>
<polygon fill="rgb(145,95,74)" points="163,203 198,191 167,201"/>
<polygon fill="rgb(28,73,68)" points="162,69 133,68 141,78"/>
<polygon fill="rgb(158,117,131)" points="116,98 132,106 139,99"/>
<polygon fill="rgb(25,66,54)" points="165,212 174,225 152,224"/>
<polygon fill="rgb(19,23,26)" points="9,128 65,95 71,105"/>
<polygon fill="rgb(27,39,44)" points="62,132 75,111 73,128"/>
<polygon fill="rgb(153,95,73)" points="138,156 142,158 113,157"/>
<polygon fill="rgb(26,68,58)" points="169,234 178,204 181,226"/>
<polygon fill="rgb(152,93,72)" points="145,180 116,174 114,171"/>
<polygon fill="rgb(155,94,72)" points="132,172 167,166 117,163"/>
<polygon fill="rgb(151,97,77)" points="154,154 137,150 118,151"/>
<polygon fill="rgb(25,66,60)" points="127,308 215,248 209,260"/>
<polygon fill="rgb(27,74,69)" points="198,95 145,69 159,115"/>
<polygon fill="rgb(29,72,64)" points="208,58 165,64 129,74"/>
<polygon fill="rgb(24,64,53)" points="64,193 22,207 20,196"/>
<polygon fill="rgb(151,93,72)" points="125,170 110,155 109,134"/>
<polygon fill="rgb(34,55,43)" points="183,164 195,129 194,119"/>
<polygon fill="rgb(40,77,73)" points="201,93 201,93 207,85"/>
<polygon fill="rgb(160,96,75)" points="183,149 158,134 186,134"/>
<polygon fill="rgb(39,50,81)" points="198,111 171,113 198,111"/>
<polygon fill="rgb(25,68,59)" points="199,249 204,241 207,258"/>
<polygon fill="rgb(27,33,28)" points="237,-5 202,47 209,40"/>
<polygon fill="rgb(27,67,57)" points="200,200 213,187 185,209"/>
<polygon fill="rgb(18,22,27)" points="64,-4 39,32 63,25"/>
<polygon fill="rgb(21,65,52)" points="53,213 56,218 45,218"/>
<polygon fill="rgb(16,20,19)" points="62,78 81,74 95,31"/>
<polygon fill="rgb(26,65,56)" points="80,185 107,208 89,245"/>
<polygon fill="rgb(152,94,71)" points="169,200 171,201 166,202"/>
<polygon fill="rgb(155,93,70)" points="120,163 112,153 160,169"/>
<polygon fill="rgb(61,71,78)" points="102,95 76,105 110,92"/>
<polygon fill="rgb(27,71,61)" points="125,61 173,58 98,54"/>
<polygon fill="rgb(27,73,68)" points="141,66 137,72 194,80"/>
<polygon fill="rgb(29,73,69)" points="143,70 155,104 133,67"/>
<polygon fill="rgb(55,72,77)" points="132,74 136,73 135,76"/>
<polygon fill="rgb(156,93,71)" points="110,189 141,177 168,201"/>
<polygon fill="rgb(65,38,27)" points="211,110 212,109 205,131"/>
<polygon fill="rgb(27,73,68)" points="172,114 154,97 157,111"/>
<polygon fill="rgb(16,24,28)" points="78,168 100,123 91,137"/>
<polygon fill="rgb(29,75,68)" points="198,77 191,97 206,93"/>
<polygon fill="rgb(24,30,23)" points="254,86 234,129 217,96"/>
<polygon fill="rgb(135,91,69)" points="129,201 108,200 148,202"/>
<polygon fill="rgb(18,33,26)" points="175,42 186,45 159,39"/>
<polygon fill="rgb(22,33,52)" points="171,38 206,17 183,23"/>
<polygon fill="rgb(17,52,40)" points="199,112 195,127 189,147"/>
<polygon fill="rgb(153,88,67)" points="121,186 121,186 112,176"/>
<polygon fill="rgb(25,64,55)" points="92,228 104,217 96,231"/>
<polygon fill="rgb(29,57,45)" points="153,119 157,119 149,119"/>
<polygon fill="rgb(27,65,56)" points="100,217 90,177 88,204"/>
<polygon fill="rgb(31,72,63)" points="156,118 176,117 192,110"/>
<polygon fill="rgb(150,92,70)" points="117,202 109,199 133,197"/>
<polygon fill="rgb(26,65,56)" points="81,221 102,205 76,209"/>
<polygon fill="rgb(23,32,47)" points="102,131 102,147 107,140"/>
<polygon fill="rgb(27,68,64)" points="204,67 200,67 215,71"/>
<polygon fill="rgb(26,72,64)" points="179,59 143,58 152,62"/>
<polygon fill="rgb(158,94,72)" points="160,192 150,190 148,176"/>
<polygon fill="rgb(157,94,72)" points="153,158 156,170 134,161"/>
<polygon fill="rgb(16,20,16)" points="57,170 57,148 49,168"/>
<polygon fill="rgb(25,73,68)" points="181,84 176,68 204,66"/>
<polygon fill="rgb(13,42,32)" points="122,309 134,274 154,207"/>
<polygon fill="rgb(25,33,33)" points="60,150 66,145 66,161"/>
<polygon fill="rgb(24,65,56)" points="92,176 56,225 56,218"/>
<polygon fill="rgb(43,73,70)" points="208,87 203,88 205,87"/>
<polygon fill="rgb(24,68,62)" points="112,46 130,66 138,76"/>
<polygon fill="rgb(155,97,76)" points="147,176 174,168 173,171"/>
<polygon fill="rgb(29,61,50)" points="21,196 62,192 36,193"/>
<polygon fill="rgb(30,70,60)" points="209,113 201,115 184,162"/>
<polygon fill="rgb(9,40,29)" points="136,310 192,298 105,255"/>
<polygon fill="rgb(131,109,125)" points="119,81 119,95 121,86"/>
<polygon fill="rgb(154,96,74)" points="143,141 144,133 109,140"/>
<polygon fill="rgb(98,36,19)" points="210,143 203,137 207,152"/>
<polygon fill="rgb(22,63,52)" points="133,216 130,257 59,332"/>
<polygon fill="rgb(27,74,69)" points="193,77 185,107 187,75"/>
<polygon fill="rgb(26,62,51)" points="130,255 137,220 137,226"/>
<polygon fill="rgb(18,22,25)" points="-27,147 -8,168 68,113"/>
<polygon fill="rgb(27,68,67)" points="209,67 215,69 211,70"/>
<polygon fill="rgb(42,75,75)" points="146,87 135,73 141,83"/>
<polygon fill="rgb(25,82,57)" points="179,260 176,261 191,258"/>
<polygon fill="rgb(60,46,30)" points="187,145 194,120 186,145"/>
<polygon fill="rgb(149,97,76)" points="135,176 129,176 131,176"/>
<polygon fill="rgb(28,70,64)" points="192,59 200,59 196,63"/>
<polygon fill="rgb(155,94,70)" points="130,160 164,168 132,161"/>
<polygon fill="rgb(19,25,23)" points="84,134 54,174 83,147"/>
<polygon fill="rgb(107,52,29)" points="111,185 112,176 111,172"/>
<polygon fill="rgb(20,48,48)" points="130,68 134,74 133,75"/>
<polygon fill="rgb(154,99,77)" points="186,194 159,204 169,201"/>
<polygon fill="rgb(23,36,64)" points="87,149 95,152 97,143"/>
<polygon fill="rgb(153,92,70)" points="138,201 106,198 109,184"/>
<polygon fill="rgb(23,25,30)" points="62,109 51,108 91,99"/>
<polygon fill="rgb(26,51,47)" points="210,93 212,96 205,83"/>
<polygon fill="rgb(29,72,69)" points="151,93 137,75 158,104"/>
<polygon fill="rgb(154,98,77)" points="189,132 185,134 185,142"/>
<polygon fill="rgb(142,92,72)" points="178,159 180,154 179,158"/>
<polygon fill="rgb(28,61,50)" points="94,174 81,183 94,185"/>
<polygon fill="rgb(16,27,37)" points="92,156 77,183 75,182"/>
<polygon fill="rgb(32,42,42)" points="87,116 90,138 86,146"/>
<polygon fill="rgb(109,83,79)" points="124,142 122,150 124,146"/>
<polygon fill="rgb(27,74,64)" points="171,69 181,65 142,67"/>
<polygon fill="rgb(28,74,69)" points="155,99 146,90 155,76"/>
<polygon fill="rgb(160,95,73)" points="155,188 164,197 193,187"/>
<polygon fill="rgb(152,92,69)" points="149,201 107,198 116,193"/>
<polygon fill="rgb(29,35,26)" points="227,181 249,181 255,160"/>
<polygon fill="rgb(26,68,59)" points="170,235 183,209 183,206"/>
<polygon fill="rgb(108,75,63)" points="129,141 130,141 129,146"/>
<polygon fill="rgb(19,33,22)" points="201,44 213,55 216,58"/>
<polygon fill="rgb(33,42,38)" points="109,44 120,24 121,17"/>
<polygon fill="rgb(27,71,62)" points="259,250 239,253 245,241"/>
<polygon fill="rgb(158,94,73)" points="152,185 175,173 148,176"/>
<polygon fill="rgb(15,22,22)" points="79,50 74,26 31,48"/>
<polygon fill="rgb(17,22,22)" points="20,132 59,128 4,170"/>
<polygon fill="rgb(156,99,77)" points="184,130 178,130 189,128"/>
<polygon fill="rgb(30,69,61)" points="216,97 211,93 206,94"/>
<polygon fill="rgb(155,93,71)" points="138,197 97,185 98,181"/>
<polygon fill="rgb(26,73,68)" points="174,101 172,89 174,83"/>
<polygon fill="rgb(133,92,80)" points="151,146 151,146 157,142"/>
<polygon fill="rgb(18,22,16)" points="118,45 119,39 141,-19"/>
<polygon fill="rgb(25,65,55)" points="52,199 36,202 97,192"/>
<polygon fill="rgb(158,98,78)" points="205,170 211,184 225,179"/>
<polygon fill="rgb(30,66,56)" points="97,59 92,93 94,64"/>
<polygon fill="rgb(30,73,63)" points="180,109 199,112 159,117"/>
<polygon fill="rgb(27,70,60)" points="188,223 181,226 181,210"/>
<polygon fill="rgb(32,71,64)" points="208,90 215,105 203,84"/>
<polygon fill="rgb(26,66,61)" points="213,254 208,248 208,252"/>
<polygon fill="rgb(153,102,72)" points="138,143 171,147 176,148"/>
<polygon fill="rgb(28,63,55)" points="107,212 103,210 107,202"/>
<polygon fill="rgb(27,52,39)" points="180,163 182,165 190,142"/>
<polygon fill="rgb(30,71,64)" points="215,104 210,95 218,98"/>
<polygon fill="rgb(18,23,23)" points="45,163 60,114 28,132"/>
<polygon fill="rgb(24,65,56)" points="50,202 29,217 25,201"/>
<polygon fill="rgb(25,73,68)" points="154,75 164,76 200,72"/>
<polygon fill="rgb(25,64,50)" points="39,235 36,224 20,202"/>
<polygon fill="rgb(39,72,77)" points="125,78 114,63 121,74"/>
<polygon fill="rgb(28,70,72)" points="76,201 61,203 76,201"/>
<polygon fill="rgb(32,68,66)" points="133,65 139,81 133,67"/>
<polygon fill="rgb(27,74,67)" points="169,74 153,75 166,66"/>
<polygon fill="rgb(155,93,70)" points="132,195 148,176 102,192"/>
<polygon fill="rgb(48,45,31)" points="194,114 194,117 192,130"/>
<polygon fill="rgb(27,69,62)" points="256,320 232,187 224,228"/>
<polygon fill="rgb(23,65,54)" points="73,229 56,224 67,215"/>
<polygon fill="rgb(24,33,34)" points="67,149 75,135 73,145"/>
<polygon fill="rgb(39,35,20)" points="233,181 210,157 213,171"/>
<polygon fill="rgb(18,55,43)" points="197,113 197,119 197,117"/>
<polygon fill="rgb(156,95,71)" points="123,126 140,131 140,127"/>
<polygon fill="rgb(27,74,68)" points="177,66 183,86 171,70"/>
<polygon fill="rgb(160,96,75)" points="168,155 183,146 154,142"/>
<polygon fill="rgb(154,94,70)" points="148,171 141,167 145,168"/>
<polygon fill="rgb(26,65,53)" points="34,195 73,191 65,192"/>
<polygon fill="rgb(155,96,76)" points="187,117 191,125 192,118"/>
<polygon fill="rgb(156,98,75)" points="142,171 151,170 171,165"/>
<polygon fill="rgb(23,64,52)" points="97,230 89,258 96,254"/>
<polygon fill="rgb(35,62,50)" points="154,211 175,203 197,194"/>
<polygon fill="rgb(155,95,74)" points="150,177 161,174 149,175"/>
<polygon fill="rgb(28,73,63)" points="150,68 206,57 211,59"/>
<polygon fill="rgb(159,94,72)" points="158,183 174,173 153,179"/>
<polygon fill="rgb(31,71,67)" points="163,108 150,98 145,94"/>
<polygon fill="rgb(25,67,56)" points="168,212 174,215 171,227"/>
<polygon fill="rgb(18,23,23)" points="46,111 99,53 51,103"/>
<polygon fill="rgb(53,76,68)" points="112,42 113,47 112,53"/>
<polygon fill="rgb(19,53,40)" points="108,225 106,233 112,212"/>
<polygon fill="rgb(160,95,73)" points="156,179 185,194 156,189"/>
<polygon fill="rgb(157,97,76)" points="148,124 155,133 176,120"/>
<polygon fill="rgb(18,23,20)" points="214,33 180,43 220,1"/>
<polygon fill="rgb(28,75,68)" points="204,99 203,74 194,77"/>
<polygon fill="rgb(71,118,12)" points="242,201 141,32 242,201"/>
<polygon fill="rgb(27,73,68)" points="158,74 159,108 157,107"/>
<polygon fill="rgb(17,22,23)" points="67,107 55,69 73,95"/>
<polygon fill="rgb(158,95,73)" points="154,168 167,165 145,160"/>
<polygon fill="rgb(17,22,21)" points="73,162 69,135 61,140"/>
<polygon fill="rgb(32,58,44)" points="149,203 152,212 136,206"/>
<polygon fill="rgb(155,93,71)" points="119,191 115,178 141,180"/>
<polygon fill="rgb(24,65,54)" points="161,213 149,237 122,352"/>
<polygon fill="rgb(104,34,18)" points="205,148 211,135 212,141"/>
<polygon fill="rgb(25,32,22)" points="220,66 226,78 214,43"/>
<polygon fill="rgb(157,98,75)" points="184,147 179,156 186,133"/>
<polygon fill="rgb(28,72,67)" points="145,71 134,68 159,68"/>
<polygon fill="rgb(14,47,40)" points="119,62 96,56 109,61"/>
<polygon fill="rgb(22,38,67)" points="110,-51 2,60 43,1"/>
<polygon fill="rgb(156,93,71)" points="149,191 118,178 137,181"/>
<polygon fill="rgb(31,30,22)" points="214,158 211,159 238,160"/>
<polygon fill="rgb(26,54,43)" points="111,235 121,212 111,220"/>
<polygon fill="rgb(27,74,69)" points="140,80 194,105 195,103"/>
<polygon fill="rgb(29,74,69)" points="187,98 185,94 181,101"/>
<polygon fill="rgb(17,22,22)" points="96,25 112,9 81,-36"/>
<polygon fill="rgb(155,92,70)" points="129,190 138,191 132,182"/>
<polygon fill="rgb(158,96,73)" points="166,138 168,128 146,128"/>
<polygon fill="rgb(158,97,75)" points="155,142 154,146 154,141"/>
<polygon fill="rgb(26,64,54)" points="90,244 107,208 89,241"/>
<polygon fill="rgb(120,68,45)" points="112,180 112,182 112,170"/>
<polygon fill="rgb(36,72,65)" points="159,112 140,113 141,115"/>
<polygon fill="rgb(161,96,74)" points="174,189 186,173 166,176"/>
<polygon fill="rgb(133,85,65)" points="142,201 160,205 154,204"/>
<polygon fill="rgb(145,95,72)" points="113,164 121,172 114,167"/>
<polygon fill="rgb(26,35,39)" points="86,108 92,117 91,103"/>
<polygon fill="rgb(19,25,18)" points="260,-22 227,25 258,44"/>
<polygon fill="rgb(17,24,24)" points="80,110 71,131 86,106"/>
<polygon fill="rgb(43,41,27)" points="137,203 123,202 158,206"/>
<polygon fill="rgb(26,61,60)" points="127,76 123,46 125,57"/>
<polygon fill="rgb(27,64,53)" points="92,180 58,193 92,185"/>
<polygon fill="rgb(16,21,23)" points="29,56 58,36 39,33"/>
<polygon fill="rgb(155,94,72)" points="153,203 157,205 172,197"/>
<polygon fill="rgb(32,59,46)" points="96,191 99,196 94,188"/>
<polygon fill="rgb(24,66,56)" points="79,193 55,198 57,226"/>
<polygon fill="rgb(17,30,23)" points="85,179 67,183 76,183"/>
<polygon fill="rgb(76,29,8)" points="146,173 131,174 129,173"/>
<polygon fill="rgb(28,67,55)" points="164,212 186,200 165,207"/>
<polygon fill="rgb(151,94,73)" points="104,127 102,121 129,140"/>
<polygon fill="rgb(153,95,74)" points="117,120 115,142 103,122"/>
<polygon fill="rgb(26,67,61)" points="210,230 203,209 214,222"/>
<polygon fill="rgb(26,61,49)" points="127,267 141,240 119,303"/>
<polygon fill="rgb(19,31,22)" points="246,189 233,178 272,205"/>
<polygon fill="rgb(26,62,52)" points="113,48 123,48 109,55"/>
<polygon fill="rgb(159,98,76)" points="186,141 183,148 181,136"/>
<polygon fill="rgb(21,28,26)" points="61,173 61,160 66,159"/>
<polygon fill="rgb(169,113,65)" points="103,166 114,168 103,166"/>
<polygon fill="rgb(160,98,76)" points="193,116 181,131 159,129"/>
<polygon fill="rgb(25,67,58)" points="181,233 188,229 179,230"/>
<polygon fill="rgb(25,135,229)" points="250,217 112,78 250,217"/>
<polygon fill="rgb(158,97,76)" points="208,157 201,177 195,161"/>
<polygon fill="rgb(81,28,9)" points="211,152 201,150 210,153"/>
<polygon fill="rgb(27,34,22)" points="235,151 233,130 244,146"/>
<polygon fill="rgb(129,71,49)" points="179,133 185,133 178,132"/>
<polygon fill="rgb(43,46,45)" points="102,116 99,119 97,125"/>
<polygon fill="rgb(26,49,39)" points="127,43 123,46 132,42"/>
<polygon fill="rgb(154,95,75)" points="122,129 127,121 136,131"/>
<polygon fill="rgb(26,67,61)" points="213,215 209,220 203,212"/>
<polygon fill="rgb(29,71,67)" points="128,68 115,64 104,87"/>
<polygon fill="rgb(27,72,70)" points="159,112 162,107 159,99"/>
<polygon fill="rgb(28,71,62)" points="314,273 232,333 250,194"/>
<polygon fill="rgb(16,22,20)" points="53,133 47,163 43,129"/>
<polygon fill="rgb(28,73,65)" points="203,78 202,71 206,56"/>
<polygon fill="rgb(28,67,59)" points="180,62 179,63 169,63"/>
<polygon fill="rgb(29,36,41)" points="61,102 60,109 60,100"/>
<polygon fill="rgb(149,97,79)" points="189,133 189,132 185,133"/>
<polygon fill="rgb(152,95,74)" points="144,175 144,177 150,174"/>
<polygon fill="rgb(25,66,50)" points="90,219 87,223 90,219"/>
<polygon fill="rgb(18,22,25)" points="93,-18 70,17 51,16"/>
<polygon fill="rgb(21,29,22)" points="70,175 77,183 65,188"/>
<polygon fill="rgb(11,39,30)" points="121,207 110,237 92,295"/>
<polygon fill="rgb(27,74,67)" points="199,63 202,61 177,66"/>
</svg>