<svg height="256" overflow="hidden" viewBox="0 0 256 256" width="256" xmlns="http://www.w3.org/2000/svg">
<rect fill="black" height="256" width="256" x="0" y="0"/>
<polygon fill="rgb(174,164,166)" points="-91,-125 477,64 42,461"/>
<polygon fill="rgb(115,77,78)" points="163,-67 206,259 103,259"/>
<polygon fill="rgb(229,229,227)" points="-140,67 121,52 89,399"/>
<polygon fill="rgb(188,167,162)" points="130,126 135,186 29,173"/>
<polygon fill="rgb(116,55,52)" points="216,88 117,93 166,212"/>
<polygon fill="rgb(116,78,69)" points="224,130 195,64 221,206"/>
<polygon fill="rgb(217,219,218)" points="181,317 75,362 161,193"/>
<polygon fill="rgb(113,122,137)" points="-59,-95 311,20 -42,58"/>
<polygon fill="rgb(214,219,218)" points="228,372 355,-10 222,51"/>
<polygon fill="rgb(228,252,202)" points="107,147 142,169 96,200"/>
<polygon fill="rgb(131,75,66)" points="149,117 124,173 217,106"/>
<polygon fill="rgb(137,91,80)" points="64,179 156,81 115,152"/>
<polygon fill="rgb(152,91,77)" points="133,196 163,114 149,114"/>
<polygon fill="rgb(186,194,199)" points="233,85 185,17 167,52"/>
<polygon fill="rgb(99,42,44)" points="158,111 132,29 176,61"/>
<polygon fill="rgb(104,44,47)" points="120,102 136,82 154,204"/>
<polygon fill="rgb(170,98,94)" points="137,112 128,129 136,153"/>
<polygon fill="rgb(131,142,158)" points="30,19 22,55 73,46"/>
<polygon fill="rgb(195,159,147)" points="105,208 143,183 129,167"/>
<polygon fill="rgb(220,219,218)" points="198,104 201,224 210,150"/>
<polygon fill="rgb(109,31,34)" points="196,184 134,40 191,137"/>
<polygon fill="rgb(155,163,174)" points="219,4 107,-22 134,16"/>
<polygon fill="rgb(214,216,217)" points="143,53 58,52 118,100"/>
<polygon fill="rgb(213,222,236)" points="128,158 110,191 88,176"/>
<polygon fill="rgb(162,122,108)" points="217,95 167,82 199,66"/>
<polygon fill="rgb(75,90,113)" points="-58,6 91,30 95,9"/>
<polygon fill="rgb(155,111,97)" points="120,190 146,183 108,213"/>
<polygon fill="rgb(163,122,107)" points="180,59 170,82 191,97"/>
<polygon fill="rgb(114,13,19)" points="132,155 163,199 193,151"/>
<polygon fill="rgb(131,17,24)" points="134,132 156,78 178,60"/>
<polygon fill="rgb(124,82,70)" points="216,104 176,114 204,74"/>
<polygon fill="rgb(211,215,213)" points="277,224 201,194 209,285"/>
<polygon fill="rgb(98,72,76)" points="139,52 160,12 173,39"/>
<polygon fill="rgb(96,112,129)" points="-69,22 34,48 -34,-46"/>
<polygon fill="rgb(244,244,241)" points="84,156 119,88 -143,186"/>
<polygon fill="rgb(29,25,38)" points="148,220 110,206 98,304"/>
<polygon fill="rgb(239,222,198)" points="114,201 107,192 131,129"/>
<polygon fill="rgb(118,131,147)" points="35,18 11,32 8,54"/>
<polygon fill="rgb(99,104,119)" points="49,-9 60,-22 164,28"/>
<polygon fill="rgb(206,214,216)" points="132,49 55,76 -56,63"/>
<polygon fill="rgb(81,47,47)" points="108,219 145,216 164,184"/>
<polygon fill="rgb(91,26,3)" points="139,78 140,73 133,101"/>
<polygon fill="rgb(131,137,152)" points="77,48 133,45 133,18"/>
<polygon fill="rgb(243,241,240)" points="49,361 130,153 129,129"/>
<polygon fill="rgb(225,230,229)" points="134,68 -123,87 19,130"/>
<polygon fill="rgb(168,123,117)" points="140,22 165,27 139,38"/>
<polygon fill="rgb(112,73,65)" points="206,78 222,128 216,207"/>
<polygon fill="rgb(109,75,71)" points="186,92 165,84 200,130"/>
<polygon fill="rgb(216,205,225)" points="87,179 97,188 100,159"/>
<polygon fill="rgb(205,213,215)" points="252,39 196,43 222,120"/>
<polygon fill="rgb(156,114,98)" points="171,190 190,189 185,169"/>
<polygon fill="rgb(129,85,72)" points="200,111 211,88 214,97"/>
<polygon fill="rgb(125,131,145)" points="73,45 142,13 86,48"/>
<polygon fill="rgb(206,25,94)" points="145,192 83,64 145,192"/>
<polygon fill="rgb(225,230,227)" points="207,75 302,66 240,162"/>
<polygon fill="rgb(194,160,118)" points="98,143 56,176 118,132"/>
<polygon fill="rgb(191,198,205)" points="143,53 50,53 133,48"/>
<polygon fill="rgb(216,181,169)" points="123,173 140,175 136,165"/>
<polygon fill="rgb(207,171,155)" points="135,78 120,82 118,100"/>
<polygon fill="rgb(190,200,205)" points="195,39 186,62 392,45"/>
<polygon fill="rgb(246,244,245)" points="117,92 110,126 89,149"/>
<polygon fill="rgb(201,209,212)" points="231,72 169,54 215,53"/>
<polygon fill="rgb(237,239,238)" points="15,109 108,93 76,109"/>
<polygon fill="rgb(84,50,45)" points="157,146 158,111 161,143"/>
<polygon fill="rgb(31,23,33)" points="136,104 123,111 149,48"/>
<polygon fill="rgb(150,158,168)" points="74,-13 153,-25 123,4"/>
<polygon fill="rgb(83,27,28)" points="193,175 194,120 181,163"/>
<polygon fill="rgb(61,38,37)" points="195,116 192,90 198,106"/>
<polygon fill="rgb(202,210,210)" points="266,71 206,71 195,63"/>
<polygon fill="rgb(59,36,41)" points="194,119 200,131 193,143"/>
<polygon fill="rgb(216,220,222)" points="35,76 138,67 140,52"/>
<polygon fill="rgb(142,100,88)" points="189,107 188,124 177,115"/>
<polygon fill="rgb(107,65,59)" points="150,189 114,212 136,211"/>
<polygon fill="rgb(140,22,27)" points="142,131 154,100 131,131"/>
<polygon fill="rgb(203,210,213)" points="78,52 142,53 80,61"/>
<polygon fill="rgb(45,33,40)" points="152,106 159,97 159,115"/>
<polygon fill="rgb(138,92,80)" points="218,198 214,160 209,203"/>
<polygon fill="rgb(133,144,157)" points="236,36 171,37 235,-1"/>
<polygon fill="rgb(111,123,138)" points="8,38 36,41 41,48"/>
<polygon fill="rgb(175,130,113)" points="114,201 143,182 119,189"/>
<polygon fill="rgb(212,229,236)" points="72,197 132,148 65,183"/>
<polygon fill="rgb(85,61,60)" points="223,192 222,131 216,157"/>
<polygon fill="rgb(143,149,166)" points="95,12 136,46 123,48"/>
<polygon fill="rgb(240,240,238)" points="-68,153 114,187 63,413"/>
<polygon fill="rgb(42,40,61)" points="150,14 164,21 134,23"/>
<polygon fill="rgb(165,108,88)" points="143,152 149,151 144,132"/>
<polygon fill="rgb(38,35,48)" points="141,52 136,22 132,42"/>
<polygon fill="rgb(79,76,96)" points="82,170 38,171 52,160"/>
<polygon fill="rgb(223,227,226)" points="55,82 134,63 112,94"/>
<polygon fill="rgb(241,192,197)" points="100,161 75,186 121,147"/>
<polygon fill="rgb(178,127,109)" points="111,147 124,111 81,161"/>
<polygon fill="rgb(143,150,161)" points="157,13 185,38 204,24"/>
<polygon fill="rgb(219,222,220)" points="239,185 206,246 200,212"/>
<polygon fill="rgb(156,163,176)" points="172,39 236,39 176,30"/>
<polygon fill="rgb(121,129,143)" points="121,11 93,6 135,47"/>
<polygon fill="rgb(173,127,122)" points="162,24 140,24 152,37"/>
<polygon fill="rgb(160,166,179)" points="118,45 82,50 134,48"/>
<polygon fill="rgb(37,28,37)" points="210,296 197,195 162,230"/>
<polygon fill="rgb(241,241,239)" points="130,140 112,203 64,187"/>
<polygon fill="rgb(221,224,221)" points="228,161 217,97 244,161"/>
<polygon fill="rgb(152,158,169)" points="175,46 168,47 186,19"/>
<polygon fill="rgb(242,241,239)" points="83,171 129,145 44,234"/>
<polygon fill="rgb(154,104,87)" points="172,130 168,117 159,115"/>
<polygon fill="rgb(137,149,155)" points="131,13 135,16 202,8"/>
<polygon fill="rgb(185,150,133)" points="187,88 198,66 180,60"/>
<polygon fill="rgb(227,214,235)" points="99,156 135,150 99,156"/>
<polygon fill="rgb(133,136,149)" points="143,15 127,32 123,18"/>
<polygon fill="rgb(95,20,22)" points="141,169 172,199 148,192"/>
<polygon fill="rgb(161,127,138)" points="68,173 68,162 57,177"/>
<polygon fill="rgb(216,222,223)" points="50,70 27,78 -22,66"/>
<polygon fill="rgb(218,222,222)" points="75,80 111,71 138,68"/>
<polygon fill="rgb(123,18,23)" points="147,63 183,125 174,129"/>
<polygon fill="rgb(189,165,134)" points="115,108 123,91 111,142"/>
<polygon fill="rgb(133,93,86)" points="104,156 69,180 62,163"/>
<polygon fill="rgb(138,146,161)" points="104,13 97,16 118,40"/>
<polygon fill="rgb(183,193,202)" points="273,52 211,49 283,22"/>
<polygon fill="rgb(193,187,177)" points="223,174 225,188 223,173"/>
<polygon fill="rgb(220,218,217)" points="210,188 211,192 203,209"/>
<polygon fill="rgb(246,245,242)" points="4,141 76,159 117,106"/>
<polygon fill="rgb(221,227,225)" points="11,96 53,90 38,81"/>
<polygon fill="rgb(237,226,228)" points="109,129 118,103 117,101"/>
<polygon fill="rgb(40,30,40)" points="130,217 148,221 142,214"/>
<polygon fill="rgb(128,137,153)" points="82,43 78,35 60,34"/>
<polygon fill="rgb(91,47,44)" points="112,152 138,99 123,140"/>
<polygon fill="rgb(150,100,86)" points="218,169 205,194 205,182"/>
<polygon fill="rgb(174,118,95)" points="148,119 157,113 142,142"/>
<polygon fill="rgb(88,59,60)" points="139,102 139,86 144,100"/>
<polygon fill="rgb(173,82,79)" points="132,153 141,133 130,130"/>
<polygon fill="rgb(137,10,19)" points="154,190 168,171 132,152"/>
<polygon fill="rgb(149,160,177)" points="48,54 81,48 41,41"/>
<polygon fill="rgb(115,54,53)" points="193,122 162,144 186,139"/>
<polygon fill="rgb(183,192,200)" points="64,54 -27,59 -28,62"/>
<polygon fill="rgb(134,145,163)" points="15,25 32,40 74,46"/>
<polygon fill="rgb(237,240,238)" points="73,101 15,131 46,128"/>
<polygon fill="rgb(182,190,200)" points="181,49 173,38 224,51"/>
<polygon fill="rgb(94,107,122)" points="211,22 163,16 209,9"/>
<polygon fill="rgb(115,66,59)" points="115,150 121,134 98,161"/>
<polygon fill="rgb(152,106,84)" points="140,42 144,48 159,45"/>
<polygon fill="rgb(120,82,78)" points="191,101 169,80 165,83"/>
<polygon fill="rgb(114,127,143)" points="244,-16 245,30 229,17"/>
<polygon fill="rgb(175,122,104)" points="77,163 118,124 97,156"/>
<polygon fill="rgb(221,191,232)" points="196,139 201,204 206,173"/>
<polygon fill="rgb(225,216,214)" points="92,146 87,151 108,130"/>
<polygon fill="rgb(147,155,170)" points="233,30 227,40 265,26"/>
<polygon fill="rgb(158,110,97)" points="144,183 139,178 119,208"/>
<polygon fill="rgb(84,98,117)" points="94,2 25,-20 72,2"/>
<polygon fill="rgb(110,123,137)" points="185,-16 195,2 124,-24"/>
<polygon fill="rgb(110,125,145)" points="45,21 31,19 26,21"/>
<polygon fill="rgb(120,118,113)" points="232,25 221,20 227,24"/>
<polygon fill="rgb(60,41,50)" points="156,36 162,74 171,31"/>
<polygon fill="rgb(153,159,172)" points="198,39 197,24 172,20"/>
<polygon fill="rgb(218,223,222)" points="38,90 15,94 82,87"/>
<polygon fill="rgb(166,173,186)" points="132,14 163,-37 129,6"/>
<polygon fill="rgb(91,15,17)" points="140,160 194,159 193,167"/>
<polygon fill="rgb(75,92,116)" points="7,3 -61,21 27,22"/>
<polygon fill="rgb(103,116,137)" points="26,182 48,165 25,178"/>
<polygon fill="rgb(126,77,73)" points="191,110 185,139 185,136"/>
<polygon fill="rgb(242,243,241)" points="48,132 63,104 117,94"/>
<polygon fill="rgb(116,129,142)" points="217,21 182,-34 227,26"/>
<polygon fill="rgb(83,46,47)" points="166,91 170,88 176,113"/>
<polygon fill="rgb(136,93,87)" points="139,38 138,24 144,53"/>
<polygon fill="rgb(229,220,221)" points="117,190 130,156 110,206"/>
<polygon fill="rgb(227,232,231)" points="109,85 26,89 78,82"/>
<polygon fill="rgb(229,234,233)" points="112,70 89,71 -41,91"/>
<polygon fill="rgb(93,55,47)" points="165,207 185,227 198,192"/>
<polygon fill="rgb(200,205,210)" points="130,49 113,52 142,52"/>
<polygon fill="rgb(92,62,57)" points="194,117 192,130 192,92"/>
<polygon fill="rgb(109,57,65)" points="180,147 174,141 157,132"/>
<polygon fill="rgb(145,101,83)" points="202,72 189,91 205,93"/>
<polygon fill="rgb(138,142,156)" points="133,23 124,16 129,45"/>
<polygon fill="rgb(63,19,21)" points="171,184 159,189 163,200"/>
<polygon fill="rgb(214,218,219)" points="79,62 99,62 96,70"/>
<polygon fill="rgb(105,152,216)" points="96,30 92,12 96,30"/>
<polygon fill="rgb(140,150,168)" points="32,36 58,49 73,47"/>
<polygon fill="rgb(147,102,88)" points="179,109 182,121 179,117"/>
<polygon fill="rgb(126,4,14)" points="169,178 175,169 143,160"/>
<polygon fill="rgb(217,223,222)" points="53,101 15,103 45,103"/>
<polygon fill="rgb(98,115,129)" points="84,9 12,6 100,6"/>
<polygon fill="rgb(140,29,32)" points="145,167 129,162 139,153"/>
<polygon fill="rgb(116,128,143)" points="64,27 77,27 96,32"/>
<polygon fill="rgb(229,231,229)" points="53,234 83,258 13,236"/>
<polygon fill="rgb(218,192,183)" points="128,85 135,69 123,79"/>
<polygon fill="rgb(217,223,221)" points="38,82 69,80 26,87"/>
<polygon fill="rgb(97,20,23)" points="179,59 165,84 167,58"/>
<polygon fill="rgb(161,166,174)" points="168,47 168,56 174,55"/>
<polygon fill="rgb(205,224,218)" points="118,89 106,85 106,85"/>
<polygon fill="rgb(115,126,139)" points="204,20 202,31 224,33"/>
<polygon fill="rgb(213,219,221)" points="72,66 36,65 32,69"/>
<polygon fill="rgb(105,56,52)" points="187,135 177,114 187,129"/>
<polygon fill="rgb(150,104,87)" points="165,111 162,109 161,129"/>
<polygon fill="rgb(224,219,217)" points="73,182 60,175 63,176"/>
<polygon fill="rgb(69,85,109)" points="84,23 54,28 19,-1"/>
<polygon fill="rgb(105,56,55)" points="193,151 158,153 193,147"/>
<polygon fill="rgb(178,138,120)" points="179,57 185,89 188,83"/>
<polygon fill="rgb(107,72,65)" points="196,181 193,192 162,230"/>
<polygon fill="rgb(134,86,73)" points="147,153 148,145 168,147"/>
<polygon fill="rgb(99,45,44)" points="172,129 180,159 184,152"/>
<polygon fill="rgb(147,103,96)" points="152,86 145,96 145,77"/>
<polygon fill="rgb(137,89,78)" points="120,209 147,186 142,182"/>
<polygon fill="rgb(190,143,127)" points="134,185 140,176 139,166"/>
<polygon fill="rgb(229,214,223)" points="92,146 119,154 92,146"/>
<polygon fill="rgb(117,127,139)" points="114,-29 188,-14 92,3"/>
<polygon fill="rgb(145,123,118)" points="212,91 214,96 211,88"/>
<polygon fill="rgb(119,69,58)" points="161,139 173,125 165,153"/>
<polygon fill="rgb(111,72,65)" points="130,207 124,218 111,205"/>
<polygon fill="rgb(172,118,95)" points="143,142 153,112 155,123"/>
<polygon fill="rgb(144,97,79)" points="191,88 204,104 204,80"/>
<polygon fill="rgb(79,24,25)" points="194,134 196,140 183,146"/>
<polygon fill="rgb(184,129,109)" points="120,130 121,102 105,147"/>
<polygon fill="rgb(108,117,133)" points="83,48 78,44 91,42"/>
<polygon fill="rgb(146,102,92)" points="175,68 174,87 170,78"/>
<polygon fill="rgb(132,142,160)" points="54,37 27,36 38,20"/>
<polygon fill="rgb(223,225,226)" points="120,82 117,93 87,94"/>
<polygon fill="rgb(150,41,45)" points="176,136 187,136 183,143"/>
<polygon fill="rgb(247,246,243)" points="-142,246 78,119 41,168"/>
<polygon fill="rgb(122,86,81)" points="169,95 179,100 187,93"/>
<polygon fill="rgb(129,138,152)" points="80,28 97,48 89,31"/>
<polygon fill="rgb(26,26,41)" points="170,32 164,19 167,46"/>
<polygon fill="rgb(233,236,232)" points="-18,119 -5,107 36,105"/>
<polygon fill="rgb(159,167,180)" points="31,55 48,47 63,53"/>
<polygon fill="rgb(167,175,191)" points="238,42 243,31 260,31"/>
<polygon fill="rgb(108,55,46)" points="122,142 126,115 116,146"/>
<polygon fill="rgb(134,145,159)" points="210,18 221,-17 217,18"/>
<polygon fill="rgb(114,68,63)" points="135,117 132,106 149,94"/>
<polygon fill="rgb(208,215,218)" points="81,64 72,61 60,72"/>
<polygon fill="rgb(32,24,34)" points="136,82 120,106 131,119"/>
<polygon fill="rgb(218,225,224)" points="36,114 19,112 16,126"/>
<polygon fill="rgb(175,138,115)" points="197,68 189,88 186,89"/>
<polygon fill="rgb(210,215,219)" points="139,58 68,63 142,55"/>
<polygon fill="rgb(124,78,70)" points="169,151 163,152 146,149"/>
<polygon fill="rgb(82,12,148)" points="8,274 0,260 25,276"/>
<polygon fill="rgb(227,219,218)" points="117,156 134,121 134,118"/>
<polygon fill="rgb(134,139,155)" points="138,50 103,16 118,29"/>
<polygon fill="rgb(149,159,174)" points="225,18 241,-7 229,-17"/>
<polygon fill="rgb(119,132,150)" points="50,41 32,33 27,23"/>
<polygon fill="rgb(244,242,243)" points="101,250 91,205 107,220"/>
<polygon fill="rgb(72,45,44)" points="185,227 199,211 195,180"/>
<polygon fill="rgb(232,236,235)" points="44,105 109,94 58,98"/>
<polygon fill="rgb(103,111,125)" points="-1,-90 122,20 120,21"/>
<polygon fill="rgb(221,223,220)" points="195,142 218,266 196,178"/>
<polygon fill="rgb(121,127,141)" points="104,46 110,47 111,39"/>
<polygon fill="rgb(131,20,27)" points="144,71 166,108 147,66"/>
<polygon fill="rgb(135,96,88)" points="190,101 189,94 179,88"/>
<polygon fill="rgb(146,98,81)" points="186,199 188,186 173,194"/>
<polygon fill="rgb(149,157,174)" points="40,30 30,22 42,25"/>
<polygon fill="rgb(154,111,95)" points="196,81 203,120 197,85"/>
<polygon fill="rgb(245,229,231)" points="59,162 62,163 66,157"/>
<polygon fill="rgb(77,43,42)" points="178,143 175,131 174,142"/>
<polygon fill="rgb(93,62,62)" points="161,104 163,105 159,114"/>
<polygon fill="rgb(210,216,218)" points="81,54 100,54 68,57"/>
<polygon fill="rgb(195,199,204)" points="169,52 170,49 189,63"/>
<polygon fill="rgb(159,49,50)" points="137,151 138,134 133,135"/>
<polygon fill="rgb(248,246,243)" points="61,161 99,137 48,151"/>
<polygon fill="rgb(174,182,194)" points="75,49 67,51 94,50"/>
<polygon fill="rgb(210,170,157)" points="131,134 138,132 140,132"/>
<polygon fill="rgb(131,12,21)" points="159,87 162,70 171,70"/>
<polygon fill="rgb(195,205,208)" points="80,53 -11,61 27,58"/>
<polygon fill="rgb(81,98,116)" points="4,40 17,20 -11,39"/>
<polygon fill="rgb(163,170,180)" points="198,-16 136,9 167,13"/>
<polygon fill="rgb(108,70,61)" points="158,131 157,108 156,144"/>
<polygon fill="rgb(144,27,32)" points="135,132 132,132 154,84"/>
<polygon fill="rgb(165,159,129)" points="20,21 31,173 20,21"/>
<polygon fill="rgb(88,101,119)" points="44,23 85,35 47,28"/>
<polygon fill="rgb(218,165,195)" points="168,219 155,223 153,223"/>
<polygon fill="rgb(223,227,229)" points="72,82 80,82 77,79"/>
<polygon fill="rgb(140,151,168)" points="48,33 49,37 64,46"/>
<polygon fill="rgb(148,29,33)" points="138,117 149,115 143,106"/>
<polygon fill="rgb(148,157,172)" points="223,16 240,32 237,23"/>
<polygon fill="rgb(145,42,46)" points="132,152 136,155 129,168"/>
<polygon fill="rgb(99,22,23)" points="180,127 189,134 173,131"/>
<polygon fill="rgb(174,133,116)" points="185,79 178,70 179,66"/>
<polygon fill="rgb(143,90,74)" points="159,121 170,132 171,126"/>
<polygon fill="rgb(147,140,149)" points="143,51 140,58 142,55"/>
<polygon fill="rgb(204,211,213)" points="48,58 11,58 42,60"/>
<polygon fill="rgb(178,185,197)" points="95,50 108,49 131,49"/>
<polygon fill="rgb(115,76,75)" points="166,83 166,87 164,85"/>
<polygon fill="rgb(222,213,213)" points="127,75 135,69 137,68"/>
<polygon fill="rgb(134,19,26)" points="144,73 162,85 171,111"/>
<polygon fill="rgb(186,189,200)" points="140,60 139,62 140,55"/>
<polygon fill="rgb(142,149,164)" points="209,37 229,37 203,33"/>
<polygon fill="rgb(153,112,92)" points="194,87 198,73 204,74"/>
<polygon fill="rgb(222,226,225)" points="88,90 94,91 51,94"/>
<polygon fill="rgb(106,61,55)" points="175,152 167,150 173,130"/>
<polygon fill="rgb(245,244,241)" points="102,97 56,151 40,141"/>
<polygon fill="rgb(149,109,96)" points="190,177 189,186 187,170"/>
<polygon fill="rgb(111,123,141)" points="67,32 80,28 63,26"/>
<polygon fill="rgb(108,68,60)" points="159,118 160,132 162,143"/>
<polygon fill="rgb(145,154,169)" points="212,19 243,35 224,30"/>
<polygon fill="rgb(139,148,163)" points="117,42 111,37 108,19"/>
<polygon fill="rgb(133,83,67)" points="152,146 157,126 153,132"/>
<polygon fill="rgb(224,229,228)" points="111,69 81,72 86,70"/>
<polygon fill="rgb(52,32,37)" points="153,37 141,37 149,41"/>
<polygon fill="rgb(161,112,99)" points="139,27 142,35 141,39"/>
<polygon fill="rgb(202,209,211)" points="38,60 45,57 40,64"/>
<polygon fill="rgb(229,232,231)" points="107,85 120,84 92,85"/>
<polygon fill="rgb(112,124,133)" points="156,14 166,20 179,15"/>
<polygon fill="rgb(212,218,219)" points="60,73 44,69 22,76"/>
<polygon fill="rgb(171,180,194)" points="68,52 40,55 45,55"/>
<polygon fill="rgb(225,228,227)" points="203,117 212,165 199,192"/>
<polygon fill="rgb(116,67,55)" points="168,140 174,132 160,131"/>
<polygon fill="rgb(214,219,220)" points="90,62 55,75 87,61"/>
<polygon fill="rgb(146,89,72)" points="142,148 142,142 145,125"/>
<polygon fill="rgb(87,17,17)" points="194,177 181,155 192,151"/>
<polygon fill="rgb(108,63,58)" points="152,70 157,56 144,55"/>
<polygon fill="rgb(173,129,113)" points="181,86 183,77 184,86"/>
<polygon fill="rgb(231,239,228)" points="-9,110 17,117 10,122"/>
<polygon fill="rgb(189,187,160)" points="185,37 191,24 185,37"/>
<polygon fill="rgb(221,227,226)" points="26,75 -13,78 -26,68"/>
<polygon fill="rgb(116,70,60)" points="193,90 210,135 214,140"/>
<polygon fill="rgb(115,81,79)" points="180,144 172,144 178,144"/>
<polygon fill="rgb(219,224,223)" points="122,78 73,77 117,83"/>
<polygon fill="rgb(108,37,36)" points="179,165 186,141 177,152"/>
<polygon fill="rgb(135,86,69)" points="186,198 170,188 179,202"/>
<polygon fill="rgb(122,135,150)" points="57,38 63,33 63,41"/>
<polygon fill="rgb(221,227,225)" points="-17,93 -28,90 32,87"/>
<polygon fill="rgb(105,60,54)" points="167,135 177,153 176,144"/>
<polygon fill="rgb(137,86,71)" points="171,125 161,127 161,129"/>
<polygon fill="rgb(119,121,137)" points="134,16 133,34 132,17"/>
<polygon fill="rgb(128,82,85)" points="143,97 145,97 139,86"/>
<polygon fill="rgb(130,140,154)" points="12,49 46,49 -5,55"/>
<polygon fill="rgb(190,198,204)" points="172,40 199,39 194,46"/>
<polygon fill="rgb(124,137,151)" points="-5,20 -3,25 25,42"/>
<polygon fill="rgb(240,241,240)" points="56,116 63,100 78,111"/>
<polygon fill="rgb(131,142,160)" points="35,32 29,20 43,34"/>
<polygon fill="rgb(157,89,76)" points="142,113 133,118 135,118"/>
<polygon fill="rgb(193,159,140)" points="192,65 181,72 191,75"/>
<polygon fill="rgb(177,186,198)" points="219,50 182,49 259,48"/>
<polygon fill="rgb(91,12,15)" points="178,154 175,156 153,154"/>
<polygon fill="rgb(139,92,76)" points="156,128 157,120 155,129"/>
<polygon fill="rgb(229,230,228)" points="201,131 196,141 199,188"/>
<polygon fill="rgb(172,176,186)" points="187,46 169,48 180,43"/>
<polygon fill="rgb(220,223,222)" points="59,81 56,81 66,82"/>
<polygon fill="rgb(138,147,165)" points="246,21 244,17 240,18"/>
<polygon fill="rgb(99,110,125)" points="96,17 108,31 81,23"/>
<polygon fill="rgb(102,67,72)" points="154,44 164,39 164,47"/>
<polygon fill="rgb(145,101,91)" points="139,86 142,91 145,81"/>
<polygon fill="rgb(221,229,227)" points="14,119 4,125 -22,120"/>
<polygon fill="rgb(157,118,101)" points="177,74 183,76 184,74"/>
<polygon fill="rgb(85,49,46)" points="176,224 162,199 169,190"/>
<polygon fill="rgb(205,209,210)" points="181,53 180,60 208,66"/>
<polygon fill="rgb(176,183,194)" points="170,46 170,48 204,49"/>
<polygon fill="rgb(107,62,49)" points="189,207 171,197 177,214"/>
<polygon fill="rgb(144,47,51)" points="162,88 154,93 157,90"/>
<polygon fill="rgb(176,127,109)" points="123,201 120,197 138,181"/>
<polygon fill="rgb(120,37,14)" points="135,177 157,176 135,177"/>
<polygon fill="rgb(124,91,80)" points="215,101 208,83 203,74"/>
<polygon fill="rgb(221,225,224)" points="91,78 79,80 98,82"/>
<polygon fill="rgb(75,30,28)" points="140,139 136,143 142,156"/>
<polygon fill="rgb(192,203,208)" points="284,45 238,46 207,41"/>
<polygon fill="rgb(245,244,240)" points="-54,137 -38,220 79,211"/>
<polygon fill="rgb(245,248,220)" points="75,132 102,146 75,132"/>
<polygon fill="rgb(100,114,129)" points="65,38 63,40 70,43"/>
<polygon fill="rgb(193,203,206)" points="90,56 88,57 97,57"/>
<polygon fill="rgb(166,162,138)" points="0,40 110,173 0,40"/>
<polygon fill="rgb(146,155,169)" points="24,55 -7,54 24,53"/>
<polygon fill="rgb(158,163,181)" points="172,34 174,40 193,35"/>
<polygon fill="rgb(92,52,48)" points="174,136 176,145 170,139"/>
<polygon fill="rgb(225,229,226)" points="212,84 384,201 226,135"/>
<polygon fill="rgb(243,242,238)" points="41,221 12,211 -48,276"/>
<polygon fill="rgb(144,97,80)" points="151,146 152,151 155,145"/>
<polygon fill="rgb(60,35,34)" points="153,144 159,140 161,144"/>
<polygon fill="rgb(157,163,176)" points="194,26 186,25 172,40"/>
<polygon fill="rgb(104,115,131)" points="69,33 49,31 96,36"/>
<polygon fill="rgb(229,233,233)" points="113,93 33,97 35,99"/>
<polygon fill="rgb(85,51,49)" points="179,99 174,110 185,102"/>
<polygon fill="rgb(132,82,77)" points="140,108 145,101 140,102"/>
<polygon fill="rgb(106,115,129)" points="93,39 98,39 90,24"/>
<polygon fill="rgb(117,122,132)" points="170,25 172,41 172,24"/>
<polygon fill="rgb(100,14,15)" points="194,169 168,163 190,163"/>
<polygon fill="rgb(151,113,106)" points="122,96 135,84 135,81"/>
<polygon fill="rgb(246,244,245)" points="114,114 117,99 82,103"/>
<polygon fill="rgb(79,102,118)" points="46,1 66,-5 39,-17"/>
<polygon fill="rgb(220,225,222)" points="246,115 278,102 220,103"/>
<polygon fill="rgb(212,217,219)" points="56,64 36,67 8,68"/>
<polygon fill="rgb(203,211,214)" points="81,61 57,60 88,56"/>
<polygon fill="rgb(89,226,249)" points="26,61 118,15 26,61"/>
<polygon fill="rgb(57,76,103)" points="71,26 61,10 77,11"/>
<polygon fill="rgb(102,66,60)" points="185,129 195,118 191,130"/>
<polygon fill="rgb(136,95,78)" points="202,110 198,101 204,103"/>
<polygon fill="rgb(219,223,223)" points="78,87 99,86 119,87"/>
<polygon fill="rgb(145,105,105)" points="156,34 164,25 156,22"/>
<polygon fill="rgb(221,229,229)" points="13,68 20,77 11,70"/>
<polygon fill="rgb(215,243,222)" points="89,184 116,172 89,184"/>
<polygon fill="rgb(207,214,216)" points="63,68 81,65 43,58"/>
<polygon fill="rgb(130,142,158)" points="39,44 53,41 37,48"/>
<polygon fill="rgb(133,144,155)" points="219,-5 202,7 289,-72"/>
<polygon fill="rgb(130,136,146)" points="143,13 127,33 136,17"/>
<polygon fill="rgb(135,96,90)" points="176,95 179,99 178,99"/>
<polygon fill="rgb(122,135,150)" points="91,36 76,27 75,25"/>
<polygon fill="rgb(103,73,70)" points="174,101 166,84 177,104"/>
<polygon fill="rgb(168,124,124)" points="178,134 182,134 186,135"/>
<polygon fill="rgb(225,229,229)" points="97,93 84,91 93,96"/>
<polygon fill="rgb(138,58,59)" points="148,94 141,108 149,94"/>
<polygon fill="rgb(234,234,232)" points="15,241 16,238 135,269"/>
<polygon fill="rgb(215,221,222)" points="50,67 47,63 38,72"/>
<polygon fill="rgb(124,135,148)" points="236,30 234,25 226,23"/>
<polygon fill="rgb(40,32,40)" points="200,126 191,133 195,128"/>
<polygon fill="rgb(247,245,245)" points="117,96 89,149 110,124"/>
<polygon fill="rgb(108,118,133)" points="95,9 101,31 92,8"/>
<polygon fill="rgb(239,242,238)" points="53,124 -18,131 58,130"/>
<polygon fill="rgb(200,156,137)" points="116,117 121,85 120,105"/>
<polygon fill="rgb(216,219,216)" points="205,203 265,222 254,197"/>
<polygon fill="rgb(182,144,124)" points="196,69 188,84 189,77"/>
<polygon fill="rgb(19,19,31)" points="131,108 145,57 142,57"/>
<polygon fill="rgb(189,147,141)" points="153,27 144,22 138,29"/>
<polygon fill="rgb(186,147,129)" points="185,78 184,82 190,80"/>
<polygon fill="rgb(235,238,237)" points="84,100 104,96 67,99"/>
<polygon fill="rgb(125,136,154)" points="76,42 75,47 83,40"/>
<polygon fill="rgb(105,62,53)" points="168,135 161,138 160,133"/>
<polygon fill="rgb(72,86,80)" points="196,99 192,98 196,99"/>
<polygon fill="rgb(241,240,239)" points="103,205 119,146 113,203"/>
<polygon fill="rgb(223,228,227)" points="57,85 67,83 76,76"/>
<polygon fill="rgb(154,107,89)" points="166,217 165,203 164,207"/>
<polygon fill="rgb(242,241,240)" points="48,173 39,173 102,211"/>
<polygon fill="rgb(142,101,91)" points="172,84 190,95 176,87"/>
<polygon fill="rgb(117,73,66)" points="124,119 124,113 121,106"/>
<polygon fill="rgb(159,106,86)" points="151,145 147,144 150,142"/>
<polygon fill="rgb(169,136,134)" points="138,68 136,79 132,85"/>
<polygon fill="rgb(153,114,105)" points="150,90 147,94 142,86"/>
<polygon fill="rgb(174,140,120)" points="127,192 122,181 120,186"/>
<polygon fill="rgb(228,233,233)" points="67,73 52,79 103,72"/>
<polygon fill="rgb(137,150,169)" points="245,7 242,7 243,9"/>
<polygon fill="rgb(169,124,112)" points="58,173 71,178 69,166"/>
<polygon fill="rgb(101,115,130)" points="211,5 213,15 208,16"/>
<polygon fill="rgb(245,244,243)" points="112,120 85,124 89,101"/>
<polygon fill="rgb(164,172,179)" points="237,-31 134,15 154,-1"/>
<polygon fill="rgb(161,115,97)" points="169,120 160,120 161,113"/>
<polygon fill="rgb(119,42,47)" points="135,127 131,133 130,130"/>
<polygon fill="rgb(241,241,236)" points="-70,180 14,240 19,230"/>
<polygon fill="rgb(243,241,242)" points="106,132 115,110 109,126"/>
<polygon fill="rgb(168,175,193)" points="182,39 241,40 239,40"/>
<polygon fill="rgb(132,142,156)" points="215,24 211,20 224,34"/>
<polygon fill="rgb(96,57,52)" points="217,199 208,201 223,186"/>
<polygon fill="rgb(122,135,152)" points="70,45 44,29 61,38"/>
<polygon fill="rgb(209,216,217)" points="34,73 41,75 49,74"/>
<polygon fill="rgb(173,125,111)" points="61,163 67,160 90,160"/>
<polygon fill="rgb(242,242,240)" points="62,177 38,177 6,189"/>
<polygon fill="rgb(86,56,58)" points="143,92 143,100 140,97"/>
<polygon fill="rgb(223,227,225)" points="89,82 105,82 98,84"/>
<polygon fill="rgb(212,216,219)" points="76,116 87,105 76,116"/>
<polygon fill="rgb(114,126,139)" points="175,18 170,15 216,24"/>
<polygon fill="rgb(102,65,55)" points="192,105 187,103 179,107"/>
<polygon fill="rgb(106,123,136)" points="217,5 217,8 274,-35"/>
<polygon fill="rgb(243,243,240)" points="33,130 82,131 65,122"/>
<polygon fill="rgb(102,12,15)" points="175,174 153,190 173,183"/>
<polygon fill="rgb(130,79,65)" points="216,122 213,144 208,114"/>
<polygon fill="rgb(213,218,219)" points="39,59 -32,65 24,62"/>
<polygon fill="rgb(191,148,131)" points="120,105 114,118 111,128"/>
<polygon fill="rgb(167,126,111)" points="179,86 179,72 175,70"/>
<polygon fill="rgb(141,97,86)" points="110,145 75,178 119,136"/>
<polygon fill="rgb(129,78,65)" points="151,151 144,153 164,147"/>
<polygon fill="rgb(110,123,137)" points="93,21 99,28 101,22"/>
<polygon fill="rgb(126,110,123)" points="6,12 19,9 23,2"/>
<polygon fill="rgb(98,107,122)" points="101,22 104,24 108,34"/>
<polygon fill="rgb(227,230,229)" points="148,215 158,198 172,222"/>
<polygon fill="rgb(128,136,146)" points="127,24 146,14 140,14"/>
<polygon fill="rgb(231,235,233)" points="280,75 207,75 215,89"/>
<polygon fill="rgb(21,20,32)" points="125,95 145,74 127,106"/>
<polygon fill="rgb(122,134,148)" points="219,22 228,27 227,27"/>
<polygon fill="rgb(162,119,104)" points="180,81 182,85 179,80"/>
<polygon fill="rgb(248,247,244)" points="-7,188 62,153 -55,114"/>
<polygon fill="rgb(164,171,186)" points="65,51 79,48 42,55"/>
<polygon fill="rgb(124,130,141)" points="171,27 175,22 177,24"/>
<polygon fill="rgb(95,104,120)" points="80,45 87,48 83,45"/>
<polygon fill="rgb(77,46,45)" points="180,100 185,100 175,109"/>
<polygon fill="rgb(99,58,53)" points="135,104 138,112 133,107"/>
<polygon fill="rgb(242,242,239)" points="64,176 84,217 29,180"/>
<polygon fill="rgb(93,107,121)" points="135,19 123,3 125,15"/>
<polygon fill="rgb(153,154,176)" points="118,40 132,43 125,35"/>
<polygon fill="rgb(209,206,205)" points="57,178 54,176 55,174"/>
<polygon fill="rgb(177,135,118)" points="184,64 180,71 181,62"/>
<polygon fill="rgb(186,149,128)" points="181,70 186,73 180,73"/>
<polygon fill="rgb(231,237,226)" points="60,78 57,55 60,78"/>
<polygon fill="rgb(61,75,104)" points="36,9 48,15 -12,24"/>
<polygon fill="rgb(150,101,82)" points="160,121 169,126 167,123"/>
<polygon fill="rgb(78,92,116)" points="4,15 27,23 23,25"/>
<polygon fill="rgb(233,237,236)" points="38,125 34,116 53,121"/>
<polygon fill="rgb(162,169,184)" points="234,38 245,35 234,41"/>
<polygon fill="rgb(109,72,69)" points="174,101 174,105 180,99"/>
<polygon fill="rgb(181,188,197)" points="189,44 180,51 181,43"/>
<polygon fill="rgb(176,130,112)" points="121,97 120,111 119,117"/>
<polygon fill="rgb(191,139,120)" points="99,153 95,153 121,125"/>
<polygon fill="rgb(158,110,90)" points="199,100 201,93 193,82"/>
<polygon fill="rgb(206,211,216)" points="132,50 118,54 141,55"/>
<polygon fill="rgb(123,132,146)" points="87,40 94,28 78,45"/>
<polygon fill="rgb(115,128,142)" points="208,16 219,12 239,9"/>
<polygon fill="rgb(100,56,52)" points="163,115 164,115 168,112"/>
<polygon fill="rgb(166,124,105)" points="192,86 198,74 186,91"/>
<polygon fill="rgb(135,141,152)" points="106,-26 131,13 111,-22"/>
<polygon fill="rgb(182,191,206)" points="33,174 26,176 43,167"/>
<polygon fill="rgb(219,138,106)" points="161,56 12,51 161,56"/>
<polygon fill="rgb(134,93,79)" points="189,108 183,112 178,109"/>
<polygon fill="rgb(185,191,192)" points="8,80 36,86 8,80"/>
<polygon fill="rgb(218,241,231)" points="88,69 77,44 88,69"/>
<polygon fill="rgb(182,162,158)" points="181,61 199,66 185,62"/>
<polygon fill="rgb(126,85,80)" points="144,94 145,77 144,93"/>
<polygon fill="rgb(209,217,217)" points="60,67 64,61 64,62"/>
<polygon fill="rgb(197,206,209)" points="295,42 332,57 236,59"/>
<polygon fill="rgb(120,131,146)" points="217,32 211,27 212,19"/>
<polygon fill="rgb(133,73,60)" points="115,144 123,123 120,137"/>
<polygon fill="rgb(109,14,19)" points="177,133 171,121 178,118"/>
<polygon fill="rgb(68,34,37)" points="162,69 172,58 153,61"/>
<polygon fill="rgb(214,218,216)" points="261,198 208,208 294,135"/>
<polygon fill="rgb(234,237,237)" points="116,95 106,94 82,99"/>
<polygon fill="rgb(230,235,234)" points="59,77 -6,80 -16,90"/>
<polygon fill="rgb(148,157,174)" points="43,39 60,51 39,37"/>
<polygon fill="rgb(145,103,93)" points="152,113 157,114 153,112"/>
<polygon fill="rgb(227,232,232)" points="76,97 79,93 49,98"/>
<polygon fill="rgb(42,55,85)" points="54,173 55,159 48,172"/>
<polygon fill="rgb(149,114,100)" points="190,89 190,93 185,92"/>
<polygon fill="rgb(219,165,139)" points="234,227 250,83 234,227"/>
<polygon fill="rgb(64,33,34)" points="158,193 148,212 151,191"/>
</svg>