<svg viewBox="0 0 512 512" xmlns="http://www.w3.org/2000/svg">
<rect fill="black" height="512" width="512" x="0" y="0"/>
<polygon fill="rgb(179,177,183)" fill-opacity="1" points="511,0 0,511 0,0"/>
<polygon fill="rgb(182,166,165)" fill-opacity="1" points="511,0 511,511 0,511"/>
<polygon fill="rgb(105,57,58)" fill-opacity="1" points="415,511 330,0 205,499"/>
<polygon fill="rgb(116,65,62)" fill-opacity="1" points="458,273 308,45 219,284"/>
<polygon fill="rgb(105,39,42)" fill-opacity="1" points="392,304 295,199 260,16"/>
<polygon fill="rgb(112,113,117)" fill-opacity="0.98357284" points="200,119 66,7 59,49"/>
<polygon fill="rgb(108,117,134)" fill-opacity="1" points="0,115 511,23 0,0"/>
<polygon fill="rgb(172,118,105)" fill-opacity="1" points="320,215 245,315 246,442"/>
<polygon fill="rgb(233,229,228)" fill-opacity="1" points="0,85 290,366 0,511"/>
<polygon fill="rgb(147,107,94)" fill-opacity="1" points="335,154 403,134 441,224"/>
<polygon fill="rgb(157,108,94)" fill-opacity="1" points="241,297 123,366 239,233"/>
<polygon fill="rgb(223,223,223)" fill-opacity="1" points="344,511 323,385 261,511"/>
<polygon fill="rgb(236,221,220)" fill-opacity="1" points="257,371 263,247 222,329"/>
<polygon fill="rgb(224,225,227)" fill-opacity="1" points="0,120 266,98 212,282"/>
<polygon fill="rgb(113,11,17)" fill-opacity="1" points="388,307 325,400 265,308"/>
<polygon fill="rgb(175,124,107)" fill-opacity="1" points="240,266 252,172 200,309"/>
<polygon fill="rgb(97,84,93)" fill-opacity="1" points="147,316 69,342 159,356"/>
<polygon fill="rgb(114,75,68)" fill-opacity="1" points="450,266 396,129 440,428"/>
<polygon fill="rgb(209,188,176)" fill-opacity="1" points="228,181 263,181 287,95"/>
<polygon fill="rgb(220,225,226)" fill-opacity="1" points="134,190 0,268 0,91"/>
<polygon fill="rgb(240,239,238)" fill-opacity="1" points="200,511 246,289 0,511"/>
<polygon fill="rgb(136,42,42)" fill-opacity="1" points="281,325 255,337 310,108"/>
<polygon fill="rgb(184,140,127)" fill-opacity="1" points="289,368 216,419 269,325"/>
<polygon fill="rgb(212,213,218)" fill-opacity="1" points="120,102 284,102 271,149"/>
<polygon fill="rgb(246,243,243)" fill-opacity="1" points="173,308 244,160 0,315"/>
<polygon fill="rgb(158,94,83)" fill-opacity="1" points="346,264 307,214 332,227"/>
<polygon fill="rgb(142,92,80)" fill-opacity="1" points="369,413 391,321 338,378"/>
<polygon fill="rgb(204,210,214)" fill-opacity="1" points="269,116 0,137 161,97"/>
<polygon fill="rgb(47,30,37)" fill-opacity="1" points="286,164 256,258 242,185"/>
<polygon fill="rgb(174,133,118)" fill-opacity="1" points="405,157 355,112 353,178"/>
<polygon fill="rgb(242,239,241)" fill-opacity="1" points="243,145 225,247 176,303"/>
<polygon fill="rgb(101,34,34)" fill-opacity="1" points="391,269 338,259 384,351"/>
<polygon fill="rgb(238,239,239)" fill-opacity="1" points="219,183 23,219 146,244"/>
<polygon fill="rgb(174,180,191)" fill-opacity="1" points="212,104 83,95 258,99"/>
<polygon fill="rgb(132,90,86)" fill-opacity="1" points="309,173 281,160 282,202"/>
<polygon fill="rgb(55,31,38)" fill-opacity="1" points="281,121 338,48 265,206"/>
<polygon fill="rgb(48,34,40)" fill-opacity="0.9982792" points="303,216 320,235 320,188"/>
<polygon fill="rgb(87,54,50)" fill-opacity="1" points="315,280 320,219 321,294"/>
<polygon fill="rgb(178,86,82)" fill-opacity="1" points="274,266 267,307 257,259"/>
<polygon fill="rgb(110,84,88)" fill-opacity="1" points="326,22 246,60 291,115"/>
<polygon fill="rgb(144,151,170)" fill-opacity="0.97754985" points="350,39 335,115 511,40"/>
<polygon fill="rgb(245,244,242)" fill-opacity="1" points="0,258 0,491 126,250"/>
<polygon fill="rgb(144,91,75)" fill-opacity="1" points="309,303 285,307 314,236"/>
<polygon fill="rgb(245,243,243)" fill-opacity="1" points="198,277 236,212 125,197"/>
<polygon fill="rgb(136,89,78)" fill-opacity="1" points="218,414 250,428 291,364"/>
<polygon fill="rgb(241,241,240)" fill-opacity="1" points="157,258 48,258 150,195"/>
<polygon fill="rgb(174,128,118)" fill-opacity="1" points="243,245 129,339 129,354"/>
<polygon fill="rgb(210,215,218)" fill-opacity="1" points="231,129 0,110 65,157"/>
<polygon fill="rgb(214,219,219)" fill-opacity="1" points="400,80 511,511 511,85"/>
<polygon fill="rgb(112,65,58)" fill-opacity="1" points="248,283 252,265 139,361"/>
<polygon fill="rgb(248,244,244)" fill-opacity="1" points="177,302 149,318 70,319"/>
<polygon fill="rgb(241,241,239)" fill-opacity="1" points="0,511 48,340 188,370"/>
<polygon fill="rgb(148,102,86)" fill-opacity="1" points="306,220 296,240 338,253"/>
<polygon fill="rgb(226,229,229)" fill-opacity="1" points="241,188 217,164 0,204"/>
<polygon fill="rgb(179,180,204)" fill-opacity="1" points="0,114 50,116 0,91"/>
<polygon fill="rgb(226,196,192)" fill-opacity="1" points="131,315 93,328 136,322"/>
<polygon fill="rgb(222,224,226)" fill-opacity="1" points="277,124 202,124 218,191"/>
<polygon fill="rgb(218,216,224)" fill-opacity="1" points="392,209 404,454 416,252"/>
<polygon fill="rgb(243,239,239)" fill-opacity="0.99668485" points="157,316 191,276 187,292"/>
<polygon fill="rgb(57,35,40)" fill-opacity="1" points="265,245 248,205 240,213"/>
<polygon fill="rgb(247,243,245)" fill-opacity="1" points="234,212 235,195 170,304"/>
<polygon fill="rgb(124,131,148)" fill-opacity="1" points="263,90 131,99 260,22"/>
<polygon fill="rgb(235,235,232)" fill-opacity="1" points="79,229 82,263 125,187"/>
<polygon fill="rgb(104,26,31)" fill-opacity="1" points="293,237 311,105 359,120"/>
<polygon fill="rgb(129,82,69)" fill-opacity="1" points="309,226 351,270 322,261"/>
<polygon fill="rgb(187,148,134)" fill-opacity="1" points="258,181 276,146 236,194"/>
<polygon fill="rgb(242,242,242)" fill-opacity="1" points="65,273 223,192 188,197"/>
<polygon fill="rgb(128,23,27)" fill-opacity="1" points="251,341 312,304 253,332"/>
<polygon fill="rgb(83,43,47)" fill-opacity="1" points="343,128 289,144 313,64"/>
<polygon fill="rgb(110,72,66)" fill-opacity="1" points="405,265 384,271 366,176"/>
<polygon fill="rgb(194,202,207)" fill-opacity="1" points="3,120 187,102 48,119"/>
<polygon fill="rgb(139,144,161)" fill-opacity="1" points="271,89 240,100 180,0"/>
<polygon fill="rgb(227,231,231)" fill-opacity="1" points="70,248 125,182 19,262"/>
<polygon fill="rgb(68,80,109)" fill-opacity="1" points="52,363 121,321 101,320"/>
<polygon fill="rgb(116,38,38)" fill-opacity="1" points="320,148 295,113 290,157"/>
<polygon fill="rgb(206,212,215)" fill-opacity="1" points="0,116 186,111 0,139"/>
<polygon fill="rgb(220,221,222)" fill-opacity="1" points="49,171 240,142 179,158"/>
<polygon fill="rgb(212,175,162)" fill-opacity="1" points="274,362 237,362 276,327"/>
<polygon fill="rgb(233,236,236)" fill-opacity="1" points="0,215 112,225 129,204"/>
<polygon fill="rgb(189,194,204)" fill-opacity="1" points="191,107 240,97 273,99"/>
<polygon fill="rgb(25,26,43)" fill-opacity="0.9970971" points="328,40 343,67 334,104"/>
<polygon fill="rgb(213,215,215)" fill-opacity="1" points="485,216 410,511 511,511"/>
<polygon fill="rgb(234,236,237)" fill-opacity="1" points="122,197 233,186 232,193"/>
<polygon fill="rgb(248,246,245)" fill-opacity="1" points="68,345 157,282 0,276"/>
<polygon fill="rgb(242,238,240)" fill-opacity="1" points="193,464 233,388 268,236"/>
<polygon fill="rgb(191,198,205)" fill-opacity="1" points="511,68 421,148 334,97"/>
<polygon fill="rgb(112,76,78)" fill-opacity="0.9339801" points="452,305 442,406 410,379"/>
<polygon fill="rgb(178,125,108)" fill-opacity="1" points="215,301 160,323 239,237"/>
<polygon fill="rgb(187,212,189)" fill-opacity="1" points="474,120 511,62 511,99"/>
<polygon fill="rgb(218,220,219)" fill-opacity="1" points="403,440 493,335 414,511"/>
<polygon fill="rgb(36,38,84)" fill-opacity="1" points="82,341 120,346 118,322"/>
<polygon fill="rgb(133,142,161)" fill-opacity="1" points="101,110 27,49 166,74"/>
<polygon fill="rgb(117,78,69)" fill-opacity="1" points="400,204 350,227 385,258"/>
<polygon fill="rgb(217,221,223)" fill-opacity="1" points="109,134 51,155 31,141"/>
<polygon fill="rgb(147,56,58)" fill-opacity="1" points="264,270 255,261 274,258"/>
<polygon fill="rgb(244,239,241)" fill-opacity="1" points="129,354 204,511 215,432"/>
<polygon fill="rgb(133,142,155)" fill-opacity="1" points="32,0 511,0 346,34"/>
<polygon fill="rgb(220,200,201)" fill-opacity="1" points="236,211 236,205 222,253"/>
<polygon fill="rgb(244,241,243)" fill-opacity="1" points="200,277 235,206 221,254"/>
<polygon fill="rgb(223,225,226)" fill-opacity="1" points="236,181 153,175 249,144"/>
<polygon fill="rgb(176,143,138)" fill-opacity="1" points="220,258 212,268 141,339"/>
<polygon fill="rgb(115,72,78)" fill-opacity="0.9593641" points="408,167 412,258 427,266"/>
<polygon fill="rgb(212,204,210)" fill-opacity="0.97505563" points="203,511 210,472 202,511"/>
<polygon fill="rgb(111,72,70)" fill-opacity="1" points="154,356 173,334 132,321"/>
<polygon fill="rgb(195,140,121)" fill-opacity="1" points="189,306 238,255 221,287"/>
<polygon fill="rgb(204,164,146)" fill-opacity="1" points="247,189 235,201 241,169"/>
<polygon fill="rgb(164,106,95)" fill-opacity="1" points="407,380 430,404 432,332"/>
<polygon fill="rgb(30,23,39)" fill-opacity="1" points="270,50 285,100 270,95"/>
<polygon fill="rgb(167,113,97)" fill-opacity="1" points="160,322 237,252 159,339"/>
<polygon fill="rgb(103,57,52)" fill-opacity="1" points="153,349 249,280 225,305"/>
<polygon fill="rgb(246,241,240)" fill-opacity="1" points="126,327 176,230 115,321"/>
<polygon fill="rgb(227,231,231)" fill-opacity="1" points="40,257 0,145 0,233"/>
<polygon fill="rgb(81,33,33)" fill-opacity="1" points="381,261 397,400 379,317"/>
<polygon fill="rgb(222,224,225)" fill-opacity="1" points="225,183 177,189 192,170"/>
<polygon fill="rgb(243,241,240)" fill-opacity="1" points="191,511 257,283 156,354"/>
<polygon fill="rgb(121,129,144)" fill-opacity="1" points="140,91 125,77 315,21"/>
<polygon fill="rgb(224,226,225)" fill-opacity="1" points="452,127 448,368 511,185"/>
<polygon fill="rgb(153,162,177)" fill-opacity="1" points="35,112 245,94 81,99"/>
<polygon fill="rgb(234,237,236)" fill-opacity="1" points="0,252 56,261 0,267"/>
<polygon fill="rgb(176,129,111)" fill-opacity="1" points="256,399 230,405 241,366"/>
<polygon fill="rgb(79,38,38)" fill-opacity="1" points="252,224 246,280 268,233"/>
<polygon fill="rgb(189,196,206)" fill-opacity="1" points="134,102 240,104 152,100"/>
<polygon fill="rgb(69,41,43)" fill-opacity="1" points="398,268 382,296 386,176"/>
<polygon fill="rgb(128,79,68)" fill-opacity="1" points="330,306 310,296 334,282"/>
<polygon fill="rgb(30,25,33)" fill-opacity="1" points="410,511 346,511 395,377"/>
<polygon fill="rgb(151,158,171)" fill-opacity="1" points="220,95 267,41 263,94"/>
<polygon fill="rgb(190,139,112)" fill-opacity="1" points="218,278 238,207 238,249"/>
<polygon fill="rgb(137,91,76)" fill-opacity="1" points="330,297 295,300 305,288"/>
<polygon fill="rgb(203,208,213)" fill-opacity="1" points="276,99 191,108 284,107"/>
<polygon fill="rgb(244,243,241)" fill-opacity="1" points="178,384 0,501 16,362"/>
<polygon fill="rgb(143,84,79)" fill-opacity="1" points="281,337 273,397 291,377"/>
<polygon fill="rgb(142,88,77)" fill-opacity="1" points="240,276 161,338 219,299"/>
<polygon fill="rgb(166,116,100)" fill-opacity="0.98193485" points="284,357 248,407 239,402"/>
<polygon fill="rgb(130,6,16)" fill-opacity="1" points="341,353 299,382 279,299"/>
<polygon fill="rgb(140,148,165)" fill-opacity="1" points="0,113 151,94 112,80"/>
<polygon fill="rgb(249,245,244)" fill-opacity="1" points="213,258 121,325 83,304"/>
<polygon fill="rgb(241,239,239)" fill-opacity="0.9980776" points="263,285 169,387 226,404"/>
<polygon fill="rgb(163,168,182)" fill-opacity="1" points="260,97 243,88 221,98"/>
<polygon fill="rgb(240,238,238)" fill-opacity="1" points="261,253 226,408 212,359"/>
<polygon fill="rgb(227,231,231)" fill-opacity="1" points="0,183 195,163 215,170"/>
<polygon fill="rgb(241,241,241)" fill-opacity="1" points="149,198 153,210 82,214"/>
<polygon fill="rgb(242,239,240)" fill-opacity="1" points="232,309 239,372 262,307"/>
<polygon fill="rgb(246,243,242)" fill-opacity="1" points="125,238 124,300 190,247"/>
<polygon fill="rgb(243,242,241)" fill-opacity="1" points="140,367 94,345 24,378"/>
<polygon fill="rgb(146,85,72)" fill-opacity="1" points="236,277 249,240 226,287"/>
<polygon fill="rgb(247,244,243)" fill-opacity="1" points="130,254 86,334 122,256"/>
<polygon fill="rgb(247,244,245)" fill-opacity="1" points="236,199 211,192 205,262"/>
<polygon fill="rgb(177,119,95)" fill-opacity="1" points="284,299 293,243 308,227"/>
<polygon fill="rgb(135,17,24)" fill-opacity="1" points="344,119 282,262 263,267"/>
<polygon fill="rgb(225,228,230)" fill-opacity="1" points="94,210 0,162 49,148"/>
<polygon fill="rgb(133,137,155)" fill-opacity="1" points="294,0 224,91 258,69"/>
<polygon fill="rgb(122,16,23)" fill-opacity="1" points="340,190 368,294 288,133"/>
<polygon fill="rgb(249,243,244)" fill-opacity="1" points="77,342 174,242 114,294"/>
<polygon fill="rgb(238,231,230)" fill-opacity="0.9570107" points="179,367 239,293 165,377"/>
<polygon fill="rgb(145,9,19)" fill-opacity="1" points="325,345 311,367 264,316"/>
<polygon fill="rgb(96,62,62)" fill-opacity="1" points="402,218 331,173 343,202"/>
<polygon fill="rgb(124,75,63)" fill-opacity="1" points="434,312 395,203 425,178"/>
<polygon fill="rgb(247,245,242)" fill-opacity="0.99208224" points="197,267 158,273 176,301"/>
<polygon fill="rgb(227,229,231)" fill-opacity="0.99993145" points="177,146 62,167 48,154"/>
<polygon fill="rgb(247,244,243)" fill-opacity="1" points="195,267 49,276 124,299"/>
<polygon fill="rgb(176,84,77)" fill-opacity="1" points="268,270 273,313 259,270"/>
<polygon fill="rgb(202,162,152)" fill-opacity="1" points="129,317 165,317 133,323"/>
<polygon fill="rgb(159,112,105)" fill-opacity="1" points="366,336 354,392 383,362"/>
<polygon fill="rgb(137,145,165)" fill-opacity="1" points="55,43 83,45 127,102"/>
<polygon fill="rgb(29,21,33)" fill-opacity="1" points="330,362 255,511 201,511"/>
<polygon fill="rgb(224,228,229)" fill-opacity="1" points="86,233 100,217 28,223"/>
<polygon fill="rgb(129,103,102)" fill-opacity="1" points="443,387 448,358 450,389"/>
<polygon fill="rgb(158,109,96)" fill-opacity="1" points="284,357 244,409 278,374"/>
<polygon fill="rgb(128,135,147)" fill-opacity="1" points="360,23 334,40 346,80"/>
<polygon fill="rgb(192,151,137)" fill-opacity="1" points="242,359 270,365 241,376"/>
<polygon fill="rgb(237,239,238)" fill-opacity="1" points="123,213 105,243 48,255"/>
<polygon fill="rgb(68,26,29)" fill-opacity="1" points="282,266 276,284 284,321"/>
<polygon fill="rgb(213,175,170)" fill-opacity="1" points="128,336 131,332 124,316"/>
<polygon fill="rgb(122,137,150)" fill-opacity="1" points="495,66 511,0 423,0"/>
<polygon fill="rgb(150,102,86)" fill-opacity="1" points="343,248 321,254 325,217"/>
<polygon fill="rgb(31,30,37)" fill-opacity="1" points="326,466 347,415 374,500"/>
<polygon fill="rgb(244,243,243)" fill-opacity="1" points="172,218 149,211 219,194"/>
<polygon fill="rgb(248,244,243)" fill-opacity="1" points="183,237 202,275 119,323"/>
<polygon fill="rgb(204,197,201)" fill-opacity="1" points="126,351 108,349 105,356"/>
<polygon fill="rgb(61,74,106)" fill-opacity="1" points="49,363 113,326 107,318"/>
<polygon fill="rgb(81,35,34)" fill-opacity="1" points="282,336 308,386 291,453"/>
<polygon fill="rgb(101,58,56)" fill-opacity="1" points="288,344 296,417 272,432"/>
<polygon fill="rgb(131,91,84)" fill-opacity="1" points="350,203 351,176 400,175"/>
<polygon fill="rgb(122,127,137)" fill-opacity="1" points="343,89 342,77 359,94"/>
<polygon fill="rgb(149,103,80)" fill-opacity="1" points="267,259 260,268 275,220"/>
<polygon fill="rgb(113,76,73)" fill-opacity="1" points="337,161 328,171 401,217"/>
<polygon fill="rgb(245,244,243)" fill-opacity="1" points="128,239 164,262 210,221"/>
<polygon fill="rgb(220,221,223)" fill-opacity="1" points="227,176 162,174 216,173"/>
<polygon fill="rgb(88,115,111)" fill-opacity="0.95635736" points="89,21 137,40 231,28"/>
<polygon fill="rgb(170,123,113)" fill-opacity="1" points="144,363 146,334 116,345"/>
<polygon fill="rgb(170,51,53)" fill-opacity="1" points="258,278 283,265 277,282"/>
<polygon fill="rgb(215,218,222)" fill-opacity="1" points="284,111 284,108 204,120"/>
<polygon fill="rgb(102,66,65)" fill-opacity="1" points="266,220 286,181 293,195"/>
<polygon fill="rgb(98,48,44)" fill-opacity="1" points="257,237 242,288 252,220"/>
<polygon fill="rgb(241,239,238)" fill-opacity="1" points="18,511 204,511 207,496"/>
<polygon fill="rgb(233,228,223)" fill-opacity="1" points="185,348 159,367 115,367"/>
<polygon fill="rgb(138,44,48)" fill-opacity="1" points="350,268 368,288 378,266"/>
<polygon fill="rgb(216,220,221)" fill-opacity="1" points="187,174 115,177 87,181"/>
<polygon fill="rgb(142,100,87)" fill-opacity="1" points="383,210 351,226 374,245"/>
<polygon fill="rgb(242,241,239)" fill-opacity="1" points="209,326 189,427 130,374"/>
<polygon fill="rgb(224,229,225)" fill-opacity="1" points="511,148 408,135 434,205"/>
<polygon fill="rgb(121,63,54)" fill-opacity="1" points="231,297 241,261 244,267"/>
<polygon fill="rgb(145,21,28)" fill-opacity="0.9613186" points="277,305 264,306 250,345"/>
<polygon fill="rgb(217,219,223)" fill-opacity="1" points="281,123 202,121 178,140"/>
<polygon fill="rgb(164,111,91)" fill-opacity="1" points="291,284 312,224 312,246"/>
<polygon fill="rgb(245,242,241)" fill-opacity="1" points="213,224 214,264 207,242"/>
<polygon fill="rgb(211,211,214)" fill-opacity="1" points="335,446 324,398 342,443"/>
<polygon fill="rgb(212,217,217)" fill-opacity="1" points="68,201 85,207 70,208"/>
<polygon fill="rgb(115,15,20)" fill-opacity="1" points="351,221 368,268 343,260"/>
<polygon fill="rgb(115,65,55)" fill-opacity="1" points="321,291 345,253 351,273"/>
<polygon fill="rgb(180,143,137)" fill-opacity="1" points="276,137 257,180 270,168"/>
<polygon fill="rgb(159,115,103)" fill-opacity="1" points="337,162 356,127 380,194"/>
<polygon fill="rgb(218,220,221)" fill-opacity="1" points="153,157 219,149 242,142"/>
<polygon fill="rgb(187,154,141)" fill-opacity="1" points="406,135 375,152 358,119"/>
<polygon fill="rgb(222,221,225)" fill-opacity="1" points="240,168 187,157 182,166"/>
<polygon fill="rgb(88,46,39)" fill-opacity="1" points="223,304 253,267 236,293"/>
<polygon fill="rgb(220,224,225)" fill-opacity="1" points="102,203 92,209 61,198"/>
<polygon fill="rgb(191,153,144)" fill-opacity="1" points="229,239 227,244 213,270"/>
<polygon fill="rgb(217,217,220)" fill-opacity="1" points="215,130 151,136 190,140"/>
<polygon fill="rgb(134,141,155)" fill-opacity="1" points="186,91 230,97 174,75"/>
<polygon fill="rgb(135,73,60)" fill-opacity="1" points="240,272 232,288 238,266"/>
<polygon fill="rgb(165,125,108)" fill-opacity="1" points="407,149 373,186 396,130"/>
<polygon fill="rgb(172,111,92)" fill-opacity="1" points="225,253 215,278 230,260"/>
<polygon fill="rgb(237,238,238)" fill-opacity="1" points="93,251 69,233 106,241"/>
<polygon fill="rgb(237,239,237)" fill-opacity="1" points="90,258 41,253 95,241"/>
<polygon fill="rgb(247,239,238)" fill-opacity="1" points="121,311 153,317 124,315"/>
<polygon fill="rgb(143,98,89)" fill-opacity="1" points="336,160 346,150 356,182"/>
<polygon fill="rgb(226,230,230)" fill-opacity="1" points="106,159 103,148 107,165"/>
<polygon fill="rgb(104,65,61)" fill-opacity="1" points="389,303 389,290 370,299"/>
<polygon fill="rgb(195,148,128)" fill-opacity="1" points="231,229 238,239 244,183"/>
<polygon fill="rgb(238,239,239)" fill-opacity="1" points="121,209 138,198 73,217"/>
<polygon fill="rgb(242,241,242)" fill-opacity="1" points="214,202 231,189 179,200"/>
<polygon fill="rgb(216,181,169)" fill-opacity="1" points="276,137 260,173 240,179"/>
<polygon fill="rgb(228,230,228)" fill-opacity="1" points="511,142 511,313 418,160"/>
<polygon fill="rgb(147,90,75)" fill-opacity="1" points="245,216 243,253 246,246"/>
<polygon fill="rgb(144,149,167)" fill-opacity="1" points="187,23 241,87 269,92"/>
<polygon fill="rgb(180,128,106)" fill-opacity="1" points="306,227 312,237 290,257"/>
<polygon fill="rgb(181,124,100)" fill-opacity="1" points="243,233 225,262 234,238"/>
<polygon fill="rgb(148,110,99)" fill-opacity="1" points="402,137 416,166 377,178"/>
<polygon fill="rgb(214,215,220)" fill-opacity="1" points="274,101 265,129 277,137"/>
<polygon fill="rgb(243,242,240)" fill-opacity="1" points="47,448 190,418 107,352"/>
<polygon fill="rgb(171,124,118)" fill-opacity="1" points="330,52 279,79 283,44"/>
<polygon fill="rgb(220,221,220)" fill-opacity="1" points="487,396 400,407 407,472"/>
<polygon fill="rgb(226,230,231)" fill-opacity="1" points="56,162 0,154 17,191"/>
<polygon fill="rgb(114,64,57)" fill-opacity="1" points="278,208 278,238 264,214"/>
<polygon fill="rgb(111,59,51)" fill-opacity="1" points="251,254 247,245 250,226"/>
<polygon fill="rgb(173,124,111)" fill-opacity="1" points="150,326 180,317 128,323"/>
<polygon fill="rgb(248,246,245)" fill-opacity="1" points="0,302 52,368 34,295"/>
<polygon fill="rgb(138,52,52)" fill-opacity="1" points="291,387 294,378 266,269"/>
<polygon fill="rgb(205,213,215)" fill-opacity="1" points="110,141 130,136 159,104"/>
<polygon fill="rgb(250,245,245)" fill-opacity="1" points="131,320 91,307 188,266"/>
<polygon fill="rgb(155,102,94)" fill-opacity="1" points="159,335 154,336 169,316"/>
<polygon fill="rgb(151,103,97)" fill-opacity="1" points="289,194 295,154 304,181"/>
<polygon fill="rgb(143,94,76)" fill-opacity="1" points="407,221 386,182 415,160"/>
<polygon fill="rgb(40,40,62)" fill-opacity="0.99008375" points="344,442 333,445 328,458"/>
<polygon fill="rgb(79,23,25)" fill-opacity="1" points="339,405 339,362 302,381"/>
<polygon fill="rgb(124,77,72)" fill-opacity="1" points="268,210 290,202 285,213"/>
<polygon fill="rgb(124,0,16)" fill-opacity="1" points="331,333 355,338 312,379"/>
<polygon fill="rgb(242,235,235)" fill-opacity="1" points="262,280 257,277 260,315"/>
<polygon fill="rgb(244,243,242)" fill-opacity="1" points="133,241 184,205 173,244"/>
<polygon fill="rgb(226,226,227)" fill-opacity="1" points="255,140 218,180 271,136"/>
<polygon fill="rgb(247,244,243)" fill-opacity="1" points="83,337 156,254 171,247"/>
<polygon fill="rgb(219,224,223)" fill-opacity="1" points="74,228 48,229 34,257"/>
<polygon fill="rgb(94,67,62)" fill-opacity="1" points="447,283 417,210 429,193"/>
<polygon fill="rgb(94,54,54)" fill-opacity="1" points="168,339 149,355 149,353"/>
<polygon fill="rgb(247,243,244)" fill-opacity="1" points="150,299 218,246 216,263"/>
<polygon fill="rgb(113,67,62)" fill-opacity="1" points="334,287 365,288 325,292"/>
<polygon fill="rgb(96,9,15)" fill-opacity="1" points="284,351 301,377 287,328"/>
<polygon fill="rgb(243,240,239)" fill-opacity="1" points="215,404 226,305 255,281"/>
<polygon fill="rgb(220,223,226)" fill-opacity="1" points="157,127 148,142 171,144"/>
<polygon fill="rgb(241,242,242)" fill-opacity="1" points="156,208 104,230 152,225"/>
<polygon fill="rgb(203,202,205)" fill-opacity="1" points="126,317 116,321 119,326"/>
<polygon fill="rgb(249,246,245)" fill-opacity="1" points="210,261 178,300 163,308"/>
<polygon fill="rgb(132,23,28)" fill-opacity="1" points="288,231 261,270 260,264"/>
<polygon fill="rgb(144,51,49)" fill-opacity="1" points="258,322 265,305 273,301"/>
<polygon fill="rgb(164,108,86)" fill-opacity="1" points="305,249 291,303 283,295"/>
<polygon fill="rgb(105,116,131)" fill-opacity="1" points="225,0 272,31 84,0"/>
<polygon fill="rgb(138,99,96)" fill-opacity="1" points="240,196 256,177 263,176"/>
<polygon fill="rgb(227,228,231)" fill-opacity="1" points="230,159 244,130 262,145"/>
<polygon fill="rgb(104,70,70)" fill-opacity="1" points="337,159 347,203 359,212"/>
<polygon fill="rgb(141,21,27)" fill-opacity="1" points="279,314 253,342 266,301"/>
<polygon fill="rgb(176,127,112)" fill-opacity="1" points="202,284 230,250 154,327"/>
<polygon fill="rgb(105,51,46)" fill-opacity="1" points="254,244 247,253 240,284"/>
<polygon fill="rgb(171,114,95)" fill-opacity="1" points="213,283 224,268 187,302"/>
<polygon fill="rgb(87,43,43)" fill-opacity="1" points="249,223 254,235 253,224"/>
<polygon fill="rgb(220,221,221)" fill-opacity="1" points="238,139 230,138 227,147"/>
<polygon fill="rgb(202,210,213)" fill-opacity="1" points="254,104 193,106 138,123"/>
<polygon fill="rgb(226,229,230)" fill-opacity="1" points="131,171 133,142 147,152"/>
<polygon fill="rgb(234,227,229)" fill-opacity="1" points="270,250 267,241 257,260"/>
<polygon fill="rgb(222,220,219)" fill-opacity="0.99891484" points="412,355 417,299 413,284"/>
<polygon fill="rgb(88,48,47)" fill-opacity="1" points="367,309 369,287 387,293"/>
<polygon fill="rgb(157,162,179)" fill-opacity="1" points="85,49 78,58 66,45"/>
<polygon fill="rgb(136,17,25)" fill-opacity="1" points="346,136 312,157 271,250"/>
<polygon fill="rgb(152,110,104)" fill-opacity="1" points="112,346 104,350 139,339"/>
<polygon fill="rgb(249,244,243)" fill-opacity="1" points="148,296 154,309 118,324"/>
<polygon fill="rgb(137,62,71)" fill-opacity="0.85824865" points="207,305 182,404 207,305"/>
<polygon fill="rgb(240,240,240)" fill-opacity="1" points="147,210 117,213 134,228"/>
<polygon fill="rgb(249,245,245)" fill-opacity="1" points="230,225 178,297 124,321"/>
<polygon fill="rgb(117,70,77)" fill-opacity="1" points="287,88 287,111 315,84"/>
<polygon fill="rgb(124,129,148)" fill-opacity="1" points="248,42 267,86 226,51"/>
<polygon fill="rgb(95,20,21)" fill-opacity="1" points="344,114 317,147 360,116"/>
<polygon fill="rgb(170,44,44)" fill-opacity="1" points="286,327 266,328 284,332"/>
<polygon fill="rgb(125,26,25)" fill-opacity="1" points="339,378 363,342 357,359"/>
<polygon fill="rgb(183,70,72)" fill-opacity="1" points="268,277 267,263 260,276"/>
<polygon fill="rgb(94,18,21)" fill-opacity="1" points="324,307 389,305 386,347"/>
<polygon fill="rgb(119,64,54)" fill-opacity="1" points="247,258 249,225 246,241"/>
<polygon fill="rgb(114,69,60)" fill-opacity="1" points="313,288 323,205 309,277"/>
<polygon fill="rgb(176,183,195)" fill-opacity="1" points="142,106 77,112 164,97"/>
<polygon fill="rgb(115,68,57)" fill-opacity="1" points="309,289 303,290 314,272"/>
<polygon fill="rgb(191,157,152)" fill-opacity="1" points="266,146 266,164 276,137"/>
<polygon fill="rgb(101,97,125)" fill-opacity="0.96607196" points="150,19 172,64 190,46"/>
<polygon fill="rgb(38,22,36)" fill-opacity="1" points="329,107 297,99 320,94"/>
<polygon fill="rgb(225,228,229)" fill-opacity="1" points="112,179 39,192 113,189"/>
<polygon fill="rgb(101,67,62)" fill-opacity="1" points="383,192 380,259 391,244"/>
<polygon fill="rgb(110,61,57)" fill-opacity="1" points="293,123 315,151 306,104"/>
<polygon fill="rgb(223,225,226)" fill-opacity="1" points="155,186 110,188 227,173"/>
<polygon fill="rgb(151,104,85)" fill-opacity="1" points="405,157 401,203 385,171"/>
<polygon fill="rgb(48,28,29)" fill-opacity="1" points="386,185 393,228 397,211"/>
<polygon fill="rgb(25,22,32)" fill-opacity="1" points="314,194 305,215 321,217"/>
<polygon fill="rgb(102,59,50)" fill-opacity="1" points="400,219 417,259 386,180"/>
<polygon fill="rgb(172,130,114)" fill-opacity="1" points="351,170 359,114 380,180"/>
<polygon fill="rgb(243,242,240)" fill-opacity="1" points="125,246 41,262 149,255"/>
<polygon fill="rgb(171,144,139)" fill-opacity="1" points="253,342 250,347 232,392"/>
<polygon fill="rgb(244,243,242)" fill-opacity="1" points="134,265 125,241 159,262"/>
<polygon fill="rgb(243,240,239)" fill-opacity="1" points="241,337 164,345 220,313"/>
<polygon fill="rgb(215,154,145)" fill-opacity="1" points="263,271 275,265 262,267"/>
<polygon fill="rgb(249,246,245)" fill-opacity="1" points="153,319 169,303 149,297"/>
<polygon fill="rgb(247,243,243)" fill-opacity="1" points="233,215 226,235 169,216"/>
<polygon fill="rgb(62,28,32)" fill-opacity="1" points="338,186 331,179 353,226"/>
<polygon fill="rgb(83,55,55)" fill-opacity="1" points="319,249 311,214 313,216"/>
<polygon fill="rgb(247,245,243)" fill-opacity="1" points="65,288 45,269 97,270"/>
<polygon fill="rgb(167,106,89)" fill-opacity="1" points="215,270 232,254 211,283"/>
<polygon fill="rgb(71,43,44)" fill-opacity="1" points="356,460 396,385 400,430"/>
<polygon fill="rgb(246,243,244)" fill-opacity="1" points="229,223 215,247 182,228"/>
<polygon fill="rgb(230,233,233)" fill-opacity="1" points="53,196 102,189 155,203"/>
<polygon fill="rgb(240,219,214)" fill-opacity="1" points="132,318 145,312 125,323"/>
<polygon fill="rgb(237,238,239)" fill-opacity="1" points="205,196 214,191 91,211"/>
<polygon fill="rgb(87,19,61)" fill-opacity="0.92645216" points="214,446 216,437 230,484"/>
<polygon fill="rgb(191,133,111)" fill-opacity="0.9722557" points="263,282 274,302 263,304"/>
<polygon fill="rgb(220,222,224)" fill-opacity="1" points="225,157 241,165 133,160"/>
<polygon fill="rgb(226,227,226)" fill-opacity="1" points="283,511 318,392 297,429"/>
<polygon fill="rgb(213,173,151)" fill-opacity="1" points="248,161 246,185 241,171"/>
<polygon fill="rgb(58,36,44)" fill-opacity="1" points="308,288 316,292 324,271"/>
<polygon fill="rgb(183,125,102)" fill-opacity="1" points="233,235 246,227 229,262"/>
<polygon fill="rgb(246,244,245)" fill-opacity="1" points="181,223 201,198 206,265"/>
<polygon fill="rgb(217,219,221)" fill-opacity="1" points="229,159 213,155 229,167"/>
<polygon fill="rgb(181,189,204)" fill-opacity="1" points="44,364 57,347 83,338"/>
<polygon fill="rgb(126,77,70)" fill-opacity="1" points="347,216 360,226 355,218"/>
<polygon fill="rgb(119,54,53)" fill-opacity="1" points="299,154 289,155 289,166"/>
<polygon fill="rgb(101,53,50)" fill-opacity="1" points="326,135 316,152 288,110"/>
<polygon fill="rgb(112,70,68)" fill-opacity="1" points="302,71 277,73 292,115"/>
<polygon fill="rgb(231,234,235)" fill-opacity="1" points="116,181 186,177 60,188"/>
<polygon fill="rgb(249,245,244)" fill-opacity="0.99899936" points="146,315 140,315 135,288"/>
<polygon fill="rgb(150,20,26)" fill-opacity="1" points="283,266 281,227 299,217"/>
<polygon fill="rgb(74,88,113)" fill-opacity="1" points="0,39 74,5 215,59"/>
<polygon fill="rgb(175,128,115)" fill-opacity="1" points="252,394 284,354 280,348"/>
<polygon fill="rgb(117,66,74)" fill-opacity="1" points="295,114 313,120 316,113"/>
<polygon fill="rgb(205,211,215)" fill-opacity="1" points="178,107 281,109 219,117"/>
<polygon fill="rgb(118,129,145)" fill-opacity="1" points="0,82 81,99 0,109"/>
<polygon fill="rgb(201,160,147)" fill-opacity="1" points="277,356 280,330 246,381"/>
<polygon fill="rgb(219,224,222)" fill-opacity="0.9671926" points="42,465 82,477 65,490"/>
<polygon fill="rgb(32,26,43)" fill-opacity="1" points="222,407 269,446 206,511"/>
<polygon fill="rgb(158,114,98)" fill-opacity="1" points="349,369 372,340 370,393"/>
<polygon fill="rgb(177,124,104)" fill-opacity="1" points="193,293 171,324 195,302"/>
<polygon fill="rgb(248,245,245)" fill-opacity="1" points="195,239 220,223 214,203"/>
<polygon fill="rgb(152,105,95)" fill-opacity="1" points="377,225 357,221 361,241"/>
<polygon fill="rgb(190,197,206)" fill-opacity="1" points="251,101 189,101 205,102"/>
<polygon fill="rgb(134,85,79)" fill-opacity="1" points="283,390 291,371 282,351"/>
<polygon fill="rgb(245,239,242)" fill-opacity="0.99316084" points="262,289 248,282 242,364"/>
<polygon fill="rgb(246,243,242)" fill-opacity="1" points="132,264 135,256 123,257"/>
<polygon fill="rgb(211,213,219)" fill-opacity="1" points="263,130 248,128 284,111"/>
<polygon fill="rgb(162,83,73)" fill-opacity="1" points="272,240 268,261 278,229"/>
<polygon fill="rgb(137,91,83)" fill-opacity="1" points="297,157 279,171 280,187"/>
<polygon fill="rgb(193,139,119)" fill-opacity="1" points="204,304 239,251 238,245"/>
<polygon fill="rgb(110,69,64)" fill-opacity="1" points="225,417 250,437 259,413"/>
<polygon fill="rgb(104,18,22)" fill-opacity="1" points="269,320 286,321 270,329"/>
<polygon fill="rgb(245,241,242)" fill-opacity="1" points="259,265 256,327 237,337"/>
<polygon fill="rgb(181,53,53)" fill-opacity="1" points="281,328 277,329 283,334"/>
<polygon fill="rgb(242,241,239)" fill-opacity="1" points="122,348 110,412 201,409"/>
<polygon fill="rgb(229,231,232)" fill-opacity="1" points="185,192 82,200 215,185"/>
<polygon fill="rgb(140,110,102)" fill-opacity="1" points="406,144 426,184 432,204"/>
<polygon fill="rgb(190,185,201)" fill-opacity="1" points="261,96 279,102 269,97"/>
<polygon fill="rgb(64,47,57)" fill-opacity="1" points="325,122 326,28 335,124"/>
<polygon fill="rgb(215,219,220)" fill-opacity="0.998549" points="218,156 219,158 248,156"/>
<polygon fill="rgb(71,38,39)" fill-opacity="1" points="303,223 313,224 301,219"/>
<polygon fill="rgb(156,119,113)" fill-opacity="1" points="306,219 301,216 306,220"/>
<polygon fill="rgb(246,243,242)" fill-opacity="1" points="159,266 111,270 188,254"/>
<polygon fill="rgb(190,205,220)" fill-opacity="1" points="62,123 116,120 62,123"/>
<polygon fill="rgb(83,24,31)" fill-opacity="1" points="386,355 390,321 383,317"/>
<polygon fill="rgb(63,33,38)" fill-opacity="1" points="330,112 306,125 334,135"/>
<polygon fill="rgb(183,164,184)" fill-opacity="0.9017918" points="0,247 0,242 0,247"/>
<polygon fill="rgb(245,240,241)" fill-opacity="0.9963783" points="210,322 261,316 238,350"/>
<polygon fill="rgb(244,239,242)" fill-opacity="1" points="236,368 259,313 262,299"/>
<polygon fill="rgb(49,54,82)" fill-opacity="1" points="118,352 121,326 125,333"/>
<polygon fill="rgb(240,238,236)" fill-opacity="1" points="219,329 134,363 217,331"/>
<polygon fill="rgb(134,142,159)" fill-opacity="1" points="287,108 257,90 268,93"/>
<polygon fill="rgb(87,46,45)" fill-opacity="1" points="359,284 348,259 347,295"/>
<polygon fill="rgb(212,217,218)" fill-opacity="1" points="61,167 92,165 96,168"/>
<polygon fill="rgb(105,65,60)" fill-opacity="1" points="266,227 266,220 290,193"/>
<polygon fill="rgb(216,220,223)" fill-opacity="1" points="154,177 169,174 158,176"/>
<polygon fill="rgb(193,200,207)" fill-opacity="1" points="414,148 511,86 351,77"/>
<polygon fill="rgb(239,237,239)" fill-opacity="1" points="224,408 233,313 208,409"/>
<polygon fill="rgb(227,232,229)" fill-opacity="1" points="89,228 100,225 108,215"/>
<polygon fill="rgb(245,243,243)" fill-opacity="1" points="173,257 175,256 201,232"/>
<polygon fill="rgb(108,11,15)" fill-opacity="1" points="301,378 359,343 327,377"/>
<polygon fill="rgb(235,237,236)" fill-opacity="1" points="93,251 104,247 3,260"/>
<polygon fill="rgb(229,231,230)" fill-opacity="1" points="119,189 108,203 113,203"/>
<polygon fill="rgb(74,23,22)" fill-opacity="1" points="381,266 390,279 370,299"/>
<polygon fill="rgb(241,241,241)" fill-opacity="1" points="113,231 105,238 104,223"/>
<polygon fill="rgb(135,86,81)" fill-opacity="1" points="199,311 150,331 159,343"/>
<polygon fill="rgb(230,231,230)" fill-opacity="1" points="108,470 162,511 6,473"/>
<polygon fill="rgb(71,85,109)" fill-opacity="1" points="83,21 181,18 189,45"/>
<polygon fill="rgb(161,102,80)" fill-opacity="1" points="242,231 242,243 244,245"/>
<polygon fill="rgb(156,160,177)" fill-opacity="1" points="267,96 240,75 284,106"/>
<polygon fill="rgb(191,200,207)" fill-opacity="1" points="126,113 172,100 125,107"/>
<polygon fill="rgb(250,246,246)" fill-opacity="1" points="46,322 155,288 154,308"/>
<polygon fill="rgb(154,110,101)" fill-opacity="1" points="114,350 144,334 125,350"/>
<polygon fill="rgb(242,236,239)" fill-opacity="0.984535" points="237,303 240,307 251,274"/>
<polygon fill="rgb(221,222,224)" fill-opacity="1" points="266,142 249,137 281,120"/>
<polygon fill="rgb(216,219,220)" fill-opacity="0.9945051" points="225,161 216,165 204,169"/>
<polygon fill="rgb(216,203,214)" fill-opacity="1" points="420,150 449,141 434,136"/>
<polygon fill="rgb(250,246,247)" fill-opacity="1" points="122,324 145,306 125,310"/>
<polygon fill="rgb(17,17,28)" fill-opacity="1" points="246,225 277,197 280,146"/>
<polygon fill="rgb(125,134,153)" fill-opacity="1" points="50,41 92,53 74,39"/>
<polygon fill="rgb(140,86,72)" fill-opacity="0.99810225" points="343,264 327,218 342,248"/>
<polygon fill="rgb(91,15,18)" fill-opacity="1" points="352,134 325,134 345,139"/>
<polygon fill="rgb(224,227,227)" fill-opacity="1" points="127,169 154,162 71,173"/>
<polygon fill="rgb(219,220,223)" fill-opacity="1" points="181,140 127,145 184,121"/>
<polygon fill="rgb(17,16,31)" fill-opacity="1" points="331,464 354,511 404,453"/>
<polygon fill="rgb(162,110,99)" fill-opacity="1" points="279,262 291,302 293,303"/>
<polygon fill="rgb(210,215,218)" fill-opacity="1" points="174,107 142,114 224,107"/>
<polygon fill="rgb(244,243,243)" fill-opacity="1" points="196,221 185,197 134,211"/>
<polygon fill="rgb(132,141,156)" fill-opacity="1" points="378,67 459,0 492,80"/>
<polygon fill="rgb(82,46,45)" fill-opacity="1" points="354,219 344,211 370,203"/>
<polygon fill="rgb(250,246,245)" fill-opacity="1" points="120,325 177,280 147,264"/>
<polygon fill="rgb(135,87,74)" fill-opacity="1" points="439,354 411,386 427,335"/>
<polygon fill="rgb(132,86,72)" fill-opacity="1" points="405,233 409,149 422,179"/>
<polygon fill="rgb(248,244,246)" fill-opacity="1" points="236,197 201,212 225,226"/>
<polygon fill="rgb(83,59,58)" fill-opacity="1" points="445,391 431,318 446,263"/>
<polygon fill="rgb(241,240,242)" fill-opacity="1" points="218,200 212,193 220,203"/>
<polygon fill="rgb(38,36,58)" fill-opacity="0.9991232" points="292,31 270,43 333,45"/>
<polygon fill="rgb(237,240,228)" fill-opacity="0.91418016" points="192,368 207,330 192,368"/>
<polygon fill="rgb(162,115,97)" fill-opacity="1" points="322,225 341,247 320,239"/>
<polygon fill="rgb(74,26,30)" fill-opacity="1" points="377,276 380,265 374,269"/>
<polygon fill="rgb(149,158,171)" fill-opacity="1" points="20,103 0,112 54,112"/>
<polygon fill="rgb(162,119,100)" fill-opacity="1" points="399,160 370,190 393,148"/>
<polygon fill="rgb(82,12,14)" fill-opacity="1" points="304,319 298,327 371,324"/>
<polygon fill="rgb(57,32,37)" fill-opacity="0.99983793" points="299,86 283,75 305,72"/>
<polygon fill="rgb(207,214,216)" fill-opacity="1" points="170,131 95,116 123,135"/>
<polygon fill="rgb(233,228,236)" fill-opacity="0.9936066" points="143,441 210,496 173,480"/>
<polygon fill="rgb(165,168,185)" fill-opacity="1" points="226,90 259,95 225,98"/>
<polygon fill="rgb(234,237,237)" fill-opacity="1" points="69,230 87,248 97,241"/>
<polygon fill="rgb(133,78,58)" fill-opacity="1" points="244,259 247,241 246,225"/>
<polygon fill="rgb(223,255,243)" fill-opacity="1" points="103,230 97,205 103,230"/>
<polygon fill="rgb(236,233,232)" fill-opacity="1" points="197,339 222,313 253,277"/>
<polygon fill="rgb(241,239,239)" fill-opacity="1" points="209,499 182,429 47,462"/>
<polygon fill="rgb(246,244,242)" fill-opacity="1" points="147,276 137,288 134,285"/>
<polygon fill="rgb(208,213,196)" fill-opacity="0.9878476" points="219,378 227,318 219,378"/>
<polygon fill="rgb(235,229,229)" fill-opacity="1" points="235,187 236,198 234,186"/>
<polygon fill="rgb(240,239,238)" fill-opacity="1" points="202,401 229,327 215,447"/>
<polygon fill="rgb(240,238,241)" fill-opacity="1" points="233,386 175,446 225,407"/>
<polygon fill="rgb(245,243,244)" fill-opacity="1" points="190,233 181,206 199,197"/>
<polygon fill="rgb(218,222,223)" fill-opacity="1" points="65,189 84,179 58,183"/>
<polygon fill="rgb(159,165,176)" fill-opacity="1" points="267,30 445,3 242,0"/>
<polygon fill="rgb(46,39,50)" fill-opacity="1" points="160,350 145,357 147,334"/>
<polygon fill="rgb(245,244,244)" fill-opacity="1" points="69,346 48,347 56,307"/>
<polygon fill="rgb(189,140,134)" fill-opacity="0.9770347" points="246,374 252,332 246,368"/>
<polygon fill="rgb(247,244,245)" fill-opacity="1" points="206,200 201,227 223,209"/>
<polygon fill="rgb(131,14,23)" fill-opacity="1" points="287,147 345,214 295,133"/>
<polygon fill="rgb(182,144,125)" fill-opacity="1" points="390,163 358,133 378,173"/>
<polygon fill="rgb(176,118,101)" fill-opacity="1" points="222,291 231,273 205,302"/>
<polygon fill="rgb(176,122,105)" fill-opacity="1" points="172,318 217,266 174,321"/>
<polygon fill="rgb(124,76,69)" fill-opacity="1" points="296,376 290,368 244,425"/>
<polygon fill="rgb(153,161,177)" fill-opacity="1" points="121,97 104,108 76,73"/>
<polygon fill="rgb(223,228,228)" fill-opacity="0.99656105" points="156,188 153,191 158,188"/>
<polygon fill="rgb(238,239,239)" fill-opacity="1" points="85,230 87,232 93,233"/>
<polygon fill="rgb(191,197,206)" fill-opacity="1" points="181,116 184,111 178,113"/>
<polygon fill="rgb(97,63,64)" fill-opacity="0.9873177" points="332,171 360,189 329,173"/>
<polygon fill="rgb(159,100,81)" fill-opacity="1" points="285,304 284,298 290,256"/>
<polygon fill="rgb(242,241,241)" fill-opacity="1" points="90,345 104,401 93,345"/>
<polygon fill="rgb(119,126,140)" fill-opacity="1" points="156,69 196,51 236,89"/>
<polygon fill="rgb(185,193,203)" fill-opacity="0.9972836" points="511,104 338,111 369,76"/>
<polygon fill="rgb(128,78,64)" fill-opacity="1" points="317,258 308,277 304,269"/>
<polygon fill="rgb(240,240,240)" fill-opacity="1" points="148,212 141,216 86,208"/>
<polygon fill="rgb(154,106,88)" fill-opacity="1" points="240,213 246,223 247,228"/>
<polygon fill="rgb(151,99,89)" fill-opacity="1" points="158,335 198,312 205,304"/>
<polygon fill="rgb(247,245,244)" fill-opacity="1" points="208,254 158,252 203,244"/>
<polygon fill="rgb(108,72,73)" fill-opacity="1" points="247,201 241,216 245,196"/>
<polygon fill="rgb(158,117,103)" fill-opacity="1" points="371,154 366,157 347,142"/>
<polygon fill="rgb(236,237,238)" fill-opacity="1" points="65,428 177,452 186,434"/>
<polygon fill="rgb(182,188,197)" fill-opacity="1" points="335,96 370,120 348,112"/>
<polygon fill="rgb(243,242,241)" fill-opacity="1" points="79,347 105,350 167,413"/>
<polygon fill="rgb(213,217,219)" fill-opacity="1" points="35,127 6,124 70,119"/>
<polygon fill="rgb(182,142,123)" fill-opacity="1" points="376,160 368,125 357,141"/>
<polygon fill="rgb(248,245,243)" fill-opacity="1" points="164,280 76,287 194,258"/>
<polygon fill="rgb(86,51,49)" fill-opacity="1" points="321,390 342,439 381,449"/>
<polygon fill="rgb(110,122,139)" fill-opacity="1" points="129,85 97,57 174,95"/>
<polygon fill="rgb(244,243,242)" fill-opacity="1" points="163,225 183,220 179,211"/>
<polygon fill="rgb(178,136,134)" fill-opacity="1" points="197,280 219,261 195,286"/>
<polygon fill="rgb(248,244,243)" fill-opacity="1" points="167,270 105,304 202,260"/>
<polygon fill="rgb(218,223,225)" fill-opacity="1" points="157,176 156,171 156,176"/>
<polygon fill="rgb(115,67,58)" fill-opacity="1" points="326,292 355,306 317,244"/>
<polygon fill="rgb(219,220,224)" fill-opacity="1" points="219,121 272,126 260,121"/>
<polygon fill="rgb(115,77,71)" fill-opacity="1" points="378,220 369,211 387,174"/>
<polygon fill="rgb(220,215,209)" fill-opacity="1" points="150,361 170,339 153,361"/>
<polygon fill="rgb(115,70,66)" fill-opacity="1" points="324,216 333,223 331,235"/>
<polygon fill="rgb(247,243,243)" fill-opacity="0.9927511" points="154,290 152,294 119,325"/>
<polygon fill="rgb(154,104,93)" fill-opacity="1" points="138,324 168,325 149,330"/>
<polygon fill="rgb(213,217,219)" fill-opacity="1" points="194,139 147,125 201,121"/>
<polygon fill="rgb(146,33,40)" fill-opacity="1" points="328,175 308,187 316,176"/>
<polygon fill="rgb(244,243,243)" fill-opacity="1" points="185,224 160,230 188,238"/>
<polygon fill="rgb(97,66,60)" fill-opacity="1" points="221,308 204,317 225,305"/>
</svg>